<?xml version="1.0" encoding="UTF-8" standalone="no"?>
<svg id="svg4160" xmlns:rdf="http://www.w3.org/1999/02/22-rdf-syntax-ns#" xmlns="http://www.w3.org/2000/svg" height="2794" viewBox="0 0 2901 2794" width="2901" version="1.1" xmlns:cc="http://creativecommons.org/ns#" xmlns:dc="http://purl.org/dc/elements/1.1/">
<g id="g4181">
<g>
<path id="path4179" fill="#ff00a2" d="m1328.9 2793.6c-0.2439-0.2438-53.756-0.6378-118.92-0.8754-118.47-0.4319-128.97-0.7474-128.97-3.8724 0-0.5969-1.054-0.761-2.522-0.3925-1.7677 0.4436-2.6969 0.177-3.1069-0.8916-0.3652-0.9516-1.8603-1.5246-3.9781-1.5246-2.3493 0-3.393-0.4614-3.393-1.5 0-0.9239-0.938-1.5-2.4422-1.5-5.8873 0-26.444-15.904-35.373-27.367-9.7875-12.565-16.207-28.852-18.114-45.958-0.7141-6.4042-1.0701-61.006-1.0701-164.14v-154.54h41.5 41.5v5c0 2.75-0.45 5-1 5s-1 0.675-1 1.5 0.45 1.5 1 1.5c0.6623 0 1 51 1 151v151h361 361v-343.5-343.5l-45.75-0.031c-34.112-0.023-57.197-0.6265-90.75-2.3711-24.75-1.2868-46.46-2.1221-48.243-1.8561-1.7839 0.266-4.8214 0.1876-6.75-0.1742l-3.5066-0.6578v-38.846-38.846l2.5775-0.6469c2.2373-0.5615 87.158-1.0476 171.92-0.984 48.049 0.036 62.059 7.1747 91.603 46.674l11.891 15.898 0.0006 364.45 0.0007 364.45-6.9976 9.3096c-3.8487 5.1203-6.9976 9.8195-6.9976 10.443 0 4.7045-19.027 24.801-29.5 31.158-2.2 1.3353-4.225 2.6767-4.5 2.9807-1.1728 1.2966-6.945 4.0528-8.4878 4.0528-0.9235 0-5.3353 2.25-9.8039 5l-8.1247 5h-247.63c-136.19 0-247.82-0.1996-248.07-0.4435z"/>
<path id="path4177" fill="#ae00ff" d="m2074 2358.8c-20.625-0.4442-60.531-0.8138-88.68-0.8214l-51.18-0.014-0.3201-2.2538c-0.176-1.2395-1.2976-2.6829-2.4924-3.2074-2.6809-1.177-2.9345-2.3876-4.42-21.1-1.1492-14.475-1.0881-15.83 1.5901-35.25l2.7851-20.196h81.359c58.728 0 81.359 0.3074 81.359 1.105 0 0.7318 1.4355 0.8932 4.25 0.4777 6.7861-1.0018 19.948-1.4134 115.75-3.6202 49.775-1.1466 91.962-2.3026 93.75-2.5689l3.25-0.4842v-343.45-343.45h-92.5-92.5v-44-44l51.75 0.036c60.793 0.043 107.58 1.3146 125.75 3.419 7.15 0.8283 15.25 1.5168 18 1.5302 26.018 0.1267 68.586 42.608 72.663 72.515 1.3041 9.5656 1.3999 702.07 0.098 709.5-2.8568 16.305-28.98 56-36.853 56-0.4357 0-4.1932 2.2008-8.35 4.8906-4.1569 2.6899-10.708 5.9067-14.558 7.1485s-7.2808 2.6883-7.6239 3.2144c-0.3432 0.5261-3.6057 1.1959-7.25 1.4884-3.6444 0.2926-6.6261 0.9668-6.6261 1.4982 0 0.5971-7.7384 0.884-20.25 0.7509-11.138-0.1185-34.875 0.272-52.75 0.8677-36.354 1.2116-109.32 1.2046-166-0.016z"/>
<path id="path4175" fill="#ae00ff" d="m1618 2358c-11.275-0.4596-21.738-0.6081-23.25-0.33-1.6139 0.2968-2.75 0.06-2.75-0.5737 0-0.5937-1.3579-1.0795-3.0174-1.0795-27.933 0-59.599-25.721-77.134-62.654l-5.849-12.32v-207.36-207.36l12.75-0.6502c16.353-0.834 51.732-0.8457 61.496-0.02l7.5479 0.6381 1.0889 5.6119c3.2314 16.655 5.0462 120.73 5.0897 291.89 0.022 84.937 0.2876 107.36 1.2773 107.66 3.3102 1.0056 89.476 4.7782 105.5 4.6191 12.3-0.1221 18.25 0.1644 18.25 0.8786 0 1.3447 3.6757 1.3935 4.5 0.06 1.0028-1.6226 8.203-1.2163 8.8616 0.5 0.766 1.9962 4.6384 1.9514 4.6384-0.054 0-1.3665 2.8316-1.5294 23.511-1.3522l23.511 0.2014-0.2611 40.602-0.2611 40.602-40 0.1763c-22 0.097-54.625 0.3937-72.5 0.6594-17.875 0.2658-41.725 0.1072-53-0.3525z"/>
<path id="path4173" fill="#0600ff" d="m586.78 2357.5c-0.39756-0.4074-4.2226-1.3492-8.5-2.093-5.4111-0.9409-10.843-2.876-17.855-6.3605-5.5427-2.7544-10.601-5.0081-11.242-5.0081-0.64013 0-1.7259-0.9-2.4129-2-0.68696-1.1-1.9283-2.0026-2.7585-2.0057-1.8595-0.01-13.009-9.7584-13.009-11.378 0-1.3196-3.5309-4.6167-4.944-4.6167-0.50665 0-1.241-1.0125-1.6318-2.25-0.39084-1.2375-2.1314-4.05-3.868-6.25-9.4329-11.95-15.192-26.491-15.844-40-0.53531-11.1 0.51291-406.31 1.08-407.2 0.55727-0.8767 11.155-1.3886 39.485-1.9073l38.723-0.709v3.6573c0 2.0114-0.45 3.6572-1 3.6572-1.3074 0-1.3057 10.731 0.002 11.167 2.003 0.6677 6.0179 192.4 5.9851 285.83-0.0165 47.025-0.0203 88.988-0.008 93.25l0.02 7.8h358.5 358.5l0.069-15.25c0.038-8.3875 0.023-31.225-0.033-50.75-0.069-23.983 0.72-53.812 2.431-91.942 1.3931-31.043 2.5328-58.831 2.5328-61.75v-5.3079h41.5 41.5v117.57 117.57l-7.4385 14.464c-12.305 23.927-22.007 35.593-39.208 47.146-11.885 7.9824-13.641 8.792-22.354 10.304-4.125 0.7159-7.725 1.6083-8 1.983-1.8813 2.5634-3.277 2.5749-282 2.3094-84.425-0.08-219.65 0.078-300.5 0.3521-80.85 0.274-147.33 0.165-147.72-0.2423z"/>
<path id="path4171" fill="#ff00a2" d="m1012.9 2243.3c-1.0145-0.273-1.5758-1.5638-1.5803-3.634 0-1.7659-0.5887-21.211-1.2996-43.211-2.3616-73.079-0.5588-173.32 3.4801-193.5 4.8596-24.284 24.326-47.888 50.213-60.886 14.536-7.2982 32.299-8.5843 107.26-7.7657 29.975 0.3273 110.41 0.5876 178.75 0.5784l124.25-0.017v39.971 39.971l-27.75 0.019c-15.262 0.01-60.6 0.9401-100.75 2.066-53.429 1.4983-96.928 2.0492-162.25 2.055l-89.25 0.01v112.5 112.5l-39.75-0.116c-21.862-0.064-40.458-0.3065-41.323-0.5393z"/>
<path id="path4169" fill="#0600ff" d="m1313 1899.6c0-0.7791-0.4259-1.5666-0.9464-1.75-3.7781-1.3307-5.0293-41.969-5.74-186.43l-0.6252-127.09-70.094-0.6387c-41.108-0.3746-75.47-1.1349-83.094-1.8387-7.15-0.6601-16.038-1.1438-19.75-1.0751-3.7125 0.069-6.7921-0.1865-6.8435-0.5673-0.051-0.3808-0.2176-2.7174-0.3692-5.1924s-0.7756-7.65-1.3867-11.5c-1.5896-10.016-1.406-37.227 0.3289-48.737 0.8072-5.3554 1.2239-10.372 0.9259-11.149-0.8268-2.1547 1.5007-3.0827 8.0946-3.2275 3.3-0.072 12.975-0.905 21.5-1.8501 31.557-3.4985 133.1-3.13 159.93 0.5803 25.625 3.5439 65.182 36.485 71.908 59.883 0.7116 2.475 2.6273 7.2 4.2571 10.5l2.9635 6-0.028 161.39c-0.027 152.51-0.1245 161.46-1.7782 162.72-2.6795 2.034-79.25 2.0102-79.25-0.025z"/>
<path id="path4167" fill="#0f0" d="m219.5 1838c-54.496-0.705-74.26-1.3024-101.99-3.0828-8.7926-0.5646-20.867-1.1396-26.831-1.2779-6.0246-0.1396-11.142-0.7075-11.513-1.2778-0.36794-0.5646-3.1668-1.313-6.2198-1.6632-11.315-1.3-27.768-9.7-36.45-18.6-1.65-1.6867-3.5089-3.0793-4.1309-3.0946-1.366 0-9.369-8.8-9.369-10.2 0-0.5698-1.7718-2.9582-3.9374-5.3076-2.1656-2.3493-5.0928-6.5515-6.5048-9.3381-1.4121-2.7865-4.5857-8.1864-7.0525-12l-4.4851-6.9333-0.26007-106.84c-0.82124-337.38 0.5039-606.45 2.9957-608.28 0.42201-0.3094 1.5302-4.3419 2.4627-8.961 3.8104-18.875 31.789-48.83 55.158-59.054 2.2682-0.99237 6.374-2.8498 9.124-4.1277l5-2.3234 369 0.30043 369 0.30044 11 3.5838c24.93 8.1221 46.972 28.948 60.266 56.941 4.0632 8.556 3.4838 3.304 6.2089 56.278 2.0079 39.032 2.992 120.07 3.0086 247.75l0.02 128.2h-44-44v-205-205h-358.49-358.49l-0.25964 150.25c-0.1428 82.638-0.14375 237.21-0.0021 343.5l0.25754 193.25h358.49 358.49v-67.5-67.5h41.43 41.43l0.31955 2.25c0.20536 1.446 1.1236 2.3642 2.5696 2.5696l2.25 0.3195-0.0304 41.68c-0.0595 81.481-1.5122 100.48-8.8548 115.79-11.948 24.918-29.107 41.922-55.615 55.113l-10 4.9762-203.5 2.684c-198.56 2.6188-288.66 2.9786-396.5 1.5836z"/>
<path id="path4165" fill="#00ffae" d="m1145.5 1838.3c-68.561-1.3507-88.955-8.8076-115.78-42.333-19.51-24.385-18.027-8.1353-18.44-202.01l-0.3485-163.54 38.888-0.2689c21.389-0.1479 40.078 0.03 41.531 0.3943l2.6423 0.6632 0.2531 157.64 0.2531 157.64 39 2.1822c29.832 1.6693 50.902 2.1987 89.633 2.2521l50.633 0.07 0.603 2.25c0.3317 1.2375 0.6091 19.816 0.6166 41.285l0.014 39.035-49.25 2.7469c-27.088 1.5108-53.3 2.6345-58.25 2.4973-4.95-0.1373-14.85-0.3649-22-0.5058z"/>
<path id="path4163" fill="#01a8ff" d="m2154.5 1838.3c-59.056-1.395-77.175-4.3016-95.51-15.321-18.144-10.905-27.145-20.342-42.864-44.942l-10.1-15.8v-165.9-165.9l41.365-0.2542c22.751-0.1398 42.55 0.043 43.997 0.4063l2.6316 0.6605 0.2531 157.64 0.2531 157.64 40.5 2.1791c31.294 1.6837 52.832 2.1952 94.75 2.25l54.25 0.071v41.306 41.306l-53.75 2.7291c-29.562 1.501-56.225 2.6177-59.25 2.4816-3.025-0.1362-10.45-0.3645-16.5-0.5074z"/>
<path id="path4161" fill="#00ffae" d="m1479.5 1837c-44.443-1.027-53.866-2.1731-55.611-6.7635-3.1343-8.2438-3.3159-34.494-0.3954-57.155l2.8419-22.052 102.58 0.031c93.487 0.028 271.95-2.8908 283.83-4.6423l3.25-0.4792v-65.278-65.278l41.25 0.073 41.25 0.073-0.014 67c-0.018 89.835-1.9287 98.467-27.113 122.5-1.4409 1.375-4.2952 4.1875-6.3431 6.25-2.0478 2.0625-4.0421 3.75-4.4318 3.75-0.3896 0-3.4428 1.8569-6.7847 4.1263-16.364 11.112-27.366 14.278-55.063 15.84-47.535 2.681-238.18 3.8782-319.25 2.0048z"/>
<path id="path4159" fill="#01a8ff" d="m2487.5 1837c-33.738-0.7666-38.66-1.0764-51.842-3.2631-9.2218-1.5297-8.7904 0.5111-9.4124-44.532l-0.5282-38.25 102.89 0.033c93.098 0.03 271.34-2.9176 280.14-4.6331l2.25-0.4384v-343.48-343.48h-128c-84.667 0-128-0.3385-128-1 0-0.55-0.8734-1-1.941-1-1.0675 0-2.2191 0.45-2.559 1-0.4008 0.6485-21.51 1-60.059 1h-59.441v-11c0-6.6667 0.3939-11 1-11 0.55 0 1-0.9 1-2s-0.4104-2-0.9121-2c-0.5254 0-0.9591-12.043-1.0231-28.408l-0.111-28.408 8.7731-0.77613c10.386-0.9188 82.32-0.90692 264.2 0.0436l133.42 0.69731 6.576 6.2617c3.6168 3.4439 10.176 8.9799 14.576 12.302 21.5 16.234 33.537 35.444 39.048 62.317 2.769 13.502 3.4991 150.26 2.3449 439.25l-1.0496 262.78-7.0547 14.724c-3.8801 8.0981-8.7948 16.829-10.922 19.403-2.1268 2.5737-3.8669 5.2311-3.8669 5.9055 0 1.9201-15.758 16.816-18.523 17.51-1.3623 0.342-2.477 1.0229-2.477 1.5133s-0.424 0.8916-0.9422 0.8916c-0.5183 0-3.8502 1.8232-7.4042 4.0516-15.121 9.4806-24.941 11.26-71.654 12.983-35.132 1.2958-243.78 2.0266-288.5 1.0104z"/>
<path id="path4157" fill="#0600ff" d="m504.15 1715.2c-2.6108-9.7166-0.77162-130.58 2.2036-144.82 7.0102-33.534 45.55-67.92 78.193-69.764 6.5767-0.3715 18.483-1.1297 26.458-1.6851 23.436-1.632 131.22-2.8901 251.12-2.9311h111.62l0.625 3.125c0.80076 4.0038 0.79592 79.635-0.005 82.625l-0.60297 2.25h-192.27-192.27l-0.58486 40.25c-0.41619 28.642-1.2426 48.181-2.8657 67.75l-2.2808 27.5h-39.104-39.104l-1.1458-4.2644z"/>
<path id="path4155" fill="#ae00ff" d="m1527.4 1719.3-19.092-0.3035-1.4077-2.6317c-2.2613-4.2276-1.9774-122.92 0.3274-136.91 5.9008-35.805 41.462-74.296 73.392-79.438 14.422-2.3225 392.54-6.0655 393.57-3.8959 0.6263 1.3183 1.1714 84.915 0.5537 84.914-0.4125-0.0005-0.75 0.673-0.75 1.4966 0 1.3238-22.064 1.5267-190.25 1.75l-190.25 0.2526-1.8043 21.5c-1.1681 13.92-2.0495 37.718-2.5 67.5l-0.6957 46-21 0.033c-11.55 0.018-29.592-0.1041-40.092-0.2711z"/>
<path id="path4153" fill="#00ffae" d="m1837 1468.3c-1.925-0.185-6.2811-0.5955-9.6801-0.9121-4.1239-0.3842-6.952-1.2451-8.5-2.5875l-2.3199-2.0119-0.3207-201.92-0.3208-201.92h-11.929c-7.2862 0-11.929-0.3892-11.929-1 0-0.55-0.675-1-1.5-1s-1.5 0.45-1.5 1c0 0.663-61.167 1-181.5 1h-181.5v-42.163-42.163l46.664 0.66314c25.6 0.36 116.7 0.66 202.2 0.66h155.61l11.51 7.25c27.361 17.235 33.508 23.287 49.272 48.513l7.6634 12.263v212.49 212.49l-29.25-0.16c-16.088-0.088-30.825-0.3114-32.75-0.4964z"/>
<path id="path4151" fill="#ffa800" d="m987.5 1397.9c-37.804-0.7099-59.823-2.1426-62.111-4.0413-3.9295-3.2612-5.3836-35.882-2.5087-56.28 1.1529-8.1798 1.8276-15.942 1.4994-17.25-0.35949-1.4323-0.15607-2.3776 0.51167-2.3776 0.60963 0 1.1084-1.575 1.1084-3.5v-3.5h190 190v-9.25c0.1-300.91 1.1935-387.75 5.0787-403.15l1.034-4.0979 11.692-0.30693c6.4307-0.16882 15.74-0.85661 20.688-1.5284 7.7373-1.0506 11.025-0.96945 23.5 0.57978 7.9771 0.9907 16.416 1.5384 18.754 1.2172 2.6972-0.37071 4.25-0.19637 4.25 0.47715 0 0.5837 0.675 1.0613 1.5 1.0613 1.3287 0 1.5 24.816 1.5 217.34v217.34l-10.904 14.509c-17.574 23.384-30.156 34.582-48.596 43.251l-11 5.1718-17 1.1995c-9.35 0.6598-22.625 0.9277-29.5 0.5954-6.875-0.3324-47.825 0.3392-91 1.4924-78.902 2.1073-128.15 2.3668-198.5 1.0456z"/>
<path id="path4149" fill="#ff0" d="m1643 1397.9c-80.067-2.7675-94.671-8.9649-127.35-54.038l-9.6534-13.316v-120.44-120.44l9.75 0.6456c5.3625 0.3551 23.741 0.648 40.842 0.6508l31.092 0.01 1.1092 3.75c3.4747 11.748 5.1403 62.531 5.182 158l0.025 58.25h95 95v41.378c0 49.17 1.8934 44.138-16.264 43.225-8.7816-0.442-25.855 0.017-50.736 1.3641-39.494 2.1382-40.065 2.1457-74 0.9727z"/>
<path id="path4147" fill="#ffa800" d="m593 1395c-29.612-1.0847-50.353-13.288-75.431-44.38l-11.57-14.3v-22.07c0-12.48-0.39864-22.214-0.91743-22.403-1.0032-0.3645-0.18821-199.11 0.82252-200.58 0.3274-0.4775 18.009-0.6748 39.324-0.4388l38.729 0.4289-0.22869 7.8705-0.22869 7.8704-3.75 0.01c-2.5687 0.01-3.75 0.4577-3.75 1.4307 0 1.4246 4.5074 2.9357 7.0912 2.3774 2.4526-0.53 5.7224 81.418 5.8236 145.95l0.09 54.2h92.5 92.5v41.893c0 37.278-0.17424 41.96-1.5818 42.5-1.994 0.7652-157.19 0.4497-179.42-0.3647z"/>
<path id="path4145" fill="#ff0" d="m1938 1394.8c2.0946-0.6579 1.9164-0.7444-1.0993-0.5333-2.9218 0.2045-3.5179-0.059-3.1671-1.4005 0.2902-1.1096-0.3744-1.8548-2.0232-2.2686-2.9998-0.7529-3.3011-2.0568-4.8425-20.954-1.182-14.492 0.069-34.506 2.337-37.377 0.5166-0.6542 0.81-2.4542 0.6521-4-0.158-1.5459 0.08-6.0732 0.5294-10.061l0.8166-7.25h189.9 189.9v-343.34-343.34l-154.25-0.63487c-229.34-0.94394-229.23-0.93541-226.18-17.225 0.4945-2.6357 0.3001-3.9121-0.6889-4.5233-4.289-2.6508-2.221-54.993 2.4234-61.335 6.872-9.3851 353.68-9.9319 390.11-0.61504 6.6643 1.7044 16.834 6.1707 29.582 12.992 6.9466 3.7169 9.2487 5.4412 14.725 11.029 7.313 7.4619 8.2751 8.5404 8.2751 9.2765 0 0.38839 1.5692 2.7619 3.487 5.2744 8.7886 11.514 13.891 22.826 15.095 33.467 0.3722 3.29 1.0392 5.9818 1.4823 5.9818s0.7272 2.8125 0.6315 6.25c-0.096 3.4375 0.3909 22.225 1.0814 41.75 4.0226 113.73 4.1046 520.76 0.1196 593.5-0.6328 11.55-1.2416 28.875-1.3528 38.5-0.1919 16.601-0.6131 20.87-2.5163 25.5-0.4522 1.1-1.3721 4.7-2.0442 8-1.4937 7.333-4.3991 13.239-10.127 20.588-6.8641 8.8057-18.23 20.908-19.637 20.91-0.7047 0-1.5404 0.677-1.857 1.502s-0.9967 1.5-1.5115 1.5-3.2791 1.7511-6.143 3.8914c-10.668 7.9724-24.376 13.045-35.374 13.091-2.2916 0.01-4.3418 0.543-4.556 1.1854-0.2948 0.8845-46.013 1.2037-188.33 1.315-103.37 0.081-186.82-0.2064-185.44-0.6384z"/>
<path id="path4143" fill="#00ffae" d="m1022.5 1283c-13.212-2.0007-12 10.675-12-125.49v-117l6.4513-9c3.5483-4.95 7.0358-9.3599 7.75-9.7997 0.7143-0.4398 1.3074-1.3398 1.3179-2 0.039-2.4034 12.368-15.89 21.438-23.449 9.1061-7.5898 14.42-10.74 29.543-17.512l7.5-3.3587 97.25 0.43409 97.25 0.43408v41.376 41.376h-92.5-92.5v112.5 112.5l-33.25-0.1248c-18.288-0.069-35.5-0.4654-38.25-0.8818z"/>
<path id="path4141" fill="#01a8ff" d="m2020.5 1283c-10.512-0.9274-12.15-1.5338-12.932-4.7893-2.3332-9.7078-1.3494-131.62 1.4867-184.22 0.519-9.625 1.2414-24.864 1.6054-33.864 1.3958-34.512 30.34-69.934 66.219-81.039l9.6215-2.9781 61-0.56608c33.55-0.31135 72.77-0.81553 87.154-1.1204 17.238-0.36534 29.17-0.15934 35 0.60427 4.865 0.63721 10.019 1.1824 11.454 1.2114l2.6082 0.0529 1.2903 22.819c1.0549 18.657 1.0541 26.199 0 41.349l-1.2949 18.53h-94.854-94.854v112.5 112.5l-32.75-0.1437c-18.012-0.079-36.35-0.4613-40.75-0.8494z"/>
<path id="path4139" fill="#ffa800" d="m512.2 943.01c-3.4665-0.39372-6.7943-1.2075-7.3952-1.8084-3.0125-3.0125-4.5212-138.46-2.2745-204.2 0.9116-26.675 1.6165-64.336 1.5664-83.692-0.0581-22.448 0.27055-35.415 0.90746-35.809 0.54918-0.33941 0.99851-2.2295 0.99851-4.2003 0-23.884 27.574-55.861 62.146-72.07l10.646-4.9914 112.35-1.096c74.04-0.72 129.57-0.77 162.85-0.15 27.775 0.51797 143.81 0.95783 257.86 0.97746l207.36 0.0357 8.2778 5c5.2229 3.1548 9.4259 5 11.389 5 1.9239 0 3.1111 0.50814 3.1111 1.3316 0 0.73237 2.1469 2.7227 4.7709 4.423 12.742 8.2563 24.298 20.174 40.078 41.333l7.1508 9.5879v73.162 73.162h-41.5-41.5v-5.2827c0-2.9055-1.125-18.528-2.5-34.717-1.9004-22.375-2.5-36.098-2.5-57.217v-27.8h-358.5-358.5l-0.008 73.25c-0.006 56.091-0.58897 91.639-2.4891 151.75-1.3648 43.175-2.4863 82.212-2.4923 86.75l-0.01 8.25-32.75-0.14c-18.012-0.0753-35.586-0.45896-39.053-0.85267z"/>
<path id="path4137" fill="#ff0" d="m1515 942.98c-9.6514-1.324-8.6706 3.1846-9.5278-43.796-0.4184-22.928-0.4511-99.057-0.073-169.18l0.6882-127.49 5.2589-7.0117c2.8924-3.8564 6.5411-9.0367 8.1083-11.512 9.4671-14.952 36.329-36.989 51.045-41.877 15.472-5.139 96.579-7.9284 184.62-6.3495l28.667 0.5141 1.3561 6.1061c3.6723 16.535 0.4947 76.578-4.0544 76.61-0.3242 0.002-9.3645 1.1254-20.09 2.4958-19.223 2.4563-20.547 2.4917-93.231 2.4958l-73.731 0.004-0.4382 2.25c-1.7428 8.9483-4.664 155.53-4.6336 232.5l0.1 85.27-34.25-0.13112c-18.838-0.0721-36.725-0.47063-39.75-0.88558z"/>
</g>
<path id="path4135" fill="#f00" d="m1660.9 860.61c-0.309-0.31344-7.509-0.61998-16-0.68119-8.4911-0.0612-16.603-0.31572-18.027-0.56557-4.3841-0.76942-5.1316-6.6471-5.6658-44.55l-0.4747-33.683 3.621-0.67931c1.9916-0.37363 5.0806-0.45729 6.8645-0.18592s23.493-0.56583 48.243-1.8604c33.759-1.7659 56.428-2.3606 90.75-2.3809l45.8-0.02v-343.5-343.5l-322.75-0.25457c-177.51-0.14001-339.96-0.13156-361 0.01878l-38.25 0.27335v207.48 207.48h-41.527-41.527l0.334-210.75c0.3687-232.72-0.084-216.9 6.6406-231.74 1.6935-3.7349 3.0869-7.291 3.0964-7.9025 0.01-0.61143 1.1345-2.1714 2.5-3.4666s2.4827-3.156 2.4827-4.135c0-0.97902 1.125-2.5172 2.5-3.4181 1.375-0.90094 2.5-2.3027 2.5-3.115 0-0.81232 0.45-1.4769 1-1.4769s1-0.675 1-1.5 0.675-1.5 1.5-1.5 1.5-0.38429 1.5-0.85398c0-1.1074 4.6618-6.1422 5.7023-6.1585 0.4387-0.0069 2.6161-1.6944 4.8386-3.75s5.7594-4.6375 7.8598-5.7375 4.0427-2.5625 4.3161-3.25c0.2735-0.6875 1.3169-1.25 2.3188-1.25 1.0018 0 2.4965-0.675 3.3215-1.5s1.9822-1.5 2.5715-1.5 1.0724-0.3375 1.0737-0.75c0-0.4125 1.3675-0.79874 3.0361-0.85831 1.6687-0.05957 3.6244-0.91582 4.346-1.9028 0.7217-0.98696 1.8074-1.4884 2.4126-1.1144 1.1054 0.68318 10.268-1.1869 11.203-2.2866 0.275-0.32335 2.075-0.64213 4-0.7084 1.925-0.066267 15.65-0.72514 30.5-1.4642 21.738-1.0818 92.679-1.2866 364-1.051l337 0.29272 10.587 5.9215c5.8231 3.2568 10.904 5.9215 11.292 5.9215 0.3875 0 1.6705 0.9 2.8512 2s2.7527 2 3.4933 2c1.2206 0 4.5526 1.8391 8.1386 4.4921 4.898 3.6237 18.294 17.475 19.323 19.98 0.6842 1.6653 5.1931 8.3937 10.02 14.952l8.776 11.924 0.014 364.3 0.014 364.3-10.186 13.773c-23.052 31.17-39.754 43.723-63.823 47.965-8.5877 1.5137-162.68 3.3177-164.06 1.9206z"/>
<path id="path4170" fill="#f00" d="m1089.1 859.03c-2.4463-0.39509-4.6213-1.2388-4.8334-1.8748-0.212-0.63607-1.4966-1.1565-2.8547-1.1565-30.876 0-64.465-35.689-67.999-72.25-0.3589-3.7125-0.9856-6.75-1.3926-6.75-0.4071 0-0.8137-27.836-0.9035-61.857l-0.1634-61.857 5.2971-0.61282c2.9134-0.33706 21.61-0.92313 41.547-1.3024l36.25-0.68956v62.659 62.659l88.25 0.001c64.682 0.00075 108.01 0.5534 162.25 2.0694 40.7 1.1376 86.488 2.0711 101.75 2.0744l27.75 0.006v39.925 39.925l-190.25-0.12517c-104.64-0.0688-192.25-0.44842-194.7-0.84351z"/>
</g>
</svg>
