<?xml version="1.0" encoding="utf-8"?>
<!DOCTYPE svg PUBLIC "-//W3C//DTD SVG 1.1//EN" "http://www.w3.org/Graphics/SVG/1.1/DTD/svg11.dtd">
<svg version="1.1" xmlns="http://www.w3.org/2000/svg" xmlns:xlink="http://www.w3.org/1999/xlink"
	 width="595px" height="842px" viewBox="0 0 595 842" xml:space="preserve">
<g>
	<path fill="#323239" d="M193,677c0-8.28,47.68-15,106.5-15S406,668.72,406,677
		s-47.68,15-106.5,15S193,685.28,193,677z"/>
	<path fill="#52FFFF" opacity=".8" d="M250.5,274c1.75,3.5,3.88,0,3.88,0s2,4.12,6,0
		c4.24,3.88,6.87,0,6.87,0c4.63,4,7.25,0,7.25,0c3.88,3.75,5.75,0,5.75,0c1.87,3.88,3.75,0,3.75,0c2,6,0.75,9.08-17.25,8.75
		C249.75,282.75,248.12,277.62,250.5,274z"/>
	<path fill="#52FFFF" opacity=".8" d="M259,294c2.38-3,7.5-1.25,9.25,1.75
		C266.67,299,258.67,300.33,259,294z"/>
	<path fill="#52FFFF" opacity=".8" d="M260,286c2.38-3,6.5-2.25,8.25,0.75
		C266.67,290,259.67,292.33,260,286z"/>
	<path fill="#52FFFF" opacity=".8" d="M259,304c-0.25-4.12,6.62-2.12,8.25,1.75
		C267.62,307.38,259.5,311.5,259,304z"/>
	<path fill="#52FFFF" opacity=".8" d="M216.67,339.83c-3.4-0.97-1.67-5.83-5.17-2.16
		c-1.83,4,1.83,5.75,2.5,9.08c-2.17,13.08-4.75,27.75-3.22,47.96c-1.11,2.96-6.5,0.73-7.01,6c-0.65,6.54,2.4,2.79,7.56,4.46
		c3.29,1.33,1.92,3.08,6.68,0.72c2.11-7.64-3.76-6.89-3.76-9.64c-4.25-18.37,2.25-38.75,5.08-48.75c0.5-4,3.84,1.67,5.5-5.33
		C225.5,337.5,221.5,341.21,216.67,339.83z"/>
	<path fill="#52FFFF" opacity=".8" d="M304,342c3.62-1.38,5.38-7.88,6,0c-0.38,3.25-4,5-4,5
		c3.88,15.88,6,40,6,40c-0.38,3.5,5.5,0.75,5,7c-1.62,3.5-1.25,0-5,0c-5.25,0-7.88,3.88-8-1c0.5-5.62,4.75-1.75,5-5
		c0.5-6.75-1.25-24.25-5-39c-2.88-2.12-7.38,0.25-6-6C299.62,337.88,300.5,343.38,304,342z"/>
	<path fill="#52FFFF" opacity=".8" d="M273.75,310.5C273.5,317.25,301,325.67,306,325
		C304.75,317.25,278.5,313.5,273.75,310.5z"/>
	<path fill="#52FFFF" opacity=".8" d="M250.25,310.25c0,7.5-32.25,17-31.5,15.5
		C220.25,319.75,239.5,315.25,250.25,310.25z"/>
	<path fill="#52FFFF" opacity=".8" d="M211.25,412.31c-1.37,2.25-5.63-1.19-5.75,2.44
		c0.5,3.81,3.06,4.75,3.06,4.75s-0.37,14.19,0.69,23.5c0.13,3.62-4,4.62-1.75,7.75c1.62,1.69,2.69-3,5.88-2.69
		c1.68,0.25,3,0.38,3.56-1.68c-0.44-3.44-3.25-1.5-4.19-3.5c-1.25-6.88-1.56-23.26-1.56-23.26c1.87-1,5.81-3.37,3.81-6.62
		C212.75,406.5,212.75,411.06,211.25,412.31z"/>
	<path fill="#52FFFF" opacity=".8" d="M313.22,404.31c-2.34,2.13-6.47-4.81-6.47,4.63
		c0.28,2.72,3.92,2.06,3.92,2.06s2.71,11.81,1.77,32.69c-0.34,3-5.27,2.31-4.11,6.98c2.61,1.52,2.36-1.05,5.17-1.34
		c6.5-0.5,4.5,0.34,4.5-3.16c-0.31-2.79-2.83-2.5-2.83-2.5c1.64-10.11-0.67-33.67-0.67-33.67c0.53-0.25,4.83,0.96,3.38-3.75
		C316.71,402.08,314.44,403,313.22,404.31z"/>
	<path fill="#52FFFF" opacity=".8" d="M214,451c0,0-9.5,2-6,26c7.5,0,14-5,14-5C221,465,214,451,214,451
		z"/>
	<path fill="#52FFFF" opacity=".8" d="M243.5,482.33c5.67,0.84,7.83-0.83,7.5,4.67c0.17,4-6,3-6,3
		c-2.83,6.5-2,41-2,41c-0.5,5,9,2.5,8.67,7.17c-1.67,6.66-6,1.83-10.67,1c-5-0.84-6.17,7.83-10-3.17c-1.67-5,5-4,5-4s2.33-33,5-43
		c-3.5-0.83-9.83-6.17-5-12C239.67,475.83,239.83,481.33,243.5,482.33z"/>
	<path fill="#52FFFF" opacity=".8" d="M291,481c3.75-1.75,5.58-9,8.83-5c4,7.5-3.83,10-3.83,10
		c4.75,16.25,9,43,9,43c0,5.25,6.5,3,6,9.5c-0.67,2.5-7,0.5-7,0.5s-9.67,6-10,3c-1.25-12.25,3.75-3.5,4-11c-0.25-21-8-42-8-42
		s-6,3.5-6-3C283.5,480.75,286,482.5,291,481z"/>
	<path fill="#52FFFF" opacity=".8" d="M306,549c6.5,0,9.33-7,9,3c0.5,5.5-5,3-5,3c1.25,11.5,2,45,2,45
		l-4,1c0,0-1.25-31.25-4.75-44c-3.5-2.25-7,2.5-8.25-4C295,546.25,299.25,548.5,306,549z"/>
	<path fill="#52FFFF" opacity=".8" d="M242,549c3.67,0,10.17-8.33,11,2c-0.5,3.83-6,4-6,4
		c-6,14.5-2,46-2,46h-3c0,0-5-29.33-2-45c0.28-1.48-7.67,3-8-3C231.17,541.83,235.83,550.17,242,549z"/>
	<path fill-rule="evenodd" fill="#52FFFF" opacity=".8" d="M290,260c1-11.75,17.5-2,18-14c0.5-13.75,9-5.5,9-27
		c0.5-54.25-48-58-48-58s-46.5-0.75-49,52c-0.5,19.25,8.5,24,7,34c-0.75,13.75,14.25-2,16,9c-1.25,4.25,1.29,2.02,4.87,2.03
		c1.25-1.91,1.7,0.01,2.63,0.01c1.32,0,2.38-2.04,4.25,0.01c1.79,0,3.37-2.43,5.63-0.01c4.87-2.29,4.4-0.02,6.62-0.03
		c4.12-1.63,4.74-0.04,7-0.08c2.03-0.03,3.5-2.18,5.75-0.11c2.25-1.57,3.46-0.1,4.88-0.17C287.92,257.5,290,260.29,290,260z
		 M267,235c-4,0.25-8.25,16.5-4,14c4.25-1.5,5.5-3.75,12,0C278.75,251.75,274.25,236,267,235z M273,222c-0.75-24.5,30-24.25,31,3
		C303.5,244.25,274.25,235.25,273,222z M231,213c-6.5,23.5,28,28.5,31,4C263.75,195.5,234,203.75,231,213z"/>
	<path fill="#52FFFF" opacity=".8" d="M263,266c2.54,0.76,3-0.12,3-0.12s1.75-6.76-1-6.88
		C260.88,259,260.5,265.25,263,266z"/>
	<path fill="#52FFFF" opacity=".8" d="M271.84,266c-2.54,0.76-3-0.12-3-0.12s-1.75-6.76,1-6.88
		C273.97,259,274.34,265.25,271.84,266z"/>
	<path fill="#52FFFF" opacity=".8" d="M277.84,265c-2.5,0.89-3.75-5.88-1-6
		C279.62,259.25,279.25,264.5,277.84,265z"/>
	<path fill="#52FFFF" opacity=".8" d="M280.91,268.69c0.87-3.47-2.07-9.16,0.93-9.69
		C284.25,260.5,283.75,264.5,280.91,268.69z"/>
	<path fill="#52FFFF" opacity=".8" d="M286.72,262.66c-1.81-0.63-1.88-3.1-0.88-3.66
		C288.12,258.88,287.95,263.08,286.72,262.66z"/>
	<path fill="#52FFFF" opacity=".8" d="M255.61,266c2.2,1,3-0.12,3-0.12s1.75-6.76-1-6.88
		C255.5,259.88,254.98,265.71,255.61,266z"/>
	<path fill="#52FFFF" opacity=".8" d="M252.44,267.75c-0.1-4,2.47-7.19,0.17-8.75
		C248.06,258.66,251.66,268.19,252.44,267.75z"/>
	<path fill="#52FFFF" opacity=".8" d="M247.78,262.38c1.64-0.6,1.63-2.88,0.83-3.38
		C246.33,258.88,246.55,262.82,247.78,262.38z"/>
	<path fill="#52FFFF" opacity=".8" d="M263.27,269.25c2.54-0.52,2,0.08,2,0.08s1.92,3.61,0,3.67
		C261.14,273,260.76,269.76,263.27,269.25z"/>
	<path fill="#52FFFF" opacity=".8" d="M272.12,269.25c-1.43-0.5-3,0.08-3,0.08s-0.93,3.79,1,3.67
		C272.94,273,273.09,269.58,272.12,269.25z"/>
	<path fill="#52FFFF" opacity=".8" d="M278.31,270.25c-2.5-0.6-3.19,0.08-3.19,0.08
		s-0.75,2.58,2.01,2.67C279.91,272.83,279.72,270.59,278.31,270.25z"/>
	<path fill="#52FFFF" opacity=".8" d="M282.91,269.34c-1.97,0.32-2.37,3.23-0.78,3.66
		C284.42,273.08,284.19,269.17,282.91,269.34z"/>
	<path fill="#52FFFF" opacity=".8" d="M255.87,270.25c2.5-0.61,4.01,0.08,4.01,0.08s0.75,2.58-2.01,2.67
		C255.09,272.83,254.46,270.59,255.87,270.25z"/>
	<path fill="#52FFFF" opacity=".8" d="M252.12,269.28c1.85,0.28,2.34,3.29,0.75,3.72
		C250.58,273.08,250.84,269.11,252.12,269.28z"/>
	<path fill="#52FFFF" opacity=".8" d="M242,543c-4.5-0.83-9,2.17-3,3S246.4,543.81,242,543z"/>
	<path fill="#52FFFF" opacity=".8" d="M306,543c-4,1.25-8.5,2.75-2,3S310,541.75,306,543z"/>
	<path fill="#52FFFF" opacity=".8" d="M306.44,458.25c-2.27,6.35-0.69,8.75,1.44,10.13
		C310,469.75,308.38,452.81,306.44,458.25z"/>
	<path fill="#52FFFF" opacity=".8" d="M317.69,474c3.06,1.19,3,6.19,1.31,6S315.03,472.97,317.69,474z"
		/>
	<path fill="#52FFFF" opacity=".8" d="M320.62,481.56c2,1,2.5,4.5,0.82,4.32
		C319.75,485.69,318.07,480.29,320.62,481.56z"/>
	<path fill="#52FFFF" opacity=".8" d="M322.62,487.56c1.5,1.06,1.01,2.88,0.5,3.06
		C322.44,490.88,321.64,486.87,322.62,487.56z"/>
	<path fill="#52FFFF" opacity=".8" d="M323.69,474c3.06,1.19,3,6.19,1.31,6S321.03,472.97,323.69,474z"
		/>
	<path fill="#52FFFF" opacity=".8" d="M326.62,481.56c2,1,2.5,4.5,0.82,4.32
		C325.75,485.69,324.07,480.29,326.62,481.56z"/>
	<path fill="#52FFFF" opacity=".8" d="M326.62,487.56c1.5,1.06,1.01,2.88,0.5,3.06
		C326.44,490.88,325.64,486.87,326.62,487.56z"/>
	<path fill="#52FFFF" opacity=".8" d="M309,453c0,0,7.5-0.67,12.17,6.83c3,7.84,3.5,11.67,3.5,11.67
		c-3,1.17-11.5-0.17-11.5-0.17C312.5,461,307.83,457.5,309,453z M315,462c-1.38,0.88,0.12,7.12,1,7
		C317.12,468.88,316,461.88,315,462z M319,462c-1.38,0.88,0.12,5.12,1,5C321.12,466.88,320,461.88,319,462z"/>
	<path fill="#52FFFF" opacity=".8" d="M309,477c-0.17,3.5-0.33,6.33,0,6s3.5,0.67,4-2
		S309.17,473.5,309,477z"/>
	<path fill="#52FFFF" opacity=".8" d="M307,470l4,1c0,0,0.33,2.5-2,2C307.83,473.33,307,470,307,470z"/>
	<path fill="#52FFFF" opacity=".8" d="M208.91,408.36c-0.93-2.53-3-0.92-2.91,0
		C206.5,413.33,209.55,410.08,208.91,408.36z"/>
	<path fill="#52FFFF" opacity=".8" d="M313.93,399.34c-1.75-4.39-4.86-1.54-4.93,0
		C308.9,401.75,314.72,401.34,313.93,399.34z"/>
	<path fill="#52FFFF" opacity=".8" d="M209,479c2.38-0.59,2.06,4.69,1,5
		C208.47,484.45,206.65,479.59,209,479z"/>
	<path fill="#52FFFF" opacity=".8" d="M210,485c1.53-0.31,1.25,3.44,0.72,3.59
		C209.19,489.04,208.2,485.37,210,485z"/>
	<path fill="#52FFFF" opacity=".8" d="M211,490c1.53-0.31,1.25,3.43,0.72,3.59
		C210.5,493.97,209.62,490.28,211,490z"/>
	<path fill="#52FFFF" opacity=".8" d="M221.44,475c-1.53-0.31-1.25,3.43-0.72,3.59
		C221.94,478.97,222.82,475.28,221.44,475z"/>
	<path fill="#52FFFF" opacity=".8" d="M214,490c1.44-0.25,1.25,2.43,0.72,2.59
		C213.5,492.97,213.08,490.16,214,490z"/>
	<path fill="#52FFFF" opacity=".8" d="M217,477c1.81-0.56,2.44,4.69,1,5
		C215.93,482.45,215.51,477.46,217,477z"/>
	<path fill="#52FFFF" opacity=".8" d="M213,479c1.56-0.38,2.56,3.75,0.56,4
		C211.75,483.23,211.78,479.29,213,479z"/>
	<path fill="#52FFFF" opacity=".8" d="M214,485c1.38,0,1.88,4.25,0,4C212.38,488.78,212.44,485,214,485z
		"/>
	<path fill-rule="evenodd" fill="#52FFFF" opacity=".8" d="M266.75,442.5C288,443,294,423,302,448c5.25,20.5-6.5,15.33-16,14
		c4.25,3.5,9.25,13-1,16c-17,2.5-17-10-17-10s-8.75,11.5-20,9c-9.25-1.75,7-16,7-16s-29.5,16-27-2
		C232.5,422.5,246.25,442.5,266.75,442.5z M258.5,467.17c-7.33,1.5-12.67,4.5-6,6.66C258.17,475.68,265.83,465.67,258.5,467.17z
		 M276,467c8.5-1.5,13.87,4.63,10,7C280.83,477.17,266.64,468.65,276,467z"/>
	<path fill="#52FFFF" opacity=".8" d="M255,341.33c4.77,2.03-6.85,12.3-18.5,15.67
		c-8.49,2.45-13.33-4.17-13.5-7c1.17-2.17,5.29,5.02,14.25,2.25C246.49,349.39,253.35,340.63,255,341.33z"/>
	<path fill="#52FFFF" opacity=".8" d="M253.33,357.67c4.78,2.02-2.68,8.21-14.33,11.58
		c-8.49,2.45-8.75-1.25-10.5-5.75c-1.11-1.97,1.75,2.25,10.75,1C248.83,363.17,251.68,356.97,253.33,357.67z"/>
	<path fill="#52FFFF" opacity=".8" d="M253,371.33c4.77,2.03,2.26,5.33-9.25,9.17
		c-5.25,1.75-8.5-1.78-9.75-4c-1.11-1.97,1.29,1.77,10.25-1C253.49,372.64,251.35,370.63,253,371.33z"/>
	<path fill="#52FFFF" opacity=".8" d="M254,382c4.77,2.02,8.01,3.41-3.5,7.25
		c-5.25,1.75-9.08-0.86-10.33-3.08c-1.11-1.97,4.33,1.08,8.33-0.42c7.54-2.83,5.19-4.03,5.15-3.95
		C253.64,381.81,253.72,381.88,254,382z"/>
	<path fill="#52FFFF" opacity=".8" d="M268.67,343.67c-4.78,2.02,3.81,9.96,15.46,13.33
		c8.49,2.45,13.33-4.17,13.5-7c-1.17-2.17-5.29,5.02-14.25,2.25C274.14,349.39,270.32,342.97,268.67,343.67z"/>
	<path fill="#52FFFF" opacity=".8" d="M269.67,357c-4.78,2.02,3.31,8.88,14.96,12.25
		c8.49,2.45,8.75-1.25,10.5-5.75c1.11-1.97-1.75,2.25-10.75,1C274.8,363.17,271.32,356.3,269.67,357z"/>
	<path fill="#52FFFF" opacity=".8" d="M271,372c-4.77,2.02-2.63,4.66,8.88,8.5
		c5.25,1.75,8.5-1.78,9.75-4c1.11-1.97-1.29,1.77-10.25-1C270.14,372.64,272.65,371.3,271,372z"/>
	<path fill="#52FFFF" opacity=".8" d="M270.33,382.67c-4.77,2.02-8.71,2.74,2.8,6.58
		c5.25,1.75,9.08-0.86,10.33-3.08c1.11-1.97-4.33,1.08-8.33-0.42c-7.7-2.89-4.58-3.6-4.49-3.32
		C270.66,382.48,270.58,382.56,270.33,382.67z"/>
	<path fill="#52FFFF" opacity=".8" d="M230,340c0.75-3,24-9,24-9s-0.21,2.86-6,7
		C241,343,227.86,348.57,230,340z"/>
	<path fill="#52FFFF" opacity=".8" d="M251,322c-1.67,5-9.33,7.33-13,6
		C233.69,326.43,253,316.01,251,322z"/>
	<path fill="#52FFFF" opacity=".8" d="M233.03,329.94c0.75,2.25-3.31,4.59-4.06,2.5
		C227.22,327.56,232.41,328.09,233.03,329.94z"/>
	<path fill="#52FFFF" opacity=".8" d="M219.03,331.94c0.75,2.25-3.31,4.59-4.06,2.5
		C213.22,329.56,218.41,330.09,219.03,331.94z"/>
	<path fill="#52FFFF" opacity=".8" d="M224.94,333.86c0.5,1.45-2.2,2.97-2.7,1.61
		C221.08,332.32,224.53,332.66,224.94,333.86z"/>
	<path fill="#52FFFF" opacity=".8" d="M225.94,328.86c0.5,1.45-2.2,2.97-2.7,1.61
		C222.08,327.32,225.53,327.66,225.94,328.86z"/>
	<path fill="#52FFFF" opacity=".8" d="M317.96,451.57c0.33,0.97-1.47,1.98-1.8,1.08
		C315.38,450.55,317.69,450.77,317.96,451.57z"/>
	<path fill="#52FFFF" opacity=".8" d="M305.03,334.94c0.75,2.25-3.31,4.59-4.06,2.5
		C299.22,332.56,304.41,333.09,305.03,334.94z"/>
	<path fill="#52FFFF" opacity=".8" d="M297.94,331.43c0.5,2.42-2.2,4.95-2.7,2.69
		C294.08,328.87,297.53,329.44,297.94,331.43z"/>
	<path fill="#52FFFF" opacity=".8" d="M271,332c-3,6.67,22.81,16.56,19.5,13.25
		C287,341.75,272.6,328.44,271,332z"/>
	<path fill="#52FFFF" opacity=".8" d="M278,323c0,1.67,9.5,15.25,12.33,11.67
		C295.44,328.21,278,321.33,278,323z"/>
	<path fill="#52FFFF" opacity=".8" d="M262,312c3.96-0.09,8.89,5.85,5.38,12.88
		c-3,6,0.87,9.74-0.13,12.24c-4.75,7.26-1.5,12.63-2,16.63c-0.67,5.38-1.4,8.03-3.37,8c-2.4-0.04-3.96-5.84-4.13-10
		c-0.69-3.95,6.84-6.37,0.37-15c-1.9-3.1,4.63-3.5-1.37-10.5C252.63,321.44,257.98,312.09,262,312z"/>
	<path fill="#52FFFF" opacity=".8" d="M262,366.33c5.83-2.16,4.17,4.84,0,4.67S254.67,365,262,366.33z"
		/>
	<path fill="#52FFFF" opacity=".8" d="M263,376.33c4.33-1,1.15,4.1-0.33,3.84
		C259.83,379.67,258.17,375.33,263,376.33z"/>
	<path fill="#52FFFF" opacity=".8" d="M264,392.33c4.33-1,1.15,4.1-0.33,3.84
		C260.83,395.67,259.17,391.33,264,392.33z"/>
	<path fill="#52FFFF" opacity=".8" d="M264,400.33c4.33-1,1.15,4.1-0.33,3.84
		C260.83,403.67,259.17,399.33,264,400.33z"/>
	<path fill="#52FFFF" opacity=".8" d="M263.13,408.33c-4.34-1-1.16,4.1,0.33,3.84
		C266.29,411.67,267.96,407.33,263.13,408.33z"/>
	<path fill="#52FFFF" opacity=".8" d="M263.33,415.11c3.3-0.75,0.88,3.08-0.25,2.88
		C260.92,417.62,259.65,414.36,263.33,415.11z"/>
	<path fill="#52FFFF" opacity=".8" d="M262.67,423.11c-3.3-0.75-0.88,3.08,0.25,2.88
		C265.08,425.62,266.35,422.36,262.67,423.11z"/>
	<path fill="#52FFFF" opacity=".8" d="M264,431.33c4.33-1,1.15,4.1-0.33,3.84
		C260.83,434.67,259.17,430.33,264,431.33z"/>
	<path fill="#52FFFF" opacity=".8" d="M265,439.33c4.33-1,1.15,4.1-0.33,3.84
		C261.83,442.67,260.17,438.33,265,439.33z"/>
	<path fill="#0F0F19" d="M235,596l-3,1c0,0,2.67,9.5,2,14c0,0,2.94,14.97-3.39,29.83
		c-0.18,0.07-0.39,0.12-0.61,0.17c-0.25,0.97-0.51,1.9-0.79,2.81c-0.38,0.73-0.78,1.46-1.21,2.19l0.58-0.25
		c-4.27,12.61-10.84,19.92-11.51,31.88c-0.09,1.56,1.05,5.25,5.05,5.11c8.63,0.14,26.4,0.94,36.51,0.01
		c4.12-0.37,3.73-2.98,3.83-4.37c1.35-18.65-6.37-25.35-8.46-33.38c-0.1-0.38-0.2-0.74-0.3-1.1l0.3,0.1c0,0-8.83-16.5-1-47l-4-2
		L235,596z"/>
	<path fill="#0F0F19" d="M396,670c-16.51-0.33-67.99-7.95-77.5-33.97
		c0.33-0.02,0.5-0.03,0.5-0.03s-5.25-27,1-45l-5-1l-13,1l-5,2c0,0,5.63,48.57,5.94,48.36c0.28,7.58-2.57,12.87,0.06,39.64h25
		c0,0,0.5-8.83,1-12c14.33,4.5,26.67,13.83,64,9C393,678,395.83,672,396,670z"/>
</g>
</svg>
