<?xml version="1.0" encoding="utf-8"?>
<!DOCTYPE svg PUBLIC "-//W3C//DTD SVG 1.1//EN" "http://www.w3.org/Graphics/SVG/1.1/DTD/svg11.dtd">
<svg version="1.1" xmlns="http://www.w3.org/2000/svg" xmlns:xlink="http://www.w3.org/1999/xlink"
	 width="595px" height="842px" viewBox="0 0 595 842" xml:space="preserve">
<g>
	<path fill="#CFCFD1" d="M193,677c0-8.28,47.68-15,106.5-15S406,668.72,406,677
		s-47.68,15-106.5,15S193,685.28,193,677z"/>
	<path fill="#272730" d="M271,162h-3c0,0,0.95-5-3-5c-15.62,0-44,20.16-49,36.98
		c-3.92,13.2-2.82,34.17-1.76,49.68c-0.62,5.93-3.74,8.68-10.24,12.3c5.5-1.12,6.88-1.37,10.88-6.05l0.12,5.05
		c0.83,14.66-4.17,19.83-4,32.99c0.17,13.16,8.83,16.99,9,23.99s-6,120.96-6,120.96c47,15.99,111.17,1.41,114,2
		c-11-35.99,0.88-39.24-2.75-76.04c4.26,3.69,2.44,7.75,7,7.44c-5.5-6.13,1.13-1-6.45-16.11c-0.01-2.65,0.05-4.79,0.2-6.26
		c1.5-14.33,5.38-10.67,6-30.99c0.56-18.31-3.5-16.99-5-31.99c-0.27-2.7,0.27-11.72,0.62-15.62c0.88,4.63,2.5,6,7,9.12
		c-4.37-5.62-4-6.87-6.05-15.68c1.97-17.47,3.91-40.77-4.57-64.79c-1.61-4.57-3.52-8.6-5.64-12.16c2.2-4.58,1.26-4.14,1.26-7.7
		c0,0-1.06,3.93-2.81,3.75c-0.75-0.69-1.57-1.29-3.7-3.51c-10.1-12.15-24.63-16.56-32.59-17.94c-0.68-0.23-0.52-0.2-1.33-0.48
		c0.72-2.35,5.81-4.94,5.81-4.94s-5.01,0.38-7.71,4.87c-1.07-0.02-1.86,0.03-2.29,0.13C271.17,156.83,271,162,271,162z"/>
	<polygon points="295.17,337.76 293.83,394.41 299.67,373.92 309.83,388.58 	"/>
	<polygon points="223.67,349.43 217,386.91 225.33,370.42 229,394.91 229,353.93 	"/>
	<path d="M320,227.97c-6.25,54.98-36.75,64.98-41,65.98c-0.25,3,0,11.99,0,11.99l-29-2
		v-11.99c-3.5-0.75-28-11.5-33-69.98C230.25,219.22,321.88,211.21,320,227.97z"/>
	<path fill="#3D3D45" d="M262.38,164.12c-0.38,13.87-24.13,13.5-32.38,17.87
		C242,169.99,250,163.25,262.38,164.12z"/>
	<path fill="#3D3D45" d="M282,164c9-1.75,18.25,13.87,17,13.99
		C296.38,169.37,271.38,167.12,282,164z"/>
	<path fill="#C7BBAF" d="M252,283.95c0,0,3.67,10.66-1,16c-2,2.6-5.78,5.78-10.23,9.03
		c-11.97,8.73,47.47,9.7,41.73,2.66c-3.94-4.83-6.5-8.7-6.5-8.7l-1-16.99L252,283.95z"/>
	<path fill="#C7BBAF" d="M296.5,342.68c12.25,47.98,11.5,62.56,11.5,109.21
		c-3.08,7.62-3.17,14.83-0.33,21.32c3,6.9-0.5,11.17,3.33,9.67c4.83-1.5-1.82-13.79,1.5-12.33c5.99,2.63,7.19,19.76,10.89,20.59
		c0.92,0.48,2.55-0.52,3.48-0.31c0.44,1.42,0.82,2.36,2.13,2.04c-2-24.65-6.75-23.74-11.34-40.01
		c3.01-48.62-8.91-108.68-12.91-122.93c-2.08-5.66-1.25-12.99-8.75-12.16C290.93,320.37,296.5,342.68,296.5,342.68z"/>
	<path fill="#C7BBAF" d="M225.43,346.54c-7.42,49.64-12.1,61.03-7.81,108.1
		c3.84,7.19,4.66,14.25,2.5,20.89c-2.28,7.03,1.63,10.85-2.32,9.77c-4.95-0.99,1.15,8.1-2.43,9.28c-0.86,0.55-2.58-0.26-3.48,0.04
		c-0.29,1.42-0.56,2.37-1.9,2.19c-1.31-28.72-5.74-17.68-1.89-40.26c-6.77-55.64,5.09-107.27,7.65-122.18
		C228.81,329.36,225.43,346.54,225.43,346.54z"/>
	<path fill="#9F968C" d="M253,288.95v4c10.17,5.66,22,1,22,1v-4L253,288.95z"/>
	<path fill="#9F968C" d="M301,360.92c0.51-0.08,10-2,10-2l-0.25-7.24l-11.25,3.12
		C299.5,354.8,300.25,361.05,301,360.92z"/>
	<polygon fill="#9F968C" points="210,364.92 222,368.92 223.38,361.17 211.12,357.55 	"/>
	<path fill="#9F968C" d="M215,469.88c-2.17,0.84,1,16,1,16S217.63,468.87,215,469.88z"/>
	<path fill="#C7BBAF" d="M271,161h-3c-0.12,0,0.21,4.25-0.17,9.34
		c-0.41,5.26-1.58,11.4-4.83,14.65c-20.5,14.66-32,5.5-43,25.99c-6.25-1-9.5,0.5-10,5c0,9.49,11,7.99,11,7.99s4.75,67.98,44,67.98
		c43.12,0,51-61.98,51-61.98s10.12,1.63,10-7c-0.12-8.62-12-4-12-4s2.5-15.49-26-31.98c-8.17-4.67-17.55-5.95-17.43-16.45
		C270.62,165.62,271,161,271,161z"/>
	<path fill="#9F968C" d="M252,219.97c0.12,6.25-2.12,10.25-8.25,9.25
		c-13.25-2.87-5.75-8.25-5.75-8.25S252.67,214.48,252,219.97z"/>
	<path fill="#9F968C" d="M280.91,222.97c-0.13,6.25,2.12,10.25,8.25,9.25
		c13.25-2.87,5.75-8.25,5.75-8.25S280.24,217.48,280.91,222.97z"/>
	<path fill="#272730" d="M295,222.47c0-3.58-2.91-6.49-6.5-6.49s-6.5,2.91-6.5,6.49
		c0,3.59,2.91,6.5,6.5,6.5S295,226.06,295,222.47z"/>
	<path fill="#272730" d="M251,219.47c0-3.58-2.91-6.49-6.5-6.49s-6.5,2.91-6.5,6.49
		c0,3.59,2.91,6.5,6.5,6.5S251,223.06,251,219.47z"/>
	<path fill="#9F968C" d="M267,243.97c-3.31,0-7.88-5.44-5-5c6.5,2.12,3.38,2.12,10,0
		C274.44,238.28,271,243.97,267,243.97z"/>
	<path fill="#272730" d="M265.95,258.96c3.46,0,10.31,5.37,7.31,4.94
		c-5.29-0.8-10.95-2-14.63-2C257.25,261.9,261.77,258.96,265.95,258.96z"/>
	<path fill="#272730" d="M285,199.98c11.17,1.17,21,11,21,11c-6.2-13.37-19.09-18-19.09-18
		S282,195.48,285,199.98z"/>
	<path fill="#272730" d="M252.54,199.48c-10.75,0.22-23.54,7.5-23.54,7.5
		c10.05-12.31,22.74-13.98,22.74-13.98S255.33,194.98,252.54,199.48z"/>
	<path fill="#9F968C" d="M322,224.97c0.74-4.06-5-3-5-3S321.5,227.72,322,224.97z"/>
	<path fill="#9F968C" d="M214.07,218.97c-0.74-4.06,5-2.99,5-2.99
		S214.57,221.72,214.07,218.97z"/>
	<path fill="#0F0F19" d="M396,669.81c-0.17,2-3,8-3,8c-37.33,4.83-49.67-4.5-64-9
		c-0.5,3.16-1,11.99-1,11.99h-25c-3-30.48,1.12-33.11-0.38-42.98c4.13-2.25,13.21-3.36,15.38-3.5
		C326,661.56,379.17,669.48,396,669.81z"/>
	<path fill="#0F0F19" d="M254,644.82c2.09,8.02,9.81,14.72,8.46,33.36
		c-0.1,1.4,0.29,4-3.83,4.38c-10.11,0.93-27.88,0.12-36.51-0.01c-4,0.13-5.14-3.56-5.05-5.11c0.75-13.39,8.9-20.94,12.93-36.62
		c3-0.63,2.16-3,3.18-4.29C238.46,629.81,249.6,627.74,254,644.82z"/>
	<path fill="#3F3F47" d="M231,444.89c-0.25,0.5,68-2,68-2l16,146.95l5,1
		c-6.25,17.99-1,44.98-1,44.98s-8.75,0.25-17,6c2.62-20.37-5-48.98-5-48.98l5-2l-18-108.96c-20.25-1.5-31,6-31,6l-4,106.96l4,2
		c-7.83,30.48,1,46.98,1,46.98s-11.75-4.25-26,2c9.67-16.33,6-34.99,6-34.99c0.67-4.5-2-13.99-2-13.99l3-1
		C235,595.84,231.25,444.39,231,444.89z"/>
	<path fill="#323239" d="M243,493.87c3.06-3.5,10-6.62,10-6.62v3.62
		C251.44,489.81,248.44,490.87,243,493.87z"/>
	<path fill="#323239" d="M284,481.88l1,4c0,0,3.94-2.19,15-1
		C291.56,481.75,284,481.88,284,481.88z"/>
	<path fill="#323239" d="M231,444.89c-0.25,0.5,68-2,68-2l1.88,17.31
		c0,0-42.38,0.44-69.03,12.34C231.4,456.06,231.07,444.75,231,444.89z"/>
	<polygon fill="#C7BBAF" points="300,516.87 304,515.87 302,518.86 306,519.86 302,521.86
		300,521.86 297,522.86 297,520.86 293,519.86 297,518.86 	"/>
	<polygon fill="#9F968C" points="300,516.87 304,515.87 303.22,517.04 300.69,517.9
		298.5,519.99 295.22,520.42 293,519.86 297,518.86 	"/>
	<path fill="#323239" d="M241.69,594.21c-4.31-0.87-6.69,0.63-6.69,0.63v2
		C235,596.84,237.38,595.34,241.69,594.21z"/>
	<path fill="#323239" d="M243.88,593.9c2.5-0.63,5.12-0.06,5.12-0.06v2
		C249,595.84,247.06,594.52,243.88,593.9z"/>
	<path fill="#323239" d="M302,590.84v-2c6.5-3,9.06-2.06,12.62-1c0.13,0.94,0.38,2,0.38,2
		C305.38,588.84,302,590.84,302,590.84z"/>
	<path fill="#3F3F47" d="M223,670.81c-2.01,2,34.67,2,34.67-0.33
		C256.5,667.14,228,665.81,223,670.81z"/>
	<path fill="#3F3F47" d="M246,302.94c14.67,15.83,34,3,34,3s6.91,5.03,18.99,11.04
		c6.76,3.71,11.26,22.95,12.01,37.69c-7.5,1.75-15,3.25-15,3.25c0.67,24.66-4.67,35.16,5.83,98.13
		c-63.66-1.66-71.83,12.83-71.83,12.83c2.67-18.32-1.5-98.63-2-103.96c-9.5,0.5-18.5-4.66-19-5c2-17.99,2.25-30.99,8.06-36.61
		C223.75,318.44,240,308.94,246,302.94z"/>
	<path fill="#323239" d="M246,302.94c14.67,15.83,34,3,34,3s0.79,0.81,2.38,2.13
		c-3.82,7.37-26.26,15.55-39.47-2.32C244.05,304.79,245.1,303.84,246,302.94z"/>
	<g>
		<polygon fill="#CC3808" points="237.92,355.33 232,362.14 238.07,365.55 234.54,374.92
			240.45,364.7 235.23,362.14 		"/>
		<polygon fill="#CC3808" points="244.68,355.33 242.14,366.4 248.9,369.81 244.52,365.55
					"/>
		<path fill="#CC3808" d="M248.06,366.4c0-0.96,4.22-14.47,4.22-14.47
			s8.45,15.96,8.45,16.18c0,0.21-7.76-10.52-7.76-10.52S248.06,367.36,248.06,366.4z"/>
		<polygon fill="#CC3808" points="257.35,355.33 257.59,355.64 264.27,363 260.73,374.07
			270.87,356.18 265.8,360.44 		"/>
		<polygon fill="#CC3808" points="270.03,360.44 271.72,371.51 278.48,371.51
			273.25,369.96 272.52,366.26 276.79,364.55 272,364.48 271.3,361.32 275.94,358.74 		"/>
		<path fill="#CC3808" d="M279.32,352.78v17.88l1.54-14.62l6.07,2.55l-4.23,5.26
			c0,0,8.19,4.3,8.3,4.51c0.1,0.22-5.92-5.51-5.92-5.51l4.07-5.11L279.32,352.78z"/>
	</g>
	<path fill="#323239" d="M257,429.9c-4.08-1.19,26-12,26-12S272.5,434.4,257,429.9z"/>
</g>
</svg>
