<svg xmlns="http://www.w3.org/2000/svg" width="2500" height="934" viewBox="0 0 247.795 92.551"><path d="M.163 67.794V50.902c0-7.799 3.952-11.276 12.809-11.276 3.396 0 7.688.424 10.432 1.028l.25.053c-.066.588-.327 2.77-.407 3.437a25.959 25.959 0 0 1-.287-.046c-2.565-.411-6.371-.903-9.93-.903-6.696 0-8.956 1.96-8.956 7.769v16.775c0 5.033 1.382 7.763 8.673 7.763 1.785 0 4.766-.188 7.291-.728l.358-.077v-13.42h3.909v16.136a8.504 8.504 0 0 0-.205.059c-3.445 1.003-7.779 1.598-11.582 1.598C3.859 79.067.163 75.695.163 67.794zM65.13 67.794V39.613c.669.007 3.248.038 3.905.044v28.08c0 5.033 1.382 7.763 8.673 7.763h11.079v3.481c-.83.004-11.297.085-11.307.085-8.656.001-12.35-3.371-12.35-11.272zM158.168 40.193h.524c-.857 1.306-12.428 18.872-12.428 18.872s11.963 18.129 12.828 19.436h-4.305c-.264-.396-10.678-16.261-10.678-16.261s-10.408 15.865-10.672 16.261h-4.303c.864-1.307 12.827-19.436 12.827-19.436s-11.569-17.566-12.431-18.872h4.305c.262.397 10.271 15.69 10.271 15.69s10.019-15.293 10.281-15.69h3.781zM191.513 40.193h.451c-.609 1.245-13.033 26.476-13.033 26.476v11.832h-3.908V66.669s-12.424-25.23-13.035-26.476h4.088c.236.498 10.875 22.42 10.875 22.42s10.686-21.924 10.93-22.42h3.632zM57.416 78.5h3.882c-.402-1.153-13.141-37.718-13.344-38.308h-.203-5.128c-.204.59-12.942 37.153-13.347 38.308h3.885c.238-.679 2.325-6.745 4.701-13.657h14.836c2.474 7.171 4.633 13.42 4.718 13.657zM39.085 61.276c3.071-8.936 6.175-17.989 6.175-17.989s3.126 9.058 6.205 17.989h-12.38zM121.687 78.5h3.884l-13.344-38.308h-.199-5.133c-.203.59-12.944 37.153-13.347 38.308h3.887c.24-.679 2.324-6.745 4.702-13.657h14.832c2.474 7.171 4.633 13.42 4.718 13.657zm-18.329-17.224l6.175-17.989s3.126 9.058 6.204 17.989h-12.379z"/><g><path d="M4.292 13.458c-.826-.281-1.496-.663-2.011-1.141a5.507 5.507 0 0 1-1.198-1.564 6.661 6.661 0 0 1-.599-1.818A10.615 10.615 0 0 1 .309 7.04v-.541c0-2.087.586-3.694 1.762-4.815C3.241.563 5.027 0 7.425 0h1.353c1.855 0 3.325.42 4.408 1.258 1.083.837 1.625 2.21 1.625 4.118 0 .386-.104.715-.31.985-.208.27-.568.405-1.083.405-.516 0-.876-.136-1.083-.405-.206-.271-.31-.601-.31-.985 0-.979-.294-1.682-.889-2.107-.592-.426-1.38-.64-2.358-.64H7.425c-1.546 0-2.657.305-3.326.909-.671.605-1.005 1.592-1.005 2.96v.541c0 1.031.18 1.861.541 2.49.361.635.979 1.105 1.855 1.412l5.993 2.128c1.418.518 2.489 1.335 3.21 2.455.722 1.122 1.083 2.496 1.083 4.12v1.312c0 2.091-.588 3.76-1.76 5.011-1.173 1.25-2.958 1.876-5.355 1.876H6.032c-1.855 0-3.326-.42-4.41-1.258-1.081-.836-1.623-2.21-1.623-4.118 0-.388.102-.714.308-.983.207-.272.567-.408 1.083-.408.517 0 .876.136 1.084.408.205.27.31.596.31.983 0 .98.295 1.683.89 2.107.589.425 1.377.64 2.357.64H8.66c1.546 0 2.653-.369 3.325-1.104.67-.734 1.004-1.783 1.004-3.153v-1.312c0-.979-.181-1.806-.541-2.477-.361-.667-.916-1.146-1.663-1.43l-6.493-2.28zM27.569 7.35c1.856 0 3.318.534 4.39 1.605 1.069 1.067 1.604 2.454 1.604 4.154v12.953c0 .388-.104.715-.309.987-.207.271-.567.407-1.082.407h-6.188c-1.854 0-3.318-.407-4.389-1.222-1.071-.809-1.604-2.066-1.604-3.769v-3.133c0-1.698.534-2.958 1.604-3.771 1.071-.811 2.534-1.219 4.389-1.219h4.872v-1.158c0-1.212-.302-2.062-.909-2.551-.605-.49-1.397-.736-2.378-.736h-4.331c-.362 0-.67-.097-.927-.292-.26-.192-.388-.521-.388-.983 0-.466.128-.793.388-.986.257-.193.565-.29.927-.29h4.33v.004zm3.287 17.553V16.9h-4.872c-.98 0-1.773.21-2.378.639-.606.426-.908 1.049-.908 1.875v3.054c0 .771.301 1.373.908 1.798.605.425 1.398.638 2.378.638h4.872zM57.536 14.232c0-1.366-.335-2.43-1.006-3.19-.67-.762-1.777-1.141-3.324-1.141h-2.167V26.45c0 .387-.094.717-.289.987-.193.271-.549.406-1.064.406-.514 0-.869-.136-1.062-.406-.194-.271-.29-.601-.29-.987V9.901h-6.497V26.45c0 .387-.096.717-.292.987-.193.271-.547.406-1.063.406-.516 0-.87-.136-1.063-.406s-.291-.601-.291-.987V8.742c0-.387.098-.716.291-.986.194-.272.548-.405 1.063-.405h12.721c2.397 0 4.169.625 5.317 1.876 1.146 1.248 1.72 2.917 1.72 5.006v12.178c0 .389-.095.719-.289.987-.192.271-.547.406-1.063.406-.515 0-.869-.134-1.064-.406-.19-.269-.289-.599-.289-.987V14.232h.001zM70.566 27.844c-1.701 0-3.048-.357-4.041-1.066-.992-.708-1.488-1.835-1.488-3.382 0-.388.095-.714.288-.987.193-.269.548-.403 1.064-.403s.863.135 1.044.403c.179.273.284.601.309.987.079 1.313 1.021 1.971 2.823 1.971h1.972c.981 0 1.773-.226 2.378-.676.606-.45.909-1.062.909-1.834v-1.625c0-.59-.168-1.075-.503-1.451-.334-.374-.799-.637-1.392-.793l-5.298-1.391c-1.058-.283-1.875-.799-2.456-1.546-.579-.747-.869-1.741-.869-2.979V11.95c0-1.699.534-2.957 1.604-3.769 1.068-.813 2.534-1.219 4.389-1.219h1.003c1.703 0 3.05.355 4.041 1.063.992.71 1.49 1.837 1.49 3.383 0 .387-.096.717-.291.987-.193.271-.546.404-1.062.404-.517 0-.864-.132-1.046-.404a1.966 1.966 0 0 1-.308-.987c-.079-1.314-1.019-1.972-2.825-1.972h-1.003c-.98 0-1.772.228-2.378.675-.605.453-.909 1.065-.909 1.838v1.122c0 .592.174 1.083.522 1.47s.817.656 1.41.811l5.259 1.354c1.084.284 1.907.802 2.476 1.548.566.747.853 1.74.853 2.978v1.625c0 1.701-.536 2.956-1.606 3.771-1.07.811-2.533 1.217-4.389 1.217h-1.97v-.001zM86.032 20.573c0 1.367.335 2.43 1.005 3.188.671.761 1.78 1.142 3.327 1.142h4.407V8.355c0-.387.096-.716.29-.985.194-.271.547-.407 1.065-.407.514 0 .868.136 1.062.407.194.271.292.6.292.985v17.708c0 .388-.099.715-.292.987-.193.271-.548.407-1.062.407h-5.763c-2.397 0-4.17-.626-5.316-1.875-1.147-1.25-1.72-2.923-1.72-5.01V8.392c0-.385.097-.715.29-.984.192-.271.547-.409 1.063-.409.516 0 .869.138 1.063.409.193.27.289.6.289.984v12.181zM114.801 14.232c0-1.366-.334-2.43-1.005-3.19-.672-.762-1.778-1.141-3.324-1.141h-4.409V26.45c0 .387-.096.717-.289.987-.194.271-.55.406-1.063.406-.516 0-.87-.136-1.065-.406-.19-.271-.287-.601-.287-.987V8.742c0-.387.097-.716.287-.986.195-.272.55-.405 1.065-.405h5.762c2.396 0 4.169.625 5.316 1.876 1.146 1.248 1.721 2.917 1.721 5.006v12.178c0 .389-.098.719-.293.987-.19.271-.545.406-1.063.406-.512 0-.869-.134-1.061-.406-.193-.269-.291-.599-.291-.987l-.001-12.179zM136.763 29.657c0 1.085-.146 2.075-.441 2.979a6.551 6.551 0 0 1-1.355 2.358c-.604.671-1.354 1.191-2.242 1.566-.888.372-1.927.561-3.111.561h-3.559c-.359 0-.67-.097-.929-.292-.259-.188-.388-.521-.388-.983 0-.467.129-.792.388-.988.259-.191.569-.291.929-.291h3.559c1.547 0 2.672-.464 3.382-1.391.711-.929 1.065-2.104 1.065-3.521v-2.201h-4.408c-2.396 0-4.172-.626-5.316-1.875-1.148-1.25-1.721-2.923-1.721-5.01v-5.761c0-1.083.147-2.075.444-2.979.298-.9.747-1.688 1.354-2.359a6.241 6.241 0 0 1 2.241-1.564c.89-.375 1.928-.561 3.113-.561h5.646c.516 0 .869.133 1.062.405.194.271.287.6.287.986v20.921zm-6.998-19.756c-1.545 0-2.674.464-3.383 1.392-.707.929-1.062 2.103-1.062 3.52v5.761c0 1.367.336 2.43 1.008 3.188.668.761 1.775 1.142 3.322 1.142h4.408V9.902h-4.293z"/></g><path d="M233.396 58.843c-.178.008-4.399.38-8.977 1.069-3.764.562-5.814.467-7.176.286-2.874-.49-4.814-1.625-5.492-3.444-2.331-6.27 11.164-18.246 30.146-26.749a117.156 117.156 0 0 1 5.897-2.453 142.652 142.652 0 0 0-10.438 3.792c-21.322 8.678-36.612 20.604-34.158 26.641 1.238 3.043 6.752 4.003 14.652 3.102.014-.004.033-.004.047-.004 4.596-.432 10.096-1.572 13.504-1.297 3.32.41 5.563 1.581 6.301 3.564 2.328 6.271-11.168 18.245-30.148 26.751-1.986.891-3.959 1.71-5.896 2.45a142.039 142.039 0 0 0 10.439-3.79c21.32-8.675 36.611-20.604 34.156-26.644-1.139-2.803-5.923-3.84-12.857-3.274z"/></svg>