<?xml version="1.0" encoding="UTF-8" standalone="no"?>
<svg id="svg4136" xmlns:rdf="http://www.w3.org/1999/02/22-rdf-syntax-ns#" xmlns="http://www.w3.org/2000/svg" height="778" viewBox="0 0 920 778" width="920" version="1.1" xmlns:cc="http://creativecommons.org/ns#" xmlns:dc="http://purl.org/dc/elements/1.1/">
<path id="path4146" d="m242 776.79c-2.475-0.47115-9.45-1.0307-15.5-1.2434-25.206-0.88629-35.505-1.7346-44.5-3.6651-9.1665-1.9673-21.731-4.3736-29-5.5539-1.925-0.31258-3.9954-0.9644-4.6009-1.4485-0.60549-0.4841-3.2053-1.1686-5.7773-1.5212-2.572-0.35253-4.9157-1.0281-5.2081-1.5013-0.29-0.47-1.82-0.86-3.41-0.86-1.5851 0-3.1601-0.45-3.5-1-0.33992-0.55-1.829-1.0016-3.309-1.0036-1.48-0.01-6.29-1.35-10.69-3-4.4-1.646-8.8704-2.9944-9.9343-2.9964-1.0638-0.002-3.7638-0.87642-6-1.9432-7.009-3.34-31.658-13.06-33.128-13.06-0.77128 0-7.5987-2.6985-15.172-5.9966-7.5733-3.2982-14.269-5.9982-14.88-6-0.611 0-2.769-1.12-4.795-2.5s-4.275-2.5-4.997-2.5c-4.239 0-26.946-17.33-26.119-19.93 0.2931-0.93 0.1026-3.91-0.4234-6.63-1.2326-6.37 0.7394-14.9 6.0558-26.21 2.1387-4.55 3.8886-8.51 3.8886-8.8 0-0.29078 1.6689-3.0946 3.7087-6.2306 2.0398-3.1361 4.7081-8.7013 5.9297-12.367 1.2215-3.6658 3.3905-8.4324 4.8199-10.592 2.8425-4.2952 5.8668-11.777 8.1145-20.074 0.79441-2.9325 1.8287-6.0825 2.2983-7 0.46966-0.91751 1.1296-4.7677 1.4666-8.5559 0.33699-3.7883 1.254-7.8665 2.0378-9.0627 0.78381-1.1962 1.746-5.1715 2.1382-8.834 0.39221-3.6624 1.3371-7.1768 2.0996-7.8097 0.763-0.63 1.387-1.79 1.387-2.57 0-0.78309 1.516-4.6655 3.3689-8.6276s3.7133-8.7786 4.1343-10.703c0.71926-3.2887 3.6793-10.652 5.6285-14 0.4802-0.825 1.2687-2.4 1.7523-3.5 5.2912-12.036 8.0336-16.474 13.742-22.239 10.015-10.11 14.677-22.91 10.964-30.09-0.875-1.69-1.59-3.79-1.59-4.67 0-0.87888-0.9-3.4608-2-5.7375s-2-5.7071-2-7.623-0.6019-4.1939-1.3376-5.0622c-3.307-3.91-5.205-22.36-3.607-35.08 1.996-15.9 8.643-26.31 25.945-40.65 3.575-2.9626 6.95-5.891 7.5-6.5076 0.55-0.61661 4.2625-4.2729 8.25-8.1252 3.9875-3.8522 7.25-7.7493 7.25-8.6602 0-0.91085 0.37725-2.0836 0.83833-2.6061 4.5037-5.1036 9.8833-29.671 7.2041-32.899-0.66802-0.80491-0.87253-2.0169-0.45447-2.6934 0.41806-0.67644 0.86688-13.409 0.99738-28.294 0.13049-14.885 0.74692-29.989 1.3698-33.564 0.62292-3.575 1.5258-9.2 2.0064-12.5 0.48057-3.3 1.8108-8.658 2.9561-11.907 1.1453-3.2486 2.0824-7.1254 2.0824-8.6151s0.82846-3.7818 1.841-5.0934c1.0126-1.3117 2.108-3.2849 2.4343-4.3849 1.3769-4.642 3.3672-9.2291 5.4747-12.618 1.2375-1.9899 2.25-4.3772 2.25-5.305 0-1.6095 7.0763-13.241 12.464-20.488 1.3948-1.8761 2.536-3.9351 2.536-4.5757 0-0.64057 1.1788-2.2556 2.6196-3.589s3.6939-3.9993 5.0069-5.9243 3.7609-5.3 5.4397-7.5c4.2803-5.609 24.676-26.352 30.547-31.067 2.6876-2.1584 6.394-5.3888 8.2365-7.1788s3.8917-3.2545 4.5538-3.2545c0.66211 0 2.7546-1.6052 4.65-3.5672 1.8954-1.9619 7.1711-6.075 11.724-9.1401 4.5527-3.0651 8.5158-5.9585 8.807-6.4296 0.2912-0.47116 2.8663-2.0035 5.7224-3.4053 5.3163-2.6091 15.221-8.544 17.421-10.439 3.332-2.8693 10.22-6.8007 14.007-7.9946 2.3296-0.73441 4.9868-2.1654 5.905-3.18 0.91819-1.0146 2.8946-1.8447 4.392-1.8447s3.2893-0.6829 3.982-1.5176c1.1748-1.4155 17.141-9.4858 18.755-9.4797 0.7446 0.0028 6.5347-2.6396 13.731-6.2662 15.399-7.7608 19.404-9.582 22.5-10.232 1.925-0.404 6.65-2.2497 10.5-4.1016 11.251-5.4116 64.204-19.728 92-24.873 66.029-12.222 174.32-11.501 202.68 1.3496 2.3775 1.0773 5.3013 2.2395 6.4972 2.5827 1.1959 0.34323 3.7351 1.6832 5.6426 2.9776 1.9075 1.2945 4.9642 2.6821 6.7928 3.0838 1.8286 0.40162 4.0144 1.0908 4.8575 1.5314 3.2814 1.7152 10.72 4.8131 14.533 6.0521 2.2 0.71498 4.45 1.8015 5 2.4146 0.55 0.61304 3.25 2.1605 6 3.4388 9.0697 4.216 14.977 7.3105 16.579 8.6845 0.88 0.77 2.04 1.38 2.6 1.38 0.55862 0 3.507 2.1801 6.5521 4.8448 3.045 2.6646 7.2775 5.8953 9.4056 7.1792 2.128 1.2839 5.7716 4.0538 8.0968 6.1552 2.33 2.102 4.67 3.821 5.2 3.821 0.52864 0 3.6444 2.7 6.924 6s6.3578 6 6.8406 6c1.6787 0 12.329 11.192 12.93 13.588 0.3329 1.3264 1.119 2.412 1.7469 2.4126 0.62787 0.000556 3.8416 3.2023 7.1416 7.1151 3.3 3.9127 7.575 8.828 9.5 10.923 1.925 2.0948 5.354 5.8295 7.6201 8.2993s4.4247 5.7043 4.797 7.1877c0.37231 1.4834 2.1182 4.2022 3.8799 6.0419 6.6725 6.968 8.703 9.3838 8.703 10.355 0 0.55097 2.4645 3.7638 5.4766 7.1395 5.4552 6.1137 8.5234 11.013 8.5234 13.611 0 0.75143 1.2375 3.2246 2.75 5.496s3.0574 4.6249 3.4331 5.2301c1.3558 2.184 16.519 34.184 17.817 37.6 0.73132 1.925 1.8858 4.175 2.5656 5 0.67975 0.825 1.6908 3.1746 2.2468 5.2213 0.55597 2.0467 1.9507 5.0412 3.0994 6.6544s2.0885 4.3561 2.0885 6.0954c0 1.7565 1.0487 4.5776 2.359 6.3456 1.2974 1.7508 3.1494 5.6583 4.1156 8.6833 1.7696 5.5406 4.7769 12.831 10.408 25.232 1.6813 3.7024 3.8173 9.8821 4.7467 13.733 0.9294 3.8506 2.4567 7.8243 3.3939 8.8303 1.0381 1.1143 1.7041 3.4517 1.7041 5.981 0 4.4009 1.204 8.3135 4.4774 14.55 1.1043 2.1038 2.4182 7.1311 2.9199 11.172 0.50164 4.0406 1.5788 8.9423 2.3938 10.893 0.81494 1.9504 1.4817 5.833 1.4817 8.628s0.66211 6.3622 1.4714 7.9271c4.1816 8.0863 6.2409 50.269 3.0052 61.555-1.2132 4.2316-1.8179 10.716-2.052 22-0.20946 10.098-0.93169 18.582-1.958 23-1.9147 8.2421-3.1447 15.204-4.505 25.5-0.54502 4.125-1.8843 9.4076-2.9762 11.739-1.0919 2.3315-1.9853 4.7746-1.9853 5.429 0 1.473-1.9394 7.726-3.1228 10.068-0.48248 0.95504-0.87724 2.841-0.87724 4.191s-0.40015 2.7019-0.88922 3.0041c-0.48907 0.30227-1.1991 1.7842-1.5778 3.2933-0.37875 1.509-1.7786 5.1266-3.1108 8.0391-1.3322 2.9124-2.4222 5.867-2.4222 6.5657s-0.39469 1.6979-0.87708 2.2204-1.6383 3.425-2.5686 6.45c-2.1332 6.936-4.5865 11.597-10.977 20.855-5.71 8.2718-10.881 16.414-12.795 20.145-0.70515 1.375-3.9821 5.24-7.2821 8.589-9.3997 9.5391-20.5 21.698-20.5 22.455 0 0.37833-3.2625 3.8373-7.25 7.6865s-8.375 8.3006-9.75 9.892c-4.66 5.4-23.32 22.38-24.59 22.38-0.69168 0-4.5554 3.1984-8.586 7.1077-4.0306 3.9092-8.6875 7.6971-10.349 8.4174-3.032 1.3148-7.5386 5.4749-5.931 5.4749 1.1786 0-9.8004 6.94-11.049 6.9841-0.55 0.0194-2.9758 1.6059-5.3907 3.5256s-5.0024 3.4903-5.75 3.4903-1.3593 0.42701-1.3593 0.94892c0 0.5219-2.8277 2.2985-6.2839 3.9479-3.4561 1.6494-7.6186 4.1538-9.25 5.5653-4.81 4.17-18.36 10.54-22.41 10.54-1.995 0-6.3052 0.69749-9.578 1.55-3.2729 0.85248-8.43 1.4822-11.46 1.3993-3.0302-0.0829-8.0711 0.57695-11.202 1.4663-7.8862 2.24-37.459-1.2622-40.307-4.7735-0.55-0.67795-3.0949-2.207-5.6554-3.398-16.857-7.8406-26.087-18.7-25.995-30.583 0.0548-7.0687-3.0366-7.96-7.7809-2.2434-11.693 14.09-56.396 24.778-71.814 17.171-2.89-1.43-5.62-2.59-6.08-2.59-2.6378 0-7.4014-8.0251-9.6694-16.29l-1.5889-5.7899-3.2104 2.2426c-4.1348 2.8883-9.8823 7.4122-15.086 11.874-2.2686 1.9454-5.7084 4.583-7.6441 5.8613-3.8508 2.5432-7.5949 9.0584-6.6382 11.552 1.5792 4.1152-4.9357 10.066-12.874 11.759l-4.5639 0.97338 0.6599 4.4006c1.27 8.5-14.64 16.42-32.98 16.42-5.0023 0-12.02 0.63377-15.595 1.4084-3.5748 0.7746-8.9746 1.9556-12 2.6244-3.025 0.6688-7.525 2.2237-10 3.4553s-6.2215 2.5524-8.3255 2.9351-5.3802 1.5691-7.2804 2.6364-4.2411 1.9405-5.202 1.9405c-0.96089 0-2.6347 0.61795-3.7196 1.3732-1.0849 0.75527-7.8225 3.7215-14.973 6.5916-7.15 2.8701-14.575 6.0388-16.5 7.0416-10.848 5.6508-74.957 11.841-91 8.7874zm49-19.024c7.975-1.0837 16.75-2.3595 19.5-2.8352 2.75-0.47565 7.1506-1.1698 9.7792-1.5427 2.6286-0.37282 5.0176-1.0636 5.309-1.5351 0.2914-0.47149 2.7107-0.85725 5.3763-0.85725 2.6993 0 6.5498-0.82913 8.691-1.8714 2.1145-1.0293 6.5445-2.5771 9.8445-3.4397 9.2502-2.4178 15.766-4.8484 18.385-6.8586 1.3117-1.0067 3.1117-1.8331 4-1.8365 0.88833-0.003 2.7401-0.58047 4.1151-1.2824 1.375-0.70194 4.525-1.889 7-2.638 2.475-0.74897 6.525-2.0155 9-2.8145 8.1-2.62 15.04-4.26 17.99-4.26 1.5907 0 3.1703-0.45 3.5102-1 0.34032-0.55065 4.9727-1.0178 10.309-1.0397 16.597-0.068 33.846-4.2502 33.44-8.1079-0.13822-1.3124 0.6618-5.5286 1.7778-9.3694 4.0593-13.97 5.1988-18.088 6.5343-23.615 1.17-4.8422 9.7914-23.068 14.601-30.868 0.84792-1.375 3.609-6.1 6.1356-10.5 2.5267-4.4 5.469-8.9 6.5385-10s2.2805-3.125 2.6911-4.5c0.41061-1.375 2.1474-4.4371 3.8596-6.8048 1.7122-2.3676 4.1308-5.7426 5.3748-7.5 4.6975-6.6363 5.7932-8.1368 7.7634-10.631 1.1138-1.4102 2.6146-3.7309 3.335-5.1571 0.72044-1.4262 2.7341-4.2138 4.4749-6.1946 1.7407-1.9808 4.74-5.6838 6.665-8.2289 4.3952-5.811 20.682-24.106 23.943-26.894 1.3434-1.1489 5.7272-5.3514 9.7418-9.3389s7.6527-7.25 8.0846-7.25c0.43193 0 2.1976-1.2375 3.9237-2.75 4.7207-4.1365 16.065-12.25 17.128-12.25 0.51374 0 1.4769-0.65403 2.1403-1.4534 1.6938-2.0409 9.9118-4.2028 20.949-5.511 10.45-1.25 11.09-1.47 11.09-3.79 0-2.3044 2.3096-8.6336 3.4469-9.446 1.7198-1.2285 2.4973 0.20054 1.5149 2.7845-0.52898 1.3913-0.96179 3.6254-0.96179 4.9646s-0.45 2.4349-1 2.4349c-1.6243 0-1.1899 1.7201 2.3923 9.4732 1.8658 4.0382 3.026 7.7212 2.5783 8.1845-0.4477 0.46326-1.2057 2.3802-1.6845 4.2599-1.36 5.33-10.29 6.49-10.29 1.34 0-2.0474-2.7829-1.4316-4.4917 0.99411-3.4 4.83-12.51 20.01-12.51 20.86 0 0.49-0.45 0.89-1 0.89s-1 0.42744-1 0.94987c0 1.7586-5.9531 9.7894-8.4879 11.45-1.3817 0.90531-2.5121 2.562-2.5121 3.6816 0 1.7095-2.6076 5.7289-7.5 11.561-0.55 0.65563-2.6463 3.1417-4.6585 5.5247s-6.4217 7.7076-9.799 11.833c-11.248 13.739-15.068 16.978-15.032 12.75 0.015-1.7855 7.8918-11.99 11.739-15.209 1.7875-1.4953 3.25-3.4732 3.25-4.3952s2.7199-4.5347 6.0442-8.0282 7.6089-8.6616 9.5215-11.485c1.9125-2.8231 5.2433-7.608 7.4018-10.633 2.1584-3.025 3.9488-5.8954 3.9785-6.3787 0.0297-0.48328 1.8576-3.5208 4.0618-6.75 3.2902-4.8201 3.6868-5.8713 2.2156-5.8713-0.98566 0-2.5334 1.2549-3.4394 2.7886-0.90601 1.5337-3.8155 3.8419-6.4656 5.1293-5.6242 2.7322-34.707 31.51-35.653 35.279-0.32331 1.2882-2.9678 4.6438-5.8767 7.457s-6.4138 7.0133-7.7888 9.3336-3.6443 5.6349-5.043 7.3658c-4.9232 6.0926-10.723 16.207-12.413 21.647-0.9398 3.025-2.1726 6.85-2.7396 8.5-7.1917 20.929-3.3693 38.338 9.0229 41.095 1.4701 0.32706 4.5928 1.2909 6.9392 2.1418 4.4156 1.6013 14.53 1.3043 20.808-0.61097 1.6094-0.491 4.9512-1.4615 7.4262-2.1568 4.0955-1.1504 10.547-4.025 27.5-12.253 3.3-1.6017 6.9-3.7124 8-4.6906 1.1-0.97813 3.8004-2.8939 6.001-4.2573 2.2005-1.3634 6.3653-4.794 9.255-7.6236 2.8898-2.8296 5.4832-5.1447 5.7631-5.1447 0.81599 0 6.4193-6.412 6.4516-7.3827 0.0161-0.48549 0.82883-1.6105 1.806-2.5 3.4009-3.0958 12.257-14.954 13.648-18.274 0.77024-1.8386 2.5647-4.4338 3.9878-5.7671 1.423-1.3334 2.5873-2.7998 2.5873-3.2587 0-0.45889 1.35-2.698 3-4.9757 1.65-2.2778 3-4.6009 3-5.1626 0-0.56167 0.70884-1.8045 1.5752-2.7618 1.5427-1.7046 6.3047-10.437 14.406-26.417 2.2306-4.4 4.4453-8.675 4.9215-9.5 0.47619-0.825 1.4089-2.85 2.0726-4.5 0.66374-1.65 2.0659-4.6642 3.1159-6.6981 1.05-2.034 1.9091-4.4655 1.9091-5.4035 0-2.6669 4.827-12.202 6.7106-13.256 1.4376-0.8045 1.4913-1.1938 0.35412-2.564-1.1318-1.3637-1.0854-1.8977 0.29724-3.4255 0.9009-0.99549 1.6397-2.6746 1.6418-3.7312 0.002-1.0567 0.85403-3.3157 1.8933-5.02 1.0392-1.7043 2.155-5.3043 2.4794-8 0.32442-2.6957 0.8637-7.2315 1.1984-10.08 0.54276-4.6186 2.5715-7.5088 4.1575-5.9228 2.0005 2.0005 0.0375 12.19-4.8392 25.12-1.0412 2.7606-1.8958 5.6856-1.8992 6.5-0.003 0.81437-0.63598 2.6879-1.4058 4.1633-0.76977 1.4754-1.7199 4.1754-2.1114 6-0.39151 1.8246-0.99278 3.7674-1.3362 4.3174-1.2509 2.0037-3.1108 8.0548-3.1254 10.169-0.008 1.1928-2.0684 6.5928-4.5779 12-2.5096 5.4072-4.947 10.731-5.4164 11.831-3.8907 9.1166-8.5989 18.531-10.566 21.128-1.3032 1.7202-3.252 5.4502-4.3306 8.2888s-3.4602 6.9041-5.2924 9.0345-5.1047 6.6588-7.2721 10.063c-2.1674 3.4043-4.9799 6.8706-6.25 7.7028s-2.3093 2.0662-2.3093 2.7422c0 1.7763-12.137 16.455-16.828 20.353-2.1925 1.8216-4.2788 4.477-4.6362 5.9008-0.35737 1.4239-1.7492 3.4536-3.0928 4.5106-1.34 1.06-2.44 2.53-2.44 3.28 0 0.74516-1.125 2.2398-2.5 3.3213-3.1015 2.4396-3.1914 4.5594-0.25 5.8935 2.774 1.2582 9.0896-1.9701 10.679-5.4586 0.56-1.24 1.5-2.26 2.07-2.26 1.34 0 14-12.64 14-13.98 0-0.56176 3.3457-4.1995 7.4349-8.0838 4.5106-4.2846 7.676-8.1603 8.048-9.8538 0.33721-1.5353 1.604-3.3313 2.8151-3.9911 2.0367-1.1096 6.304-6.4106 14.464-17.967 5.1645-7.3147 8.0626-11.321 11.298-15.62 4.4196-5.8707 7.1172-10.056 12.266-19.031 2.534-4.417 5.9722-9.3387 7.6406-10.937 1.6684-1.5984 3.0334-3.6954 3.0334-4.6601 0-0.96464 0.49592-2.0604 1.102-2.435 0.60612-0.3746 1.7722-2.2851 2.5913-4.2455 0.81911-1.9604 2.521-4.943 3.7819-6.6279 1.2609-1.685 2.6221-4.1885 3.0247-5.5635 0.40267-1.375 1.8049-3.9325 3.1161-5.6833s2.3839-4.0458 2.3839-5.1 1.243-3.6717 2.7623-5.8167c2.683-3.7881 6.5732-11.842 7.6801-15.9 0.30005-1.1 1.6624-3.2948 3.0274-4.8774 2.5841-2.9959 6.3523-11.942 7.2125-17.123l0.4981-3-11.84-0.10619c-13.155-0.11799-25.871-2.1433-33.84-5.39-1.1-0.44814-5.375-1.7957-9.5-2.9946-7.3348-2.1318-9.9668-3.1148-13-4.8556-0.825-0.47345-3.075-1.5263-5-2.3398-7.9517-3.36-29.078-14.203-30.121-15.46-0.62-0.75-1.65-1.36-2.29-1.36-4.427 0-46.13-42.511-55.32-56.393-2.8742-4.3412-5.9247-8.6162-6.779-9.5-3.1948-3.3051-7.4595-10.688-7.477-12.944-0.0129-1.6564-0.86982-2.6583-2.9427-3.4407-2.48-0.94-9.07-11.92-9.07-15.13 0-0.28515-1.8-3.3034-4-6.7072s-4-6.8534-4-7.6657c0-0.81231-1.0125-3.0987-2.25-5.0808-3.8733-6.204-4.5836-7.4722-7.6358-13.632-3.8102-7.6897-7.889-20.733-8.7352-27.933-0.3635-3.0928-1.0475-5.8622-1.5199-6.1542-0.47245-0.292-0.85901-1.5394-0.85901-2.7719s-0.52172-2.7627-1.1594-3.4004c-1.4868-1.4868-1.9145-15.507-0.5009-16.421 2.201-1.4225 4.347 1.2198 5.5816 6.8725 1.5064 6.8972 3.9974 14.431 5.2102 15.758 0.47768 0.5225 0.87852 2.5475 0.89075 4.5 0.0124 1.9745 0.89012 4.6595 1.9778 6.05 1.0755 1.375 1.9655 3.0138 1.9778 3.6418 0.0122 0.62801 2.0472 3.3941 4.5222 6.1469s4.5 5.9358 4.5 7.0734 1.35 3.6058 3 5.4851c1.65 1.8792 3 4.0373 3 4.7958 0 0.75843 1.35 2.4941 3 3.857s3 3.0318 3 3.7086c0 1.9093 3.42 7.5425 6.6125 10.892 1.5882 1.6662 4.6466 5.5499 6.7965 8.6306s4.9624 6.165 6.25 6.8541c1.2876 0.68909 2.341 1.854 2.341 2.5888 0 0.73476 1.125 3.6679 2.5 6.5182 2.4164 5.009 3.1098 7.8079 1.9343 7.8079-1.6 0-4.44-2.25-4.44-3.51 0-0.79297-1.0586-2.1354-2.3524-2.9831-1.2938-0.84773-3.2063-3.1782-4.25-5.1788s-3.1374-5.0202-4.6528-6.7102c-1.5153-1.69-2.995-3.8284-3.2881-4.7519-0.68534-2.1593-3.4834-3.2373-4.8516-1.8692-0.74708 0.74708-0.69011 1.5692 0.19282 2.7828 0.68922 0.94737 2.3956 4.0764 3.7921 6.9534 1.3964 2.877 2.9667 5.4952 3.4895 5.8184 0.52283 0.32313 1.6173 2.1831 2.4322 4.1334 0.81485 1.9502 2.833 5.0851 4.4848 6.9664s3.0033 3.8779 3.0033 4.4368c0 0.55893 1.5222 1.6522 3.3826 2.4296 2.0619 0.86151 3.6135 2.333 3.9738 3.7686 0.32511 1.2954 2.2904 4.1082 4.3673 6.2507s3.6838 4.1883 3.5709 4.5463c-0.11291 0.35796 1.523 1.3297 3.6353 2.1594 2.35 0.92312 4.3702 2.6082 5.2053 4.3418 0.76648 1.5912 2.4606 3.0883 3.8647 3.4151 1.8612 0.43316 2.5835 1.3383 2.827 3.5423 0.17982 1.6282 0.74232 3.388 1.25 3.9104 0.50768 0.5225 0.92305 1.76 0.92305 2.75 0 1.2371 0.75623 1.8 2.4182 1.8 1.33 0 3.1916 0.29679 4.1369 0.65953 1.4899 0.57172 1.6276 0.20563 1.0343-2.75-0.37641-1.8752-0.93725-4.872-1.2463-6.6595-0.34689-2.0062-1.1898-3.3155-2.2026-3.421-0.90232-0.0941-2.3156-0.22904-3.1406-0.29992-0.825-0.0709-3.1681-1.9064-5.2069-4.079s-5.3013-5.6526-7.25-7.7334c-1.95-2.08-3.54-4.45-3.54-5.25 0-0.81-0.82-1.47-1.83-1.47-2.0309 0-4.7648-4.2269-3.7724-5.8326 0.34786-0.56285-0.23249-1.2979-1.2897-1.6334-1.8952-0.6015-3.6106-3.3636-2.6719-4.3022 2.1284-2.1284 11.866 4.9977 10.957 8.0183-0.28972 0.9625-0.0238 1.75 0.5909 1.75 0.61471 0 4.0055 2.9164 7.5352 6.481 4.2349 4.2768 6.9386 6.281 7.9497 5.893 1.0707-0.41088 1.5322 0.0325 1.5322 1.472 0 3.5547 2.1479 6.9727 5.1679 8.2236 1.5997 0.66261 3.383 2.0913 3.9629 3.175 0.7711 1.4408 1.352 1.6727 2.1618 0.86285 2.5016-2.5016 4.4649-1.2096 5.1551 3.3926 0.37115 2.475 0.80311 4.5 0.9599 4.5 2.95 0 6.8712-3.9843 9.629-9.7841 1.7564-3.6937 3.595-7.3909 4.0857-8.2159 1.8291-3.0752 2.8389-5.6168 3.8995-9.8147 1.5076-5.967 3.5401-4.9412 3.2626 1.6467-0.26256 6.2319-8.7453 22.725-12.344 24.001-0.51696 0.18334-0.93992 1.8327-0.93992 3.6652 0 2.4062-0.83347 4.1186-3 6.1634-1.65 1.5573-3 3.3536-3 3.9916 0 1.4818 14.615 13.346 16.44 13.346 0.28659 0 2.9832 1.575 5.9925 3.5s5.9085 3.5 6.4427 3.5c0.53422 0 2.2433 1.0408 3.798 2.3128s5.0767 3.1484 7.8267 4.1697 6.35 2.675 8 3.6748c4.6063 2.7912 7.7205 3.9721 9.0897 3.4467 0.68464-0.26272 1.4542 0.068 1.7101 0.73484 0.25591 0.66689 3.3306 1.7987 6.8328 2.5151 3.5021 0.71642 8.3116 2.1561 10.688 3.1992 2.3762 1.0432 6.6512 2.1588 9.5 2.4792 10.983 1.2353 19.232 2.7388 20.459 3.729 0.92122 0.7433 1.9009 0.4635 3.5-0.99961 1.2214-1.1175 3.1908-2.3254 4.3764-2.6842 1.9032-0.57597 7.3715-7.9464 13.783-18.577 1.161-1.925 2.6701-4.4 3.3536-5.5 2.4228-3.8989 6.9864-14.217 7.6751-17.353 0.38431-1.7497 2.2098-5.6906 4.0566-8.7575s3.6486-6.9968 4.0041-8.733c0.35544-1.7362 1.5668-5.11 2.692-7.4973s2.2698-6.4373 2.5435-9c0.27376-2.5627 0.86432-5.1259 1.3124-5.6961 1.7478-2.2242 1.5602-18.87-0.21669-19.233-1.2145-0.24781-2.0879 1.0877-3.3633 5.1426-2.2986 7.3077-4.7661 6.847-3.902-0.72847 1.0675-9.3587-5.3654-14.73-10.951-9.1444-0.825 0.825-2.2072 1.5-3.0714 1.5-0.86429 0-1.578 0.7875-1.586 1.75s-0.63953 3.55-1.4034 5.75c-0.76385 2.2-1.659 6.25-1.9892 9s-1.2997 7.925-2.1544 11.5c-0.85472 3.575-1.7869 7.625-2.0716 9-0.51909 2.5074-1.8339 5.9935-3.4836 9.2364-0.48583 0.95504-0.88333 2.588-0.88333 3.6288s-1.5619 4.4862-3.4708 7.6563c-1.909 3.1701-3.2579 6.1083-2.9977 6.5294 2.0362 3.2947-16.372 25.747-24.031 29.31-2.2 1.0235-4.739 2.2345-5.6422 2.6911-3.1586 1.597-2.7249-0.31164 0.83328-3.6675 1.9738-1.8615 3.9601-3.3846 4.414-3.3846 5.1429 0 18.489-19.615 24.154-35.5 0.58846-1.65 1.6034-4.35 2.2554-6 2.1322-5.396 3.277-8.928 4.3754-13.5 1.3017-5.418 4.1909-20.326 4.7483-24.5 2.3418-17.539 6.3618-30.614 6.3618-20.691 0 5.1112 8.3985 6.1649 16.572 2.0792 2.1154-1.0574 2.4076-12.988 0.74473-30.41-0.39019-4.088-0.11902-5.3476 1.4584-6.7752 3.8957-3.5256 4.5593-0.44603 4.3808 20.329l-0.16279 18.943 3.7532 0.60116 3.7532 0.60116 0.18227 10.64c0.10024 5.8522-0.191 11.1-0.6472 11.661-0.4562 0.56147-1.0574 3.2708-1.3359 6.0208-0.27853 2.75-1.0033 7.025-1.6106 9.5-0.60728 2.475-1.3921 6.075-1.744 8-0.35195 1.925-1.8887 6.2-3.4151 9.5s-4.0466 9.9684-5.6006 14.819c-1.9135 5.9726-4.0362 10.284-6.5771 13.359-2.08 2.49-3.77 5.55-3.77 6.79 0 1.241-0.9 3.4004-2 4.7988s-2 2.9974-2 3.5532c0 0.55584-2.076 3.4099-4.6132 6.3423-2.5373 2.9324-5.2433 6.7942-6.0134 8.5816-0.77011 1.7875-2.0945 3.25-2.9432 3.25-1.8265 0-7.4302 5.8636-7.4302 7.7747 0 0.73096-0.85038 2.9932-1.8897 5.0271-1.0394 2.034-3.0938 6.3981-4.5654 9.6981s-3.1047 6.675-3.6291 7.5c-0.52437 0.825-1.5094 2.625-2.189 4-2.3395 4.7335-7.0626 12.504-8.8135 14.5-0.96492 1.1-2.6458 4.3595-3.7352 7.2433s-3.6247 7.5314-5.6339 10.328-4.0674 6.1747-4.5739 7.5067c-0.50645 1.332-1.3257 2.4219-1.8206 2.4219-0.49486 0-1.1665 1.3336-1.4924 2.9635-0.32599 1.6299-1.9479 4.171-3.6042 5.6468s-3.2981 3.6297-3.6484 4.7865c-0.35028 1.1568-1.6466 3.4532-2.8807 5.1032s-3.5256 5.4516-5.0922 8.4479c-1.5666 2.9964-7.0772 11.071-12.246 17.944-5.1686 6.8727-9.6609 13.196-9.9828 14.052-0.62192 1.6534-6.9119 10.234-9.911 13.52-0.9857 1.08-2.5296 3.105-3.431 4.5-0.90133 1.395-4.3888 5.3719-7.75 8.8377s-6.1112 6.8563-6.1112 7.5344c0 0.67813-1.3343 2.0212-2.9651 2.9845-1.6308 0.96335-5.7822 5.2229-9.2252 9.4656-7.1166 8.7695-8.6026 10.138-11.06 10.182-4.7018 0.0854 1.7955 7.0183 6.5865 7.0281 3.84 0.02 16.67-11.52 16.67-14.97 0-0.61031 1.4625-1.7392 3.25-2.5087 1.7875-0.76945 6.1104-4.459 9.6065-8.199s8.963-9.5586 12.149-12.93c3.1856-3.3717 6.5823-7.4217 7.5482-9 0.96592-1.5783 3.8241-4.9564 6.3514-7.507 7.0313-7.0959 17.866-21.603 20.635-27.629 0.82543-1.7965 3.6867-5.3965 6.3583-8s5.5991-6.1962 6.5054-7.9837c0.90636-1.7875 2.0035-3.25 2.4381-3.25 1.0794 0 5.1585-7.3947 5.1585-9.3514 0-0.86848 1.3515-3.1183 3.0033-4.9996s3.7267-5.1519 4.6109-7.268c0.88416-2.1161 2.4577-4.9282 3.4967-6.2491s1.8891-3.216 1.8891-4.2114c0-2.1297 6.4827-16.667 8.423-18.889 0.73578-0.84241 2.0306-5.3567 2.8775-10.032 4.794-26.465 8.2944-32.864 8.0894-14.788-0.0813 7.1722-0.53898 10.367-1.75 12.215-0.90193 1.3765-1.6399 3.7734-1.6399 5.3265s-0.9 4.589-2 6.7466-2 4.6561-2 5.5522c0 0.89613-2.853 7.4385-6.34 14.539-3.487 7.1001-6.9408 14.484-7.675 16.409-0.73422 1.925-4.666 7.9736-8.7372 13.441-4.0712 5.4677-8.3189 11.768-9.4392 14-1.1203 2.2323-3.1106 5.4912-4.4228 7.242s-2.3858 3.5044-2.3858 3.897c0 0.39255-1.5086 2.5601-3.3524 4.8167s-4.1054 5.5655-5.0257 7.353c-0.92031 1.7875-2.1061 3.25-2.6351 3.25-0.52897 0-2.0792 1.7702-3.4451 3.9338-1.3658 2.1636-3.3087 4.7511-4.3176 5.75-1.0089 0.99891-3.3845 3.8333-5.2792 6.2986s-4.2324 5.2778-5.195 6.25c-0.9625 0.97219-1.75 2.3104-1.75 2.9737 0 1.31-20.59 21.78-21.93 21.78-0.45776 0-1.3533 1.2375-1.9901 2.75-0.65382 1.553-3.4965 4.1956-6.5307 6.0712-6.6219 4.0931-8.361 5.9631-9.1322 9.8192l-0.60183 3.0092 8.34 2.1887c12.827 3.3662 21.733 3.0296 26.555-1.0036 6.2363-5.2155 20.247-20.188 20.9-22.335 0.33465-1.1 1.7268-3.125 3.0938-4.5 7.68-7.73 15.29-16.58 15.29-17.79 0-0.76489 1.974-3.7125 4.3866-6.5502s6.4908-8.6378 9.0625-12.889c2.5718-4.2513 5.103-7.9936 5.625-8.3162 1.21-0.75 14.93-21.89 14.93-23.01 0-0.16799 2.1688-3.601 4.8194-7.6288 4.2658-6.4822 10.144-16.434 15.428-26.12 3.6269-6.6479 6.9616-14.454 9.3092-21.792 1.3352-4.1735 3.2952-8.3732 4.3554-9.3327 1.0603-0.95952 2.4586-3.9574 3.1074-6.6619 1.2874-5.3663 3.8865-6.6414 6.1499-3.0171 1.3438 2.1518 3.8302 1.699 3.8302-0.69739 0-0.87075 1.2971-4.3101 2.8824-7.643s3.3821-7.1848 3.9928-8.5598c0.61068-1.375 1.5254-3.175 2.0328-4 1.2078-1.964 6.0921-12.889 6.0921-13.626 0-0.31434 0.62229-1.9895 1.3829-3.7227 5.0318-11.466 9.6748-31.343 12.649-54.151 0.502-3.85 1.3579-10.375 1.902-14.5 1.694-12.843 2.5185-46.264 1.2323-49.954-0.70726-2.0288-0.79746-3.8818-0.23766-4.8821 0.54243-0.96928 0.52637-2.3145-0.0403-3.3733-0.51838-0.9686-1.0723-7.5052-1.231-14.526-0.34604-15.312-4.3087-24.256-6.3111-14.244-0.33229 1.6614-0.99604 3.263-1.475 3.559-0.48 0.29-0.87 3.4-0.87 6.91 0 6.3509-1.1739 8.7261-3.2746 6.6254-1.222-1.222-1.0718-9.9701 0.19898-11.592 0.44536-0.56839 1.0534-3.862 1.3511-7.3192 0.98157-11.397 12.392-19.106 13.487-9.1121 0.14447 1.3188 0.74879 4.1647 1.3429 6.3241 0.59416 2.1594 1.2608 10.934 1.4814 19.5 0.22063 8.5656 0.56883 17.824 0.77377 20.574 1.1482 15.406 0.86358 32.166-0.61622 36.292-1.1914 3.3215-1.2941 4.9416-0.4543 7.1664 0.79059 2.0945 0.77274 3.9151-0.0658 6.7083-0.63295 2.1085-1.413 7.4336-1.7334 11.834-0.98074 13.469-2.4594 23.649-4.5756 31.5-3.2153 11.93-6.979 24.222-8.5069 27.784-0.7748 1.8062-1.4087 3.7617-1.4087 4.3456 0 0.58393-0.93984 2.3816-2.0885 3.9948s-2.5458 4.6077-3.1048 6.6544c-1.37 5.03-7.85 18.23-8.94 18.23-0.48 0-0.87 0.58-0.87 1.29 0 0.71049-2.025 3.2792-4.5 5.7082s-4.5 4.9779-4.5 5.6642c0 0.68628-1.2938 3.442-2.875 6.1238s-2.875 6.0263-2.875 7.4322-1.4264 4.6294-3.1699 7.1634c-1.7434 2.534-3.0775 5.1718-2.9646 5.8619 0.23726 1.4502-1.8871 6.9649-2.9794 7.7342-0.40633 0.28619-1.5648 2.7704-2.5743 5.5204s-2.3973 5.675-3.084 6.5c-0.68665 0.825-2.1148 3.3-3.1737 5.5-3.0605 6.3587-13.698 22.409-16.238 24.5-0.33398 0.275-1.1837 1.625-1.8883 3-3.8164 7.4477-5.0038 9.4033-6.3153 10.401-0.79416 0.60431-2.7155 3.5738-4.2696 6.5988s-4.3484 7.3757-6.2095 9.6683-3.3838 4.4922-3.3838 4.8882c0 0.39593-1.8 2.6726-4 5.0594-2.2 2.3867-4 4.9779-4 5.7582 0 0.78032-1.4625 2.7121-3.25 4.2928s-5.5 5.5648-8.25 8.8536-5.4927 6.4296-6.0949 6.9796c-0.60221 0.55-2.1621 2.5562-3.4664 4.4583-3.0906 4.5069-9.6856 11.172-13.296 13.436-3.6524 2.2909-2.2834 3.6093 2.8511 2.7456 2.9819-0.5016 4.3176-1.3466 5.27-3.3338 0.70171-1.4641 2.7293-3.882 4.5058-5.3731 4.6973-3.9428 12.181-12.658 22.23-25.888 2.75-3.6205 8.0329-10.287 11.74-14.814 3.7069-4.5272 6.7444-8.5235 6.75-8.8807 0.006-0.35723 1.5852-2.99 3.5102-5.8505s3.5-5.8308 3.5-6.6005c0-0.79 0.64-1.42 1.41-1.42 1.68 0 6.59-5.58 6.59-7.48 0-0.73077 1.575-3.2138 3.5-5.5179s3.5-4.6453 3.5-5.2028c0-0.55748 2.1594-3.7774 4.7986-7.1554 4.4806-5.7348 7.304-9.673 9.7014-13.532 0.55-0.88535 3.0202-4.5347 5.4894-8.1097 4.954-7.1727 8.4357-13.304 12.919-22.75 2.2657-4.7739 3.468-6.25 5.0903-6.25 2.8622 0 1.8967 7.8617-1.6031 13.054-1.3175 1.9546-2.3954 3.8959-2.3954 4.3141 0 0.41818-1.125 3.2198-2.5 6.2259s-2.5 6.4-2.5 7.542-1.125 2.9614-2.5 4.0429c-1.375 1.0816-2.5 2.5742-2.5 3.317 0 0.74277-1.2944 2.6449-2.8765 4.227-2.9164 2.9164-5.1659 9.2773-3.2808 9.2773 1.3892 0 7.6836-7.5116 10.867-12.969 1.4539-2.4922 3.3121-5.0287 4.1293-5.6366 0.84603-0.62938 1.2136-1.815 0.85358-2.7532-0.42545-1.1087 0.5029-2.6808 2.8375-4.8053 2.0991-1.9101 3.4698-4.0955 3.4698-5.532 0-2.3775 1.8942-6.0525 5.0534-9.8041 0.92628-1.1 1.9539-3.125 2.2836-4.5 0.67897-2.8315 6.6656-13.942 10.008-18.574 1.2202-1.6909 2.8505-5.0659 3.6229-7.5s2.1429-5.5506 3.0455-6.9256c0.90264-1.375 2.6299-5.875 3.8384-10 1.2084-4.125 3.0855-10.425 4.1712-14s2.6359-9.875 3.4448-14c0.80892-4.125 2.1764-10.65 3.0389-14.5 0.86245-3.85 1.8395-8.35 2.1712-10 0.33171-1.65 1.0002-3.5087 1.4856-4.1304 0.48536-0.62171 1.1044-6.5742 1.3756-13.228 0.2712-6.6535 0.90627-13.184 1.4113-14.512 0.505-1.3283 0.66008-3.402 0.34463-4.6082-0.31545-1.2063-0.0644-4.5171 0.55792-7.3573 0.62231-2.8402 1.3474-10.564 1.6114-17.164 0.26393-6.6 0.96543-15.15 1.5589-19 0.59346-3.85 1.0154-7.675 0.93775-8.5-0.30993-3.2909-0.14778-13.365 0.49339-30.651 0.49831-13.435 0.3685-18.34-0.49964-18.876-1.8027-1.1141-9.0392 6.7045-9.843 10.635-0.43915 2.1472-1.3642 3.5105-2.535 3.736-2.1497 0.41399-1.52-4.1228 0.9533-6.8691 0.75596-0.83937 1.6707-3.3784 2.0327-5.6422 1.2158-7.6035 11.082-16.013 14.176-12.082 1.621 2.0598 2.2612 8.7772 1.0252 10.756-0.86347 1.3826-0.82538 2.7775 0.15713 5.7545 0.90064 2.729 1.1004 6.6501 0.65377 12.834-0.3537 4.8976-1.0339 16.78-1.5116 26.405-0.47766 9.625-1.5727 23.8-2.4334 31.5-0.86071 7.7-1.5795 17.204-1.5974 21.119-0.0179 3.9155-0.66315 10.89-1.434 15.5-0.77084 4.6095-1.7256 11.306-2.1217 14.881-1.3156 11.875-1.5474 13.263-2.5156 15.072-0.52867 0.98782-0.96122 2.8526-0.96122 4.1439s-0.70905 4.8084-1.5757 7.8157c-0.86661 3.0074-1.9379 7.7179-2.3806 10.468-1.2592 7.8221-7.9412 28.299-11.89 36.438-1.1844 2.4408-2.1534 5.2748-2.1534 6.2978s-1.125 2.9025-2.5 4.1768-2.5 2.8206-2.5 3.4363c0 0.61567-1.35 3.9063-3 7.3125s-3 6.7333-3 7.3935c0 0.66019-0.67005 1.7564-1.489 2.4361-1.9466 1.6155-1.01 3.0091 2.0223 3.0091 1.7167 0 2.8969-0.94002 4.0805-3.25 0.91587-1.7875 2.1155-3.5405 2.6658-3.8956 0.55033-0.35509 2.175-2.9505 3.6105-5.7676 9.3798-18.408 8.6847-16.886 13.997-30.655 1.7121-4.4377 3.1129-8.8535 3.1129-9.813 0-0.95943 1.0671-4.0786 2.3714-6.9315 2.4993-5.467 4.4266-12.205 5.6316-19.687 0.76695-4.7627 6.598-27.545 7.3695-28.794 0.53042-0.85824 2.943-15.795 4.6369-28.706 0.64936-4.95 1.852-12.235 2.6724-16.189 0.82047-3.9539 1.2044-8.0943 0.8532-9.2008-0.35121-1.1066-0.169-3.7558 0.40492-5.8872 0.57391-2.1314 1.2196-6.991 1.4347-10.799 0.21519-3.8082 0.96544-8.274 1.6672-9.924 1.3555-3.187 2.5338-10.487 3.5699-22.115 0.74601-8.3731-0.2787-9.7466-4.7854-6.4147-3.509 2.5943-3.7356 2.4874-3.1299-1.4779 1.6078-10.526 10.93-11.865 12.608-1.8113 1.3545 8.1154-0.0553 28.117-2.274 32.262-0.62799 1.1734-1.3169 5.5566-1.5309 9.7403-0.21399 4.1838-0.84434 9.679-1.4008 12.212-2.84 12.92-4.1 20.64-4.1 25.09 0 5.9439-3.6269 26.397-8.1035 45.7-1.0431 4.4974-1.8965 9.5334-1.8965 11.191s-0.39652 3.2589-0.88116 3.5584c-0.48464 0.29953-1.1922 3.8643-1.5724 7.9217-0.38022 4.0574-1.2539 8.4514-1.9415 9.7644s-1.7361 3.2873-2.3301 4.3873c-0.59394 1.1-1.6048 4.025-2.2464 6.5-3.2906 12.694-10.288 30.614-13.667 35-0.63554 0.825-3.4177 5.8696-6.1826 11.21-2.7649 5.3406-6.0004 10.741-7.1902 12-1.1897 1.2594-3.0331 3.9773-4.0964 6.0398s-2.3741 3.75-2.9129 3.75c-0.53883 0-0.97968 0.60012-0.97968 1.3336 0 0.73349-1.7144 3.1907-3.8098 5.4604s-4.4217 5.27-5.1695 6.6674c-1.83 3.42-9.07 11.54-10.28 11.54-0.53479 0-2.7723 1.8-4.9723 4s-4.3971 4-4.8824 4c-0.48529 0-0.88235 0.57214-0.88235 1.2714 0 1.1394-9.1811 14.464-10.831 15.72-0.36782 0.27985-1.531 2.0838-2.5848 4.0088s-3.1913 4.9782-4.75 6.7848-2.834 3.7102-2.834 4.2301-2.732 3.96-6.0712 7.6446-6.8925 8.3092-7.8963 10.277c-1.0038 1.9676-4.3468 5.9623-7.4288 8.8772-3.09 2.92-5.61 5.69-5.61 6.15 0 0.81027-5.322 7.7765-8.4969 11.122-1.7317 1.8247-1.9816 3.9161-0.46795 3.9161 2.2996 0 6.1833-3.5522 10.505-9.608 2.51-3.51 5.04-6.39 5.63-6.39 1.41 0 15.83-14.98 15.83-16.45 0-0.6312 2.475-3.7029 5.5-6.8261 3.025-3.1231 5.5-6.5626 5.5-7.6431 0-1.1225 1.286-2.7243 3-3.7368 1.65-0.97468 3-2.3755 3-3.1129 0-0.73743 2.1958-3.4529 4.8796-6.0344s6.5593-6.9436 8.6122-9.6936c2.053-2.75 4.2612-5.45 4.9071-6 0.64597-0.55 2.2523-2.575 3.5697-4.5s4.1133-5.4024 6.2133-7.7277c2.1-2.3252 3.8181-4.7082 3.8181-5.2954 0-0.58729 1.125-2.1928 2.5-3.5678s2.5102-2.817 2.5227-3.2045 2.375-3.2542 5.25-6.3705 6.9619-8.9663 9.0819-13c5.6307-10.713 9.712-14.43 11.3-10.291 0.63665 1.6591 4.3451-0.70563 4.3451-2.7707 0-0.82273 8.0799-18.211 13.065-28.117 1.0641-2.1145 1.9348-4.6469 1.9348-5.6276 0-0.98068 0.675-2.3432 1.5-3.0279 0.825-0.68469 1.5-1.8563 1.5-2.6035 0-0.74724 1.3178-4.1796 2.9285-7.6276 1.6107-3.4479 3.6657-8.9689 4.5668-12.269 0.9011-3.3 2.4594-7.8 3.463-10 4.15-9.09 12.04-33.35 12.04-37 0-1.3502 0.89832-3.9282 1.9963-5.729s1.998-4.3162 2-5.5899 0.45415-3.1574 1.0047-4.186c1.55-2.9 7-24.77 7-28.1 0-1.6322 0.62222-3.9643 1.3827-5.1824 2.4442-3.915 2.7726-13.55 0.67203-19.715-1.0307-3.025-2.1521-7.537-2.4921-10.027-0.34-2.4896-1.2807-5.8036-2.0904-7.3643-0.81-1.56-1.47-4.56-1.47-6.67 0-2.1047-0.45-4.1048-1-4.4447-1.5487-0.95715-1.2082-7.2061 0.42689-7.8336 1.9984-0.76685 3.0779 0.92315 5.004 7.8336 1.7931 6.4333 5.5858 14.5 6.8174 14.5 1.6379 0-0.009-12.507-2.2437-17.04-0.41752-0.84695-1.0921-3.997-1.4991-7-0.40699-3.0031-1.3622-6.6752-2.1227-8.1604-0.76-1.49-1.38-3.63-1.38-4.76 0-1.1348-0.39977-2.8446-0.88837-3.7997-0.48861-0.95504-1.3872-4.4364-1.997-7.7364-0.60972-3.3-1.9503-7.8-2.979-10s-2.8155-6.025-3.9706-8.5-3.5052-9-5.2223-14.5c-1.7172-5.5-3.7567-11.194-4.5324-12.654-0.78-1.46-1.41-3.31-1.41-4.11 0-0.79573-1.1738-3.6513-2.6084-6.3457s-3.6782-7.8606-4.9858-11.48c-2.067-5.7224-18.256-38.664-20.355-41.418-0.4191-0.55-1.309-3.25-1.9776-6-0.66859-2.75-2.0234-5.9-3.0107-7-0.98727-1.1-2.5663-4.025-3.5089-6.5-0.94261-2.475-3.4584-7.425-5.5906-11s-4.8444-8.2642-6.0272-10.421c-2.5788-4.7015-16.015-25.053-18.868-28.579-1.1126-1.375-2.0328-2.8412-2.0451-3.2582-0.0122-0.417-2.7222-3.9738-6.0222-7.9041s-6-7.5448-6-8.0323c0-1.759-4.4772-6.8894-7.6416-8.7564-1.7784-1.0493-5.5477-5.0896-8.3762-8.9784-2.83-3.888-5.45-7.07-5.83-7.07-0.3808 0-1.5578-1.6069-2.6154-3.571-1.89-3.505-8.36-9.429-10.31-9.429-0.54307 0-2.2646-1.6875-3.8256-3.75s-3.9769-4.6314-5.3687-5.7086-5.0534-4.5183-8.137-7.6469c-3.0836-3.1285-7.3586-6.8443-9.5-8.2572-2.14-1.413-5.69-3.916-7.89-5.563-2.2-1.6472-5.5689-3.709-7.4864-4.582-1.9175-0.87293-4.3925-2.3591-5.5-3.3025-7.34-6.258-51.04-23.897-65.01-26.242-10.58-1.776-16.13-2.889-19.5-3.915-4.38-1.332-36.24-3.594-71.28-5.0611-44.65-1.8689-82.98 0.7075-118.36 7.9541-17.418 3.568-57.687 14.32-61.942 16.539-1.6059 0.83747-3.8773 1.5254-5.0474 1.5288-1.1702 0.0034-2.6733 0.66373-3.3403 1.4674-0.66701 0.8037-2.1846 1.7454-3.3724 2.0926-1.1878 0.34721-4.1847 1.548-6.6597 2.6684-10.111 4.5769-14.815 6.6536-21 9.2695-3.575 1.5121-8.075 3.4168-10 4.2328-7.29 3.09-12.601 5.7903-15.5 7.8804-1.65 1.1897-4.125 2.505-5.5 2.923-1.375 0.41797-3.8925 1.8202-5.5944 3.1161-1.71 1.296-3.82 2.356-4.7 2.356-0.87813 0-1.8747 0.45-2.2146 1-0.33992 0.55-1.2205 1-1.9568 1-0.73633 0-4.1973 1.699-7.691 3.7756s-7.6106 4.4138-9.1487 5.1939c-1.5381 0.78002-4.4631 2.8418-6.5 4.5818s-4.7141 3.4824-5.9492 3.8722c-1.2351 0.38974-4.4996 2.6325-7.2544 4.984s-6.6942 4.8344-8.7543 5.5176c-2.0601 0.68323-5.9956 3.2774-8.7456 5.7647-2.75 2.4874-7.7454 6.3872-11.101 8.6664-10.444 7.094-16.774 12.754-25.722 23-3.2026 3.6672-7.0939 7.3249-8.6474 8.1282-1.5534 0.80331-4.2789 3.8354-6.0565 6.738-3.0257 4.9405-4.7205 7.116-13.459 17.277-3.55 4.13-8.51 11.19-8.51 12.11 0 0.28898-1.2643 2.4065-2.8096 4.7056s-4.3578 7.2952-6.25 11.102c-1.8922 3.8072-4.2965 8.5322-5.3429 10.5-4.2154 7.9272-10.705 27.482-12.65 38.118-2.8506 15.588-3.8039 30.139-3.8521 58.797-0.0313 18.564-0.44495 30.948-1.073 32.122-0.56219 1.0505-1.0322 3.177-1.0444 4.7257s-0.90222 3.9407-1.9778 5.3157c-1.0755 1.375-1.9655 3.2324-1.9778 4.1276-0.0122 0.89515-0.68247 2.1755-1.4894 2.8452-0.80695 0.6697-3.079 4.0998-5.049 7.6224s-3.9716 6.4048-4.4481 6.4048c-0.47646 0-2.1419 1.3863-3.701 3.0806-1.5591 1.6944-4.3522 4.1357-6.2067 5.4251-25.144 17.48-33.914 40.63-25.188 66.49 1.0206 3.025 2.4296 7.525 3.131 10 2.2789 8.0413 5.9233 7.1558 5.9313-1.4411 0.0061-6.5854 5.3723-13.583 8.2271-10.728 1.1672 1.1672 0.73712 2.77-5.1434 19.169-4.8307 13.471-3.5289 21.565 2.4125 15 0.99549-1.1 2.4583-2 3.2507-2 1.4445 0 6.4395-2.4895 9.2493-4.6098 3.0541-2.3047 12.619-5.2442 14.072-4.3247 4.4228 2.799 9.3692 1.1177 11.805-4.0123 1.2917-2.7208 3.198-5.7155 4.2361-6.655 1.0381-0.93947 1.8875-2.5414 1.8875-3.5598s1.178-2.8612 2.6178-4.095c1.4398-1.2339 5.1523-4.6447 8.25-7.5796 7.7493-7.3421 12.932-10.764 14.272-9.4241 1.8548 1.8548-0.16542 5.2821-5.2788 8.9557-3.4583 2.4846-5.1441 4.4705-5.56 6.55-0.37851 1.8925-1.9444 3.9438-4.2803 5.6068-3.8357 2.7309-5.8293 5.0896-12.521 14.813-2.2 3.1971-5.3564 7.1677-7.0142 8.8236s-4.5083 6.0682-6.3345 9.805-4.2259 7.3368-5.3327 8c-2.37 1.42-8.82 11.08-8.82 13.22 0 3.046 2.8597 1.2577 10.073-6.2993 7.4532-7.8078 14.712-13.413 19.083-14.735 1.2891-0.38993 4.6486-2.0087 7.4656-3.5972 11.641-6.5645 24.313 2.1863 21.747 15.017-1.756 8.7798 8.0021 1.93 10.099-7.0888 1.84-7.92 13.66-22.82 18.11-22.82 2.7508 0 2.0846 4.6232-1.1607 8.0547-1.3288 1.4051-2.4161 3.1389-2.4161 3.8529 0 0.71399-2.8125 3.9483-6.25 7.1873l-6.25 5.8891 3.5 0.0118c4.2336 0.0142 9.0956 2.8038 10.616 6.0911 1.3749 2.972 3.3836 11.24 3.3836 13.928 0 2.8459 1.4586 2.4695 5.8683-1.5144 8.13-7.35 15.13 0.26 15.13 16.46v9.2549l2.4023-0.60295c4.9553-1.2437 8.2732 0.34514 11.474 5.4947 3.3318 5.3597 5.6776 6.1463 8.6233 2.8914 5.1939-5.7392 13.488-0.43713 13.496 8.6276 0.006 6.3534 2.1246 7.4137 6.9946 3.5 9.9215-7.9731 11.855-5.858 11.996 13.122 0.0592 7.9679 0.85729 10.429 2.5131 7.75 3.7067-5.9976 21.394 1.5165 23.936 10.169 1.4999 5.1052 4.9017 6.326 8.0216 2.8785 1.02-1.12 2.68-2.04 3.69-2.04 1.02 0 1.85-0.35 1.85-0.78 0-0.42942 1.3195-1.2788 2.9322-1.8875 4.9301-1.8609 7.0402 1.0628 7.1863 9.9572 0.14673 8.9303 0.0678 9.6806-1.308 12.425-0.75118 1.4985-0.81255 3.5991-0.18991 6.5l0.91993 4.286 7.6921-0.1182c10.367-0.1593 19.578-4.8763 19.731-10.105 0.0922-3.1356 4.5848-10.295 6.9754-11.116 3.303-1.1342-2.8637-3.1466-9.6698-3.1556-4.0352-0.005-15.905 9.2657-17.393 13.586-0.20689 0.60031-1.8387 1.3766-3.6262 1.725-4.1942 0.81756-4.2926-0.95621-0.25-4.5036 1.65-1.4478 3-3.596 3-4.7737 0-1.5019 1.045-2.5779 3.5-3.6036 4.8238-2.0155 4.4841-4.2986-1.4916-10.025-7.2441-6.9425-12.787-15.646-13.53-21.244-0.72833-5.4867-4.0576-12.84-7.0925-15.666-1.1814-1.1-2.764-3.125-3.5168-4.5s-2.9059-4.6206-4.7847-7.2124-3.9717-6.1918-4.6509-8c-2.7896-7.4264-6.2187-14.901-7.5884-16.542-2.04-2.46-3.84-6.94-3.84-9.6 0-1.2391-0.3941-2.6804-0.87577-3.203-1.6937-1.8372-2.2692-11.085-0.76737-12.331 2.5115-2.0844 4.153-0.18975 7.0625 8.1516 1.5788 4.5263 3.2553 8.6571 3.7256 9.1796 0.47026 0.5225 0.85502 1.6535 0.85502 2.5134 0 0.85984 1.6875 3.9867 3.75 6.9486s4.65 6.8486 5.75 8.6371c5.0072 8.1413 9.5805 14.262 13.378 17.904 2.267 2.1741 4.1293 4.4241 4.1386 5 0.0871 5.4174 25.184 20.403 37.503 22.393 10.032 1.621 47.859-4.8253 51.874-8.84 0.56-0.55 2.18-1 3.61-1s3.0275-0.39083 3.55-0.86851c0.5225-0.47767 3.0012-1.6309 5.5083-2.5626 10.579-3.9319 31.899-16.022 43.723-24.796 8.05-5.97 12.22-7.28 12.22-3.85 0 1.0541-1.2367 2.8174-2.7482 3.9185-1.5115 1.101-2.4329 2.3172-2.0475 2.7025 0.38535 0.38535 3.0768-1.378 5.981-3.9185s5.6556-4.6191 6.1143-4.6191c0.45864 0 2.3088-1.125 4.1116-2.5 1.8027-1.375 3.6221-2.5 4.0431-2.5 0.42098 0 6.2285-2.6855 12.906-5.9679 6.6771-3.2823 14.84-6.7044 18.14-7.6047 6.767-1.846 7.4031-2.0663 9.5-3.2902 5.5899-3.2625 23.553-7.7528 36.5-9.1239 5.5-0.58247 12.475-1.5117 15.5-2.0649 9.7013-1.7742 58.17-2.2894 60.412-0.64222 2.9662 2.1783 1.3617 5.0985-2.3892 4.3484-8.6535-1.7307-6.6466 3.3962 4.7388 12.106 1.7942 1.3725 5.3035 5.4156 7.7984 8.9847 7.786 11.138 6.9714 16.821-1.2637 8.8168-5.9645-5.7972-5.6701-5.8781-9.7744 2.688-1.9105 3.9875-5.0738 9.95-7.0296 13.25s-3.9978 7.0578-4.5379 8.3506c-0.54006 1.2929-1.8335 3.0929-2.8742 4-1.0408 0.90714-3.3513 4.3322-5.1345 7.6113-4.1406 7.6139-9.6529 16.239-10.852 16.98-1.2171 0.75221-8.3514 11.222-10.568 15.509-0.95404 1.8449-3.0376 4.4508-4.63 5.7907-1.5925 1.34-2.8954 2.8727-2.8954 3.4061 0 1.0239-4.7948 7.3147-9 11.808-1.375 1.4692-3.625 4.1707-5 6.0033-8.1323 10.838-27.606 31.268-31.941 33.511-1.41 0.72911-3.4197 2.2717-4.4662 3.428-2.2205 2.4536-4.844 2.7093-6.5618 0.63953-1.3376-1.6118 2.0148-5.4664 7.0024-8.0514 3.1964-1.6567 27.666-27.06 29.558-30.686 0.77486-1.4852 1.9725-3.0602 2.6615-3.5 0.68895-0.43983 3.27-3.4997 5.7358-6.7997 2.4657-3.3 6.1043-8.025 8.0857-10.5s4.6208-6.2903 5.8653-8.4785 3.3622-5.3382 4.7061-7c5.8799-7.2713 9.608-12.546 14.185-20.07 2.6927-4.4267 6.7555-10.502 9.0285-13.5 2.273-2.9983 4.1347-5.8203 4.1371-6.2712 0.002-0.45091 1.2718-2.7009 2.8209-5 10.635-15.784 12.712-22.682 8.1055-26.927-5.61-5.14-13.22-9.76-16.11-9.76-1.4828 0-4.1018-1.1828-5.8199-2.6285-3.0634-2.5777-3.3113-2.6142-12.827-1.8882-5.3366 0.40718-13.528 0.86103-18.203 1.0085-6.0064 0.18952-9.9178 0.89014-13.333 2.3882-2.6581 1.166-6.0331 2.1162-7.5 2.1116-4.217-0.0133-16.476 3.3567-18.219 5.0084-0.87062 0.825-4.1432 3.891-7.2725 6.8133-3.1292 2.9223-6.3729 6.6348-7.2082 8.25-0.83525 1.6152-1.8973 2.9367-2.3601 2.9367-0.46279 0-1.9614 1.6875-3.3302 3.75s-3.9036 5.2601-5.6329 7.1058c-1.7292 1.8457-3.1441 3.7178-3.1441 4.1602 0 0.44244-1.8 3.0816-4 5.8648s-4 5.4233-4 5.8669c0 0.44361-1.2375 2.2517-2.75 4.0181-1.5125 1.7663-4.325 5.2844-6.25 7.818s-4.625 5.8012-6 7.2614c-4.1979 4.458-10 11.939-10 12.893 0 0.49594-1.472 2.6702-3.271 4.8317-8.8409 10.622-11.749 15.228-19.529 30.93-0.81751 1.65-2.2418 3.9-3.1652 5-1.3839 1.6487-7.3296 11.177-10.92 17.5-3.0556 5.3813-5.5422 10.156-7.5641 14.524-3.2054 6.9244-7.6371 11.528-10.401 10.805-2.7258-0.7128-2.743-3.3049-0.0448-6.7351 1.1577-1.4718 3.1699-4.57 4.4715-6.8848 5.5913-9.944 7.5899-13.383 9.4185-16.209 1.0679-1.65 2.7799-4.575 3.8045-6.5s2.9148-5.3 4.2006-7.5c1.2857-2.2 3.221-5.8 4.3006-8s2.3003-4.225 2.7126-4.5c1.3247-0.88346 9.8142-13.727 12.355-18.693 1.3532-2.644 4.0595-6.3823 6.0141-8.3073s3.5681-3.8365 3.5856-4.2477c0.0532-1.2515 7.3659-11.164 9.2723-12.568 0.98244-0.72385 2.6638-3.0362 3.7363-5.1384 1.0725-2.1023 4.6124-7.1727 7.8664-11.268 3.254-4.0948 6.217-8.3923 6.5844-9.55 0.36742-1.1577 2.109-3.3872 3.8702-4.9546s4.9929-5.0826 7.1815-7.8116 4.5512-5.5565 5.25-6.2832c0.69885-0.72678 1.2706-1.7573 1.2706-2.2901 0-0.53279 1.9125-2.745 4.25-4.9161 4.5665-4.2413 4.4449-4.4302-1.9073-2.9637-4.7579 1.0984-8.0479 4.0876-15.439 14.027-2.85 3.85-5.52 6.98-5.93 6.98-0.40765 0-1.2913 1.3281-1.9636 2.9512-0.67234 1.6232-2.2116 3.5994-3.4205 4.3915-1.2089 0.79212-3.0084 3.2373-3.9989 5.4338-0.99047 2.1965-2.8808 4.4857-4.2008 5.0871-1.32 0.60142-2.4 1.5921-2.4 2.2014 0 1.9734-6.4364 10.146-8.6574 10.993-1.3322 0.50783-2.4346 2.0848-2.8822 4.1227-0.46447 2.1147-2.3579 4.7378-5.2706 7.3016-2.5002 2.2007-6.2681 6.7051-8.3732 10.01-2.1051 3.3046-4.5067 6.9083-5.3368 8.0083-7.247 9.6026-9.2606 12.5-10.99 15.813-1.0945 2.097-2.7775 4.5293-3.74 5.405-0.9625 0.87573-1.75 2.119-1.75 2.7629 0 0.64389-1.1119 2.2153-2.471 3.4921-1.359 1.2768-2.998 3.9181-3.642 5.8697-0.64408 1.9516-2.6283 5.5979-4.4093 8.103-1.781 2.505-4.2048 6.3546-5.3862 8.5546-1.1813 2.2-3.0023 5.35-4.0466 7s-1.9316 3.6396-1.9718 4.4213c-0.0402 0.78169-0.73514 2.1528-1.5443 3.047-1.7572 1.9417-6.5288 10.752-6.5288 12.055 0 4.7596-9.9411 12.447-11.285 8.7263-0.5132-1.4211 5.4691-12.816 8.9652-17.077 1.2757-1.5547 2.3195-3.4065 2.3195-4.1151 0-0.70863 0.84348-2.3616 1.8744-3.6733s3.5219-5.5349 5.5355-9.3849 5.5014-9.925 7.7505-13.5c4.2079-6.6884 5.93-9.5888 9.7966-16.5 1.2309-2.2 3.011-4.9 3.9558-6 1.8344-2.1357 4.3509-5.7488 7.5871-10.894 1.1-1.7487 4.925-6.9457 8.5-11.549 3.575-4.6032 8.1233-10.724 10.107-13.602 1.9841-2.878 4.5312-6.2244 5.6604-7.4364 1.1291-1.212 3.7808-4.7012 5.8926-7.7538s5.9771-7.5835 8.5896-10.069c2.6125-2.4851 4.75-4.9142 4.75-5.3979 0-1.2803 4.2081-7.0712 6.25-8.6009 0.9625-0.72107 1.75-1.819 1.75-2.4399 0-0.62087 0.85142-2.0578 1.892-3.1933 2.3952-2.6135 3.896-8.8222 1.9372-8.0141-0.73108 0.30159-2.881 2.5248-4.7777 4.9404-1.8966 2.4156-4.4336 4.6393-5.6378 4.9416-1.3794 0.34621-2.7877 2.045-3.8068 4.592-0.88963 2.2234-2.291 4.301-3.1141 4.6168-1.7774 0.68203-6.51 7.5139-8.4158 12.149-0.744 1.8094-2.1352 3.8379-3.0916 4.5078-1.516 1.0619-3.9545 3.8219-10.82 12.247-0.91618 1.1243-3.221 4.2743-5.1218 7s-4.2633 5.5438-5.25 6.2625c-0.98672 0.71869-1.794 1.8469-1.794 2.5071 0 0.66021-2.025 3.669-4.5 6.6862s-4.5 6.2284-4.5 7.1359c0 0.90756-0.65578 1.9018-1.4573 2.2093-0.80151 0.30757-2.5852 2.2682-3.9637 4.357-5.1818 7.8514-8.9259 12.865-11.167 14.955-1.2727 1.1863-3.2362 4.1113-4.3635 6.5-1.1272 2.3887-3.8301 6.6894-6.0064 9.5572s-5.5945 8.2678-7.596 12-4.4956 7.7148-5.5424 8.8502c-1.04 1.13-1.9 2.62-1.9 3.32 0 0.69099-1.9566 4.037-4.3479 7.4356-4.0699 5.7841-5.8868 9.073-14.222 25.746-1.8056 3.6116-3.991 7.1542-4.8564 7.8724-0.86549 0.71829-1.5736 1.9438-1.5736 2.7234 0 2.3314-3.9726 9.39-5.6461 10.032-1.9564 0.75076-3.4803-1.56-2.766-4.1944 1.3625-5.0248 5.3075-12.827 12.162-24.054 2.8875-4.7292 5.25-8.9446 5.25-9.3674 0-0.42281 0.9-1.5832 2-2.5787 1.1-0.99549 2-2.4305 2-3.189 0-0.75847 2.25-4.6807 5-8.7161s5-7.6383 5-8.0065c0-0.36818 0.84811-1.8887 1.8847-3.3789s4.939-7.4316 8.672-13.203 7.3849-11.091 8.1153-11.821c0.7304-0.73039 1.328-1.6579 1.328-2.0611 0-0.40324 1.5024-2.3734 3.3388-4.3782 1.8363-2.0048 5.0075-6.4986 7.0472-9.9862 2.0396-3.4876 6.1622-9.4202 9.1612-13.184 2.9991-3.7633 5.4528-7.2141 5.4528-7.6685 0-0.45437 1.1354-2.082 2.523-3.6169 5.5227-6.1087 11.479-13.728 11.515-14.731 0.021-0.58287 2.496-3.7515 5.5-7.0414 4.9-5.37 7.46-11.52 4.79-11.52-0.96 0-4.33 3.17-4.33 4.07 0 0.41661-2.3689 3.1594-5.2643 6.095s-7.2498 8.2625-9.6765 11.838c-4.2762 6.2997-8.7582 12.371-15.03 20.358-1.6661 2.122-3.0294 4.2835-3.0294 4.8034 0 1.1047-10.317 14.322-13.691 17.541-1.27 1.21-2.31 2.95-2.31 3.85 0 0.9056-1.2494 2.8396-2.7764 4.2978s-4.7572 6.0149-7.1782 10.126c-2.421 4.1112-5.8937 9.5112-7.7171 12s-4.627 6.3251-6.2302 8.5251-3.9902 6.025-5.3046 8.5c-1.3143 2.475-4.0555 7.0962-6.0915 10.269-2.036 3.1732-3.7019 5.9397-3.7019 6.1478 0 0.20811-1.7326 3.2369-3.8502 6.7306s-5.4359 9.2772-7.374 12.852c-8.9395 16.49-10.15 18.608-11.571 20.25-1.8876 2.1806-3.0489 2.2011-5.3761 0.095-2.8511-2.5802-2.199-4.8879 2.6713-9.4526 2.475-2.3198 4.5-5.018 4.5-5.996 0-0.97806 0.50024-2.0875 1.1116-2.4653 0.61141-0.37787 2.2223-3.1984 3.5797-6.2678s3.7822-7.0775 5.3884-8.9068 2.9203-3.9012 2.9203-4.6041c0-0.70296 1.35-2.5715 3-4.1523s3-3.6688 3-4.64c0-2.3472 2.1081-6.9373 4.1162-8.9624 0.8889-0.89644 2.4125-3.7151 3.3859-6.2637 0.97332-2.5486 2.1394-4.6338 2.5912-4.6338 1.1784 0 11.031-12.596 14.471-18.5 3.9646-6.8047 7.8768-12.543 14.955-21.935 8.11-10.76 13.48-18.58 13.48-19.64 0-0.48184 1.0932-1.5924 2.4294-2.4678 1.3362-0.87548 3.2487-3.5887 4.25-6.0293 1.0014-2.4406 2.5108-4.6591 3.3543-4.93 0.8435-0.27087 2.3697-1.9556 3.3915-3.7438 2.48-4.35 6.64-8.75 8.26-8.75 0.72 0 1.31-0.45 1.31-1s-1.1474-1-2.5497-1-3.8998-0.69819-5.55-1.5515c-4.8424-2.5041-10.807 2.6062-20.486 17.552-3.5978 5.5553-3.3273 5.1916-9.4041 12.646-2.7556 3.3805-5.0102 6.5619-5.0102 7.0697 0 0.50778-1.0828 1.8647-2.4062 3.0154s-3.6707 4.2693-5.2162 6.9303c-1.5456 2.661-3.2753 5.3693-3.8438 6.0183-0.93713 1.0698-2.7378 3.6575-9.9645 14.32-1.3047 1.925-4.5315 7.1-7.1707 11.5s-5.6085 8.588-6.5985 9.3067c-2.0781 1.5086-2.2893 4.0254-0.64138 7.6422 1.4795 3.2472-0.78406 6.0707-5.5898 6.9722-6.9275 1.2996-8.9326-3.6333-4.0689-10.01 1.375-1.8027 2.5-3.5277 2.5-3.8332 0-0.30556 1.9509-3.1481 4.3352-6.3167 2.3844-3.1686 5.1919-7.3362 6.2389-9.2612s2.5784-4.3289 3.403-5.342c0.82461-1.0131 2.6296-3.7992 4.0111-6.1913 4.2325-7.3288 14.127-21.737 17.919-26.095 1.976-2.2705 6.0678-7.3771 9.0928-11.348s7.4125-9.3034 9.75-11.85c6.4647-7.0431 5.2952-8.1974-3.25-3.2073-7.596 4.4358-25.147 13.031-26.661 13.056-0.7366 0.0122-2.4643 0.90222-3.8393 1.9778-1.375 1.0755-2.921 1.9655-3.4356 1.9778-1.6837 0.04-5.5644 4.3294-5.5644 6.1504 0 1.5597-6.9738 10.019-10.904 13.226-5.4742 4.4676-34.847 34.109-37.791 38.136-3.5101 4.8019-6.7055 7.888-10.363 10.009-0.94854 0.55-4.9192 3.8687-8.8238 7.375-3.9045 3.5062-10.366 8.8378-14.359 11.848-3.9927 3.0102-8.8301 6.8914-10.75 8.625-6.0562 5.4695-9.6812 7.5806-10.909 6.3532-3.2163-3.2163 0.0854-9.0296 7.4961-13.198 8.2354-4.6327 10.327-7.0832 5.2307-6.129-6.6962 1.2538-5.592-3.8552 1.6402-7.5886 2.1825-1.1266 6.8621-4.2392 10.399-6.9168 3.53-2.66 6.81-4.85 7.28-4.85s0.85-0.5 0.85-1.11c0-1.1562-2.147-0.95846-11.736 1.0812-3.9682 0.84406-5.7769 0.82419-7.4702-0.0821-2.4406-1.3062-3.2438-0.75654 9.6098-6.5752 1.597-0.72295 3.815-1.3144 4.929-1.3144s3.5613-0.5554 5.4385-1.2342c2.9977-1.084 3.5728-1.0158 4.725 0.55984 1.4463 1.9779 2.8565 0.75682 1.926-1.6678-0.68074-1.774 2.6659-3.6938 9.8088-5.6268 4.6103-1.2476 7.6665-3.4668 6.4499-4.6835-0.33228-0.33227-4.7839-0.0807-9.8925 0.55906-15.444 1.9341-27.089 1.3081-35.288-1.8969-3.85-1.505-8.8-3.2991-11-3.9869-2.2-0.68784-7.164-3.3734-11.031-5.9679-9.671-6.4885-12.719-7.018-14.355-2.4941-2.7022 7.4727-6.4324 3.7768-5.471-5.4208 0.60213-5.7608 0.58759-5.8018-2.5188-7.0884-1.71-0.71-3.12-1.61-3.12-1.99 0-0.60102-8.9144-7.543-15.406-11.997-1.1518-0.79031-3.3077-2.539-4.7909-3.8861-2.2716-2.063-3.4082-2.3689-7.2094-1.9405-6.0117 0.6776-8.7606-1.1526-7.9346-5.2827 1.5893-7.9463-8.3856-11.92-14.318-5.7038-4.7146 4.9402-12.858 8.1236-14.43 5.641-3.4004-5.3698 0.18819-12.657 5.568-11.307 8.7518 2.1966 10.173-2.4874 2.807-9.253-7.16-6.57-14.29-5.87-14.29 1.4 0 3.3029-11.613 9.8149-14.627 8.2019-5.4118-2.8963-2.7518-8.0675 5.4061-10.51 10.091-3.0213 10.836-13.898 1.3179-19.247-2.0359-1.1443-4.5354-3.0016-5.5543-4.1275-3.774-4.1703-9.25-1.7576-12.455 5.4876-1.4289 3.2304-2.5526 4.4653-4.0628 4.4653-3.0379 0-3.6244-2.7329-1.1514-5.3653 1.1696-1.245 2.1265-2.9955 2.1265-3.8901s0.45-1.9046 1-2.2446c4.4218-2.7328-4.4454-11.248-14-13.444-2.475-0.5689-6.525-1.6523-9-2.4076-11.31-3.4513-15.986 17.889-5.4339 24.803 4.2644 2.7942 3.0734 6.9648-2.0978 7.3455-7.2213 0.53166-11.719-9.9046-9.4143-21.846 2.6875-13.927-1.5732-18.085-6.589-6.4306-0.71494 1.6612-2.237 3.8684-3.3824 4.905-1.143 1.03-2.08 2.6-2.08 3.49 0 0.8854-0.9 3.289-2 5.3414s-2 4.4143-2 5.2488c0 0.83446-0.4271 2.2986-0.94912 3.2536-2.722 4.98-7.051 15.24-7.051 16.71 0 0.92439-1.125 5.032-2.5 9.1281-1.375 4.096-2.5 8.2829-2.5 9.3042 0 1.0212-0.74695 3.5993-1.6599 5.729-0.91294 2.1297-1.983 5.6721-2.378 7.8721-1.8624 10.374-4.1951 21.19-4.9604 23-5.0595 11.966-1.6067 18.635 6.4791 12.514 9.5528-7.2305 14.773-6.758 13.769 1.2462-0.33712 2.6888-1.2951 4.3471-3.3609 5.8181-1.589 1.13-2.889 2.89-2.889 3.9 0 2.28-7.456 9.52-9.796 9.52-1.3074 0-1.6446-0.75581-1.4498-3.25 0.19815-2.5373-0.1308-3.243-1.5-3.2182-4.7043 0.0853-5.2637 1.835-6.2664 19.601-2.048 36.284-3.1549 43.133-6.5198 40.341-1.7398-1.4439-1.6714-4.5773 0.5128-23.473 2.0268-17.534 1.0551-28.945-2.3759-27.903-2.7763 0.84363-5.6044 3.3829-5.6044 5.032 0 2.3227-19.021 20.75-20.201 19.57-2.1122-2.1122 5.8776-13.864 15.931-23.432 3.086-2.94 10.542-8.77 11.213-8.77 0.4524 0 1.0607-0.7875 1.3517-1.75 0.29106-0.9625 1.4928-4.3951 2.6704-7.6281 1.5616-4.2868 2.2455-8.889 2.5264-17 0.21624-6.2437 1.1038-13.534 2.0235-16.622 0.90106-3.025 2.0574-7.5059 2.5696-9.9576 0.51222-2.4517 1.8274-6.9816 2.9227-10.067 1.095-3.09 1.991-6.58 1.991-7.77 0-1.8628 2.1505-7.4996 5.13-13.447 0.479-0.95 0.87-2.65 0.87-3.76 0-1.1149 0.43735-2.8085 0.97189-3.7636 2.071-3.7 9.028-19.49 9.028-20.49 0-0.58004 1.5627-3.849 3.4727-7.2643l3.4727-6.2097-6.2227-0.57913c-7.9594-0.74075-9.4561 0.58331-11.233 9.9368-3.0901 16.266-5.3107 20.7-8.4638 16.901-0.97138-1.1704-0.80962-2.7456 0.79589-7.75 6.1358-19.125 0.342-20.357-8.149-1.7323-1.8684 4.0982-4.809 10.47-6.5348 14.16-1.726 3.68-3.138 7.47-3.138 8.42 0 0.94929-0.84467 3.5556-1.877 5.7917-3.0919 6.6971-4.8142 11.685-6.5831 19.066-1.5896 6.6323-6.3682 22.827-10.622 36-2.1729 6.7281-2.4023 9.6152-0.88471 11.133 1.457 1.457 0.27497 3.906-2.4943 5.1677-1.4605 0.66544-2.6251 2.3171-3.0735 4.359-0.39714 1.8082-1.9017 5.0543-3.3435 7.2136-2.8093 4.2075-2.8759 4.3229-5.547 9.6269-0.96944 1.925-2.3528 4.625-3.0741 6-0.72129 1.375-2.5525 5.0875-4.0694 8.25-1.518 3.16-3.135 5.75-3.596 5.75-0.46 0-0.836 0.87-0.836 1.94 0 1.0675-0.45 2.2191-1 2.559-2.5956 1.6042-1.1448 15.48 1.75 16.738 1.5125 0.65708 4.1 2.1718 5.75 3.366 3.234 2.34 13.897 7.4 15.599 7.4 0.5721 0 2.9213 1.2689 5.2204 2.8198s5.7552 3.425 7.6802 4.1647c1.925 0.73968 4.2104 1.9458 5.0787 2.6802 0.86831 0.73442 2.1107 1.3353 2.7609 1.3353 1.0951 0 4.2687 1.3211 14.726 6.1303 2.2361 1.0284 4.9972 1.8697 6.1357 1.8697s3.3589 0.6792 4.9343 1.5093c1.5754 0.83013 4.5518 1.7876 6.6143 2.1278 2.0625 0.34017 3.75 0.95249 3.75 1.3607 0 0.40822 2.1375 1.3013 4.75 1.9847 2.6125 0.68335 8.8 2.7127 13.75 4.5096s11.025 3.8313 13.5 4.5209c2.475 0.68955 8.2716 2.5437 12.881 4.1203 4.6098 1.5766 9.4207 2.8666 10.691 2.8666s2.5529 0.39359 2.8502 0.87464c0.29731 0.48105 2.9114 1.1296 5.809 1.4413 2.8976 0.31169 8.4185 1.2615 12.268 2.1106 25.06 5.5273 34.156 6.2918 75 6.3038 29.292 0.009 37.365-0.31112 49.5-1.9602zm374.19-68.484c-2.7963-0.53424-2.6071-3.363 0.31429-4.6978 2.0999-0.95947 11.115-11.016 18.187-20.288 2.3062-3.0235 4.8721-6.0156 5.702-6.6492 0.82995-0.63354 3.7557-4.3019 6.5016-8.1519 2.746-3.85 6.3841-8.8 8.0848-11 8.0459-10.408 11.022-14.504 11.059-15.221 0.0223-0.42868 1.3724-2.3374 3-4.2416s2.9594-3.9415 2.9594-4.5273 1.2375-2.1978 2.75-3.5823c1.5125-1.3844 3.5264-3.8472 4.4753-5.4727 0.94891-1.6255 3.4939-5.6555 5.6555-8.9555s5.8446-9.15 8.1845-13c2.3398-3.85 4.9699-8.0495 5.8445-9.3323 2.2628-3.3187 6.8422-11.223 8.2081-14.168 6.1106-13.173 10.909-26.445 13.377-37 2.1467-9.1796 3.0458-11 5.4329-11 3.62 0 3.2851 6.051-0.91311 16.5-2.9267 7.2843-6.0062 19.687-5.4441 21.927 0.38 1.49 0.22 2.57-0.37 2.57-1.22 0-7.2 10.36-7.2 12.48 0 0.84-0.44 1.52-0.97 1.52-0.53329 0-2.3829 2.9304-4.1103 6.512s-3.7434 6.8493-4.48 7.2615c-0.73659 0.41222-2.4395 3.2373-3.7842 6.278s-3.1674 6.1281-4.0504 6.8609c-0.88301 0.73283-1.6055 1.9367-1.6055 2.6752 0 0.73852-1.2675 2.8209-2.8166 4.6276-1.5491 1.8066-3.8698 5.0848-5.157 7.2848s-3.5471 5.35-5.0218 7c-1.4748 1.65-3.896 5.025-5.3804 7.5-6.8621 11.441-9.287 15.06-11.403 17.021-1.2536 1.1613-3.4492 3.9942-4.8792 6.2953s-5.1737 7.1088-8.3193 10.684c-3.1456 3.575-6.4395 7.8957-7.3197 9.6016-0.88022 1.7058-3.0859 4.4127-4.9015 6.0152s-4.1011 4.1475-5.0788 5.6556c-1.6899 2.6064-12.666 11.877-13.722 11.591-0.275-0.0746-1.5388-0.33402-2.8084-0.57658zm-91.031-13.527c-2.0124-2.0124-1.2864-3.5752 3.0899-6.6521 4.1482-2.9165 8.7826-7.3541 16.459-15.76 2.0852-2.2834 5.5914-6.0743 7.7914-8.4243 2.2-2.3499 4.45-5.0416 5-5.9814 0.55-0.93985 3.3455-4.3489 6.2123-7.5757 7.4152-8.3465 13.177-15.785 18.578-23.986 2.5789-3.9155 5.3686-7.6831 6.1992-8.3724 0.83-0.69 1.51-1.87 1.51-2.63s0.37-1.38 0.83-1.38c0.45737 0 2.1459-2.1375 3.7522-4.75 4.5864-7.4591 4.7461-7.7065 7.9162-12.261 6.0022-8.6234 10.331-15.948 11.476-19.416 0.64356-1.95 1.5937-3.8072 2.1114-4.1272 0.51773-0.31998 1.8934-2.4638 3.0572-4.7639 1.1637-2.3002 2.7323-4.542 3.4857-4.9818 0.75344-0.43983 1.3699-1.6773 1.3699-2.75s0.9-2.8503 2-3.9503 2-2.8962 2-3.9915 0.9-2.5536 2-3.2405c1.3382-0.83574 2-2.332 2-4.522 0-2.8364 1.3779-6.6238 3-8.2459 2.2117-2.2117 3.278-6.2682 3.171-12.063-0.18344-9.9331 4.7043-14.255 6.137-5.4263 0.62381 3.8441-2.7929 15.062-5.3267 17.49-1.201 1.1505-2.9812 6.2731-2.9812 8.5784 0 1.3664-0.675 2.7434-1.5 3.0599-0.825 0.31659-1.5 1.098-1.5 1.7365 0 0.63849-1.125 2.8165-2.5 4.84s-2.5 4.3229-2.5 5.1097c0 0.78684-0.60085 1.9293-1.3352 2.5387-0.73437 0.60947-1.9451 3.0271-2.6904 5.3724-0.74538 2.3454-2.6195 5.9041-4.1648 7.9082-1.5452 2.0042-2.8096 4.0832-2.8096 4.6201 0 0.53692-2.925 5.3511-6.5 10.698-3.575 5.3471-6.5 10.079-6.5 10.516 0 1.2839-2.2964 5.2758-5.25 9.1261-1.5125 1.9717-2.75 3.9967-2.75 4.5 0 0.50329-0.85953 1.4518-1.9101 2.1079-1.0505 0.65607-2.1899 2.4668-2.5319 4.0239-0.34198 1.5571-1.896 4.0337-3.4535 5.5037-1.5574 1.47-5.0306 5.9443-7.7181 9.943-8.5936 12.786-18.246 24.069-35.886 41.951-15.323 15.533-17.597 17.37-19.34 15.627zm-112.79-24.24c-0.3278-0.85426 0.94979-3.2481 3.0314-5.68 1.9789-2.3119 3.598-4.613 3.598-5.1135 0-1.5962 12.199-21.028 16.681-26.572 2.3754-2.9379 4.3189-5.6468 4.3189-6.0197 0-0.37291 2.0209-3.3692 4.4908-6.6583 2.4699-3.2892 5.1415-7.3303 5.9369-8.9803 0.79534-1.65 3.387-5.3079 5.7592-8.1288 2.3722-2.8208 5.0877-6.4208 6.0345-8 3.1017-5.1737 4.2425-6.8215 7.0308-10.155 1.5137-1.8098 3.4038-4.8501 4.2002-6.7563 1.64-3.91 13.59-20.46 14.78-20.46 0.42 0 0.77-0.66 0.77-1.47 0-0.80828 2.3625-3.9994 5.25-7.0914s5.925-6.8885 6.75-8.4366c1.8-3.37 13.51-14 15.43-14 4.0699 0 1.6296 7.1039-3.2988 9.603-1.1963 0.60662-4.078 3.541-6.4036 6.5208s-5.2618 6.5335-6.5249 7.897c-1.263 1.3636-2.9505 3.192-3.75 4.0631-0.79947 0.87114-1.4536 2.0936-1.4536 2.7166 0 1.0069-3.6558 5.6599-11.468 14.596-1.3927 1.5931-2.5322 3.3506-2.5322 3.9056 0 0.55496-1.125 2.484-2.5 4.2867s-2.5 3.5519-2.5 3.8871c0 0.33518-1.8 3.046-4 6.024s-4 5.6781-4 6.0002c0 1.1966-8.1637 11.349-9.5554 11.883-0.79451 0.30488-1.4446 1.4461-1.4446 2.536s-0.56516 2.3416-1.2559 2.7814c-1.3623 0.86744-6.7441 7.8208-6.7441 8.7136 0 0.98836-7.1273 11.713-9.0853 13.671-1.0531 1.0531-1.9147 2.4347-1.9147 3.0703 0 0.63558-1.2102 2.7422-2.6893 4.6814-2.3104 3.029-8.4414 11.93-17.075 24.79-2.3862 3.5541-4.9149 4.3718-5.8648 1.8964zm322.97-155.08c-0.36526-0.95184-0.18908-2.9018 0.39151-4.3332 10.21-25.173 11.906-29.945 13.643-38.392 0.88068-4.2844 2.119-8.7572 2.7517-9.9395 0.63278-1.1823 1.5112-5.1019 1.9521-8.7102s1.3168-9.0355 1.9465-12.06c0.62965-3.025 1.3341-9.325 1.5655-14 0.23138-4.675 0.86901-9.8046 1.417-11.399 2.43-7.09-0.32-23.61-3.94-23.61-1.1131 0-3.1934-5.8233-2.2648-6.3396 10.147-5.6426 13.039 7.0815 9.2835 40.84-2.9546 26.556-3.9496 33.493-5.5219 38.5-0.9499 3.025-2.1933 7.3-2.7632 9.5-0.56987 2.2-1.3835 4.9-1.8082 6-0.42462 1.1-1.3382 4.025-2.0302 6.5-2.9443 10.531-3.7248 12.54-9.2998 23.936-2.3925 4.8907-4.3152 6.1524-5.3331 3.4998zm-86.34-25.19c0.002-0.4125 0.93441-2.2766 2.0719-4.1424 2.778-4.5567 0.84254-7.1448-3.8802-5.1886-2.422 1.0032-3.6124 0.93354-6.7994-0.39805-4.0191-1.6793-3.4501-3.4709 1.1134-3.5057 6.1291-0.0467 4.3468-3.7977-2.1343-4.4918-8.4446-0.90434-9.8512-6.3607-2.8262-10.964 1.2907-0.84568 3.1313-3.2301 4.0903-5.2988 0.95901-2.0686 3.0423-5.1112 4.6296-6.7612s3.809-5.025 4.9372-7.5c2.4551-5.386 6.0056-12.735 7.4881-15.5 0.58985-1.1 1.5148-3.125 2.0553-4.5 0.54058-1.375 1.4326-3.625 1.9822-5 1.1218-2.8065 4.138-14.432 5.3074-20.457 1.4628-7.5365-0.5846-12.598-3.7967-9.3855-1.2673 1.2673-4.6574-0.677-3.7475-2.1493 1.0766-1.7419 7.819-4.1463 10.054-3.5854 5.365 1.3465 4.9873 15.061-0.73757 26.787-0.99624 2.0406-1.8114 4.798-1.8114 6.1276s-0.6163 2.9289-1.3696 3.554c-0.75326 0.62514-2.1392 3.2677-3.0799 5.8724-1.6237 4.496-4.721 11.692-6.66 15.472-0.48981 0.95504-0.89056 2.4-0.89056 3.2111 0 0.81106-1.9125 3.8548-4.25 6.7639s-5.5104 6.9766-7.0509 9.0389-3.3967 3.7496-4.125 3.7496c-0.72826 0-1.5716 1.2375-1.8741 2.75s-0.69625 3.2-0.875 3.75c-0.43477 1.3378 10.202 2.4079 17.681 1.7789l6.0062-0.50513 2.8731-7.1369c1.5802-3.9253 4.1649-9.2811 5.7438-11.902 1.5789-2.6208 2.8707-5.1476 2.8707-5.6151 0-0.46757 0.81969-1.9233 1.8215-3.235s2.8728-5.0849 4.1576-8.3849 3.0731-6.9 3.974-8c2.3567-2.8776 4.0383-6.6894 3.9703-9-0.21116-7.1814 4.6698-20.487 6.9894-19.054 2.1186 1.3094 0.45249 13.663-2.1009 15.578-0.3843 0.28822-1.2638 2.7632-1.9544 5.5-0.69058 2.7368-1.841 5.6864-2.5566 6.5547-0.71555 0.86831-1.301 2.3042-1.301 3.191 0 0.88674-0.41538 1.869-0.92306 2.1827-0.50769 0.31377-1.2193 1.9193-1.5814 3.5678-0.36207 1.6485-2.6467 6.3055-5.0769 10.349-2.4302 4.0433-4.4186 8.0938-4.4186 9.001 0 0.90724-0.9 2.4201-2 3.362-1.1 0.94185-2 2.3387-2 3.1041 0 0.76538-0.96223 3.1037-2.1383 5.1962-3.2432 5.7705-2.2149 6.9677 5.9845 6.9677 4.895 0 7.2687 0.43353 8.1433 1.4873 1.2962 1.5618 0.62441 5.0101-0.80407 4.1273-0.45582-0.28171-1.9215 0.0508-3.2571 0.73889s-5.755 1.8424-9.8209 2.5651c-6.6249 1.1776-7.8478 1.7693-11.776 5.6977-4.1023 4.1023-6.336 5.3851-6.3273 3.6337zm-262.18-19.76c-0.27195-0.27194-7.2059-0.74819-15.409-1.0583-8.2-0.31-15.81-0.94-16.91-1.4-1.1-0.46245-6.275-1.5153-11.5-2.3396-5.225-0.82434-10.85-2.0769-12.5-2.7834-1.65-0.70654-6.375-1.828-10.5-2.4922-7.4857-1.2053-14.717-2.9033-18.5-4.3442-4.1697-1.5881-19.177-9.4436-23.3-12.197-2.37-1.58-4.66-2.87-5.1-2.87-0.43991 0-2.6854-1.3659-4.9899-3.0353s-5.7473-3.7779-7.6506-4.6855c-2.236-1.0663-4.1579-3.0885-5.4314-5.7147-1.9784-4.0802-19.103-21.612-22.313-22.844-0.95-0.36-1.72-1.32-1.72-2.13 0-0.81117-1.2581-2.218-2.7957-3.1263s-3.8621-3.2078-5.1655-5.1099-3.2192-3.913-4.2574-4.4687c-2.6434-1.4147-8.363-10.687-9.1808-14.883-1.2746-6.5398-0.0653-14.925 2.2615-15.681 9.3785-3.05 10.068-4.3793 4.2306-8.1615-11.897-7.7089-15.96-19.297-9.2833-26.476 1.1158-1.1996 2.3457-3.9811 2.7332-6.1811 0.85787-4.8706 3.6834-8.1711 7.7624-9.067 3.117-0.6846 7.4166-3.4671 20.695-13.393 4.125-3.0834 9.525-6.5665 12-7.7401 8.16-3.87 17.31-7.3 19.47-7.3 1.1702 0 2.5551-0.38083 3.0776-0.84629s4.775-1.7774 9.45-2.9154c21.6-5.258 48.383-5.8188 60.5-1.2668 1.1 0.41323 3.8 1.2934 6 1.956 4.3422 1.3077 7.8664 2.7059 11 4.3642 15.916 8.4225 23.5 13.153 23.5 14.659 0 0.46977 1.2375 1.2943 2.75 1.8323 1.5125 0.53798 4.9687 2.9445 7.6805 5.3478 12.74 11.291 17.17 15.405 18.376 17.068 0.71869 0.99069 1.8778 1.8012 2.5757 1.8012 2.4485 0 9.6176 9.9815 9.6176 13.391 0 2.375 6.3599 8.151 12.69 11.525 4.3305 2.3082 6.6451 4.2706 7.7278 6.5521 0.85006 1.7914 2.2289 3.8241 3.064 4.5172 0.83515 0.69312 1.5184 1.8578 1.5184 2.5881 0 0.73033 0.71917 1.7303 1.5982 2.2222 0.87899 0.4919 3.0632 5.1268 4.8539 10.3 1.7906 5.1729 4.0254 11.43 4.9662 13.905 5.1615 13.579 8.0556 46.509 4.6472 52.878-0.58602 1.095-1.0655 4.2493-1.0655 7.0096 0 9.3042-3.5059 12.448-9.5009 8.5203-2.2669-1.4853-2.6284-1.4516-5.3692 0.5-1.6163 1.1509-3.5442 2.1025-4.2843 2.1148-0.7401 0.0122-2.4706 0.90222-3.8456 1.9778-1.375 1.0755-3.2609 1.9655-4.191 1.9778-0.93004 0.0122-1.9691 0.47224-2.309 1.0222-0.33992 0.55-2.1115 1-3.9369 1s-4.8363 0.61698-6.691 1.3711c-4.6802 1.9029-35.805 5.3632-37.049 4.1189zm35.809-9.982c1.5773-0.82261 3.5075-1.4984 4.2893-1.5018 1.6195-0.007 14.061-4.8205 15.578-6.0269 0.55-0.43738 3.6738-1.7329 6.9417-2.8789 7.684-2.6947 7.4228-2.3305 9.1064-12.702 1.93-11.82 1.84-16.27-0.54-27.4-1.1-5.1474-2-10.616-2-12.153 0-2.7055-1.5902-6.8885-6.6007-17.363-1.32-2.75-2.4-5.95-2.4-7.1 0-2.6-1.97-8.38-2.85-8.38-0.36194 0-1.2753-1.3944-2.0296-3.0986-0.75437-1.7042-2.9217-4.5167-4.8163-6.25s-4.9872-4.5689-6.8725-6.3014-3.444-2.8575-3.4637-2.5c-0.0198 0.3575-1.0323-0.5549-2.25-2.0276-2.1045-2.5451-2.7829-2.7056-13.714-3.245-20.445-1.0089-50.327-0.88696-57 0.23262-3.575 0.59984-11 1.3754-16.5 1.7236-5.5 0.34814-14.275 1.2805-19.5 2.072-5.225 0.79144-12.669 1.856-16.541 2.3657-3.8727 0.5097-9.2051 1.4116-11.85 2.0043-2.6447 0.59268-6.3745 0.78381-8.2885 0.42474s-4.4566-0.18105-5.6502 0.39561-3.3281 1.2971-4.7433 1.6009c-1.4152 0.30385-4.1399 1.6157-6.055 2.9153-3.9042 2.6494-7.1745 3.3878-20.872 4.7125-31.001 2.9982-35.438 6.0967-25.024 17.475 1.5101 1.65 3.5804 4.4625 4.6006 6.25s2.1734 3.25 2.5626 3.25c0.38922 0 2.024 1.1077 3.633 2.4615l2.9253 2.4615 5.1622-1.9615c2.84-1.08 6.28-1.96 7.65-1.96s2.49-0.45 2.49-1 1.5811-1 3.5136-1 4.295-0.39476 5.25-0.87724c2.76-1.39 8.71-3.12 10.74-3.12 1.0219 0 3.24-0.43989 4.929-0.97752 1.689-0.53764 10.097-2.3254 18.685-3.9729 8.5875-1.6474 16.912-3.5406 18.5-4.2071 1.5875-0.66645 6.4864-1.5383 10.886-1.9375 4.4-0.39917 10.475-1.2854 13.5-1.9694 3.025-0.68399 7.975-1.3688 11-1.5218 3.025-0.15302 10.225-0.78908 16-1.4135 31.253-3.3789 77.5-0.6912 77.5 4.504 0 2.3773-0.87952 2.3857-20 0.19175-7.15-0.82043-15.025-1.3215-17.5-1.1135-2.475 0.20802-12.15 0.65121-21.5 0.98487-18.596 0.66359-21.829 0.90421-31.5 2.3439-3.575 0.53224-9.65 1.4201-13.5 1.973-3.85 0.55294-9.475 1.5092-12.5 2.1251-3.025 0.61589-9.325 1.4916-14 1.946s-12.1 1.7203-16.5 2.813c-4.4 1.0928-13.625 3.0141-20.5 4.2696s-15.162 3.1105-18.415 4.1223c-3.2533 1.0118-6.5317 1.8396-7.2852 1.8396-1.1014 0-3.7231 1.3307-7.146 3.6271-0.71781 0.48156 5.9922 9.3729 7.0734 9.3729 1.4244 0 7.7094-1.9608 10.009-3.1228 0.95504-0.48248 2.616-0.87724 3.691-0.87724s2.2327-0.45 2.5726-1c0.33992-0.55 1.4216-1 2.4038-1 0.98217 0 4.4431-0.90637 7.691-2.0142s10.405-2.9036 15.905-3.9908c5.5-1.0871 14.5-2.8855 20-3.9964s12.25-2.2561 15-2.5449c2.75-0.28877 6.5316-0.76736 8.4037-1.0635 1.872-0.29618 5.247-0.74716 7.5-1.0022 2.253-0.25503 5.5762-0.93731 7.385-1.5162 2.4369-0.7799 3.6672-0.73839 4.75 0.16027 0.98059 0.81382 1.8725 0.88833 2.7113 0.2265 1.0431-0.823 30.958-2.7197 35.75-2.2667 0.825 0.078 8.25 0.24919 16.5 0.38043 20.807 0.33101 20.706 0.31941 20.317 2.3379-0.19069 0.99015-1.8005 2.0869-3.8233 2.6049-3.3219 0.85063-5.2896 0.9905-10.994 0.78152-14.9-0.54588-35.591-0.12783-47 0.94962-6.325 0.59732-15.775 1.2932-21 1.5464-5.225 0.25319-10.463 0.94821-11.641 1.5445-1.4694 0.74405-2.7111 0.76513-3.9583 0.0672-1.3423-0.75117-2.0937-0.63888-2.875 0.42962-0.67716 0.92607-5.7297 2.1389-14.042 3.3708-7.1412 1.0583-17.259 3.0562-22.484 4.4397s-11.442 2.5245-13.815 2.5355c-8.284 0.0385-19.82 6.3454-17.256 9.4343 1.7687 2.1312 18.837 10.406 23.071 11.185 1.925 0.35419 4.4407 1.2275 5.5904 1.9406 1.1497 0.71315 4.0747 1.8021 6.5 2.4199 2.4253 0.61778 5.3096 1.5289 6.4096 2.0248 1.1 0.49583 3.8 1.0909 6 1.3224 2.2 0.23148 7.375 1.3714 11.5 2.5332s8.85 2.1298 10.5 2.1512c3.8965 0.0505 5.9473 1.4002 5.1771 3.4073-0.77904 2.0302-11.016 2.1737-14.569 0.20432-1.3932-0.77215-4.1073-1.1345-6.5-0.86783-2.71 0.30206-5.9798-0.25549-9.608-1.6383-3.025-1.1529-7.7042-2.0964-10.398-2.0967l-4.8983-0.0005 3.1089 2.9711c1.7099 1.6341 4.2952 3.2688 5.745 3.6327 1.4498 0.36389 5.2997 1.9519 8.5553 3.5289s6.4426 2.8673 7.0823 2.8673c1.1704 0 6.5908 1.6082 10.305 3.0575 1.1 0.42921 3.575 1.0881 5.5 1.4642 1.925 0.37608 5.075 1.0383 7 1.4717 19.315 4.348 37.56 6.8346 58 7.9046 23.575 1.2341 28.638 1.1717 31.632-0.39004zm-185.48-88.96c0.54716-2.6668 4.5798-4.2573 15.347-6.0528 5.5-0.9172 13.375-2.294 17.5-3.0594 4.125-0.7655 11.1-2.0469 15.5-2.8475 4.4-0.80063 11.6-2.1623 16-3.0258 15.355-3.0138 41.044-6.9588 46.699-7.1716 3.1347-0.11797 6.1547-0.49585 6.7111-0.83973 1.9525-1.2067 54.833-0.7951 58.625 0.45634 4.8668 1.6062 2.1615 5.6265-3.0128 4.4773-10.438-2.3182-74.346 0.81191-79.318 3.8849-0.58758 0.36314-3.6864 0.89557-6.8863 1.1832-12.59 1.1316-18.876 2.0127-20.161 2.8259-0.73868 0.46758-5.4637 1.461-10.5 2.2076-12.628 1.8721-21.91 3.7514-23.455 4.7486-0.71383 0.46094-1.8696 0.61868-2.5684 0.35053-0.69878-0.26815-3.2647-0.0437-5.7021 0.49875-2.4374 0.54246-7.3566 1.377-10.932 1.8546-3.575 0.47758-8.231 1.1676-10.347 1.5333-3.2775 0.56661-3.7953 0.4151-3.5-1.0241zm6.85-20.82c2.475-0.56131 7.5641-0.92293 11.309-0.8036 3.7964 0.12097 7.3927-0.2673 8.1279-0.87751 0.72533-0.60197 3.3203-1.2522 5.7667-1.445 2.4463-0.19275 5.3967-0.85824 6.5563-1.4789 1.16-0.61 4.64-1.12 7.74-1.12 3.0973 0 6.4333-0.42913 7.4133-0.95362 2.1021-1.125 11.585-2.864 22.087-4.0502 4.125-0.46593 13.793-1.5533 21.484-2.4163 7.6912-0.86303 19.841-1.7918 27-2.0639 7.1588-0.27213 16.757-0.76733 21.329-1.1004 4.8206-0.3512 9.4422-0.17755 11 0.41332 9.3248 3.5368 29.765 1.351 21.476-2.2965-1.2094-0.53219-3.19-2.8947-4.4014-5.25-2.514-4.888-2.812-5.02-5.156-2.2824-1.9759 2.3077-15.684 3.3879-17.67 1.3924-1.6373-1.6453 4.4502-4.4816 8.2434-3.8408 6.1272 1.0352 8.2631-4.2451 2.6566-6.5674-1.671-0.69216-3.5095-2.1391-4.0855-3.2154-0.57602-1.0763-3.0329-2.8352-5.4598-3.9088-2.4269-1.0735-5.6041-3.0562-7.0605-4.4059-1.45-1.35-2.99-2.45-3.42-2.45-0.42749 0-2.0493-1.0634-3.604-2.3632-1.5547-1.2997-3.8209-2.6742-5.036-3.0544s-3.5632-1.8794-5.2181-3.3316c-2.8357-2.4883-8.7953-4.7391-15.573-5.8815-1.65-0.27811-3.9-0.88418-5-1.3468-6.0982-2.5649-14.18-3.8331-31-4.8644-7.7831-0.47724-11.731-0.32192-13.5 0.53112-1.375 0.66308-5.65 1.5126-9.5 1.8878-3.85 0.37521-8.8878 1.5239-11.195 2.5526-2.3073 1.0287-5.0933 1.8704-6.191 1.8704s-2.2526 0.41538-2.5663 0.92306c-0.31377 0.50769-1.9903 1.2349-3.7257 1.6161-1.7354 0.38115-4.5427 1.5391-6.2385 2.5732s-3.9833 1.9014-5.0833 1.9273c-2.845 0.067-9.9422 4.3413-10.305 6.2064-0.26026 1.3363 0.25753 1.4242 3.5 0.59367 2.093-0.53607 9.9485-2.0297 17.457-3.3191 7.5081-1.2894 14.5-2.7987 15.537-3.3539 1.7569-0.94025 16.355-2.7595 24.312-3.0296 1.925-0.0654 7.4413-0.63738 12.258-1.2711 9.8892-1.301 28.342-0.68548 31.592 1.0539 6.0464 3.236 0.10499 5.9806-8.8381 4.0827-3.3417-0.70916-8.587-0.9986-12.189-0.67259-3.4777 0.31474-11.723 1.0276-18.323 1.5842-13.326 1.1238-23.901 2.5978-25.434 3.5452-0.55292 0.34173-4.7314 1.1032-9.2855 1.6921-25.273 3.2684-31.378 4.7551-40.164 9.7823-2.9475 1.6864-6.331 3.0662-7.5188 3.0662s-2.4078 0.64659-2.711 1.4369c-0.30326 0.79027-1.1436 1.2096-1.8675 0.93182-0.72385-0.27776-1.6347 0.0104-2.024 0.64043-0.74116 1.1992 3.6488 0.86081 14.006-1.0796 5.7463-1.0766 18.972-2.7197 32-3.9757 4.95-0.47718 12.6-1.3445 17-1.9273 31.882-4.2232 87.579-4.226 92.762-0.005l2.238 1.8229-2.5 0.93866c-1.5115 0.5675-6.8495 0.60476-13.5 0.0942-21.319-1.6365-24.055-1.7221-29.979-0.93774-3.9019 0.51669-6.5799 0.41614-7.7098-0.28948-1.2512-0.78138-2.6436-0.75829-5.0214 0.0833-1.8096 0.64044-6.2152 1.1466-9.7902 1.1247-6.5124-0.0398-33.666 2.8174-35.08 3.6912-0.41365 0.25565-1.9443 0.0115-3.4015-0.54248-1.8722-0.7118-3.2902-0.66127-4.8339 0.17225-1.2015 0.64876-3.6074 1.0874-5.3465 0.97475-1.7391-0.11264-4.924 0.40224-7.0775 1.1442-2.1535 0.74195-4.7458 1.0578-5.7605 0.7018-1.0148-0.35596-3.6759-0.0164-5.9136 0.75452-2.2377 0.77095-5.416 1.204-7.063 0.96223-1.647-0.24173-3.676-0.10504-4.509 0.30374-0.83295 0.40879-3.7645 1.2616-6.5145 1.8952-5.9543 1.3718-9.329 3.6475-11.887 8.016-3.7412 6.3888-0.2842 6.759 24.387 2.6115 5.225-0.87838 11.203-1.3178 13.285-0.97641 2.0815 0.34136 4.3315 0.20282 5-0.30787 2.0694-1.5809 12.916-3.5289 19.184-3.4454 5.8506 0.078 26.943-2.3321 28.425-3.2479 0.41359-0.25561 9.9442-0.98871 21.179-1.6291 11.235-0.6404 22.002-1.3019 23.927-1.4699 1.925-0.16806 8.9-0.39839 15.5-0.51186 6.6-0.11346 12.564-0.65642 13.254-1.2066 1.3615-1.0858 8.2262 2.8812 8.2389 4.7612 0.004 0.60656-4.2837 1.0778-10.743 1.1806-16.015 0.25504-29.575 1.3351-30.936 2.4641-0.66263 0.54994-3.3669 0.92523-6.0095 0.83398-2.6426-0.0912-5.0297-0.1147-5.3047-0.0521s-3.425 0.29105-7 0.50771c-17.705 1.073-55.569 4.7902-57.09 5.6046-0.95027 0.50857-7.2812 1.4299-14.069 2.0474-32.769 2.9811-33.847 3.1812-33.837 6.2767 0.008 2.5813 13.443 8.0073 16.996 6.8641 0.825-0.26545 3.525-0.9419 6-1.5032zm-108.18 111.56c-2.8248-3.236-3.8085-6.0792-3.1839-9.2027 0.38336-1.9168 0.1185-3.6787-0.70158-4.6668-0.7584-0.91381-1.5769-5.5288-1.9288-10.876-0.53612-8.1454-0.94296-9.6822-3.307-12.492-1.49-1.76-2.7-3.79-2.7-4.5 0-6.1874-6.2834-2.8796-26.887 14.154-4.8401 4.0015-5.9085 4.4998-8.1331 3.7938-2.6717-0.84797-2.6598-7.0675 0.0202-10.494 1.1232-1.4359 1.965-4.0762 1.9778-6.203 0.0122-2.0366 0.52703-4.9616 1.144-6.5 3.05-7.6 6.26-13.3 7.49-13.3 0.75162 0 2.5848-1.9125 4.0737-4.25s3.7096-5.375 4.9347-6.75c1.2252-1.375 3.439-5.5445 4.9196-9.2656 1.5032-3.7777 3.8941-7.7524 5.4139-9 1.497-1.2289 3.3009-3.6968 4.0087-5.4844 0.70781-1.7875 1.6431-3.25 2.0784-3.25 0.43531 0 4.7634-4.0695 9.618-9.0433 13.154-13.477 14.426-12.764 16.312 9.1404 0.48183 5.5953 1.5426 10.982 2.544 12.919 1.2974 2.509 1.5411 4.4421 0.99612 7.9029-0.39679 2.5198-1.0892 13.581-1.5386 24.581-0.92345 22.601-1.4545 26.615-4.0937 30.943-1.0254 1.6815-1.866 3.7579-1.8681 4.6142-0.0187 7.7726-8.3034 20.533-11.187 17.23zm5.9134-21.843c3.3197-9.4003 1.3107-16.652-3.7304-13.465-1.5517 0.98087-1.986 9.7771-0.74179 15.021 0.32624 1.375 0.62661 2.65 0.66748 2.8333 0.33494 1.5024 2.679-1.202 3.8047-4.3896zm-41.713-19.113c1.5543-0.91812 3.4237-2.8306 4.1543-4.25s3.0769-4.4802 5.214-6.8018 4.581-5.2466 5.431-6.5c4.4604-6.5775 22.025-25.188 25.936-27.48l4.4843-2.628-0.61709-5.2505c-1.6912-14.39-6.2317-11.643-23.946 14.485-3.2045 4.7266-6.467 9.3043-7.25 10.173-0.78303 0.86831-1.4237 2.3449-1.4237 3.2814 0 0.93645-0.675 1.9617-1.5 2.2782-0.825 0.31659-1.5 1.0397-1.5 1.6069 0 0.56721-2.4257 4.2316-5.3904 8.143-9.3815 12.377-10.704 17.144-3.5923 12.942zm524.65 21.003c-1.3483-1.3483-0.51155-3.9197 2.374-7.2956 1.71-2 2.96-4.62 2.96-6.2 0-1.5018 0.89861-4.2536 1.9969-6.1151s2.0789-4.6997 2.1791-6.3072c0.1002-1.6074 0.84238-3.7058 1.6493-4.6629 0.8069-0.95715 1.7588-4.7822 2.1154-8.5 0.35655-3.7178 1.1908-7.7426 1.8538-8.944 0.67-1.2 1.21-3.76 1.21-5.7 0-4.6329 1.9388-8.7718 3.9283-8.386 1.7649 0.3422 1.7462 16.372-0.0213 18.223-0.49886 0.5225-0.90702 2.1834-0.90702 3.691 0 1.5075-0.45 3.0191-1 3.359-0.55 0.33992-1 1.5544-1 2.6988s-0.7348 2.618-1.6329 3.2748c-1.0989 0.80355-1.7497 3.1041-1.99 7.0352-0.25173 4.1172-0.95038 6.4727-2.3671 7.9807-1.1055 1.1767-2.0142 3.0105-2.0193 4.0751-0.0243 5.0154-7.1205 13.972-9.324 11.769zm-37.972-9.6863c-0.28554-0.74412 0.34131-2.0897 1.393-2.9902 1.05-0.9 1.91-2.54 1.91-3.65 0-1.34 0.66-2.01 2-2.01 2.4924 0 2.4867 0.36307-0.0892 5.6843-2.0842 4.3053-4.2325 5.5256-5.216 2.9628zm146.31-4.1c0-1.3491 0.41339-3.4866 0.91865-4.75 0.50525-1.2634 1.1968-3.1644 1.5367-4.2246 0.57744-1.8008 0.72797-1.8177 2.2885-0.25714 1.3047 1.3047 1.4061 1.9347 0.46325 2.8775-0.68 0.66-1.22 2.2-1.22 3.42 0 3.26-1.03 5.38-2.61 5.38-0.81 0-1.39-1.02-1.39-2.45zm-165.2-7.5967c1.6301-2.9182 1.6198-3.1121-0.23764-4.5-1.22-0.9-1.45-1.45-0.62-1.45 1.8132 0 3.9808-3.0347 4.0196-5.6276 0.0175-1.1702 0.63729-2.6301 1.3773-3.2442 0.74004-0.61418 2.1584-2.9193 3.1519-5.1224 0.99348-2.2032 2.1269-4.0058 2.5186-4.0058 0.39174 0 1.4856-2.025 2.4308-4.5 1.7256-4.5183 3.8389-5.8037 4.9181-2.9913 0.73233 1.9084-0.66997 5.6696-2.7608 7.4049-0.8823 0.73224-1.6042 2.3171-1.6042 3.5218 0 1.2048-1.271 3.4081-2.8244 4.8964-1.6294 1.561-3.4056 4.8402-4.198 7.7505-0.75552 2.7745-1.7346 5.2676-2.1756 5.5402-0.44 0.27-0.8 1.32-0.8 2.33 0 1.67-1.82 3.05-4.04 3.05-0.47943 0-0.10513-1.3723 0.83179-3.0496zm18.87-2.617c-1.5114-1.5114-0.62444-5.5316 1.3333-6.0436 1.1-0.28766 2-1.2805 2-2.2064 0-1.7577 1.8226-4.0834 3.2-4.0834 1.8021 0 0.73615 4.8855-1.2 5.5-1.4883 0.47236-2 1.513-2 4.0674 0 3.23-1.5681 4.5312-3.3333 2.7659zm25.493-3.1081c-0.1-0.7-1.29-1.7-2.67-2.22-2.8672-1.0901-3.3761-4.4498-0.82246-5.4298 2.5794-0.98982 4.5284 1.6716 4.0563 5.5393-0.22759 1.8648-0.48581 2.8168-0.57383 2.1157zm-542.42-11.33c-2.1863-1.2336-0.37485-5.202 6.9866-15.306 8.1805-11.228 10.701-14.833 12.591-18.008 1.0072-1.692 3.0568-4.6513 4.5547-6.5763s3.3297-5.075 4.0708-7c0.74107-1.925 2.629-5.8048 4.1953-8.6217 1.5663-2.817 2.8479-5.7938 2.8479-6.6151 0-0.82138 0.9-2.6376 2-4.036s2-3.043 2-3.6547c0-0.61168 1.2021-3.0157 2.6714-5.3423s3.684-6.8129 4.9216-9.9696c3.7691-9.6139-0.49218-8.4677-7.1597 1.9258-1.8299 2.8525-4.2214 5.665-5.3145 6.25-6.1636 3.2986-6.8676-1.5632-1.0769-7.4364 2.1691-2.2 3.947-4.482 3.9509-5.0711 0.004-0.5891 2.1387-3.2891 4.744-6 7.6607-7.9711 9.9508-10.793 10.696-13.179 1.1144-3.5704-2.685-2.8654-6.213 1.1528-1.6432 1.8715-3.9398 3.9124-5.1036 4.5352-1.1638 0.62282-2.1159 1.9412-2.1159 2.9298s-1.8 3.244-4 5.0119c-2.2 1.768-4 4.063-4 5.1 0 2.3019-3.5733 3.6193-5.4938 2.0254-2.7894-2.315 3.8024-11.598 17.4-24.505 6.4899-6.1601 8.4729-9.3483 7.4587-11.991-1.1126-2.8993-5.1619-0.47583-10.658 6.3791-2.7012 3.3688-6.7267 2.5084-9.1126-1.9477-3.7405-6.9861 1.5934-14.86 11.849-17.49 3.2684-0.83843 7.4767-2.4726 9.3517-3.6314 3.5945-2.2215 5.1544-1.5264 5.1904 2.3128 0.008 0.89702 1.1403 4.6198 2.5153 8.2728 3.0189 8.0204 3.393 20.273 0.89457 29.297-0.88298 3.1893-1.974 7.5988-2.4246 9.7988-2.1093 10.3-4.3822 15.937-7.4536 18.486-0.88849 0.73738-2.4845 3.1796-3.5466 5.4272s-4.1898 7.2365-6.9504 11.086c-2.7606 3.85-5.942 8.8554-7.0698 11.123-1.1278 2.2677-3.1529 5.1586-4.5001 6.4243s-2.4495 2.851-2.4495 3.523c0 1.6228-11.185 18.41-13.881 20.835-1.1652 1.0477-2.1186 2.2842-2.1186 2.7477 0 0.68817-5.762 9.4361-7.9271 12.035-0.31511 0.37825-1.3587 0.24437-2.319-0.2975zm522.32-1.5481c-2.26-1.5829-2.284-1.7185-0.53138-3 3.8846-2.8405 8.2978-0.26966 5.4427 3.1706-1.5581 1.8774-2.0098 1.8617-4.9113-0.17057zm-37.584-2.3511c-0.34296-0.55492-0.41134-1.7924-0.15196-2.75 0.25938-0.95758 0.747-2.9786 1.0836-4.491 0.35541-1.597 1.2818-2.75 2.2096-2.75 1.1843 0 1.428 0.58203 0.94203 2.25-0.36055 1.2375-0.92192 3.7125-1.2475 5.5-0.59454 3.2644-1.6754 4.1186-2.8358 2.241zm-7.0404-11.221c0.81315-8.2522 1.0568-8.8948 3.078-8.1192 1.5913 0.61065 2.0232 4.8882 0.58336 5.778-0.48654 0.30069-1.1891 2.5772-1.5613 5.059-1.1535 7.6922-2.9028 5.4283-2.1001-2.7179zm19.4 4.8086c-0.91576-2.0099-0.81744-2.985 0.50435-5.0023 0.90302-1.3782 1.6418-3.3134 1.6418-4.3004 0-2.252 3.2306-4.3693 4.999-3.2763 1.0251 0.63356 1.075 1.451 0.22305 3.6582-0.60338 1.5633-1.3868 4.3086-1.7409 6.1007-0.90215 4.5658-4.1015 6.1692-5.6274 2.8202zm-30.85-10.63c0-1.9001 0.92311-3.9686 2.4546-5.5 4.9003-4.9003 6.8191-2.1799 2.8707 4.0699-3.31 5.23-5.33 5.78-5.33 1.43zm128.52 326.04c7.85-5.95 15.48-13.48 15.48-15.29 0-0.71018 1.8-3.0489 4-5.1971s4-4.194 4-4.5462c0-0.35217 1.3264-2.1733 2.9475-4.047 8.8188-10.193 12.473-14.852 14.829-18.907 1.4379-2.475 4.0316-6.3 5.7639-8.5 4.2873-5.445 5.1419-6.9929 3.2444-5.8764-3.3194 1.953-7.3684 6.066-8.7473 8.8856-0.80446 1.645-4.2491 5.9402-7.6547 9.545-3.4056 3.6047-6.9163 8.2875-7.8016 10.406-0.88523 2.1187-2.9403 5.2443-4.5669 6.9459-6.5282 6.8294-10.016 10.799-10.042 11.43-0.0151 0.36528-1.5231 1.7734-3.3511 3.1292s-3.8599 3.6768-4.5155 5.1579c-0.65557 1.481-3.6476 4.3841-6.6489 6.4512-5.1206 3.5267-6.6992 5.4259-4.5099 5.4259 0.52088 0 3.9286-2.2567 7.5728-5.015zm-231.5-12.74c0.0267-1.1457 9.1933-10.49 12.508-12.75 4.7767-3.2573 20.142-18.833 20.717-21 0.2918-1.1 0.85474-2.7875 1.251-3.75 1.2795-3.108-2.8982-2.0278-4.8345 1.25-0.99264 1.6804-2.6188 3-3.6969 3-1.0586 0-4.9707 2.823-8.6935 6.2734s-7.983 6.889-9.467 7.6413c-5.2 2.64-12.8 13.47-12.8 18.24 0 1.8029 4.9756 2.8948 5.0175 1.1011zm-167.3-61.5c1.4154-1.8402 3.6772-15.281 2.9085-17.285-2.53-6.59-14.63 3.73-14.63 12.48 0 4.23 9.2437 8.0243 11.717 4.8093zm-17.156-9c7.24-10.88-1.89-25.75-15.81-25.75h-4.4852l-2.0679 5.75c-3.965 11.025-3.9157 12.632 0.46643 15.205 2.1084 1.2383 4.1934 2.8799 4.6332 3.648 0.43983 0.76814 1.3468 1.3966 2.0156 1.3966 0.66875 0 2.7839 0.87417 4.7003 1.9426 5.4115 3.017 7.3482 2.6143 10.545-2.1926zm552.53-12.818c1.5974-1.1375 2.9044-2.4309 2.9044-2.8743 0-0.44341 1.1162-2.1003 2.4804-3.6819 9.6298-11.164 12.461-14.865 14.965-19.557 1.5612-2.9254 3.6183-6.2188 4.5712-7.3188 0.95288-1.1 2.4885-4.3279 3.4126-7.173 0.92403-2.8452 2.284-5.6743 3.0222-6.2869 0.7382-0.61265 2.0809-3.4598 2.9838-6.327 0.91-2.86 2.13-6.33 2.71-7.71 4.15-9.71 5.86-14.78 5.86-17.33 0-0.93091 0.41657-2.474 0.92571-3.429 1.7824-3.3434 4.1978-11.806 5.6332-19.736 0.79641-4.4 1.9357-9.1199 2.5318-10.489 3.4007-7.8086 8.0782-58.254 6.2534-67.441l-0.58184-2.9293-1.3457 2.4293c-0.74014 1.3361-1.3665 3.5543-1.392 4.9293-0.0254 1.375-0.76798 4.75-1.6501 7.5-0.8821 2.75-1.9508 6.8-2.3749 9s-1.7107 6.25-2.8591 9c-4.9 11.75-10.13 27.23-10.13 30 0 2.7862-5.8756 19.917-9.9464 29-0.98601 2.2-2.1165 5.125-2.5123 6.5-0.39573 1.375-2.33 6.9572-4.2984 12.405l-3.5789 9.9048 2.1679 1.7555c2.5544 2.0684 2.7127 3.2379 0.66794 4.9349-0.825 0.68469-1.5179 2.2023-1.5397 3.3724-0.0218 1.1702-1.3717 4.6026-2.9998 7.6276-1.628 3.025-2.9602 6.6558-2.9603 8.0685-0.00064 7.1567-5.3745 19.883-12.103 28.661-6.3914 8.3389-6.7354 11.427-0.80204 7.2024zm-583.85-0.68c3.5345-3.9919 8.9957-27.415 6.8842-29.526-0.61-0.61-1.12-1.93-1.12-2.92 0-2.467-1.8629-2.2572-6.2148 0.7-2.0235 1.375-4.3298 2.5-5.1252 2.5-1.7116 0-2.1635 1.0472-4.1528 9.6249-2.575 11.103-2.137 14.667 2.2427 18.245 4.3665 3.5671 5.3869 3.7552 7.4895 1.3805zm-16.09-15.25c7.3731-26.789-0.76866-39.776-11.576-18.465-5.3819 10.613-5.4873 15.237-0.40264 17.659 2.0205 0.96252 3.9752 2.238 4.3438 2.8345 1.3254 2.1446 6.8931 0.6654 7.6345-2.0283zm-19.87-11.01c0.94-1.11 1.72-2.4 1.72-2.87 0-0.4738 0.95376-3.0176 2.1195-5.6528l2.1195-4.7914-2.0595-4.2391c-1.1327-2.3315-3.6794-5.4746-5.6592-6.9847l-3.5997-2.7456-2.9602 2.8361c-1.63 1.55-2.96 3.46-2.96 4.23 0 0.7747-0.83766 2.603-1.8615 4.0629-4.6832 6.678-3.5025 11.349 3.9449 15.606 5.3542 3.0605 6.9537 3.154 9.1943 0.53723zm-21.6-12.761c1.4716-1.1674 2.5247-3.6471 3.2471-7.6458 0.58802-3.2549 1.8567-6.7883 2.8192-7.8519 4.98-5.51 2.28-22.73-3.56-22.73-7.4074 0-25.56 30.522-19.435 32.679 3.3874 1.1929 7.7817 3.3372 10.75 5.2458 3.7257 2.3956 3.5508 2.387 6.178 0.30293zm376.32-4.73c0.68469-0.825 1.8709-1.5 2.636-1.5 0.76512 0 2.1725-0.42106 3.1276-0.93568 7.5382-4.062 11.031-4.8699 12.914-2.9871 1.2604 1.2604 7.3194-4.61 7.3045-7.0772-0.0438-7.2769-4.839-8.0275-14.643-2.2922-3.4861 2.0393-6.3384 4.2493-6.3384 4.9111 0 1.1857-4.5819 5.4881-7.7073 7.2372-0.95311 0.53339-1.3494 1.5539-0.97862 2.5202 0.77763 2.0265 2.0708 2.0699 3.6859 0.12379zm-398.01-10.65c1.6548-1.7316 3.0087-4.18 3.0087-5.441s0.45-2.5708 1-2.9107c0.55-0.33992 1-1.632 1-2.8712s0.9-4.1159 2-6.3927c3.1064-6.4296 2.7637-14.897-0.77447-19.135l-2.7745-3.3234-4.4755 2.1272c-15.593 7.4114-24.318 23.692-15.976 29.811 4.8018 3.5222 8.6936 7.0045 10.789 9.6541 1.8176 2.2979 2.7802 2.0623 6.2019-1.5182zm-26.501-22.42c7.305-13.814 6.6753-27.822-1.0459-23.266-4.3611 2.5731-4.99 2.0261-3.6663-3.1889l1.0395-4.0953-3.1316 0.68782c-1.7224 0.37831-5.1688 2.3206-7.6588 4.3162-4.4324 3.5525-6.9878 5.1983-12.035 7.7511-2.6515 1.3412-9.6578 8.1218-8.924 8.6366 0.9036 0.63393 11.606 4.606 15.432 5.7272 5.4068 1.5847 10.276 3.8286 11.06 5.0967 0.77483 1.2537 4.5589 2.8696 5.8958 2.5177 0.52559-0.13837 1.8911-2.0208 3.0345-4.183zm-54.109-10.818c1.7155-0.71726 3.7449-2.6112 4.5097-4.2088 0.76481-1.5975 2.467-5.0176 3.7827-7.6001 1.6252-3.1899 2.185-5.5208 1.7462-7.2694-0.35531-1.4157-0.0801-3.9402 0.61163-5.6102 2.5774-6.2223-0.2496-5.8623-11.946 1.5213-2.2249 1.4045-4.4652 2.5537-4.9784 2.5537-1.579 0-8.7369 14.285-9.477 18.914l-0.69868 4.3693 6.6653-0.68288c3.6659-0.37559 8.0689-1.2697 9.7845-1.987zm527.62-70.61c0-0.55-0.41425-1-0.92054-1-0.5063 0-1.2159-1.3448-1.5769-2.9885-1.0983-5.0006-3.4803-5.1545-4.9392-0.31913-0.52084 1.7262-0.0663 2.515 2.1376 3.71 3.28 1.78 5.3 2.01 5.3 0.6z"/>
</svg>
