<?xml version="1.0" encoding="UTF-8" standalone="no"?>
<!-- Created with Inkscape (http://www.inkscape.org/) -->

<svg
   version="1.1"
   id="svg3146"
   width="880"
   height="880"
   viewBox="0 0 880 880"
   sodipodi:docname="exotic-beach-publicdomainvectors.org.svg"
   inkscape:version="1.2 (dc2aedaf03, 2022-05-15)"
   xmlns:inkscape="http://www.inkscape.org/namespaces/inkscape"
   xmlns:sodipodi="http://sodipodi.sourceforge.net/DTD/sodipodi-0.dtd"
   xmlns="http://www.w3.org/2000/svg"
   xmlns:svg="http://www.w3.org/2000/svg">
  <defs
     id="defs3150">
    <clipPath
       clipPathUnits="userSpaceOnUse"
       id="clipPath3166">
      <path
         d="M 0,660 H 660 V 0 H 0 Z"
         id="path3164" />
    </clipPath>
  </defs>
  <sodipodi:namedview
     id="namedview3148"
     pagecolor="#ffffff"
     bordercolor="#000000"
     borderopacity="0.25"
     inkscape:showpageshadow="2"
     inkscape:pageopacity="0.0"
     inkscape:pagecheckerboard="0"
     inkscape:deskcolor="#d1d1d1"
     showgrid="false"
     inkscape:zoom="0.95113636"
     inkscape:cx="440.52569"
     inkscape:cy="440.52569"
     inkscape:window-width="1920"
     inkscape:window-height="1017"
     inkscape:window-x="-8"
     inkscape:window-y="-8"
     inkscape:window-maximized="1"
     inkscape:current-layer="g3154">
    <inkscape:page
       x="0"
       y="0"
       id="page3152"
       width="880"
       height="880" />
  </sodipodi:namedview>
  <g
     id="g3154"
     inkscape:groupmode="layer"
     inkscape:label="Page 1"
     transform="matrix(1.3333333,0,0,-1.3333333,0,880)">
    <path
       d="M 0.214,0 H 660 V 659.09 H 0.214 Z"
       style="fill:#80baf5;fill-opacity:1;fill-rule:nonzero;stroke:none"
       id="path3156" />
    <path
       d="m 0.212,369.473 h 659.787 v 16.273 H 0.212 Z"
       style="fill:#99c9fa;fill-opacity:1;fill-rule:nonzero;stroke:none"
       id="path3158" />
    <g
       id="g3160">
      <g
         id="g3162"
         clip-path="url(#clipPath3166)">
        <g
           id="g3168"
           transform="translate(0.2139,294.5654)">
          <path
             d="m 0,0 v 126.304 c 10.468,2.466 22.103,4.941 25.043,5.213 33.4,0.961 24.317,-15.373 57.257,-21.461 18.785,-3.471 22.368,-3.531 38.576,-15.636 8.242,-6.156 11.407,-3.683 21.153,-5.104 21.464,-3.128 37.385,-8.286 46.333,-29.821 1.593,-3.834 2.392,-5.469 4.472,-9.063 10.577,-16.149 18.668,-22.029 -5.785,-33.476 -6.365,-2.98 -13.373,-5.423 -20.013,-7.731 C 143.059,2.43 62.386,0.115 0,0"
             style="fill:#d8eafc;fill-opacity:1;fill-rule:evenodd;stroke:none"
             id="path3170" />
        </g>
        <g
           id="g3172"
           transform="translate(592.5625,498.4854)">
          <path
             d="M 0,0 C -3.607,4.395 -1.606,8.349 2.097,4.425 15.948,-10.249 31.078,-40.094 30.544,-61.295 30.33,-69.76 22.926,-70.268 22.362,-61.829 20.922,-40.288 13.059,-15.912 0,0"
             style="fill:#649ed9;fill-opacity:1;fill-rule:evenodd;stroke:none"
             id="path3174" />
        </g>
        <g
           id="g3176"
           transform="translate(594.6592,504.7163)">
          <path
             d="m 0,0 c -35.021,-18.282 -37.208,-32.715 -24.673,-45.423 l -0.475,8.595 1.864,-3.823 -0.583,10.811 2.269,-6.098 -0.061,8.198 1.568,-4.566 -0.064,6.992 1.561,-3.746 -0.008,6.624 1.642,-3.374 0.133,6.398 1.621,-3.168 -0.264,5.816 1.837,-3.095 -0.044,5.426 1.372,-3.234 0.236,5.602 1.325,-3.127 0.688,4.037 0.983,-1.489 0.539,2.612 0.493,-1.086 1.024,3.778 0.659,-1.345 1.373,4.704 0.614,-1.915 1.693,3.343 0.159,-0.809 h 0.003 C -1.686,-2.238 -0.845,-1.117 0,0"
             style="fill:#649ed9;fill-opacity:1;fill-rule:evenodd;stroke:none"
             id="path3178" />
        </g>
        <g
           id="g3180"
           transform="translate(592.7852,504.1929)">
          <path
             d="m 0,0 c 39.428,2.474 48.769,-8.747 44.613,-26.107 l -4.038,7.601 0.382,-4.236 -5.094,9.555 1.213,-6.392 -4.187,7.045 1.016,-4.718 -3.559,6.018 0.602,-4.015 -3.421,5.673 0.341,-3.737 -3.425,5.406 0.249,-3.548 -2.78,5.113 0.026,-3.598 -2.765,4.666 0.495,-3.479 -3.1,4.674 0.485,-3.364 -2.678,3.1 -0.068,-1.784 -1.814,1.958 0.14,-1.185 -2.832,2.703 0.135,-1.491 -3.61,3.314 0.466,-1.955 -3.178,1.985 0.28,-0.775 V -1.574 C 2.602,-1.043 1.304,-0.518 0,0"
             style="fill:#649ed9;fill-opacity:1;fill-rule:evenodd;stroke:none"
             id="path3182" />
        </g>
        <g
           id="g3184"
           transform="translate(593.3877,504.3179)">
          <path
             d="m 0,0 c -15.174,-11.708 -11.212,-22.736 1.335,-33.459 l -3.474,6.692 2.582,-3.092 -4.361,8.417 3.673,-4.885 -3.068,6.354 2.671,-3.645 -2.627,5.421 2.365,-3.013 -2.452,5.132 2.273,-2.728 -2.281,4.948 2.185,-2.568 -2.312,4.523 2.293,-2.526 -2.033,4.207 2.055,-2.602 -1.924,4.323 1.986,-2.516 -1.062,3.081 1.166,-1.225 -0.627,1.987 0.708,-0.875 -0.755,2.855 0.913,-1.088 -0.88,3.548 1.092,-1.527 -0.176,2.471 0.399,-0.638 C -0.231,-1.616 -0.117,-0.806 0,0"
             style="fill:#649ed9;fill-opacity:1;fill-rule:evenodd;stroke:none"
             id="path3186" />
        </g>
        <g
           id="g3188"
           transform="translate(589.3398,502.5869)">
          <path
             d="m 0,0 c 18.364,5.73 23.821,-4.207 23.49,-21.168 l -2.619,6.926 0.578,-4.02 -3.298,8.706 1.171,-6.012 -2.636,6.383 0.923,-4.427 -2.244,5.453 0.662,-3.789 -2.146,5.134 0.512,-3.545 -2.122,4.881 0.451,-3.375 -1.791,4.655 0.347,-3.442 -1.742,4.229 0.562,-3.285 -1.9,4.207 0.544,-3.177 -1.555,2.737 0.134,-1.712 -1.039,1.718 0.179,-1.121 -1.59,2.344 0.201,-1.415 -2.011,2.863 0.401,-1.832 -1.683,1.628 0.203,-0.717 C 1.323,-0.775 0.662,-0.385 0,0"
             style="fill:#649ed9;fill-opacity:1;fill-rule:evenodd;stroke:none"
             id="path3190" />
        </g>
        <g
           id="g3192"
           transform="translate(600.6113,500.2275)">
          <path
             d="m 0,0 c -26.225,20.9 -34.999,15.73 -35.947,-1.129 l 4.39,4.591 -1.177,-3.45 5.529,5.765 -2.21,-4.903 4.371,4.047 -1.715,-3.561 3.725,3.462 -1.282,-3.153 3.552,3.231 -1.041,-3.041 3.499,3.005 -0.94,-2.923 2.996,3.059 -0.799,-3.073 2.892,2.683 -1.093,-2.745 3.119,2.53 -1.061,-2.653 2.492,1.381 -0.341,-1.562 1.656,0.815 -0.352,-0.949 2.509,0.968 -0.414,-1.215 3.167,1.122 -0.74,-1.454 2.588,0.187 -0.357,-0.531 C -1.992,0.344 -0.998,0.175 0,0"
             style="fill:#649ed9;fill-opacity:1;fill-rule:evenodd;stroke:none"
             id="path3194" />
        </g>
        <g
           id="g3196"
           transform="translate(591.624,499.1162)">
          <path
             d="m 0,0 c 10.77,28.813 20.522,27.605 29.818,12.937 l -5.892,2.393 2.702,-2.619 -7.414,2.995 4.278,-3.516 -5.603,1.913 3.194,-2.509 -4.78,1.643 2.636,-2.317 -4.525,1.505 2.387,-2.307 -4.366,1.322 2.244,-2.243 -3.985,1.567 L 12.897,8.333 9.187,9.604 11.464,7.58 7.649,8.626 9.852,6.672 7.125,6.936 8.193,5.676 6.434,5.762 7.201,5.052 4.67,4.941 5.62,4.019 2.475,3.79 3.812,2.78 1.612,1.943 2.173,1.61 2.171,1.608 C 1.445,1.082 0.72,0.544 0,0"
             style="fill:#649ed9;fill-opacity:1;fill-rule:evenodd;stroke:none"
             id="path3198" />
        </g>
        <g
           id="g3200"
           transform="translate(540.4932,485.3193)">
          <path
             d="m 0,0 c -2.57,3.131 -1.145,5.95 1.497,3.155 9.872,-10.46 20.655,-31.735 20.277,-46.848 -0.151,-6.033 -5.431,-6.396 -5.833,-0.381 C 14.914,-28.719 9.309,-11.342 0,0"
             style="fill:#649ed9;fill-opacity:1;fill-rule:evenodd;stroke:none"
             id="path3202" />
        </g>
        <g
           id="g3204"
           transform="translate(541.9883,489.7603)">
          <path
             d="m 0,0 c -24.963,-13.031 -26.523,-23.319 -17.588,-32.378 l -0.338,6.125 1.328,-2.724 -0.417,7.707 1.621,-4.348 -0.046,5.845 1.119,-3.255 -0.045,4.985 1.112,-2.672 -0.007,4.721 1.171,-2.404 0.096,4.561 1.156,-2.258 -0.19,4.145 1.31,-2.206 -0.032,3.868 0.981,-2.305 0.166,3.993 0.946,-2.23 0.49,2.879 0.7,-1.062 0.385,1.862 0.349,-0.774 0.732,2.693 0.468,-0.958 0.98,3.352 0.439,-1.365 1.205,2.384 0.115,-0.576 C -1.201,-1.595 -0.604,-0.796 0,0"
             style="fill:#649ed9;fill-opacity:1;fill-rule:evenodd;stroke:none"
             id="path3206" />
        </g>
        <g
           id="g3208"
           transform="translate(540.6523,489.3877)">
          <path
             d="m 0,0 c 28.107,1.763 34.764,-6.235 31.801,-18.609 l -2.879,5.418 0.274,-3.02 -3.631,6.811 0.866,-4.557 -2.988,5.022 0.726,-3.362 -2.538,4.289 0.431,-2.862 -2.441,4.044 0.245,-2.665 -2.442,3.854 0.179,-2.528 -1.983,3.644 0.02,-2.565 -1.973,3.326 0.354,-2.479 -2.208,3.331 0.345,-2.398 -1.911,2.21 L 10.198,-4.367 8.906,-2.972 9.007,-3.816 6.985,-1.89 7.081,-2.952 4.509,-0.59 4.842,-1.984 2.575,-0.569 2.773,-1.121 2.776,-1.122 C 1.856,-0.744 0.929,-0.37 0,0"
             style="fill:#649ed9;fill-opacity:1;fill-rule:evenodd;stroke:none"
             id="path3210" />
        </g>
        <g
           id="g3212"
           transform="translate(541.0811,489.4775)">
          <path
             d="m 0,0 c -10.815,-8.347 -7.99,-16.208 0.953,-23.85 l -2.476,4.768 1.839,-2.203 -3.109,5.999 2.619,-3.481 -2.187,4.53 1.906,-2.599 -1.872,3.863 1.682,-2.146 -1.747,3.657 1.622,-1.944 -1.626,3.527 1.558,-1.83 -1.648,3.224 1.633,-1.801 -1.45,2.999 1.465,-1.855 -1.372,3.083 1.416,-1.794 -0.754,2.195 0.83,-0.873 -0.448,1.417 0.505,-0.625 -0.537,2.036 0.647,-0.776 -0.625,2.528 0.779,-1.087 -0.125,1.761 0.285,-0.454 C -0.164,-1.152 -0.083,-0.576 0,0"
             style="fill:#649ed9;fill-opacity:1;fill-rule:evenodd;stroke:none"
             id="path3214" />
        </g>
        <g
           id="g3216"
           transform="translate(538.1973,488.2422)">
          <path
             d="m 0,0 c 13.092,4.085 16.979,-2.999 16.742,-15.089 l -1.864,4.938 0.411,-2.867 -2.351,6.207 0.837,-4.286 -1.882,4.55 0.66,-3.156 -1.601,3.888 0.471,-2.701 -1.528,3.66 0.364,-2.527 -1.512,3.479 0.321,-2.406 -1.276,3.319 0.247,-2.454 -1.242,3.015 0.399,-2.343 -1.352,2.999 0.387,-2.265 -1.11,1.952 0.098,-1.221 -0.74,1.226 0.125,-0.8 -1.132,1.671 0.144,-1.009 -1.435,2.041 0.287,-1.305 -1.201,1.16 0.147,-0.512 C 0.943,-0.552 0.473,-0.274 0,0"
             style="fill:#649ed9;fill-opacity:1;fill-rule:evenodd;stroke:none"
             id="path3218" />
        </g>
        <g
           id="g3220"
           transform="translate(546.2314,486.5605)">
          <path
             d="m 0,0 c -18.694,14.9 -24.947,11.213 -25.624,-0.805 l 3.129,3.273 -0.84,-2.46 3.944,4.111 -1.578,-3.495 3.117,2.884 -1.222,-2.538 2.655,2.468 -0.913,-2.248 2.533,2.304 -0.745,-2.167 2.494,2.14 -0.671,-2.083 2.137,2.18 -0.568,-2.189 2.06,1.912 -0.779,-1.958 2.222,1.803 -0.754,-1.89 1.776,0.985 -0.243,-1.114 1.179,0.581 -0.25,-0.676 1.789,0.69 L -5.446,0.841 -3.19,1.642 -3.717,0.605 -1.872,0.739 -2.127,0.36 C -1.421,0.246 -0.71,0.125 0,0"
             style="fill:#649ed9;fill-opacity:1;fill-rule:evenodd;stroke:none"
             id="path3222" />
        </g>
        <g
           id="g3224"
           transform="translate(539.8242,485.77)">
          <path
             d="m 0,0 c 7.677,20.538 14.63,19.676 21.258,9.22 l -4.202,1.705 1.926,-1.865 -5.286,2.134 3.051,-2.505 -3.996,1.363 2.278,-1.789 -3.405,1.172 1.877,-1.652 -3.225,1.074 1.701,-1.646 -3.112,0.942 1.6,-1.599 L 7.623,7.672 9.195,5.94 6.552,6.845 8.174,5.401 5.452,6.147 7.023,4.755 5.079,4.943 5.842,4.044 4.587,4.105 5.133,3.601 3.33,3.521 4.006,2.863 1.765,2.7 2.718,1.98 1.149,1.384 1.549,1.146 C 1.031,0.77 0.515,0.387 0,0"
             style="fill:#649ed9;fill-opacity:1;fill-rule:evenodd;stroke:none"
             id="path3226" />
        </g>
        <g
           id="g3228"
           transform="translate(452.4414,494.228)">
          <path
             d="m 0,0 c -3.264,3.977 -1.451,7.554 1.898,4.004 12.534,-13.278 26.222,-40.282 25.74,-59.466 -0.194,-7.66 -6.893,-8.12 -7.403,-0.484 C 18.93,-36.455 11.817,-14.398 0,0"
             style="fill:#649ed9;fill-opacity:1;fill-rule:evenodd;stroke:none"
             id="path3230" />
        </g>
        <g
           id="g3232"
           transform="translate(454.3379,499.8662)">
          <path
             d="m 0,0 c -31.689,-16.542 -33.668,-29.602 -22.324,-41.101 l -0.431,7.777 1.688,-3.46 -0.53,9.783 2.054,-5.518 -0.057,7.418 1.422,-4.132 -0.059,6.329 1.414,-3.391 -0.008,5.993 1.485,-3.053 0.12,5.791 1.47,-2.867 -0.242,5.261 1.663,-2.8 -0.041,4.91 1.244,-2.925 0.211,5.067 1.2,-2.83 0.623,3.654 0.89,-1.347 0.487,2.363 0.444,-0.982 0.928,3.418 0.596,-1.217 1.244,4.256 0.554,-1.732 1.531,3.025 0.148,-0.732 C -1.524,-2.026 -0.765,-1.011 0,0"
             style="fill:#649ed9;fill-opacity:1;fill-rule:evenodd;stroke:none"
             id="path3234" />
        </g>
        <g
           id="g3236"
           transform="translate(452.6416,499.3931)">
          <path
             d="m 0,0 c 35.68,2.237 44.128,-7.915 40.37,-23.622 l -3.653,6.876 0.344,-3.833 -4.611,8.645 1.098,-5.783 -3.787,6.377 0.921,-4.271 -3.225,5.444 0.547,-3.631 -3.095,5.132 0.309,-3.381 -3.1,4.893 0.228,-3.213 -2.516,4.628 0.024,-3.257 -2.506,4.223 0.451,-3.148 -2.806,4.229 0.442,-3.043 -2.426,2.805 -0.062,-1.614 -1.641,1.771 0.127,-1.071 L 8.87,-2.4 8.99,-3.749 5.727,-0.75 6.145,-2.52 3.271,-0.723 3.523,-1.423 V -1.425 C 2.355,-0.943 1.182,-0.47 0,0"
             style="fill:#649ed9;fill-opacity:1;fill-rule:evenodd;stroke:none"
             id="path3238" />
        </g>
        <g
           id="g3240"
           transform="translate(453.1885,499.5059)">
          <path
             d="m 0,0 c -13.73,-10.595 -10.144,-20.573 1.208,-30.275 l -3.144,6.054 2.335,-2.799 -3.945,7.617 3.325,-4.419 -2.778,5.75 2.418,-3.3 -2.376,4.906 2.139,-2.725 -2.218,4.642 2.056,-2.469 -2.063,4.477 1.978,-2.323 -2.096,4.093 2.078,-2.286 -1.843,3.807 1.861,-2.354 -1.741,3.913 1.796,-2.278 -0.958,2.787 1.054,-1.107 -0.568,1.797 0.641,-0.791 -0.68,2.584 0.82,-0.986 -0.794,3.21 0.988,-1.38 -0.157,2.235 0.362,-0.576 C -0.208,-1.461 -0.107,-0.73 0,0"
             style="fill:#649ed9;fill-opacity:1;fill-rule:evenodd;stroke:none"
             id="path3242" />
        </g>
        <g
           id="g3244"
           transform="translate(449.5254,497.938)">
          <path
             d="m 0,0 c 16.617,5.187 21.555,-3.805 21.255,-19.153 l -2.369,6.269 0.522,-3.639 -2.984,7.878 1.06,-5.441 -2.386,5.777 0.836,-4.006 -2.032,4.934 0.601,-3.428 -1.943,4.645 0.462,-3.208 -1.918,4.416 0.407,-3.054 -1.619,4.212 0.313,-3.113 -1.575,3.826 0.507,-2.973 -1.72,3.808 0.492,-2.876 -1.406,2.477 0.122,-1.548 -0.94,1.553 0.161,-1.014 -1.438,2.121 0.184,-1.281 -1.824,2.591 0.366,-1.657 -1.525,1.473 0.185,-0.65 C 1.198,-0.701 0.601,-0.347 0,0"
             style="fill:#649ed9;fill-opacity:1;fill-rule:evenodd;stroke:none"
             id="path3246" />
        </g>
        <g
           id="g3248"
           transform="translate(459.7256,495.8037)">
          <path
             d="m 0,0 c -23.73,18.913 -31.669,14.234 -32.528,-1.022 l 3.973,4.156 -1.065,-3.123 5.003,5.217 -1.999,-4.436 3.954,3.661 -1.551,-3.222 3.369,3.133 -1.159,-2.853 3.215,2.924 -0.944,-2.752 3.167,2.719 -0.851,-2.645 2.712,2.766 -0.725,-2.778 2.616,2.426 -0.987,-2.484 2.821,2.29 -0.959,-2.4 2.254,1.249 L -9.992,1.413 -8.495,2.15 -8.814,1.293 -6.542,2.167 -6.917,1.068 -4.05,2.084 -4.719,0.768 -2.377,0.937 -2.702,0.457 C -1.804,0.312 -0.904,0.159 0,0"
             style="fill:#649ed9;fill-opacity:1;fill-rule:evenodd;stroke:none"
             id="path3250" />
        </g>
        <g
           id="g3252"
           transform="translate(451.5908,494.7993)">
          <path
             d="m 0,0 c 9.747,26.071 18.572,24.978 26.984,11.704 l -5.335,2.166 2.446,-2.369 -6.708,2.71 3.871,-3.182 -5.072,1.731 2.894,-2.27 -4.325,1.486 2.384,-2.096 -4.094,1.363 2.158,-2.089 -3.949,1.197 2.028,-2.029 -3.603,1.417 1.994,-2.2 L 8.316,8.69 10.377,6.857 6.922,7.805 8.916,6.037 6.449,6.275 7.414,5.135 5.824,5.212 6.515,4.572 4.227,4.47 5.087,3.635 2.239,3.429 3.452,2.515 1.46,1.758 1.968,1.455 H 1.965 C 1.309,0.979 0.654,0.492 0,0"
             style="fill:#649ed9;fill-opacity:1;fill-rule:evenodd;stroke:none"
             id="path3254" />
        </g>
        <g
           id="g3256"
           transform="translate(390.9561,462.1982)">
          <path
             d="m 0,0 c -2.475,3.014 -1.1,5.724 1.438,3.035 9.498,-10.061 19.869,-30.526 19.506,-45.062 -0.146,-5.804 -5.223,-6.152 -5.611,-0.366 C 14.344,-27.624 8.953,-10.91 0,0"
             style="fill:#649ed9;fill-opacity:1;fill-rule:evenodd;stroke:none"
             id="path3258" />
        </g>
        <g
           id="g3260"
           transform="translate(392.3945,466.4712)">
          <path
             d="m 0,0 c -24.015,-12.535 -25.514,-22.433 -16.919,-31.146 l -0.325,5.895 1.278,-2.622 -0.401,7.413 1.556,-4.181 -0.042,5.62 1.076,-3.131 -0.044,4.795 1.07,-2.569 -0.005,4.543 1.125,-2.316 0.093,4.388 1.112,-2.171 -0.183,3.987 1.261,-2.122 -0.031,3.721 0.941,-2.218 0.162,3.841 0.908,-2.144 0.471,2.769 0.676,-1.022 0.367,1.791 0.338,-0.745 0.704,2.591 0.451,-0.922 0.943,3.225 0.419,-1.313 1.161,2.293 0.11,-0.554 C -1.156,-1.535 -0.581,-0.767 0,0"
             style="fill:#649ed9;fill-opacity:1;fill-rule:evenodd;stroke:none"
             id="path3262" />
        </g>
        <g
           id="g3264"
           transform="translate(391.1084,466.1123)">
          <path
             d="m 0,0 c 27.035,1.696 33.438,-5.998 30.59,-17.9 l -2.769,5.211 0.263,-2.904 -3.494,6.551 0.831,-4.384 -2.872,4.832 0.698,-3.236 -2.44,4.127 0.414,-2.752 -2.347,3.889 0.234,-2.562 -2.349,3.707 0.172,-2.434 -1.907,3.507 0.02,-2.468 -1.899,3.2 0.34,-2.385 -2.124,3.204 0.333,-2.306 L 9.856,-2.978 9.808,-4.201 8.565,-2.858 8.664,-3.67 6.721,-1.818 6.811,-2.84 4.337,-0.567 4.655,-1.909 2.477,-0.547 2.668,-1.078 V -1.079 C 1.783,-0.715 0.895,-0.355 0,0"
             style="fill:#649ed9;fill-opacity:1;fill-rule:evenodd;stroke:none"
             id="path3266" />
        </g>
        <g
           id="g3268"
           transform="translate(391.5195,466.1982)">
          <path
             d="m 0,0 c -10.403,-8.028 -7.685,-15.589 0.919,-22.941 l -2.382,4.587 1.767,-2.12 -2.989,5.771 2.521,-3.349 -2.108,4.358 1.834,-2.5 -1.801,3.717 1.622,-2.066 -1.681,3.518 1.559,-1.87 -1.564,3.392 1.497,-1.761 -1.585,3.102 1.573,-1.732 -1.397,2.884 1.411,-1.782 -1.32,2.963 1.362,-1.725 -0.727,2.112 0.799,-0.839 -0.429,1.362 0.484,-0.6 -0.516,1.958 0.625,-0.747 -0.606,2.432 0.75,-1.046 -0.12,1.695 0.274,-0.436 C -0.156,-1.107 -0.078,-0.554 0,0"
             style="fill:#649ed9;fill-opacity:1;fill-rule:evenodd;stroke:none"
             id="path3270" />
        </g>
        <g
           id="g3272"
           transform="translate(388.7461,465.0098)">
          <path
             d="m 0,0 c 12.592,3.93 16.333,-2.883 16.105,-14.514 l -1.794,4.75 0.395,-2.757 -2.259,5.97 0.804,-4.122 -1.811,4.377 0.634,-3.036 -1.538,3.74 0.453,-2.599 -1.472,3.521 0.352,-2.432 -1.455,3.347 0.309,-2.314 -1.228,3.191 0.24,-2.359 -1.195,2.9 0.384,-2.252 -1.303,2.884 0.372,-2.18 L 4.928,-2.007 5.021,-3.182 4.308,-2.003 4.43,-2.771 3.34,-1.164 3.479,-2.135 2.098,-0.171 2.374,-1.428 1.221,-0.311 1.36,-0.804 C 0.906,-0.532 0.456,-0.262 0,0"
             style="fill:#649ed9;fill-opacity:1;fill-rule:evenodd;stroke:none"
             id="path3274" />
        </g>
        <g
           id="g3276"
           transform="translate(396.4736,463.3926)">
          <path
             d="m 0,0 c -17.981,14.331 -23.997,10.786 -24.646,-0.774 l 3.009,3.149 -0.806,-2.365 3.791,3.952 -1.515,-3.361 2.996,2.774 -1.176,-2.441 2.554,2.374 -0.878,-2.163 2.436,2.215 -0.715,-2.083 2.4,2.058 -0.646,-2.003 2.055,2.096 -0.548,-2.106 1.982,1.839 -0.747,-1.882 2.136,1.735 -0.725,-1.82 1.708,0.948 L -7.568,1.071 -6.434,1.629 -6.677,0.98 -4.954,1.642 -5.238,0.81 -3.067,1.579 -3.574,0.583 -1.801,0.71 -2.046,0.347 C -1.364,0.236 -0.684,0.12 0,0"
             style="fill:#649ed9;fill-opacity:1;fill-rule:evenodd;stroke:none"
             id="path3278" />
        </g>
        <g
           id="g3280"
           transform="translate(390.3115,462.6318)">
          <path
             d="M 0,0 C 7.385,19.756 14.074,18.928 20.447,8.87 L 16.404,10.51 18.259,8.715 13.175,10.769 16.107,8.358 12.266,9.67 14.456,7.95 11.181,9.074 12.986,7.487 9.885,8.518 11.522,6.937 8.527,7.843 10.066,6.306 7.334,7.38 8.846,5.713 6.302,6.585 7.863,5.196 5.246,5.914 6.756,4.575 4.886,4.755 5.618,3.892 4.413,3.949 4.937,3.465 3.203,3.388 3.854,2.754 1.698,2.599 2.614,1.905 1.105,1.332 1.49,1.103 C 0.993,0.741 0.495,0.374 0,0"
             style="fill:#649ed9;fill-opacity:1;fill-rule:evenodd;stroke:none"
             id="path3282" />
        </g>
        <path
           d="M 0.214,369.472 H 660.305 V -1 H 0.214 Z"
           style="fill:#4d9ceb;fill-opacity:1;fill-rule:evenodd;stroke:none"
           id="path3284" />
        <g
           id="g3286"
           transform="translate(660.3047,442.0835)">
          <path
             d="m 0,0 v -443.083 h -660.091 v 0.073 c 34.909,14.446 60.603,21.064 96.95,31.338 11.656,3.293 37.381,8.277 31.738,24.271 -5.395,15.292 -50.396,49.693 -6.801,61.015 19.961,5.182 69.568,3.52 93.383,5.045 53.017,3.395 102.021,13.201 151.493,32.771 14.711,6.912 36.474,20.88 30.605,40.415 -10.146,14.444 -38.767,25.545 -55.046,33.763 -12.765,6.442 -52.806,22.718 -48.386,39.791 7.194,27.784 71.768,19.019 56.371,41.998 -8.603,12.841 -50.133,29.172 -66.317,35.975 -10.802,4.542 -21.902,8.434 -32.93,12.387 -37.985,13.727 -8.034,25.993 13.743,34.631 7.564,2.999 15.138,5.657 22.826,8.31 100.117,33.94 177.136,43.421 282.03,43.958 C -59.164,2.658 -28.86,1.731 0,0"
             style="fill:#ffcc99;fill-opacity:1;fill-rule:evenodd;stroke:none"
             id="path3288" />
        </g>
        <g
           id="g3290"
           transform="translate(660.3047,416.5146)">
          <path
             d="m 0,0 v -417.515 h -390.895 c -25.352,23.556 -42.214,52.042 4.825,63.717 28.706,7.125 47.23,8.159 77.448,18.524 35.126,12.793 81.008,29.375 114.171,44.593 l 6.836,4.073 c 28.176,20.728 11.944,69.136 -1.125,94.228 -20.486,39.329 -35.696,22.684 -50.604,71.355 -8.164,26.656 -57.535,33.751 -45.859,55.508 4.782,8.914 55.178,16.581 70.21,21.336 38.024,12.39 56.856,25.718 97.664,29.615 C -77.161,-10.732 -39.195,-4.321 0,0"
             style="fill:#f7bd83;fill-opacity:1;fill-rule:evenodd;stroke:none"
             id="path3292" />
        </g>
        <g
           id="g3294"
           transform="translate(212.9067,-1)">
          <path
             d="m 0,0 h -212.693 v 0.073 c 34.909,14.447 60.603,21.065 96.95,31.338 11.656,3.293 37.381,8.277 31.738,24.272 -5.395,15.292 -50.396,49.692 -6.801,61.014 19.961,5.183 69.568,3.521 93.383,5.045 53.017,3.396 102.021,13.201 151.493,32.772 14.711,6.912 36.474,20.88 30.605,40.415 -10.146,14.443 -38.767,25.545 -55.046,33.762 -12.765,6.443 -52.806,22.718 -48.386,39.791 7.194,27.785 71.768,19.019 56.371,41.998 -8.603,12.841 -50.133,29.173 -66.317,35.976 -3.885,1.633 -7.808,3.183 -11.753,4.681 33.415,-6.345 81.14,-24.955 91.47,-40.374 18.007,-26.876 -117.594,-26.08 -14.378,-68.711 31.153,-12.866 96.751,-25.712 71.436,-73.136 l -1.777,-3.325 C 188.659,135.395 143.087,120.896 111.596,110.521 59.563,93.313 49.464,94.678 -2.059,92.825 -12.82,92.439 -65.464,88.141 -42.751,67.451 -12.727,40.098 -2.485,48.85 -0.127,1.963 -0.096,1.296 -0.049,0.645 0,0"
             style="fill:#ffffff;fill-opacity:1;fill-rule:evenodd;stroke:none"
             id="path3296" />
        </g>
        <g
           id="g3298"
           transform="translate(616.1768,449.3628)">
          <path
             d="M 0,0 C -7.512,9.908 -2.803,18.379 4.959,9.492 18.977,-6.557 33.345,-30.357 44.128,-55.895 v -85.482 c -0.262,1.317 -0.427,2.774 -0.473,4.377 C 42.322,-89.804 27.197,-35.872 0,0"
             style="fill:#996633;fill-opacity:1;fill-rule:evenodd;stroke:none"
             id="path3300" />
        </g>
        <g
           id="g3302"
           transform="translate(621.2852,462.8022)">
          <path
             d="m 0,0 c -78.072,-37 -84.07,-68.355 -57.748,-97.178 l -0.314,18.819 3.751,-8.512 -0.365,23.677 4.447,-13.52 0.554,17.92 3.046,-10.109 0.448,15.284 3.095,-8.319 0.544,14.476 3.303,-7.513 0.831,13.974 3.278,-7.058 -0.091,12.728 3.758,-6.916 0.356,11.86 2.729,-7.182 0.987,12.222 2.632,-6.949 1.848,8.769 2.016,-3.342 1.399,5.666 0.985,-2.414 2.561,8.169 1.323,-2.994 3.398,10.162 1.181,-4.237 3.98,7.164 0.284,-1.781 C -3.873,-4.749 -1.945,-2.371 0,0"
             style="fill:#dceb84;fill-opacity:1;fill-rule:evenodd;stroke:none"
             id="path3304" />
        </g>
        <g
           id="g3306"
           transform="translate(617.1445,461.8174)">
          <path
             d="m 0,0 c 16.843,0.405 31.132,-0.235 43.16,-1.801 v -14.493 l -1.708,3.15 0.792,-7.644 -6.378,10.474 0.777,-7.391 -5.596,7.001 -0.299,-3.893 -3.798,4.431 0.21,-2.598 -5.964,6.143 0.165,-3.269 -7.605,7.547 0.85,-4.314 -6.778,4.607 0.549,-1.718 V -3.769 C 5.597,-2.498 2.803,-1.242 0,0"
             style="fill:#dceb84;fill-opacity:1;fill-rule:evenodd;stroke:none"
             id="path3308" />
        </g>
        <g
           id="g3310"
           transform="translate(618.4727,462.0391)">
          <path
             d="m 0,0 c -34.148,-24.306 -26.415,-48.739 0.098,-73.23 l -7.027,14.915 5.378,-6.975 -8.82,18.762 7.617,-10.984 -6.17,14.147 5.528,-8.196 -5.278,12.07 4.908,-6.784 -4.924,11.423 4.741,-6.156 -4.571,11.007 4.563,-5.795 -4.678,10.078 4.801,-5.712 -4.09,9.364 4.274,-5.859 -3.84,9.611 4.129,-5.668 -2.059,6.822 2.443,-2.772 -1.206,4.394 1.476,-1.974 -1.404,6.302 1.893,-2.454 -1.619,7.826 2.257,-3.428 -0.174,5.415 0.818,-1.425 C -0.637,-3.511 -0.326,-1.754 0,0"
             style="fill:#dceb84;fill-opacity:1;fill-rule:evenodd;stroke:none"
             id="path3312" />
        </g>
        <g
           id="g3314"
           transform="translate(609.4805,458.5977)">
          <path
             d="m 0,0 c 40.614,10.972 51.701,-11.204 49.545,-48.242 l -5.135,15.358 0.923,-8.834 -6.473,19.304 2.053,-13.238 -5.222,14.173 1.643,-9.753 -4.442,12.106 1.122,-8.337 -4.256,11.402 0.82,-7.792 -4.226,10.845 0.701,-7.412 -3.522,10.323 0.476,-7.549 -3.452,9.388 0.945,-7.226 -3.795,9.351 0.921,-6.988 -3.168,6.114 0.152,-3.754 -2.124,3.843 0.291,-2.464 -3.275,5.254 0.323,-3.109 L 6.67,-0.81 7.395,-4.847 3.85,-1.146 4.236,-2.732 V -2.733 C 2.828,-1.807 1.416,-0.897 0,0"
             style="fill:#dceb84;fill-opacity:1;fill-rule:evenodd;stroke:none"
             id="path3316" />
        </g>
        <g
           id="g3318"
           transform="translate(633.9141,452.4883)">
          <path
             d="m 0,0 c -55.546,47.886 -75.154,37.328 -78.651,0.566 l 9.984,9.664 -2.866,-7.44 12.572,12.131 -5.246,-10.528 9.896,8.475 -4.05,-7.636 8.431,7.25 -3.065,-6.784 8.036,6.763 -2.533,-6.555 7.896,6.27 -2.299,-6.309 6.806,6.43 -2.005,-6.646 6.545,5.617 -2.619,-5.906 7.026,5.265 -2.538,-5.706 5.562,2.808 -0.877,-3.385 3.685,1.64 -0.847,-2.041 5.564,1.902 -1.008,-2.618 7.018,2.184 -1.739,-3.118 5.67,0.192 -0.83,-1.129 0.003,-0.001 C -4.325,0.922 -2.164,0.469 0,0"
             style="fill:#dceb84;fill-opacity:1;fill-rule:evenodd;stroke:none"
             id="path3320" />
        </g>
        <g
           id="g3322"
           transform="translate(614.1777,450.8208)">
          <path
             d="M 0,0 C 17.21,41.127 32.33,53.47 46.127,47.561 V 31.435 l -2.815,1.265 2.815,-2.5 v -3.14 l -5.846,2.251 5.846,-4.966 v -0.429 l -9.379,3.634 5.567,-5.284 -9.764,3.67 5.017,-5.244 -9.427,3.26 4.713,-5.092 -8.576,3.758 4.61,-5.497 -7.998,3.09 4.805,-4.616 -8.25,2.61 4.648,-4.458 -5.934,0.81 2.227,-2.845 -3.837,0.333 1.612,-1.613 -5.54,-0.029 L 12.623,8.306 5.731,8.075 8.568,5.752 3.69,4.111 4.886,3.331 C 3.251,2.241 1.624,1.128 0,0"
             style="fill:#dceb84;fill-opacity:1;fill-rule:evenodd;stroke:none"
             id="path3324" />
        </g>
        <g
           id="g3326"
           transform="translate(0.2139,64.7822)">
          <path
             d="m 0,0 v 14.503 c 0.526,1.271 0.555,2.632 0,4.106 v 43.148 c 8.752,4.665 20.705,9.94 35.787,16.735 47.464,21.383 -6.64,28.554 -26.176,46.582 -6.917,6.378 3.519,-0.058 10.557,-2.665 23.258,-8.625 80.185,-22.113 60.216,-36.964 C 56.407,67.613 -6.183,60.071 24.188,34.481 44.979,16.96 60.708,12.023 0,0"
             style="fill:#9fcefc;fill-opacity:1;fill-rule:evenodd;stroke:none"
             id="path3328" />
        </g>
        <g
           id="g3330"
           transform="translate(660.3047,267.8496)">
          <path
             d="m 0,0 v -268.85 h -170.93 c 22.253,7.64 49.08,16.77 65.631,26.798 51.807,31.392 29.154,48.506 3.967,87.594 -40.832,63.371 -3.467,49.639 21.738,68.992 5.927,5.611 10.987,10.614 14.076,18.474 9.582,24.379 -30.563,43.789 -31.553,53.241 -2.23,21.269 52.436,17.062 63.366,16.316 C -20.097,1.635 -9.389,0.698 0,0"
             style="fill:#94ab13;fill-opacity:1;fill-rule:evenodd;stroke:none"
             id="path3332" />
        </g>
        <g
           id="g3334"
           transform="translate(226.02,276.3291)">
          <path
             d="M 0,0 C -2.881,-1.083 -1.833,-0.528 -0.845,0.246 11.038,8.3 37.228,9.009 23.34,17.166 5.596,27.586 10.139,29.664 25.644,39.364 39.506,48.039 15.749,50.948 3.281,58.261 -1.132,60.85 4.724,58.238 8.237,57.181 19.846,53.682 46.34,48.211 41.981,42.185 36.75,34.95 13.26,31.892 32.031,21.509 45.644,13.979 53.399,12.179 26.761,6.621 16.127,4.403 9.046,3.151 0,0"
             style="fill:#9fcefc;fill-opacity:1;fill-rule:evenodd;stroke:none"
             id="path3336" />
        </g>
        <g
           id="g3338"
           transform="translate(166.3652,170.1377)">
          <path
             d="M 0,0 C -3.731,-1.401 -2.376,-0.684 -1.095,0.318 14.297,10.752 48.217,11.67 30.228,22.233 7.25,35.731 13.13,38.424 33.212,50.986 51.172,62.222 20.398,65.991 4.249,75.462 -1.468,78.815 6.118,75.433 10.666,74.063 25.703,69.53 60.022,62.444 54.377,54.64 47.6,45.27 17.173,41.307 41.486,27.858 59.121,18.107 69.164,15.774 34.658,8.576 20.888,5.704 11.714,4.085 0,0"
             style="fill:#9fcefc;fill-opacity:1;fill-rule:evenodd;stroke:none"
             id="path3340" />
        </g>
        <g
           id="g3342"
           transform="translate(162.7832,331.5752)">
          <path
             d="m 0,0 c -2.053,-0.473 -1.306,-0.23 -0.603,0.109 8.471,3.519 27.141,3.829 17.24,7.393 -12.646,4.554 -9.411,5.462 1.641,9.701 9.884,3.792 -7.049,5.063 -15.938,8.259 -3.149,1.131 1.027,-0.01 3.531,-0.472 8.274,-1.53 27.16,-3.921 24.055,-6.555 C 26.195,15.274 9.45,13.937 22.833,9.4 32.536,6.111 38.063,5.323 19.075,2.895 11.496,1.925 6.446,1.38 0,0"
             style="fill:#9fcefc;fill-opacity:1;fill-rule:evenodd;stroke:none"
             id="path3344" />
        </g>
        <g
           id="g3346"
           transform="translate(566.6094,403.1279)">
          <path
             d="M 0,0 C -9.811,12.937 -3.66,23.997 6.474,12.393 44.378,-31.001 84.26,-117.824 80.405,-178.259 78.867,-202.393 57.683,-203.024 57.001,-178.887 55.26,-117.261 35.509,-46.839 0,0"
             style="fill:#996633;fill-opacity:1;fill-rule:evenodd;stroke:none"
             id="path3348" />
        </g>
        <g
           id="g3350"
           transform="translate(573.2793,420.6748)">
          <path
             d="m 0,0 c -101.942,-48.31 -109.773,-89.252 -75.402,-126.888 l -0.412,24.574 4.898,-11.116 -0.475,30.917 5.804,-17.653 0.726,23.398 3.976,-13.199 0.586,19.957 4.04,-10.864 0.711,18.902 4.31,-9.808 1.085,18.244 4.281,-9.216 -0.118,16.619 4.908,-9.03 0.465,15.487 3.565,-9.379 1.286,15.961 3.436,-9.075 2.413,11.45 2.637,-4.364 1.823,7.398 1.286,-3.153 3.342,10.668 1.729,-3.909 4.436,13.268 1.541,-5.53 5.199,9.351 0.372,-2.323 V -9.314 C -5.058,-6.2 -2.538,-3.096 0,0"
             style="fill:#a7bf1c;fill-opacity:1;fill-rule:evenodd;stroke:none"
             id="path3352" />
        </g>
        <g
           id="g3354"
           transform="translate(567.874,419.3896)">
          <path
             d="m 0,0 c 42.204,1.016 72.17,-2.977 92.431,-10.943 v -37.548 l -7.084,13.092 1.279,-11.52 -9.137,16.559 0.562,-10.698 -9.176,15.806 0.323,-10.155 -7.37,14.894 -0.321,-10.271 -7.383,13.622 1.034,-9.98 -8.328,13.675 1.013,-9.652 -7.305,9.144 -0.392,-5.085 -4.957,5.788 0.273,-3.394 -7.787,8.021 0.216,-4.268 -9.931,9.854 1.109,-5.633 -8.847,6.015 0.714,-2.241 V -4.92 C 7.307,-3.261 3.66,-1.621 0,0"
             style="fill:#a7bf1c;fill-opacity:1;fill-rule:evenodd;stroke:none"
             id="path3356" />
        </g>
        <g
           id="g3358"
           transform="translate(569.6064,419.6792)">
          <path
             d="m 0,0 c -44.589,-31.736 -34.491,-63.641 0.127,-95.618 l -9.176,19.475 7.023,-9.109 -11.519,24.499 9.95,-14.342 -8.055,18.472 7.217,-10.701 -6.894,15.759 6.409,-8.857 -6.432,14.915 6.192,-8.037 -5.966,14.37 5.956,-7.566 -6.108,13.16 6.27,-7.46 -5.342,12.227 5.58,-7.649 -5.013,12.548 5.392,-7.4 -2.69,8.908 3.193,-3.621 -1.576,5.738 1.929,-2.576 -1.838,8.229 2.475,-3.204 -2.115,10.217 2.948,-4.475 -0.228,7.071 1.07,-1.863 C -0.833,-4.585 -0.424,-2.289 0,0"
             style="fill:#a7bf1c;fill-opacity:1;fill-rule:evenodd;stroke:none"
             id="path3360" />
        </g>
        <g
           id="g3362"
           transform="translate(557.8652,415.1855)">
          <path
             d="m 0,0 c 53.034,14.327 67.507,-14.628 64.694,-62.991 l -6.706,20.054 1.205,-11.536 -8.453,25.206 2.681,-17.285 -6.818,18.508 2.146,-12.736 -5.805,15.806 1.47,-10.884 -5.557,14.887 1.069,-10.174 -5.518,14.162 0.913,-9.679 -4.596,13.478 0.62,-9.856 -4.508,12.258 1.239,-9.436 -4.959,12.209 1.203,-9.122 -4.135,7.982 0.198,-4.902 -2.776,5.018 0.382,-3.217 -4.275,6.862 0.421,-4.06 -5.427,8.392 0.945,-5.272 -4.628,4.831 0.507,-2.071 H 5.53 C 3.694,-2.36 1.85,-1.17 0,0"
             style="fill:#a7bf1c;fill-opacity:1;fill-rule:evenodd;stroke:none"
             id="path3364" />
        </g>
        <g
           id="g3366"
           transform="translate(589.7666,407.209)">
          <path
             d="m 0,0 c -72.525,62.526 -98.13,48.74 -102.694,0.739 l 13.035,12.617 -3.744,-9.712 16.418,15.839 -6.848,-13.747 12.92,11.066 -5.288,-9.97 11.007,9.466 -4.001,-8.858 10.494,8.832 -3.309,-8.56 10.311,8.186 -3.004,-8.239 8.887,8.398 -2.617,-8.679 8.546,7.336 -3.421,-7.713 9.174,6.875 -3.312,-7.452 7.262,3.668 -1.147,-4.42 4.815,2.142 -1.11,-2.665 7.265,2.483 -1.314,-3.419 9.164,2.852 -2.271,-4.07 7.404,0.25 -1.08,-1.475 V 1.769 C -5.643,1.204 -2.823,0.612 0,0"
             style="fill:#a7bf1c;fill-opacity:1;fill-rule:evenodd;stroke:none"
             id="path3368" />
        </g>
        <g
           id="g3370"
           transform="translate(563.998,405.0317)">
          <path
             d="m 0,0 c 33.908,81.027 61.604,76.507 86.514,33.629 l -16.557,7.474 7.427,-7.77 -20.829,9.364 11.82,-10.502 -15.779,6.077 8.844,-7.514 -13.458,5.214 7.267,-6.898 -12.746,4.791 6.552,-6.847 -12.31,4.255 6.155,-6.646 -11.2,4.905 6.021,-7.177 -10.444,4.036 6.276,-6.027 -10.774,3.407 6.07,-5.822 -7.75,1.058 2.908,-3.714 -5.011,0.435 2.108,-2.107 -7.234,-0.037 2.612,-2.738 -9,-0.304 L 11.19,7.51 4.817,5.366 6.378,4.349 C 4.246,2.924 2.122,1.473 0,0"
             style="fill:#a7bf1c;fill-opacity:1;fill-rule:evenodd;stroke:none"
             id="path3372" />
        </g>
        <g
           id="g3374"
           transform="translate(508.7168,320.46)">
          <path
             d="m 0,0 c -16.603,10.671 -14.206,25.866 2.213,16.854 51.409,-28.216 117.113,-90.612 149.375,-151.613 v -60.57 c -4.288,2.119 -8.598,6.943 -11.78,14.938 C 112.069,-110.768 60.105,-38.632 0,0"
             style="fill:#996633;fill-opacity:1;fill-rule:evenodd;stroke:none"
             id="path3376" />
        </g>
        <g
           id="g3378"
           transform="translate(508.999,343.2788)">
          <path
             d="m 0,0 c -96.185,-97.738 -88.018,-147.747 -33.061,-176.351 l -10.737,27.884 10.237,-10.644 -13.459,35.093 14.002,-17.727 -8.949,27.013 10.053,-13.405 -7.669,23.025 9.151,-10.712 -7.086,21.871 9.02,-9.392 -6.383,21.278 8.734,-8.73 -7.078,18.92 9.374,-8.257 -5.936,17.874 7.985,-9.218 -5.199,18.756 7.715,-8.922 -2.031,14.077 4.832,-3.879 -1.007,9.207 2.783,-3.062 -0.64,13.575 3.608,-3.741 -0.481,16.999 4.07,-5.67 2.029,12.848 1.394,-2.497 v -0.002 C -3.184,-9.191 -1.603,-4.594 0,0"
             style="fill:#92a812;fill-opacity:1;fill-rule:evenodd;stroke:none"
             id="path3380" />
        </g>
        <g
           id="g3382"
           transform="translate(503.3652,339.5532)">
          <path
             d="m 0,0 c 86.21,33.924 133.709,32.553 156.94,9.048 v -29.99 l -3.178,3.08 3.178,-7.462 v -3.601 l -24.412,23.611 10.823,-19.827 -21.346,18.812 8.394,-14.502 -18.18,16.079 6.272,-12.618 L 101.142,-2.282 106.25,-14.26 89.175,-0.05 93.783,-11.507 79.148,2.416 83.074,-9.443 68.953,3.021 74.307,-7.939 59.087,4.192 64.273,-6.402 52.116,0.982 53.792,-4.985 45.716,-0.45 47.443,-4.21 35.205,1.693 37.233,-3.09 21.78,4.011 25.401,-1.955 12.788,1.215 14.54,-1.047 C 9.703,-0.67 4.857,-0.322 0,0"
             style="fill:#92a812;fill-opacity:1;fill-rule:evenodd;stroke:none"
             id="path3384" />
        </g>
        <g
           id="g3386"
           transform="translate(505.2227,340.6069)">
          <path
             d="M 0,0 C -37.64,-54.856 -12.782,-87.057 40.095,-109.096 L 21.483,-90.7 33.306,-98.163 9.924,-75.01 27.27,-87.224 l -16.913,17.72 12.709,-9.2 -14.451,15.111 11.016,-7.433 -13.571,14.337 10.422,-6.588 -12.811,13.91 9.957,-6.147 -12.469,12.471 10.274,-5.896 -11.204,11.727 9.565,-6.403 -10.968,12.232 9.245,-6.196 -6.79,9.046 5.155,-2.8 -4.194,5.891 3.279,-2.135 -5.536,8.624 4.163,-2.621 -6.684,10.78 5.236,-3.876 -3.215,7.975 2,-1.68 C 0.966,-5.581 0.473,-2.789 0,0"
             style="fill:#92a812;fill-opacity:1;fill-rule:evenodd;stroke:none"
             id="path3388" />
        </g>
        <g
           id="g3390"
           transform="translate(493.6973,330.5723)">
          <path
             d="m 0,0 c 54.554,38.512 83.174,11.506 100.168,-44.877 l -16.033,20.09 6.196,-12.664 -20.18,25.242 10.281,-18.613 -15.517,18.279 7.769,-13.643 -13.225,15.62 6.223,-11.812 -12.562,14.672 5.469,-11.165 -12.214,13.859 5.086,-10.667 -10.879,13.466 4.825,-10.992 -10.266,12.109 5.355,-10.255 -10.761,11.868 5.185,-9.913 -8.056,7.385 2.274,-5.512 -5.266,4.568 1.781,-3.513 -7.747,6.048 2.178,-4.46 -9.702,7.312 3.283,-5.623 -7.302,3.58 1.444,-2.151 V -1.763 C 5.202,-1.15 2.6,-0.565 0,0"
             style="fill:#92a812;fill-opacity:1;fill-rule:evenodd;stroke:none"
             id="path3392" />
        </g>
        <g
           id="g3394"
           transform="translate(533.4463,334.7949)">
          <path
             d="m 0,0 c -108.913,41.075 -132.381,14.641 -117.535,-42.06 l 9.607,19.848 -0.216,-12.651 12.124,24.941 -2.075,-18.556 10.126,18.031 -1.869,-13.59 8.608,15.404 -0.868,-11.783 8.291,14.466 -0.201,-11.153 8.353,13.652 0.01,-10.659 6.637,13.298 0.635,-11.001 6.694,11.945 -0.681,-10.233 7.6,11.682 -0.671,-9.891 6.757,7.22 0.542,-5.525 4.599,4.458 -0.155,-3.508 7.258,5.871 -0.071,-4.453 9.269,7.085 -0.894,-5.596 8.35,3.381 -0.62,-2.137 h 0.002 C -6.946,-0.985 -3.479,-0.48 0,0"
             style="fill:#92a812;fill-opacity:1;fill-rule:evenodd;stroke:none"
             id="path3396" />
        </g>
        <g
           id="g3398"
           transform="translate(504.9414,321.5439)">
          <path
             d="M 0,0 C 4.854,106.659 38.357,113.071 84.707,74.532 L 62.686,76.148 74.409,70.381 46.72,72.368 64.602,65.317 44.049,65.663 57.285,60.781 39.744,61.11 50.922,56.27 34.368,56.415 44.711,51.338 28.88,51.05 l 9.804,-5.016 -14.836,0.923 9.871,-5.678 -13.608,0.244 9.68,-4.26 -13.718,-0.613 9.36,-4.107 -9.289,-2.03 4.871,-3.027 -5.9,-1.596 L 18.4,24.365 10.158,21.3 14.284,19.266 4.136,15.16 9.634,13.247 3.256,8.138 5.464,7.629 C 3.624,5.111 1.806,2.568 0,0"
             style="fill:#92a812;fill-opacity:1;fill-rule:evenodd;stroke:none"
             id="path3400" />
        </g>
        <g
           id="g3402"
           transform="translate(148.1729,431.376)">
          <path
             d="m 0,0 c 58.868,0 106.882,48.014 106.882,106.883 0,58.868 -48.014,106.882 -106.882,106.882 -58.87,0 -106.883,-48.014 -106.883,-106.882 C -106.883,48.014 -58.87,0 0,0"
             style="fill:#a0c8d8;fill-opacity:1;fill-rule:evenodd;stroke:none"
             id="path3404" />
        </g>
        <g
           id="g3406"
           transform="translate(148.1729,618.2954)">
          <path
             d="m 0,0 c 44.201,0 80.035,-35.833 80.035,-80.036 0,-44.204 -35.834,-80.037 -80.035,-80.037 -44.205,0 -80.038,35.833 -80.038,80.037 C -80.038,-35.833 -44.205,0 0,0"
             style="fill:#c0d5ba;fill-opacity:1;fill-rule:evenodd;stroke:none"
             id="path3408" />
        </g>
        <g
           id="g3410"
           transform="translate(148.1729,591.4492)">
          <path
             d="m 0,0 c 29.375,0 53.188,-23.813 53.188,-53.19 0,-29.376 -23.813,-53.191 -53.188,-53.191 -29.378,0 -53.192,23.815 -53.192,53.191 C -53.192,-23.813 -29.378,0 0,0"
             style="fill:#dfe39d;fill-opacity:1;fill-rule:evenodd;stroke:none"
             id="path3412" />
        </g>
        <g
           id="g3414"
           transform="translate(148.1729,511.9136)">
          <path
             d="M 0,0 C 14.51,0 26.344,11.835 26.344,26.346 26.344,40.855 14.51,52.69 0,52.69 -14.51,52.69 -26.346,40.855 -26.346,26.346 -26.346,11.835 -14.51,0 0,0"
             style="fill:#fff07f;fill-opacity:1;fill-rule:evenodd;stroke:none"
             id="path3416" />
        </g>
        <g
           id="g3418"
           transform="translate(96.1162,579.3008)">
          <path
             d="m 0,0 h 16.608 23.947 162.408 21.033 80.649 38.233 37.54 l -37.646,4.87 c -1.374,9.268 -9.361,16.378 -19.012,16.378 -2.725,0 -5.315,-0.568 -7.662,-1.59 -2.225,2.818 -5.67,4.625 -9.537,4.625 -6.706,0 -12.142,-5.436 -12.142,-12.141 0,-0.344 0.017,-0.686 0.044,-1.023 l -19.04,2.464 c 0.18,0.839 0.279,1.712 0.279,2.607 0,6.705 -5.434,12.141 -12.141,12.141 -6.537,0 -11.869,-5.17 -12.128,-11.645 l -18.365,2.376 c -0.727,6.09 -4.231,11.328 -9.21,14.415 4.161,3.385 6.822,8.546 6.822,14.33 0,10.197 -8.267,18.463 -18.465,18.463 -10.197,0 -18.465,-8.266 -18.465,-18.463 0,-0.684 0.04,-1.36 0.113,-2.025 -1.985,0.816 -4.158,1.265 -6.436,1.265 -9.358,0 -16.949,-7.587 -16.949,-16.946 0,-1.621 0.231,-3.19 0.655,-4.674 L 150.98,22.432 c 0.182,1.011 0.277,2.053 0.277,3.116 0,9.639 -7.814,17.453 -17.453,17.453 -7.507,0 -13.907,-4.741 -16.369,-11.392 -1.948,1.019 -4.163,1.597 -6.516,1.597 -3.844,0 -7.325,-1.541 -9.864,-4.038 -3.327,4.407 -8.605,7.257 -14.549,7.257 -10.06,0 -18.212,-8.154 -18.212,-18.212 0,-2.794 0.629,-5.439 1.754,-7.804 L 41.413,6.154 c -0.674,6.492 -6.161,11.554 -12.831,11.554 -7.125,0 -12.9,-5.777 -12.9,-12.9 0,-0.836 0.08,-1.652 0.232,-2.443 z"
             style="fill:#ffffff;fill-opacity:1;fill-rule:evenodd;stroke:none"
             id="path3420" />
        </g>
        <g
           id="g3422"
           transform="translate(415.2715,528.5591)">
          <path
             d="m 0,0 h 15.784 14.738 12.464 11.651 22.657 35.641 16.244 12.383 24.362 12.033 13.155 l -12.976,1.47 v 0.005 c 0,3.421 -2.774,6.192 -6.195,6.192 -2.944,0 -5.412,-2.056 -6.039,-4.813 l -8.227,0.931 c 1.181,1.576 1.879,3.532 1.879,5.653 0,5.213 -4.224,9.437 -9.436,9.437 -4.236,0 -7.818,-2.789 -9.014,-6.63 -1.517,1.371 -3.529,2.206 -5.734,2.206 -4.258,0 -7.789,-3.112 -8.443,-7.185 l -14.531,1.645 c -0.624,1.95 -1.567,3.757 -2.767,5.36 1.583,1.976 2.531,4.485 2.531,7.214 0,6.377 -5.17,11.547 -11.546,11.547 -6.378,0 -11.547,-5.17 -11.547,-11.547 0,-0.328 0.017,-0.652 0.041,-0.973 C 83.62,18.585 79.337,14.095 77.698,8.476 L 59.035,6.44 c 0.161,0.729 0.245,1.485 0.245,2.261 0,5.782 -4.687,10.469 -10.469,10.469 -5.783,0 -10.47,-4.687 -10.47,-10.469 0,-1.577 0.348,-3.072 0.973,-4.412 L 31.263,3.411 c -0.011,4.47 -3.637,8.091 -8.111,8.091 -4.479,0 -8.11,-3.631 -8.11,-8.11 0,-0.594 0.064,-1.174 0.187,-1.73 z"
             style="fill:#ffffff;fill-opacity:1;fill-rule:evenodd;stroke:none"
             id="path3424" />
        </g>
      </g>
    </g>
  </g>
</svg>
