<?xml version="1.0" standalone="no"?>
<!DOCTYPE svg PUBLIC "-//W3C//DTD SVG 20010904//EN"
 "http://www.w3.org/TR/2001/REC-SVG-20010904/DTD/svg10.dtd">
<svg version="1.0" xmlns="http://www.w3.org/2000/svg"
 width="512.000000pt" height="512.000000pt" viewBox="0 0 512.000000 512.000000"
 preserveAspectRatio="xMidYMid meet">
<metadata>
Created by potrace 1.16, written by Peter Selinger 2001-2019
</metadata>
<g transform="translate(0.000000,512.000000) scale(0.100000,-0.100000)"
fill="#000000" stroke="none">
<path d="M2830 4854 c-128 -34 -247 -117 -321 -225 -51 -75 -119 -216 -119
-246 0 -67 -124 -234 -265 -357 -106 -92 -180 -139 -279 -177 -150 -57 -177
-86 -172 -182 2 -36 10 -65 25 -85 38 -54 118 -118 199 -161 75 -39 241 -91
290 -91 12 0 22 -2 22 -5 0 -3 -17 -28 -37 -56 -27 -39 -37 -63 -38 -93 -1
-39 -3 -42 -64 -78 -75 -43 -115 -80 -131 -119 -10 -22 -19 -29 -40 -29 -15 0
-46 -14 -70 -32 -24 -18 -51 -39 -61 -46 -25 -19 -35 -9 -53 53 -11 36 -25 60
-44 74 -15 10 -34 31 -41 45 -17 31 -43 41 -69 27 -17 -9 -25 2 -78 105 l-59
115 33 27 c39 32 40 54 7 88 -14 14 -25 34 -25 45 0 11 -6 22 -13 25 -7 2 -13
14 -14 25 -5 57 -62 98 -112 81 l-31 -11 -144 288 c-166 331 -207 425 -231
534 -19 86 -37 107 -93 107 -67 0 -121 -66 -108 -132 4 -20 32 -64 71 -111 35
-43 82 -104 104 -136 52 -75 195 -346 256 -484 44 -97 47 -109 35 -132 -19
-36 -33 -31 -28 9 5 41 -8 38 -17 -3 -7 -31 30 -132 67 -184 42 -58 -29 -69
-82 -12 -12 13 -26 39 -30 57 l-8 33 -1 -37 c-2 -76 87 -135 214 -143 l50 -2
62 -119 c34 -66 62 -125 63 -131 0 -7 -9 -13 -20 -13 -26 0 -70 -43 -70 -67 0
-10 9 -29 20 -43 14 -18 20 -41 20 -81 0 -54 2 -58 46 -99 55 -51 56 -35 -13
-316 l-47 -191 -38 26 c-30 21 -37 32 -38 58 0 23 -14 49 -50 94 -55 68 -57
77 -35 139 22 61 19 97 -14 166 -39 82 -55 90 -24 12 22 -54 24 -70 18 -123
-5 -33 -8 -83 -9 -112 -1 -47 2 -56 36 -90 40 -41 53 -93 22 -93 -20 0 -53 17
-83 44 -25 22 -25 21 -5 -29 4 -10 0 -15 -12 -15 -18 -1 -18 -1 1 -12 47 -25
56 -67 33 -151 -15 -56 -4 -110 31 -149 25 -28 35 -32 92 -34 58 -2 60 -2 17
5 -53 8 -85 31 -104 77 -11 26 -11 41 2 94 10 43 12 72 6 90 -9 25 -8 26 28
27 25 1 40 -3 44 -13 3 -8 12 -14 20 -14 9 0 20 -9 26 -21 9 -16 7 -27 -9 -55
-11 -19 -19 -34 -17 -34 1 0 27 8 57 19 30 10 83 21 119 25 71 8 87 15 143 58
20 16 37 28 37 25 0 -3 -33 -38 -73 -78 -79 -80 -127 -147 -181 -256 -69 -137
-104 -286 -142 -598 -31 -262 -85 -419 -169 -493 -52 -46 -162 -102 -290 -147
l-89 -33 49 -5 c28 -4 88 -9 135 -13 l85 -7 -39 -13 c-22 -8 -41 -16 -44 -18
-12 -12 55 -29 223 -56 103 -17 194 -34 202 -39 9 -5 -36 -11 -113 -15 -187
-10 -279 -32 -279 -65 0 -24 52 -32 235 -38 241 -8 434 16 495 61 19 14 19 15
1 35 -10 11 -56 32 -102 46 -46 14 -86 30 -90 36 -16 26 17 28 206 9 149 -15
148 -15 116 -45 -31 -28 -30 -24 -11 -62 14 -28 20 -31 78 -36 83 -8 103 -2
116 35 l11 31 67 -7 c217 -21 408 -26 582 -16 187 11 211 8 211 -25 0 -21 -66
-73 -107 -84 -21 -6 -74 -15 -118 -21 -196 -25 -204 -29 -50 -24 311 10 368
20 637 112 154 53 243 101 322 173 l64 59 22 -36 c23 -40 21 -61 -7 -70 -10
-3 -52 -22 -93 -42 -41 -20 -100 -47 -130 -59 l-55 -23 60 6 c33 3 94 13 135
21 53 11 131 15 268 14 188 -2 192 -1 192 19 0 26 -54 52 -158 75 -155 35
-193 121 -126 284 25 63 120 377 153 508 37 144 22 272 -46 407 -13 26 -19 45
-13 41 20 -12 69 -127 81 -188 7 -32 16 -60 22 -64 15 -9 56 46 63 84 8 45
-21 101 -101 193 -85 97 -150 194 -181 271 -14 34 -50 147 -80 252 -30 104
-61 205 -70 225 -22 53 -72 101 -118 113 -44 12 -117 4 -158 -17 -39 -20 -42
-18 -19 14 54 77 193 108 278 64 59 -31 91 -84 119 -199 25 -100 84 -287 89
-281 7 8 -58 345 -71 367 l-15 26 6 -25 c4 -16 -2 -11 -15 15 -12 22 -40 57
-63 78 l-42 37 45 -15 c24 -9 53 -23 63 -33 30 -27 62 -109 112 -288 50 -179
175 -596 197 -656 12 -33 13 -21 16 139 4 203 6 212 88 289 48 44 54 55 54 90
-1 21 -7 50 -16 64 l-15 25 6 -31 c8 -44 -16 -98 -51 -113 -16 -6 -39 -26 -51
-44 l-23 -32 0 35 c0 19 9 50 21 69 34 55 23 88 -44 139 -32 25 -66 59 -74 77
-15 32 -15 35 18 91 27 48 33 70 34 119 0 33 -3 75 -7 93 -13 58 10 25 32 -46
17 -53 20 -88 18 -169 -2 -66 1 -106 8 -113 9 -9 10 -5 7 12 -3 13 2 56 10 95
25 120 4 189 -108 352 -83 123 -105 230 -58 284 10 11 35 31 57 44 35 23 38
27 32 61 -20 124 -20 119 8 145 14 13 47 30 72 37 25 7 56 22 69 32 14 11 25
16 25 11 0 -11 -58 -67 -85 -81 -20 -11 -20 -11 1 -12 37 0 100 55 119 104 22
58 16 132 -13 174 -12 16 -22 42 -22 56 0 14 -13 40 -29 58 -24 27 -36 33 -71
33 -32 0 -47 -6 -61 -24 -25 -31 -24 -46 1 -21 44 44 125 2 104 -53 -3 -9 -24
-21 -45 -27 -21 -5 -56 -14 -77 -20 -79 -20 -120 -108 -78 -166 13 -17 13 -14
3 23 -22 83 34 131 140 117 50 -6 57 -4 83 21 l28 27 7 -46 c4 -25 4 -57 1
-70 -11 -42 -54 -84 -107 -101 -27 -9 -65 -32 -84 -50 -29 -26 -35 -40 -35
-72 0 -22 5 -55 11 -73 11 -31 10 -33 -44 -84 -92 -85 -91 -162 5 -345 74
-142 84 -202 44 -266 -74 -117 -72 -145 20 -249 35 -41 64 -79 64 -86 0 -6 -7
-21 -15 -34 -19 -29 -20 -49 -12 -206 7 -124 7 -125 -9 -70 -55 199 -139 482
-169 574 -25 76 -35 119 -31 141 5 25 -2 44 -34 97 -22 37 -46 92 -54 122 -8
30 -19 64 -25 75 -6 11 -18 55 -26 98 -8 43 -17 87 -20 98 -4 15 2 23 27 35
44 21 69 58 73 111 3 24 2 37 -1 28 -5 -17 -64 -49 -90 -49 -28 0 -70 28 -82
55 -14 31 -16 69 -3 60 6 -3 3 15 -5 40 -32 92 -146 151 -241 126 -24 -7 -72
-32 -108 -56 -36 -25 -65 -42 -65 -37 0 4 -12 -12 -26 -35 -32 -54 -38 -55
-15 -2 28 61 74 122 117 155 100 77 305 -3 349 -137 l15 -44 -4 52 -3 52 68
51 c136 101 201 198 207 310 4 77 -16 122 -69 158 -47 33 -115 27 -187 -16
-82 -50 -143 -66 -221 -59 -37 3 -80 11 -96 19 -47 20 -126 73 -170 112 -31
28 -26 26 25 -11 105 -78 159 -98 265 -98 73 0 98 4 130 21 178 95 188 98 253
65 45 -23 82 -84 92 -155 l8 -51 1 61 c1 46 -5 71 -22 105 -34 64 -74 83 -176
85 -51 1 -78 -2 -70 -7 24 -15 -181 -10 -249 6 -74 18 -151 55 -268 131 -178
116 -282 129 -464 55 -107 -44 -164 -85 -312 -228 -117 -113 -150 -138 -220
-172 -46 -22 -123 -50 -173 -62 -104 -24 -135 -39 -164 -75 -13 -16 -21 -21
-21 -12 0 33 66 77 170 113 57 20 120 45 140 55 58 30 167 111 295 219 138
116 248 177 390 215 64 17 85 26 72 31 -30 12 -157 -13 -224 -45 -35 -16 -63
-27 -63 -25 0 11 123 78 178 96 49 16 81 20 140 17 96 -4 154 -30 316 -140 65
-44 146 -93 180 -109 68 -32 167 -60 206 -58 18 1 14 3 -15 10 -46 11 -179 74
-247 118 -26 16 -59 49 -74 73 -14 24 -48 65 -75 91 -42 42 -49 54 -49 88 0
22 -11 61 -24 87 -22 43 -23 52 -13 86 10 32 21 43 70 67 31 16 79 32 105 35
26 3 62 12 80 21 32 15 117 102 108 110 -3 3 -33 -11 -69 -31 -75 -42 -110
-45 -175 -12 -60 30 -147 56 -186 55 -17 0 -56 -7 -86 -15z m221 -80 c33 -15
59 -29 59 -33 0 -5 -45 -26 -101 -46 -12 -5 -18 2 -24 27 l-8 33 -7 -42 c-3
-24 -9 -46 -13 -50 -4 -4 -21 9 -37 28 -30 34 -39 34 -20 -2 8 -13 7 -19 0
-19 -6 0 0 -15 14 -32 29 -40 56 -103 56 -132 0 -13 -14 5 -38 48 -28 51 -47
74 -75 89 -57 29 -62 16 -10 -23 37 -27 57 -53 89 -117 23 -46 67 -111 103
-152 35 -39 61 -71 58 -71 -3 0 -35 18 -71 40 -96 58 -161 81 -246 87 -68 5
-156 -8 -225 -33 -14 -5 -17 -4 -10 4 6 6 48 27 95 47 l85 36 -67 -4 c-38 -3
-68 -3 -68 0 0 2 17 11 38 20 24 11 66 16 119 16 72 0 91 -4 143 -30 33 -16
60 -28 60 -26 0 16 -26 45 -51 59 -64 33 -221 37 -304 8 -11 -4 -1 8 23 26 48
36 52 43 17 30 -35 -13 -31 3 8 35 17 15 25 24 17 19 -8 -4 17 25 55 65 118
123 214 150 336 95z m-2208 -326 c14 -11 41 -97 33 -106 -2 -1 -13 18 -25 43
-15 31 -27 45 -41 45 -16 0 -20 -7 -20 -31 0 -17 -4 -28 -10 -24 -17 10 -11
63 8 74 23 14 35 13 55 -1z m1855 -272 c-42 -39 -134 -84 -146 -72 -2 3 22 18
54 35 33 16 75 41 94 55 52 37 51 31 -2 -18z m-67 1 c-171 -102 -195 -133
-211 -273 -12 -108 -23 -144 -63 -204 -17 -25 -30 -50 -30 -57 0 -7 -5 -11
-11 -10 -6 1 -21 -18 -33 -43 -27 -52 -30 -124 -7 -160 l16 -25 -21 24 c-46
51 -20 175 55 264 43 51 63 103 79 203 24 149 58 198 190 273 84 47 113 54 36
8z m199 -34 c13 -32 42 -84 66 -115 43 -57 69 -125 60 -156 -3 -9 -13 -57 -21
-106 -18 -100 -34 -132 -97 -192 -64 -61 -88 -74 -137 -74 -38 0 -49 5 -81 39
-51 53 -120 184 -120 226 0 59 18 83 66 91 24 3 51 4 59 0 9 -3 15 0 15 10 0
19 -31 77 -44 83 -5 2 -25 18 -45 36 -20 18 -42 34 -50 37 -8 2 12 15 45 28
86 34 153 74 202 120 23 22 47 38 51 36 5 -3 19 -32 31 -63z m113 -89 c20 -16
70 -42 112 -58 41 -16 74 -31 71 -33 -2 -2 -40 10 -85 27 -88 34 -133 66 -156
111 -21 40 -18 50 4 13 10 -17 35 -44 54 -60z m-440 -68 c16 -13 15 -14 -10
-19 -33 -6 -38 -3 -30 18 8 18 16 19 40 1z m-203 -106 c-24 -33 -45 -58 -47
-56 -2 2 14 28 36 57 23 30 41 58 41 63 0 5 3 7 6 3 3 -3 -13 -33 -36 -67z
m97 38 c-3 -8 -6 -5 -6 6 -1 11 2 17 5 13 3 -3 4 -12 1 -19z m184 -24 l22 -24
-31 0 c-17 0 -34 5 -38 11 -4 8 0 9 15 4 12 -3 21 -2 21 4 0 5 -10 11 -22 13
-12 2 -23 8 -25 15 -7 19 33 4 58 -23z m-201 -58 c-15 -56 -60 -109 -142 -169
-70 -51 -98 -90 -98 -134 0 -35 23 -79 39 -75 7 1 10 -2 6 -7 -8 -15 41 -44
89 -53 l41 -7 -47 3 c-86 6 -155 81 -145 157 7 53 38 92 124 155 75 56 116
107 129 157 3 15 9 26 12 23 2 -3 -1 -26 -8 -50z m774 -26 c67 -32 150 -105
139 -122 -3 -6 -19 6 -35 26 -16 20 -63 53 -107 76 -43 22 -91 55 -107 72
l-29 32 36 -26 c19 -15 66 -41 103 -58z m56 28 c25 -11 59 -30 76 -43 34 -26
84 -116 83 -149 0 -13 -9 -2 -23 29 -29 64 -90 119 -180 161 -53 25 -62 32
-36 28 19 -4 55 -15 80 -26z m-229 -51 c-17 -17 -24 -1 -10 25 12 21 14 21 17
4 2 -10 -1 -23 -7 -29z m363 11 c19 -18 37 -44 41 -58 4 -17 -1 -13 -15 13
-12 21 -35 47 -53 57 -18 11 -26 20 -19 20 7 0 28 -15 46 -32z m-264 -108 c11
-15 39 -37 62 -49 28 -14 36 -21 23 -21 -49 0 -136 98 -135 151 1 8 7 -1 15
-19 8 -18 24 -46 35 -62z m-29 -41 c12 -17 40 -40 63 -50 26 -12 34 -19 21
-19 -52 0 -126 77 -124 130 l1 25 8 -27 c4 -15 18 -41 31 -59z m346 24 c-3
-10 -5 -4 -5 12 0 17 2 24 5 18 2 -7 2 -21 0 -30z m-2182 -46 c19 -35 35 -67
35 -70 0 -12 -18 -7 -23 6 -3 6 -17 38 -31 70 -14 31 -24 57 -21 57 2 0 20
-29 40 -63z m1722 -29 c-3 -7 -5 -2 -5 12 0 14 2 19 5 13 2 -7 2 -19 0 -25z
m-620 -50 c-2 -62 1 -78 22 -106 22 -32 22 -33 3 -21 -39 24 -57 104 -39 172
12 44 15 32 14 -45z m-142 -17 c0 -33 -3 -54 -7 -48 -12 19 -7 107 6 107 0 0
1 -27 1 -59z m730 -6 c5 -29 19 -52 51 -83 l44 -42 -19 -43 c-30 -68 -45 -146
-46 -238 l0 -87 -113 -27 c-62 -16 -115 -25 -118 -22 -9 9 22 49 64 81 30 23
33 27 12 21 -73 -21 -140 -69 -167 -119 -10 -19 -13 -18 -47 12 -21 18 -73 51
-118 73 l-81 41 76 71 c41 40 78 82 82 95 6 19 13 22 60 22 30 0 66 -5 82 -10
28 -10 28 -10 7 7 -12 10 -30 23 -40 29 -18 11 -17 13 9 23 15 6 33 23 40 38
l12 27 6 -39 c6 -38 6 -37 8 15 1 51 4 57 37 80 20 13 59 50 87 82 55 63 59
63 72 -7z m-838 33 c-3 -8 -6 -5 -6 6 -1 11 2 17 5 13 3 -3 4 -12 1 -19z
m-705 -15 c21 -19 23 -44 6 -61 -9 -9 -9 -12 0 -12 7 0 12 -7 12 -16 0 -8 -5
-12 -10 -9 -16 10 -81 -15 -115 -42 -27 -24 -29 -24 -36 -7 -6 14 2 27 29 51
20 18 41 33 46 33 4 0 5 15 2 34 -5 23 -3 36 6 39 24 10 41 7 60 -10z m727
-48 c0 -5 -4 -3 -9 5 -5 8 -9 22 -9 30 0 16 17 -16 18 -35z m282 -2 c13 -16
12 -17 -3 -4 -10 7 -18 15 -18 17 0 8 8 3 21 -13z m-1169 -15 c-5 -7 -12 -24
-15 -38 -4 -22 -4 -21 -6 6 -1 31 5 44 22 44 6 0 5 -5 -1 -12z m1254 -60 c35
-68 1 -145 -103 -235 l-60 -53 30 75 c16 42 32 74 34 71 2 -2 -3 -21 -12 -41
-8 -21 -13 -40 -10 -43 9 -10 87 71 101 105 8 18 14 49 14 70 0 39 -31 103
-50 103 -5 0 -10 5 -10 12 0 16 49 -31 66 -64z m-1036 32 c0 -11 -7 -20 -15
-20 -18 0 -19 12 -3 28 16 16 18 15 18 -8z m1928 -37 l35 -17 -50 -17 c-61
-20 -118 -56 -163 -101 l-34 -33 21 36 c11 20 29 49 39 65 15 25 12 24 -25
-11 -26 -24 -60 -75 -87 -130 -43 -85 -46 -94 -42 -160 3 -50 12 -87 32 -130
35 -75 48 -191 22 -201 -9 -3 -16 -11 -16 -18 0 -6 -9 -22 -20 -36 l-20 -25 0
35 c-1 28 -3 31 -10 15 -4 -11 -22 -33 -40 -50 l-31 -30 10 28 c16 42 13 46
-9 10 -18 -30 -41 -49 -24 -20 4 6 -2 3 -14 -7 -24 -21 -28 -16 -11 17 l12 22
-25 -22 c-24 -22 -49 -31 -47 -15 4 21 -3 23 -22 6 -21 -19 -22 -19 -16 1 3
11 8 36 12 55 5 34 5 34 -20 -13 -15 -27 -28 -47 -31 -45 -2 2 -7 29 -12 59
l-9 54 -12 -45 c-8 -25 -13 -71 -12 -103 1 -62 -23 -125 -58 -149 -11 -8 -25
-26 -32 -41 -14 -30 -44 -36 -48 -9 -8 55 -4 94 13 110 16 16 17 15 14 -23 -4
-49 15 -54 46 -12 15 21 20 40 18 81 -1 30 3 67 9 83 42 104 41 123 -3 85 -16
-14 -18 -13 -18 1 0 24 -17 21 -23 -4 -3 -12 -10 -18 -16 -14 -7 4 -11 -3 -12
-17 0 -23 0 -23 -11 2 -6 14 -14 39 -18 55 l-8 30 -1 -32 c-1 -44 -18 -50 -30
-11 l-9 33 -1 -35 c-1 -19 -10 -59 -21 -88 -27 -70 -26 -79 15 -142 36 -57 44
-97 23 -118 -7 -7 -42 -12 -85 -12 -40 0 -73 -4 -73 -9 0 -14 66 -21 205 -22
72 0 150 -4 175 -8 25 -4 -153 -7 -395 -7 -416 -1 -530 9 -250 21 66 3 138 8
159 11 39 6 39 7 15 19 -16 9 -26 10 -30 3 -12 -19 -29 3 -29 38 0 39 11 65
46 107 32 38 30 71 -6 126 -39 61 -63 167 -51 220 9 43 50 120 74 139 16 14
95 -30 208 -115 l71 -53 108 35 c59 19 151 42 204 52 l96 18 0 85 c0 80 11
175 26 223 13 45 -19 -1 -38 -55 -17 -47 -18 -49 -13 -14 18 109 97 214 182
240 66 20 147 20 191 -1z m-1973 -3 c3 -5 14 -10 24 -10 23 0 61 -37 60 -58
-1 -15 -2 -15 -6 -1 -2 9 -15 22 -28 29 -34 18 -93 0 -137 -43 -38 -37 -63
-37 -73 0 -7 30 1 41 17 25 19 -19 36 -14 44 11 3 12 13 30 22 40 16 18 67 23
77 7z m1125 -53 c0 -18 -7 -42 -16 -53 -15 -18 -15 -18 -5 3 6 12 11 35 11 52
0 17 2 31 5 31 3 0 5 -15 5 -33z m945 -59 c55 -76 101 -168 110 -223 7 -39 6
-39 -51 42 -32 45 -61 80 -63 77 -3 -3 28 -71 69 -152 41 -80 74 -152 74 -159
-1 -7 2 -10 7 -8 4 3 13 -14 20 -37 6 -23 26 -73 45 -110 42 -83 43 -97 4 -38
-29 44 -66 79 -84 80 -5 0 13 -25 38 -55 l47 -54 -53 27 c-43 22 -49 28 -33
33 40 12 -77 28 -134 18 -30 -4 -56 -7 -58 -5 -8 8 53 68 93 92 24 14 44 28
44 30 0 10 -59 -10 -107 -37 -51 -28 -53 -28 -53 -8 0 11 5 29 11 40 6 11 8
25 6 32 -4 12 -38 -49 -63 -112 l-14 -36 6 50 c3 28 23 90 45 139 21 49 37 91
36 93 -2 1 -20 -27 -40 -62 -21 -36 -39 -65 -41 -65 -2 0 -2 21 1 48 l4 47
-19 -33 -18 -34 -12 40 c-7 22 -12 50 -12 63 0 13 -5 31 -10 39 -20 32 -9
-131 16 -225 12 -49 -27 35 -47 99 -18 55 -21 83 -16 145 3 46 2 68 -3 56 -5
-11 -9 -44 -9 -74 l-1 -53 -21 23 -20 24 6 -22 c9 -33 -2 -28 -22 10 -28 53
-27 8 2 -57 14 -32 24 -60 22 -62 -11 -11 -70 93 -74 130 -13 115 170 302 299
305 23 1 36 -10 73 -61z m-1198 15 c-8 -10 -27 -38 -41 -63 -14 -25 -26 -38
-26 -30 0 19 70 124 77 116 4 -3 -1 -14 -10 -23z m-771 -174 c47 -94 83 -173
80 -176 -4 -5 -176 329 -176 342 0 19 20 -16 96 -166z m-246 118 c0 -18 -2
-19 -10 -7 -13 20 -13 43 0 35 6 -3 10 -16 10 -28z m2418 -31 c-10 -23 -53
-56 -73 -56 -3 0 14 19 37 43 24 23 44 41 46 41 1 -1 -3 -14 -10 -28z m-1389
-35 c-5 -24 -6 -59 -3 -79 7 -34 6 -36 -9 -23 -22 17 -22 82 -1 122 20 40 25
33 13 -20z m1347 34 c-22 -17 -52 -20 -61 -6 -3 6 12 12 32 14 21 2 40 4 43 5
3 1 -4 -5 -14 -13z m-1372 -150 c28 -52 12 -65 -78 -65 -39 0 -95 -6 -124 -14
-45 -11 -50 -11 -40 1 32 39 165 109 213 112 6 1 19 -15 29 -34z m733 -2 c-3
-10 -5 -4 -5 12 0 17 2 24 5 18 2 -7 2 -21 0 -30z m-573 -27 c57 -25 163 -94
184 -118 10 -13 27 -11 121 18 110 33 238 61 245 53 2 -2 7 -14 10 -26 6 -20
4 -23 -18 -23 -14 0 -96 -18 -183 -41 l-159 -40 -101 69 c-56 37 -120 76 -142
87 -32 14 -39 21 -30 32 14 16 9 17 73 -11z m-783 -29 c6 -13 20 -27 32 -32
28 -13 28 -39 0 -43 -16 -2 -29 7 -47 35 -14 21 -26 43 -26 50 0 22 30 14 41
-10z m1366 -19 c-3 -8 -6 -5 -6 6 -1 11 2 17 5 13 3 -3 4 -12 1 -19z m-804 -4
c33 -5 44 -10 40 -20 -4 -10 -25 -14 -72 -14 -36 0 -73 -5 -81 -10 -11 -7 5
-10 53 -10 52 0 67 -3 67 -15 0 -19 -31 -35 -67 -35 -22 0 -25 -2 -13 -10 8
-5 25 -10 38 -10 13 0 22 -6 22 -15 0 -11 -11 -15 -43 -15 -38 0 -49 6 -101
56 -32 31 -55 58 -52 62 7 6 132 40 152 41 6 1 32 -2 57 -5z m-483 -94 c0 -50
0 -50 -27 -44 -16 4 -33 14 -39 22 -9 12 -12 12 -23 -2 -9 -10 -29 -16 -56
-16 -63 0 -75 -7 -75 -46 0 -19 5 -34 10 -34 6 0 10 4 10 9 0 22 153 51 184
34 28 -15 2 -30 -96 -52 -54 -12 -98 -25 -97 -29 0 -4 4 -15 7 -24 7 -16 10
-16 42 7 30 21 113 45 156 45 20 0 17 -38 -3 -43 -10 -3 -40 -10 -66 -17 -27
-7 -52 -21 -58 -32 -9 -17 -7 -18 15 -12 22 5 26 3 26 -14 0 -18 -4 -20 -29
-12 -43 12 -73 29 -108 63 -38 35 -42 47 -13 40 14 -4 20 0 20 11 0 9 -8 16
-20 16 -15 0 -20 7 -20 29 0 17 -4 33 -10 36 -17 11 -11 54 9 65 25 13 166 13
191 0 15 -8 23 -4 42 19 13 17 24 30 26 30 1 1 2 -22 2 -49z m281 -3 c49 -32
72 -85 63 -144 l-7 -48 -12 36 c-37 104 -84 159 -139 159 -24 0 -27 3 -16 10
26 17 76 11 111 -13z m-71 -42 c39 -20 57 -58 65 -136 l6 -64 -24 61 c-26 68
-57 116 -90 139 -18 13 -19 15 -4 15 10 0 31 -7 47 -15z m-167 -43 c8 -21 20
-65 26 -98 6 -33 35 -109 66 -172 30 -63 55 -117 54 -120 0 -4 -32 56 -71 133
-48 96 -76 165 -88 218 -18 82 -12 101 13 39z m142 5 c26 -26 41 -57 65 -138
18 -57 48 -129 66 -160 19 -31 34 -60 34 -65 0 -4 -20 11 -44 35 -27 27 -56
71 -76 115 -17 39 -41 93 -53 119 -11 27 -38 63 -58 82 -41 37 -40 45 4 45 20
0 40 -11 62 -33z m240 -27 c-26 -27 -30 -29 -37 -13 -11 29 -9 32 25 36 17 2
34 5 36 5 3 1 -8 -12 -24 -28z m-315 -10 c38 -27 70 -96 70 -151 l0 -44 -20
43 c-11 24 -29 56 -40 72 -24 33 -53 100 -44 100 3 0 19 -9 34 -20z m-20 -220
c74 -147 75 -150 62 -150 -8 0 -142 270 -142 285 0 19 18 -12 80 -135z m416
83 c5 -24 2 -51 -8 -77 -17 -45 -11 -78 15 -82 13 -2 16 4 12 24 -5 23 -4 24
4 6 5 -11 7 -32 4 -47 -7 -35 -35 -35 -62 -1 -21 27 -25 25 -22 -8 3 -22 -22
-23 -40 -2 -10 12 -10 22 -2 45 7 17 7 31 2 35 -5 3 -9 17 -8 32 0 27 0 27 10
4 12 -32 23 -22 48 48 12 33 26 60 31 60 5 0 12 -17 16 -37z m-675 -180 c-12
-65 -28 -143 -36 -173 -8 -30 -13 -56 -10 -58 4 -4 95 130 120 177 10 19 26
58 36 85 18 51 18 51 13 11 -14 -102 -27 -138 -81 -208 -74 -98 -162 -197
-175 -197 -6 0 -3 9 6 19 26 28 61 141 96 308 36 167 40 183 47 166 2 -7 -5
-65 -16 -130z m755 69 c-12 -12 -18 8 -10 35 l8 28 4 -28 c2 -16 1 -31 -2 -35z
m1178 38 c37 -23 61 -62 52 -85 -10 -27 -96 -58 -181 -66 -44 -4 -82 -5 -84
-3 -2 2 2 10 9 19 7 9 8 15 2 15 -6 0 -29 -34 -51 -75 -23 -41 -48 -75 -56
-75 -8 0 -15 5 -15 10 0 6 5 10 12 10 9 0 9 3 -1 13 -10 10 -17 7 -35 -15 -21
-27 -66 -39 -66 -18 0 6 7 24 15 40 25 48 -3 35 -33 -15 -15 -25 -35 -45 -44
-45 -22 0 -23 16 -2 66 16 39 16 39 -36 -18 -30 -34 -60 -58 -71 -58 -20 0
-20 1 -2 31 10 17 40 55 66 85 53 59 54 68 3 29 -33 -25 -76 -34 -76 -14 0 5
14 23 31 39 34 30 95 50 156 50 21 0 57 9 78 21 71 37 199 77 249 78 32 1 59
-6 80 -19z m-1234 -174 c0 -16 -50 -26 -135 -26 -59 -1 -183 -14 -237 -26 -38
-8 -35 -30 5 -43 45 -14 164 -38 282 -56 289 -43 969 -19 1110 39 34 14 46 38
25 51 -6 3 -7 -1 -4 -9 5 -12 -1 -16 -25 -16 -17 0 -31 4 -31 9 0 42 115 40
158 -2 26 -26 26 -27 7 -41 -62 -46 -411 -95 -720 -101 -115 -2 -201 -2 -190
1 50 14 27 22 -87 28 -153 8 -343 31 -471 57 -103 21 -207 55 -207 68 0 30
107 56 282 70 183 14 238 13 238 -3z m639 -16 c29 -16 -12 -21 -109 -14 -79 5
-100 10 -100 21 0 13 15 14 98 8 53 -4 103 -10 111 -15z m645 -41 c17 -13 26
-30 26 -48 0 -49 -64 -94 -107 -76 -14 6 -9 10 21 15 35 7 66 31 66 51 0 3 -9
18 -21 33 -15 19 -30 26 -55 26 -21 0 -33 4 -29 10 11 17 71 11 99 -11z
m-1874 -33 c0 -11 69 -47 134 -70 10 -4 17 -9 14 -11 -8 -8 -152 35 -167 50
-7 7 -11 21 -8 29 8 20 27 21 27 2z m1018 -13 c-38 -2 -98 -2 -135 0 -38 2 -7
3 67 3 74 0 105 -1 68 -3z m141 -22 c25 -16 -154 -24 -379 -18 -352 10 -330
25 40 26 179 0 331 -3 339 -8z m623 -226 c48 -54 146 -189 196 -270 18 -27 32
-46 32 -42 0 13 -58 126 -82 160 l-23 32 33 -24 c52 -36 139 -148 178 -226 71
-145 87 -272 50 -395 l-14 -45 -7 80 c-8 96 -11 108 -18 75 -3 -14 -16 -72
-29 -130 l-25 -105 -2 113 c-2 171 -41 331 -107 433 -16 24 -40 71 -54 104
-36 84 -100 175 -186 265 -41 42 -71 80 -68 83 8 8 70 -45 126 -108z m-227 95
c-11 -18 -119 -68 -181 -84 -229 -59 -879 -42 -1112 29 -66 20 -63 28 5 16 81
-16 318 -39 463 -46 271 -13 699 27 788 74 44 24 45 24 37 11z m-162 -17 c-7
-2 -19 -2 -25 0 -7 3 -2 5 12 5 14 0 19 -2 13 -5z m-75 -10 c-10 -2 -28 -2
-40 0 -13 2 -5 4 17 4 22 1 32 -1 23 -4z m-138 -13 c-36 -4 -153 -7 -260 -7
l-195 1 200 6 c110 3 227 6 260 6 l60 1 -65 -7z m495 -61 c95 -101 148 -177
185 -265 125 -302 53 -637 -193 -886 -35 -36 -92 -84 -127 -108 -57 -39 -64
-41 -75 -26 -11 14 -2 27 59 89 107 109 166 223 202 391 36 167 8 423 -57 518
-16 24 -29 49 -29 56 0 7 23 38 51 68 53 55 52 66 -2 38 -24 -12 -37 -13 -61
-5 -44 16 -53 14 -37 -7 8 -10 -12 9 -44 42 l-58 61 16 -39 c8 -22 27 -55 41
-73 21 -28 23 -34 10 -39 -25 -10 -19 -27 7 -20 12 3 33 9 47 12 l25 5 -24
-21 -24 -20 31 -68 c64 -138 84 -327 48 -461 -40 -154 -155 -310 -299 -404
-150 -100 -254 -123 -514 -114 -195 6 -247 18 -378 85 -170 88 -300 247 -334
410 -12 59 -13 183 -2 222 5 15 10 -23 13 -100 4 -92 11 -141 27 -185 66 -182
240 -334 456 -397 71 -20 101 -23 265 -23 163 0 195 3 265 23 111 32 185 75
271 155 87 81 134 168 159 289 15 79 20 199 8 211 -13 13 -42 -68 -43 -116 0
-62 -41 -184 -84 -250 -74 -116 -212 -212 -366 -253 -82 -22 -243 -25 -285 -5
-29 14 -28 15 53 22 173 16 318 69 422 154 30 25 69 55 87 67 21 15 44 48 65
93 31 65 33 78 35 185 l2 114 48 19 c62 24 76 38 27 26 -82 -19 -88 -16 -106
56 -10 36 -33 100 -53 142 -46 99 -33 87 30 -30 43 -78 55 -92 78 -95 24 -3
27 0 27 27 0 36 -16 49 -25 21 -3 -11 -9 -20 -13 -20 -4 0 -21 31 -39 68 -31
65 -116 172 -153 192 -14 8 -7 -15 30 -92 46 -97 71 -176 83 -260 6 -42 16
-38 -128 -58 -89 -13 -447 -25 -471 -16 -12 5 -14 10 -7 17 8 8 -4 19 -40 38
-49 26 -97 79 -97 107 0 24 15 15 28 -16 29 -64 134 -88 264 -60 52 11 61 11
97 -7 36 -18 39 -18 31 -3 -24 45 -115 65 -174 39 -14 -7 -32 -9 -40 -6 -20 8
-10 34 16 42 15 5 18 12 13 36 -9 39 30 79 77 79 25 0 29 3 18 10 -30 20 -122
11 -169 -15 -52 -30 -68 -31 -76 -5 -19 59 36 95 143 94 55 0 68 2 50 10 -13
5 -57 9 -98 9 -80 0 -202 -34 -267 -75 l-33 -20 0 24 c0 35 -25 65 -66 78 -66
22 -127 -11 -174 -93 -16 -29 -30 -48 -30 -43 0 6 18 40 39 76 43 72 107 136
143 145 13 2 219 6 458 8 239 2 447 8 462 13 18 6 -128 9 -410 9 -383 0 -544
6 -530 21 9 9 274 34 473 44 342 18 527 45 625 89 25 11 48 21 51 21 4 0 37
-32 74 -71z m-1681 -11 c-5 -7 -28 -44 -52 -81 -53 -82 -121 -226 -152 -320
-13 -37 -24 -66 -26 -65 -1 2 4 34 12 71 26 127 110 293 192 380 27 29 38 35
26 15z m223 -106 c-58 -60 -128 -144 -156 -187 -28 -43 -51 -74 -51 -70 0 4
17 39 37 79 28 53 61 93 128 157 49 48 101 98 115 112 14 14 27 23 29 21 2 -2
-43 -53 -102 -112z m208 52 c-24 -37 -29 -23 -8 21 12 26 19 32 21 21 2 -9 -4
-28 -13 -42z m-90 -138 c-54 -76 -100 -172 -116 -241 -18 -75 -18 -75 -29 -75
-41 0 68 261 144 343 50 55 51 45 1 -27z m160 -66 c13 -41 -61 -126 -103 -118
-36 7 -21 93 22 123 30 22 73 19 81 -5z m235 -37 c-11 -21 -20 -45 -20 -55 0
-29 49 -77 86 -84 19 -3 34 -8 34 -9 0 -18 -16 -35 -32 -35 -33 0 -57 19 -78
60 -11 22 -24 40 -29 40 -13 0 -58 -56 -66 -81 -6 -19 -12 -20 -58 -14 -29 4
-54 9 -56 11 -9 8 53 96 91 128 31 27 111 68 146 75 1 1 -7 -16 -18 -36z
m1235 -70 c80 -272 104 -494 70 -628 -53 -200 -162 -358 -324 -466 -42 -28
-78 -53 -80 -55 -2 -2 25 8 60 21 116 46 196 116 265 231 l19 31 0 -103 0
-103 -61 -39 c-91 -60 -165 -95 -361 -171 -183 -70 -233 -86 -233 -75 0 16 61
101 97 136 21 20 90 65 153 99 224 120 306 190 366 314 48 101 42 117 -8 20
-63 -121 -157 -209 -292 -276 -95 -46 -136 -56 -136 -31 0 5 44 38 98 75 228
155 380 370 427 605 10 50 0 38 -25 -30 -56 -156 -143 -290 -259 -399 -146
-138 -245 -224 -227 -198 9 15 64 70 121 123 127 118 190 200 255 331 63 126
80 192 87 330 5 101 -11 241 -33 300 -4 8 -4 15 -1 15 3 0 13 -26 22 -57z
m-1325 -138 c0 -2 -18 -14 -40 -25 -22 -11 -40 -23 -40 -26 0 -2 10 1 23 7 20
11 21 11 9 -4 -14 -16 -7 -18 108 -31 19 -2 -14 -2 -73 1 -60 2 -115 7 -123
10 -16 6 -9 53 10 65 12 8 126 11 126 3z m-396 -14 c4 -5 -3 -7 -14 -4 -23 6
-26 13 -6 13 8 0 17 -4 20 -9z m159 -28 c26 -3 50 -10 54 -15 3 -6 -6 -8 -23
-5 -16 4 -55 11 -86 17 -32 6 -58 14 -58 17 0 3 15 2 33 -1 17 -4 54 -10 80
-13z m-186 -146 c-2 -23 -3 -1 -3 48 0 50 1 68 3 42 2 -26 2 -67 0 -90z m1219
78 c9 -49 -19 -165 -58 -238 -107 -201 -317 -300 -597 -284 -192 12 -310 58
-409 161 -32 33 -65 72 -72 86 -7 14 22 -11 66 -56 87 -88 160 -131 274 -160
94 -24 304 -16 379 15 118 48 201 132 220 221 10 47 6 110 -8 110 -3 0 -16
-18 -29 -40 -34 -60 -91 -93 -167 -98 -139 -9 -233 88 -223 228 l3 45 163 7
c159 6 383 26 391 34 2 2 17 4 32 4 24 0 29 -5 35 -35z m-909 9 c19 -5 20 -9
11 -36 -26 -74 4 -197 70 -288 23 -32 21 -31 -22 10 -54 51 -70 78 -91 152
l-15 53 5 -50 c16 -152 150 -281 314 -303 141 -19 261 22 355 121 45 47 54 54
40 29 -62 -109 -219 -180 -374 -169 -93 7 -149 26 -211 74 -100 76 -145 171
-143 304 1 110 6 118 61 103z m-621 -219 c45 -137 154 -291 277 -391 31 -25
57 -53 57 -61 0 -37 -175 122 -242 221 -75 109 -130 267 -127 363 1 31 3 27
10 -22 5 -32 16 -82 25 -110z m1565 94 c-13 -62 -57 -176 -66 -168 -2 3 9 43
25 89 16 47 30 97 30 111 0 26 9 43 18 34 3 -2 -1 -32 -7 -66z m-267 -134
c-22 -34 -86 -75 -116 -75 -17 0 -13 5 18 19 23 10 57 35 75 54 39 41 49 41
23 2z m-1444 -274 c-18 -33 -48 -78 -67 -100 -36 -43 -31 -43 45 -3 44 23 116
89 145 132 l17 25 -10 -28 c-18 -50 -68 -114 -116 -145 -48 -32 -141 -67 -209
-77 l-40 -7 45 23 c62 31 160 133 189 197 14 28 26 50 29 48 2 -3 -11 -32 -28
-65z m599 -45 c30 -16 57 -44 49 -51 -3 -3 -25 8 -49 24 -32 22 -47 27 -56 19
-8 -6 -13 -6 -13 -1 0 26 28 30 69 9z m1035 -12 c21 -20 21 -41 1 -24 -13 10
-21 10 -43 1 l-27 -13 24 26 c29 31 26 30 45 10z m-1474 -65 c-33 -46 -113
-105 -195 -144 -118 -56 -130 -80 -69 -141 28 -27 31 -33 13 -24 -40 21 -69
52 -69 76 0 33 46 73 152 132 53 28 115 70 139 92 53 48 57 49 29 9z m452 -5
c54 -35 30 -45 -36 -15 -34 15 -44 24 -40 36 8 19 17 16 76 -21z m1048 -16
c28 -47 25 -57 -22 -78 -58 -26 -78 -26 -78 3 0 17 11 26 45 40 25 11 45 24
45 29 0 6 -7 7 -16 4 -9 -3 -28 -9 -42 -12 l-27 -5 28 25 c36 33 43 33 67 -6z
m-1087 -23 c20 -8 50 -15 67 -15 23 0 30 -4 30 -20 0 -10 -9 -24 -20 -30 -30
-16 -130 30 -130 59 0 25 6 26 53 6z m13 -96 c3 -6 -2 -35 -12 -65 -14 -43
-21 -51 -31 -42 -9 8 -12 21 -7 42 15 69 33 93 50 65z m1100 -5 c-3 -9 -6 -37
-7 -62 l-1 -47 -15 48 c-16 53 -12 77 13 77 11 0 14 -5 10 -16z m-1035 -14
c14 0 -39 -100 -57 -107 -24 -9 -24 0 -2 60 15 41 25 56 35 52 8 -3 19 -5 24
-5z m989 -14 c14 -37 16 -78 5 -82 -8 -3 -45 78 -45 100 0 17 32 3 40 -18z
m-37 -38 c19 -59 14 -78 -7 -27 -22 55 -28 79 -19 79 5 0 17 -23 26 -52z
m-1410 26 c49 -9 85 -20 80 -24 -4 -5 -52 -10 -105 -12 -108 -3 -128 -13 -111
-51 l11 -23 -52 24 c-28 14 -59 31 -68 40 -21 18 -24 48 -5 55 27 11 167 6
250 -9z m-123 -216 c-12 -10 -32 -18 -44 -18 -16 0 -13 4 14 18 23 11 37 26
39 42 l5 25 4 -25 c3 -16 -3 -30 -18 -42z m1470 28 c0 -11 -19 -15 -25 -6 -3
5 1 10 9 10 9 0 16 -2 16 -4z m-1547 -53 c-7 -2 -19 -2 -25 0 -7 3 -2 5 12 5
14 0 19 -2 13 -5z"/>
<path d="M2763 3995 c-52 -34 -67 -55 -39 -55 7 0 34 16 59 35 25 19 54 35 64
35 15 0 16 2 3 10 -22 14 -30 12 -87 -25z"/>
<path d="M2791 3959 c-46 -28 -61 -44 -61 -65 0 -14 3 -15 12 -6 7 7 28 11 48
11 30 -2 31 -3 8 -6 -16 -2 -28 -9 -28 -15 0 -7 14 -8 37 -5 27 5 47 17 69 44
l32 38 -42 12 c-22 7 -41 13 -41 13 0 0 -15 -9 -34 -21z m39 -33 c0 -2 -11 -6
-25 -8 -13 -3 -22 -1 -19 3 5 9 44 13 44 5z"/>
<path d="M2628 3785 c-3 -11 -9 -28 -13 -37 -11 -28 35 -41 90 -26 45 12 54
21 35 33 -5 3 -10 1 -10 -6 0 -6 -8 -9 -20 -6 -11 3 -22 1 -25 -4 -11 -16 -35
3 -43 35 -7 26 -9 28 -14 11z"/>
<path d="M2690 3679 c0 -7 -10 -9 -26 -5 -20 5 -33 1 -50 -15 l-24 -23 22 -23
c32 -34 101 -32 151 6 31 23 34 30 20 34 -10 3 -35 12 -55 21 -25 11 -38 12
-38 5z"/>
<path d="M2807 3440 c-20 -70 -21 -101 -3 -50 14 38 29 110 23 110 -2 0 -11
-27 -20 -60z"/>
<path d="M2871 3339 c-51 -10 -86 -31 -102 -61 -11 -20 -9 -20 20 5 18 14 51
31 74 37 23 6 53 15 67 20 33 11 2 11 -59 -1z"/>
<path d="M1325 3520 c-3 -5 -1 -19 5 -30 9 -17 14 -19 25 -10 11 9 12 17 4 31
-11 21 -24 24 -34 9z"/>
<path d="M2347 2907 c-2 -17 0 -46 5 -64 7 -25 4 -41 -11 -70 -21 -42 -18 -44
-34 32 -3 11 -5 2 -6 -21 -1 -29 7 -52 24 -78 l24 -36 -26 17 c-32 21 -53 69
-54 125 -1 41 -1 42 -11 15 -17 -46 6 -114 58 -169 24 -26 44 -57 45 -70 2
-44 -3 -73 -17 -92 -17 -24 -18 -60 -4 -87 16 -29 24 -23 39 29 17 62 18 110
0 150 -12 29 -11 38 4 81 22 64 22 108 -4 165 -15 35 -18 54 -11 74 8 25 9 23
16 -23 4 -31 20 -71 41 -105 40 -62 44 -101 15 -145 -11 -16 -20 -36 -20 -42
0 -20 20 -15 21 5 2 26 18 -58 18 -98 1 -22 10 -46 26 -65 l25 -30 -10 30 c-9
28 -9 29 5 11 26 -33 17 2 -11 44 -33 49 -35 100 -5 157 31 62 27 78 -34 139
-40 40 -56 64 -60 91 -10 56 -10 56 -27 59 -11 1 -17 -8 -21 -29z"/>
<path d="M3091 2744 c0 -11 3 -14 6 -6 3 7 2 16 -1 19 -3 4 -6 -2 -5 -13z"/>
<path d="M3484 2894 c-23 -8 -59 -31 -80 -50 -39 -35 -39 -35 -4 -11 56 39 97
57 130 57 18 0 29 4 25 10 -8 13 -21 12 -71 -6z"/>
<path d="M3187 2043 c-13 -12 -7 -33 13 -53 24 -24 40 -18 40 14 0 34 -34 59
-53 39z"/>
<path d="M3332 1855 c-36 -46 -41 -58 -32 -75 6 -11 14 -20 18 -19 14 1 84
120 78 134 -9 24 -19 18 -64 -40z"/>
<path d="M3371 1683 c-1 -34 28 -61 52 -47 6 4 4 -2 -5 -13 -22 -24 -23 -34
-3 -27 8 3 19 22 25 42 12 45 12 65 0 35 -15 -38 -51 -25 -63 22 -3 13 -5 9
-6 -12z"/>
<path d="M756 4639 c-29 -23 -49 -58 -60 -103 l-7 -29 31 31 c40 41 101 58
152 43 47 -14 97 -56 114 -96 l13 -30 0 40 c1 50 -33 112 -78 142 -46 31 -127
32 -165 2z"/>
<path d="M3174 3514 c-17 -8 -46 -31 -65 -51 l-34 -37 45 36 c25 19 59 43 75
51 39 21 20 21 -21 1z"/>
<path d="M1219 3150 c22 -47 31 -80 31 -118 0 -64 -19 -96 -74 -124 -65 -32
-86 -56 -86 -99 0 -21 5 -41 10 -44 6 -4 10 7 10 25 0 50 16 68 74 85 81 24
116 72 116 159 0 46 -35 111 -84 156 l-27 25 30 -65z"/>
<path d="M1118 3076 c-4 -33 -21 -70 -62 -133 -70 -107 -92 -175 -76 -232 13
-49 46 -74 92 -69 28 3 33 0 30 -17 -2 -11 -17 -37 -33 -57 -39 -49 -59 -108
-59 -172 0 -85 26 -143 92 -210 32 -32 61 -56 64 -53 3 3 -13 29 -36 59 -60
75 -83 131 -83 205 -1 59 2 67 46 131 69 101 73 162 12 162 -14 0 -34 13 -50
32 -41 49 -32 120 30 235 30 54 47 99 47 120 0 51 -9 50 -14 -1z m-111 -328
c-3 -8 -6 -5 -6 6 -1 11 2 17 5 13 3 -3 4 -12 1 -19z m42 -73 c11 -14 7 -12
-12 4 -15 14 -27 32 -27 40 1 12 3 11 12 -4 6 -11 18 -29 27 -40z"/>
<path d="M3906 1193 c-61 -208 -77 -281 -83 -379 -6 -110 3 -154 43 -214 45
-67 68 -74 262 -78 95 -3 212 -1 260 3 l87 7 -75 27 c-233 82 -378 230 -426
436 -28 116 -35 118 -31 13 4 -86 8 -106 37 -164 39 -79 119 -162 226 -234 42
-27 69 -50 61 -50 -70 0 -283 65 -344 105 -34 23 -53 74 -52 142 l1 58 12 -45
c17 -61 49 -121 77 -145 22 -19 21 -18 -4 27 -30 53 -37 90 -8 42 19 -31 57
-64 74 -64 5 0 -5 12 -22 26 -17 14 -38 39 -48 54 -9 16 -20 27 -24 24 -24
-14 -22 206 2 376 18 130 8 144 -25 33z"/>
<path d="M3757 794 c-4 -4 -7 -29 -7 -56 0 -80 39 -151 102 -184 42 -22 43
-17 4 20 -41 38 -63 85 -80 169 -7 32 -15 55 -19 51z"/>
<path d="M4110 496 c0 -2 21 -11 48 -21 74 -28 83 -57 25 -83 -31 -13 -84 -17
-268 -22 -225 -5 -293 -14 -230 -32 102 -28 509 -17 622 17 124 37 99 92 -59
126 -77 17 -138 24 -138 15z m185 -68 c46 -21 23 -42 -60 -52 l-50 -6 32 17
c18 9 35 25 39 35 6 21 6 21 39 6z"/>
</g>
</svg>