<?xml version="1.0" encoding="UTF-8" standalone="no"?>
<!-- Created with Inkscape (http://www.inkscape.org/) -->

<svg
   version="1.1"
   id="svg1"
   width="1534.6667"
   height="1706.6667"
   viewBox="0 0 1534.6667 1706.6667"
   sodipodi:docname="Tomato.svg"
   inkscape:version="1.3.2 (091e20ef0f, 2023-11-25)"
   xmlns:inkscape="http://www.inkscape.org/namespaces/inkscape"
   xmlns:sodipodi="http://sodipodi.sourceforge.net/DTD/sodipodi-0.dtd"
   xmlns="http://www.w3.org/2000/svg"
   xmlns:svg="http://www.w3.org/2000/svg">
  <defs
     id="defs1" />
  <sodipodi:namedview
     id="namedview1"
     pagecolor="#ffffff"
     bordercolor="#000000"
     borderopacity="0.25"
     inkscape:showpageshadow="2"
     inkscape:pageopacity="0.0"
     inkscape:pagecheckerboard="0"
     inkscape:deskcolor="#d1d1d1"
     showgrid="false"
     inkscape:zoom="0.43852551"
     inkscape:cx="759.36289"
     inkscape:cy="844.87673"
     inkscape:window-width="1920"
     inkscape:window-height="1011"
     inkscape:window-x="0"
     inkscape:window-y="0"
     inkscape:window-maximized="1"
     inkscape:current-layer="layer1" />
  <g
     inkscape:groupmode="layer"
     id="layer1"
     inkscape:label="Layer 1">
    <path
       id="path3"
       style="display:inline;fill:#ff0000"
       d="m 673.40625,261.85547 -14.55273,1.16992 c -2.14664,1.51969 -7.13381,2.0498 -16.49805,3.50391 -75.87415,11.78193 -148.84953,33.63689 -219.19141,65.64453 l -17.91406,8.15234 -0.1875,-0.17578 -9.02734,7.62695 c 5.34813,6.22235 17.30859,20.15039 17.30859,20.15039 0,0 159.72523,70.36129 165.9375,72.3418 6.21228,1.98051 102.73828,21.60742 102.73828,21.60742 l 14.0957,-60.39257 -3.88671,-110.74024 z m 222.43945,1 -17.72461,0.63086 c -2.1811,3.86415 -29.58466,52.46922 -27.13086,53.81055 2.55155,1.3947 -1.96679,92.80273 -1.96679,92.80273 l 12.24804,28.66211 c 0,0 35.19397,-31.12146 46.98633,-37.83399 11.79237,-6.7125 109.56249,-97.71289 109.56249,-97.71289 0,0 6.0519,-6.18398 7.877,-8.06054 -4.9964,-2.60442 -12.2248,-6.91128 -13.0332,-7.39453 -3.4716,-0.0119 -9.2223,-1.02822 -24.8848,-5.01563 C 958.37494,275.25831 940.63385,271.5597 914,267.36328 c -14.18944,-2.23568 -17.51342,-2.89521 -18.1543,-4.50781 z m 234.582,71.21484 c -3.9599,9.48056 -7.4249,17.28112 -8.7402,18.51563 -4.2202,3.96099 -40.8301,66.97461 -40.8301,66.97461 0,0 -73.8824,86.23615 -78.4043,89.1914 -4.52178,2.9553 -58.4863,39.08008 -58.4863,39.08008 0,0 32.19431,11.31837 44.79297,12.30859 12.59863,0.99025 124.66903,34.40821 132.08003,34.40821 7.4115,0 67.6778,38.05859 67.6778,38.05859 0,0 0.6063,23.98242 -4.0664,23.98242 -4.6728,0 -122.9843,-15.84375 -127.3438,-15.84375 -4.3595,0 -138.93357,-4.58789 -138.93357,-4.58789 l -12.45899,45.26563 c 0,0 8.60943,58.82036 10.79883,62.99023 2.18939,4.16991 6.17383,133.73438 6.17383,133.73438 l -17.56836,15.29883 c 0,0 -19.34272,-10.57199 -21.22266,-16.29688 -1.8799,-5.72488 -117.46118,-149.93855 -120.26562,-154.60742 -2.80444,-4.66891 -29.45117,-48.68164 -29.45117,-48.68164 l -125.50391,50.125 c 0,0 -101.98879,53.57849 -106.80469,59.37305 -4.81586,5.79451 -62.58789,33.41015 -62.58789,33.41015 0,0 -13.56897,-9.46598 -9.26758,-11.36523 4.30143,-1.89928 62.14249,-103.68258 66.10352,-109.53125 3.96103,-5.8487 92.78906,-130.67578 92.78906,-130.67578 0,0 -7.87511,-17.99475 -14.23828,-21.82422 -6.36314,-3.82951 -63.16406,-29.57618 -63.16406,-29.57617 l -134.33789,-67.74415 -46.36328,-53.34961 -3.17578,-10.05664 -22.3086,11.45899 -0.30273,-0.10352 0.12109,0.31641 -11.3125,7.68359 c -32.62084,22.15846 -67.10066,51.09464 -99.19726,83.25 C 144.84303,535.12897 106.96231,586.99308 76.732422,646.66602 38.272914,722.58395 12.85769,817.44033 2.4277344,924 c -2.68692498,27.45149 -2.27674319,113.4561 0.6699218,140.666 15.2739278,141.041 58.7373968,261.8288 126.6640638,352 26.7278,35.4808 65.02133,75.4566 95.57226,99.7735 20.04781,15.9565 57.12921,42.1128 85.00586,59.9589 98.95188,63.3486 192.03746,95.4914 309.66016,106.9239 12.09996,1.176 28.30004,3.5719 36,5.3242 31.00528,7.0557 68.24325,12.8289 98.66602,15.2969 9.89996,0.8032 20.7,1.6816 24,1.9531 13.83986,1.139 75.21741,-0.5686 92.66796,-2.5781 122.32869,-14.0867 218.28632,-55.8587 376.00002,-163.6817 42.6202,-29.1382 67.699,-50.3636 98.8242,-83.6367 47.96,-51.2693 84.8328,-104.5088 116.3672,-168.0215 39.596,-79.7492 61.6095,-158.5329 69.666,-249.3125 2.4272,-27.3499 2.0547,-99.69218 -0.666,-129.33202 C 1518.249,764.70005 1474.687,643.62129 1399.3633,542 1341.3094,463.67825 1257.8828,395.73394 1162.334,348.96094 c -10.3321,-5.05772 -18.406,-9.69919 -19.1504,-10.91016 z" />
    <path
       style="display:inline;fill:#44aa00"
       d="m 1215.6336,200.70115 -41.9351,20.82248 c 0,0 -19.3255,45.93091 -21.306,54.18951 -1.9805,8.25859 -26.4855,72.91155 -30.7057,76.87258 -4.2202,3.96103 -40.8288,66.97388 -40.8288,66.97388 0,0 -73.8825,86.23748 -78.4044,89.19277 -4.5219,2.9553 -58.48705,39.08035 -58.48705,39.08035 0,0 32.19496,11.31833 44.79366,12.30859 12.59869,0.99025 124.66799,34.40757 132.07939,34.40757 7.4115,0 67.6779,38.05914 67.6779,38.05914 0,0 0.6073,23.98279 -4.0654,23.98279 -4.6728,0 -122.9853,-15.84411 -127.3448,-15.84411 -4.3595,0 -138.93386,-4.58768 -138.93386,-4.58768 l -12.45945,45.26559 c 0,0 8.6106,58.81973 10.8,62.98964 2.18939,4.16991 6.17363,133.73501 6.17363,133.73501 l -17.56933,15.2987 c 0,0 -19.34096,-10.57177 -21.2209,-16.2967 -1.87994,-5.72492 -117.46152,-149.93886 -120.26596,-154.60777 -2.80444,-4.66891 -29.45242,-48.6812 -29.45242,-48.6812 l -125.50349,50.12403 c 0,0 -101.98876,53.57833 -106.80466,59.37289 -4.8159,5.79455 -62.58735,33.40957 -62.58735,33.40957 0,0 -13.56962,-9.46546 -9.26819,-11.36475 4.30143,-1.89928 62.14251,-103.68302 66.10354,-109.53173 3.96103,-5.8487 92.79019,-130.67527 92.79019,-130.67527 0,0 -7.87564,-17.99483 -14.23881,-21.82434 -6.36318,-3.82951 -63.16371,-29.57619 -63.16371,-29.57619 L 377.16808,446.05285 330.80393,392.70274 281.17115,235.56517 c 0,0 6.98209,-1.93797 15.61203,-0.94771 8.62993,0.99026 26.8027,28.74067 30.89138,33.57204 4.08868,4.83137 85.66885,99.73747 85.66885,99.73747 0,0 159.7254,70.36242 165.93771,72.34293 6.21232,1.98051 102.73919,21.60772 102.73919,21.60772 L 696.116,401.48354 692.22847,290.74493 655.75141,234.76058 569.66866,97.923285 c 0,0 15.66485,-1.115893 19.34314,-0.365193 3.67829,0.750699 75.80012,29.969178 75.80012,29.969178 0,0 56.25595,47.30089 59.4078,50.40487 3.15184,3.10399 18.54459,20.8678 22.52098,17.71733 3.97638,-3.15048 31.34477,-43.36417 31.34477,-43.36417 0,0 129.12301,-125.145264 132.57979,-126.501719 3.45677,-1.356455 18.19454,-3.285848 23.66822,-1.006402 5.47368,2.279446 30.92908,20.635343 35.77102,25.690598 4.84195,5.055256 24.47089,33.343903 24.10032,37.407798 -0.37056,4.063895 -18.65125,50.123195 -18.65125,50.123195 0,0 -79.97341,86.25931 -83.08423,90.52832 -3.11082,4.269 -13.19125,32.85711 -13.19125,32.85711 0,0 -30.8402,54.518 -28.28864,55.91274 2.55155,1.39474 -1.96632,92.80229 -1.96632,92.80229 l 12.24775,28.66195 c 0,0 35.19536,-31.12189 46.98776,-37.83442 11.79241,-6.71254 109.56106,-97.71124 109.56106,-97.71124 0,0 57.838,-59.60608 60.1954,-60.30618 2.3574,-0.70011 70.295,-51.42632 72.9327,-52.44366 2.6377,-1.01734 45.2362,-7.50153 50.8315,-7.44683 5.5954,0.0547 13.1065,6.37479 13.1065,6.37479 v 8.16608 z"
       id="path2" />
    <path
       style="display:inline;fill:#1a1a1a"
       d="m 778.66671,1705.8967 c -3.3,-0.2715 -14.1,-1.1508 -24,-1.954 -30.42289,-2.468 -67.66128,-8.2414 -98.66668,-15.2971 -7.7,-1.7523 -23.9,-4.1482 -36,-5.3242 -117.62318,-11.4325 -210.70762,-43.5735 -309.6599,-106.9221 -27.87677,-17.8465 -64.95889,-44.0023 -85.00678,-59.9592 -30.55105,-24.3169 -68.84298,-64.2926 -95.5709,-99.7734 C 61.835515,1326.4951 18.370899,1205.7081 3.0969108,1064.6667 0.15023381,1037.4568 -0.25844702,951.45165 2.4284886,924.00004 12.858485,817.43993 38.272058,722.58495 76.731718,646.6667 106.96173,586.99352 144.84296,535.13016 194.62904,485.25294 c 32.09676,-32.15552 66.57547,-61.09163 99.19643,-83.25017 l 11.31244,-7.68423 -4.09802,-10.82593 c -11.67341,-30.8382 -17.85764,-58.30772 -21.6484,-96.15926 -4.09608,-40.90025 -9.70858,-62.43333 -21.22294,-81.42442 -7.4707,-12.32173 -28.41161,-42.65736 -36.75352,-53.24226 -2.88968,-3.66666 -8.93989,-11.70054 -13.44491,-17.85306 -8.69202,-11.87073 -8.81517,-14.0767 -0.69957,-12.53217 19.49497,3.71022 56.22115,37.94088 92.87315,86.56248 10.64269,14.11832 15.87547,22.3935 29.29746,46.33135 3.24071,5.77973 10.4689,15.97973 16.06266,22.66667 11.53739,13.79214 39.06155,43.04894 51.45419,54.69322 l 8.29132,7.79063 17.91486,-8.1518 c 70.34216,-32.00776 143.31722,-53.86273 219.19165,-65.6447 22.04751,-3.4236 20.87011,-1.34488 11.62795,-20.52928 C 634.53766,205.63471 590.03958,156.79118 540.00003,120.88519 512.28046,100.99495 505.04138,94.849958 484.46436,73.742973 l -17.53567,-17.987303 9.53567,0.91424 c 21.7443,2.084752 37.6131,5.590132 49.62175,10.961325 13.77602,6.161696 20.65078,8.45876 52.58059,17.568749 32.14988,9.172779 48.52607,15.026526 67.91207,24.275466 21.81922,10.40982 38.02149,21.40356 60.7546,41.22384 18.47277,16.10584 33.91779,28.02303 36.16932,27.90783 0.64021,-0.0328 6.17246,-8.33377 12.29388,-18.44668 23.68537,-39.12947 48.80714,-71.420628 79.53094,-102.227901 29.55184,-29.63212 48.79477,-43.922289 71.26439,-52.9222909 18.4698,-7.3979143 34.53484,-6.0575919 55.24236,4.6089258 20.05192,10.3288181 41.89724,35.7701931 52.58494,61.2412111 3.0183,7.19338 3.551,10.385852 3.5274,21.139619 -0.033,15.034316 -2.1755,21.016046 -16.3787,45.729386 -19.26524,33.52099 -31.76114,48.48357 -60.94114,72.97082 -10.58183,8.88005 -22.30575,19.55525 -26.05316,23.72267 -9.62035,10.69861 -18.47614,23.32526 -18.88914,26.93228 -0.33784,2.95062 0.35284,3.17715 18.31559,6.00734 26.63397,4.19642 44.37511,7.8949 73.77959,15.38077 21.08506,5.36789 26.29886,6.2851 28.63136,5.0368 1.5685,-0.83942 11.8677,-9.92908 22.8871,-20.19924 37.8251,-35.25326 61.8888,-54.57641 84.702,-68.01579 13.9891,-8.24107 43.0595,-19.47352 71.3333,-27.56228 13.2,-3.77635 30.3,-8.66868 38,-10.87186 20.8236,-5.95819 57.3333,-12.20556 57.3333,-9.8106 0,2.1485 -25.5068,44.65889 -29.5172,49.19424 -9.4297,10.66402 -21.5307,16.00918 -57.7408,25.50484 -10.2252,2.68144 -20.8464,5.77765 -23.6026,6.88046 -5.7633,2.30602 -6.0199,2.90669 -11.1361,26.06173 -3.733,16.8949 -11.7205,41.60735 -20.4916,63.39858 -3.0314,7.5314 -5.5117,14.4316 -5.5117,15.33377 0,0.90217 8.85,5.97256 19.6667,11.26753 95.5492,46.7732 178.976,114.71651 237.0299,193.03858 75.3241,101.62169 118.8863,222.69882 132.1627,367.33335 2.7207,29.63996 3.0932,101.98342 0.666,129.33332 -8.0565,90.78 -30.071,169.5614 -69.667,249.311 -31.5344,63.5127 -68.4066,116.7527 -116.3666,168.0224 -31.1252,33.2731 -56.2044,54.4977 -98.825,83.6359 -157.7141,107.8234 -253.67085,149.5959 -376.00002,163.6826 -17.45063,2.0095 -78.82673,3.7171 -92.66667,2.5781 z m 90,-39.8584 c 84.58564,-9.5632 158.05249,-35.4715 248.27629,-87.5557 57.6166,-33.2607 94.6632,-61.9181 140.0141,-108.3079 106.088,-108.5182 167.7332,-235.1361 186.9677,-384.028 19.1145,-147.96277 -3.9681,-289.5591 -64.9387,-398.35578 -83.084,-148.25578 -212.987,-215.30362 -336.3194,-173.58712 -15.6019,5.27726 -41.7798,17.5726 -53.99998,25.36292 l -8,5.09997 18,0.9322 c 26.77308,1.38655 43.74498,3.40521 65.99998,7.85013 47.4967,9.48637 97.2531,31.46916 125.1954,55.31242 35.4871,30.28119 140.8117,136.94872 146.2877,148.15286 2.6107,5.34156 3.2185,8.99293 3.6209,21.7524 l 0.4836,15.33334 -15.8323,-15.33334 c -8.7078,-8.43333 -22.3762,-20.43333 -30.3742,-26.66666 -75.6493,-58.95822 -87.2717,-67.06801 -108.2259,-75.51743 -20.7171,-8.35384 -55.3494,-15.84538 -88.4885,-19.14156 -32.2294,-3.20569 -130.97106,-2.85259 -134.2466,0.48007 -1.62517,1.65351 6.84475,8.17419 18.19189,14.00525 5.53008,2.8418 29.55471,13.7714 53.38801,24.288 126.5969,55.86162 181.5211,90.77645 188.0668,119.55234 0.5422,2.38333 0.8325,4.33333 0.6451,4.33333 -0.1873,0 -2.7771,-3.75 -5.7551,-8.33333 -11.5161,-17.72385 -38.8462,-34.39284 -84.303,-51.41765 -19.5099,-7.307 -54.4972,-18.18342 -55.4446,-17.23597 -0.3227,0.32265 5.2733,3.13891 12.4354,6.25834 21.0609,9.17296 27.3843,13.57316 25.0149,17.40689 -0.3754,0.60737 -13.6952,-3.34678 -29.5996,-8.78699 -15.9044,-5.44021 -30.4493,-9.87221 -32.3218,-9.84889 -3.4625,0.0431 -8.0714,2.70536 -8.0714,4.66227 0,0.59254 6.7681,8.0264 15.0402,16.51967 28.3224,29.07951 74.268,86.61896 74.2853,93.03031 0.016,5.90051 -2.6514,4.16043 -12.1264,-7.91096 -32.2877,-41.13573 -74.6105,-85.81387 -94.9971,-100.28395 -7.9339,-5.63136 -97.56594,-52.40861 -104.85614,-54.72243 -3.40111,-1.07947 -3.42869,-1.56464 1.19678,21.04767 8.64091,42.24243 12.76201,77.85979 15.53464,134.26096 2.31225,47.03601 1.15557,93.84924 -3.17916,128.66824 l -2.3215,18.64748 -8.85527,3.6823 c -4.8704,2.0252 -9.75375,3.3374 -10.8519,2.916 -2.61134,-1.002 -3.02385,-2.1404 -8.17501,-22.55995 -5.15821,-20.4475 -11.95842,-36.78089 -30.96689,-74.37924 C 851.81893,865.64861 843.6773,853.3975 798.66671,796.6667 771.92848,762.96617 757.57868,743.7505 741.62602,720.28409 L 729.63997,702.65258 711.82,716.91878 c -43.80851,35.07196 -93.67285,80.12231 -114.0963,103.08126 -56.66916,63.70443 -76.00493,150.87016 -55.69803,251.08686 6.42027,31.6846 22.01575,78.0672 21.9647,65.3252 -0.005,-1.3266 -0.86808,-14.112 -1.91725,-28.412 -1.75557,-23.9282 -2.7169,-52.9746 -2.18437,-66.0001 l 0.21805,-5.3333 1.88145,3.4611 c 1.89648,3.4886 17.52126,59.4984 26.931,96.5389 6.26161,24.6482 6.75859,22.1849 3.90021,-19.3314 -3.38764,-49.2035 -3.9125,-62.6686 -2.44275,-62.6686 0.73591,0 1.61932,0.75 1.96313,1.6667 0.34382,0.9167 6.21362,17.5667 13.044,37 6.83038,19.4333 15.25202,42.5333 18.71476,51.3333 l 6.29589,16 -0.66769,-42 c -0.60473,-38.0398 -0.474,-41.7385 1.38642,-39.2264 2.78463,3.7599 10.96289,27.6332 23.71481,69.2264 l 10.62833,34.6667 -0.76401,-18.3732 c -0.66531,-16 -7.16849,-80.1341 -9.40651,-92.7668 -0.59263,-3.3451 -0.35029,-4.3322 0.96085,-3.9137 3.62774,1.1579 20.96872,56.8903 29.87637,96.0201 2.71697,11.9351 5.45077,22.2703 6.07512,22.9669 0.62903,0.7019 1.14107,-10.8911 1.14838,-26 0.0184,-38.0384 3.85551,-90.6 6.61401,-90.6 0.52288,0 1.67126,2.405 2.55195,5.3445 3.13349,10.4587 16.17515,73.1535 21.63156,103.9889 6.16541,34.8421 6.27583,35.3579 7.34092,34.2928 0.68494,-0.685 1.57345,-24.0328 3.86743,-101.6262 0.91036,-30.7926 1.56436,-37.0796 3.49782,-33.6246 3.87753,6.9287 12.70351,64.8633 15.88814,104.2913 1.55686,19.2751 2.35832,25.3478 3.23026,24.4758 0.27802,-0.278 1.75712,-11.2988 3.28688,-24.4906 6.09009,-52.5177 7.07085,-55.0039 10.7765,-27.3185 1.94923,14.5629 2.97031,86.5729 1.71576,121.0011 -0.97672,26.8038 -0.59252,34.0821 1.44279,27.3322 0.38697,-1.2833 5.29007,-26.6333 10.89579,-56.3333 5.60572,-29.7 10.43954,-54.26 10.74183,-54.5778 0.30229,-0.3178 1.20631,0.079 2.00892,0.8815 3.4625,3.4625 2.61311,98.112 -1.04459,116.4005 -0.50317,2.5159 -0.24488,3.9624 0.70751,3.9624 0.825,0 1.5,-0.9089 1.5,-2.0199 0,-4.5572 20.29216,-84.5298 22.03109,-86.8257 1.66838,-2.2029 1.8867,-1.1138 1.90674,9.5123 0.0281,14.8833 -1.87258,43.9934 -4.68928,71.8203 -2.2998,22.7204 -1.22551,29.8783 2.39058,15.9283 3.8037,-14.6737 18.60481,-62.4172 19.70943,-63.5761 2.21536,-2.3242 3.31811,12.5315 3.31811,44.7002 0,18.0799 0.38258,32.6362 0.85018,32.3472 2.85945,-1.7672 15.87349,-61.8031 20.42415,-94.2199 0.48898,-3.4833 1.39809,-6.3333 2.02023,-6.3333 2.73135,0 4.61841,20.4523 4.61331,50 -0.005,30.0602 -1.44757,54.8466 -5.34561,91.8611 -1.07315,10.1902 -1.67811,18.8008 -1.34436,19.1345 1.40779,1.4078 9.65112,-35.7091 26.96272,-121.4039 5.65388,-27.9875 6.6304,-31.4568 8.25672,-29.3333 1.50476,1.9647 1.68392,7.7939 0.9728,31.6511 -1.32086,44.3131 -5.39174,85.0122 -15.17758,151.7394 -2.01506,13.7402 -3.12825,24.4468 -2.47374,23.7922 4.1122,-4.1121 41.21085,-144.8767 54.4078,-206.4411 2.39726,-11.1834 4.93427,-20.3334 5.6378,-20.3334 0.801,0 0.94881,8.4028 0.39542,22.4793 -2.01167,51.1708 -16.17164,138.8769 -33.69086,208.6795 -1.81644,7.2373 -3.03264,13.4287 -2.70268,13.7586 0.91088,0.9109 4.89588,-10.287 23.57662,-66.2507 17.93481,-53.7291 28.19335,-91.629 33.20267,-122.6667 3.89536,-24.1356 4.00723,-24.6072 5.48631,-23.1281 2.07826,2.0783 3.83402,37.3184 3.02089,60.6327 -0.49723,14.2569 -0.30827,21.3663 0.54476,20.4954 2.86609,-2.9259 13.63496,-59.6051 16.33972,-86 0.86419,-8.4333 1.89907,-16.8333 2.29974,-18.6666 l 0.72849,-3.3334 1.69353,4 c 3.09912,7.3199 5.01826,38.2764 4.35836,70.3004 -0.34689,16.8332 -0.14381,29.7357 0.4513,28.6723 0.5951,-1.0634 5.2584,-14.7673 10.3628,-30.4531 5.1044,-15.6857 9.8614,-30.0196 10.5711,-31.8529 1.2294,-3.176 1.3438,-3.2075 2.4239,-0.6667 1.3931,3.2774 1.486,40.0691 0.1514,60 -0.8543,12.7597 -0.7461,14.2333 0.8324,11.3334 4.1215,-7.5716 16.4873,-64.9664 18.8162,-87.3334 1.9251,-18.4889 3.5952,-19.4013 6.0956,-3.3299 1.0314,6.6293 1.3659,23.1707 0.993,49.1069 -0.3305,22.9907 -0.084,37.8284 0.5982,36 2.5609,-6.8637 11.5614,-45.5405 14.1647,-60.8683 1.5241,-8.9734 3.4689,-23.1988 4.3218,-31.612 1.483,-14.6275 2.9863,-18.7746 4.4574,-12.2967 0.3747,1.65 1.3003,5.7 2.057,9 2.6512,11.5632 3.0559,44.7729 0.7774,63.7935 -2.4894,20.7808 -2.6024,24.2065 -0.7982,24.2065 0.7333,0 1.3333,-1.4328 1.3333,-3.1841 0,-1.7513 1.4508,-8.2013 3.2241,-14.3334 8.0329,-27.778 18.2174,-76.5612 20.8386,-99.8158 1.6869,-14.9664 3.0436,-19.664 4.3946,-15.2172 3.989,13.1294 4.7654,55.0862 1.4828,80.1277 -1.1329,8.6425 -4.1371,25.8691 -6.6759,38.2812 -4.4199,21.6086 -5.0402,28.2759 -1.86,19.9932 2.5903,-6.7462 15.5995,-52.4865 20.5748,-72.3405 5.0252,-20.0533 15.7652,-68.6867 17.3664,-78.6389 0.6105,-3.7951 1.3843,-5.3424 2.2425,-4.4843 3.7643,3.7643 2.2411,51.1535 -2.9876,92.9486 -2.1923,17.5243 -10.9528,74.2396 -12.5407,81.1889 -0.3427,1.4999 -0.089,2.0373 0.6251,1.3233 1.9516,-1.9516 23.5059,-88.6166 30.0503,-120.8256 9.2695,-45.6211 9.5257,-73.6399 1.076,-117.6897 -2.7575,-14.3758 -10.3297,-46.8488 -13.3692,-57.3334 -0.7163,-2.471 -0.5279,-2.4404 2.5681,0.4175 4.2915,3.9615 20.5753,33.3575 34.298,61.9159 5.9023,12.2833 11.1823,22.3333 11.7333,22.3333 1.3587,0 -0.3736,-26.0297 -3.727,-56 -5.7975,-51.8138 -13.4509,-91.90773 -21.2731,-111.44265 -2.2608,-5.64612 -3.8555,-10.52072 -3.5438,-10.83243 1.0056,-1.00563 7.2279,8.08368 10.2297,14.9432 18.9962,43.40868 33.3976,122.76768 35.4474,195.33188 2.1689,76.7836 -10.3611,155.4478 -35.6124,223.5761 -8.4086,22.6866 -23.9414,54.7341 -33.6548,69.4373 -4.1409,6.2681 -6.7013,11.3685 -5.9425,11.8375 0.7334,0.4532 1.7164,0.2617 2.1844,-0.4257 0.468,-0.6873 5.4124,-7.8142 10.9877,-15.8375 53.234,-76.6084 87.0382,-186.0393 97.8998,-316.921 0.4717,-5.6834 1.4064,-10.3334 2.0772,-10.3334 0.6707,0 1.2321,0.45 1.2474,1 0.015,0.55 0.8967,8.2 1.9584,17 2.3032,19.0886 2.6194,67.3985 0.5767,88.1018 -3.6912,37.4101 -12.1724,75.3526 -26.013,116.3747 -4.7895,14.1954 -8.4632,26.0547 -8.1639,26.3541 0.8938,0.8938 12.6337,-25.2454 22.2918,-49.6332 23.1315,-58.4101 39.7472,-120.217 46.0233,-171.1974 2.8408,-23.0761 3.1634,-24.6687 4.6878,-23.1443 4.3998,4.3998 4.8088,72.3714 0.6246,103.811 -1.8627,13.9966 -9.7754,55.903 -12.1472,64.3333 -0.4642,1.65 -0.2808,3 0.4077,3 2.7123,0 23.8678,-70.7414 30.4653,-101.8723 3.0355,-14.3232 11.2197,-64.1309 11.2493,-68.461 0.01,-0.9167 0.5616,-1.6667 1.2342,-1.6667 4.1849,0 6.8607,46.3797 4.1926,72.6679 -0.8931,8.7993 -3.077,23.9304 -4.853,33.6246 -1.776,9.6943 -3.2051,18.0943 -3.1757,18.6667 0.1311,2.5568 4.6919,-8.0741 13.1287,-30.6022 16.5816,-44.2767 32.5956,-95.3438 40.2512,-128.357 1.7006,-7.3333 3.3064,-13.6159 3.5685,-13.9614 0.2621,-0.3454 1.0702,0.2546 1.7959,1.3334 1.6016,2.3807 0.4717,24.5278 -2.2086,43.2947 -2.265,15.8584 -5.8825,32.483 -12.1444,55.8102 -4.5977,17.1276 -5.0315,21.7942 -1.3617,14.647 8.3786,-16.3175 35.7725,-82.958 41.2572,-100.3653 4.0934,-12.9919 6.9179,-12.8722 5.6975,0.2414 -3.8194,41.0434 -15.7651,87.1047 -33.752,130.1439 -25.0504,59.9409 -94.2835,162.1435 -155.3875,229.3846 -37.9767,41.7909 -79.1761,71.2371 -147.5808,105.4795 -87.01133,43.5566 -177.33952,68.6336 -268.65079,74.5831 -39.03453,2.5434 -65.5588,2.9832 -90.00001,1.4922 -22.34496,-1.363 -25.92164,-1.9305 -38,-6.0298 -19.07695,-6.4746 -26.58169,-8.1414 -51.33333,-11.4017 -34.30157,-4.5182 -77.08378,-13.9219 -121.33334,-26.6694 C 395.48299,1576.5395 309.17642,1523.4138 224.64292,1437.1539 173.3246,1384.7875 139.18947,1338.1624 112.02789,1283.3334 81.192217,1221.0877 66.834123,1169.2808 53.457638,1072.0001 46.16677,1018.9771 43.091087,959.1052 45.276227,912.73907 c 2.51846,-53.43881 -0.773539,-42.27971 -5.26905,17.86083 -2.031339,27.17506 -1.649315,92.9451 0.709099,122.0801 7.358199,90.9004 30.326428,179.1701 66.012674,253.6947 22.27541,46.5185 51.3143,89.661 87.41909,129.877 31.30777,34.8728 68.10719,64.9133 125.85198,102.7369 99.03822,64.8713 191.79188,97.4519 306.66668,107.7195 18.26287,1.6324 20.62826,2.0328 46,7.7865 29.74645,6.7458 63.28771,11.4319 96.82305,13.5274 24.05613,1.5032 77.85272,0.4272 99.17696,-1.9837 z M 1096.9285,900.9408 c -5.1357,-16.29217 -19.7001,-42.03902 -33.3414,-58.94076 -8.3095,-10.29553 -25.8275,-27.95255 -37.2587,-37.55451 -5.6861,-4.77617 -10.0498,-9.15087 -9.6971,-9.72155 0.869,-1.40605 12.8871,0.88383 21.4465,4.08632 24.9009,9.31664 50.2085,38.67896 59.1008,68.57007 4.5187,15.18912 6.3462,40.61967 2.9191,40.61967 -0.5192,0 -1.9453,-3.17666 -3.1692,-7.05924 z m 32.4049,585.6472 c 0,-0.69 -0.6,-1.2546 -1.3333,-1.2546 -0.7334,0 -1.3334,0.9354 -1.3334,2.0787 0,1.1433 0.6,1.7079 1.3334,1.2546 0.7333,-0.4532 1.3333,-1.3886 1.3333,-2.0787 z M 818.66671,1334.6667 c 0,-0.7333 -0.6,-1.3333 -1.33333,-1.3333 -0.73334,0 -1.33334,0.6 -1.33334,1.3333 0,0.7334 0.6,1.3334 1.33334,1.3334 0.73333,0 1.33333,-0.6 1.33333,-1.3334 z m 255.99999,-1.3333 c 0,-0.7333 -0.2646,-1.3333 -0.588,-1.3333 -0.3233,0 -0.9588,0.6 -1.412,1.3333 -0.4532,0.7333 -0.1886,1.3333 0.588,1.3333 0.7766,0 1.412,-0.6 1.412,-1.3333 z m -827.51868,-16.3333 c -47.08296,-63.2529 -83.00796,-137.1688 -102.55135,-211 -2.52351,-9.5334 -4.56608,-19.1334 -4.53905,-21.3334 l 0.0492,-4 1.84118,3.3842 c 1.01265,1.8613 5.10816,11.7613 9.10114,22 22.39276,57.419 45.3699,104.3084 68.57915,139.9492 12.25761,18.8231 20.52579,30.2904 21.28947,29.5267 0.3597,-0.3597 -2.00926,-5.0504 -5.26435,-10.4237 -44.88946,-74.1012 -71.78106,-153.882 -77.05359,-228.5991 -5.08741,-72.09374 13.03674,-155.72708 49.01784,-226.19133 18.78367,-36.78533 40.01266,-66.11734 68.30138,-94.37171 39.63434,-39.58621 82.5836,-64.97688 156.33132,-92.41967 21.77304,-8.10212 39.28121,-13.61886 83.08305,-26.17905 l 18.66667,-5.35268 -15.33334,0.56328 c -8.6829,0.31897 -23.30979,2.09604 -33.72397,4.09724 -10.11486,1.94368 -19.06454,3.30933 -19.8882,3.03478 -3.72247,-1.24082 32.78345,-13.8624 50.94551,-17.61392 4.76666,-0.9846 14.95731,-2.53807 22.64589,-3.45216 19.6095,-2.33137 15.145,-3.58812 -27.31256,-7.68844 l -10.66667,-1.03013 12,-2.31447 c 6.6,-1.27296 21.16322,-3.00728 32.36271,-3.85405 11.19949,-0.84678 19.89949,-1.98226 19.33333,-2.52331 -1.30116,-1.24345 -32.50716,-6.54169 -38.5298,-6.54169 -2.47476,0 -4.49957,-0.57281 -4.49957,-1.27291 0,-1.61272 6.09847,-2.6521 18,-3.06777 l 9.33334,-0.32598 -28.66667,-10.54922 C 504.23341,533.64874 484.67277,526.09967 476.532,522.67509 l -14.80142,-6.22649 -12.57868,4.89443 C 317.80297,572.45149 237.14643,629.57 184.31877,708.88976 c -5.54222,8.32153 -10.33541,14.8714 -10.65154,14.55527 -1.04599,-1.04599 10.41686,-21.76639 20.87274,-37.72982 40.51605,-61.85756 98.60863,-110.0049 185.27048,-153.55282 14.40427,-7.2382 32.18957,-15.74584 39.52291,-18.90587 14.36952,-6.19201 16.66666,-7.5153 16.66666,-9.60099 0,-3.21766 -24.2231,3.40695 -47.12974,12.88918 -6.36248,2.63376 -12.31113,4.78608 -13.21921,4.78294 -4.46778,-0.0154 28.25687,-18.24584 40.26928,-22.43339 2.35383,-0.82055 3.92856,-2.06006 3.49939,-2.75446 -0.42916,-0.6944 -6.29636,-4.3321 -13.03822,-8.08378 -14.55724,-8.10075 -10.64068,-8.92666 -43.04817,9.07784 -27.21278,15.11849 -50.82977,29.6682 -70.66667,43.53558 -107.7464,75.3223 -167.62444,177.45413 -184.81929,315.23967 -2.91303,23.34268 -3.4559,26.26019 -4.66191,25.05419 -0.92967,-0.92968 2.84233,-41.97123 5.60296,-60.96326 7.28765,-50.13628 23.54424,-101.57082 45.77312,-144.82246 18.87846,-36.7326 38.9795,-64.43655 69.32609,-95.54762 34.70502,-35.57929 78.45074,-67.8802 138.49256,-102.25995 12.0319,-6.88943 14.79149,-10.26951 8.01213,-9.81365 -1.82404,0.12265 -10.07195,3.30922 -18.32868,7.08125 -8.25673,3.77204 -15.29213,6.57837 -15.63422,6.23628 -0.34209,-0.34209 5.57134,-4.66515 13.14096,-9.60679 7.56963,-4.94164 14.25035,-9.41571 14.84606,-9.94238 0.59571,-0.52667 -0.75715,-2.12276 -3.00637,-3.54686 -2.24921,-1.4241 -9.80455,-7.86537 -16.78965,-14.31393 l -12.70017,-11.72466 -26.29346,16.42019 c -14.4614,9.03111 -33.49346,21.82502 -42.29346,28.4309 -18.56566,13.93667 -48.15347,42.31103 -63.78754,61.1715 -61.39753,74.06813 -100.704631,173.46444 -113.828103,287.83842 -3.446,30.03266 -3.418369,124.16945 0.04454,151.7331 8.167521,65.01092 23.977153,119.63042 49.169813,169.87302 7.50681,14.9711 31.30546,57.5537 44.78149,80.127 23.61881,39.5631 48.13175,73.2808 71.48888,98.3333 7.91409,8.4886 6.55879,5.5915 -4.05441,-8.6666 z m 1030.18538,0.3333 c 0,-0.7333 -0.6,-1.3333 -1.3333,-1.3333 -0.7334,0 -1.3334,0.6 -1.3334,1.3333 0,0.7333 0.6,1.3333 1.3334,1.3333 0.7333,0 1.3333,-0.6 1.3333,-1.3333 z m -848.36707,-22.9761 c -0.29675,-2.3965 -0.54566,-0.7572 -0.55315,3.6428 -0.007,4.4 0.23531,6.3607 0.53954,4.3572 0.30424,-2.0036 0.31036,-5.6036 0.0136,-8 z m -0.59795,-60.3572 c 0.46207,-35.3016 1.23256,-50.6443 3.4818,-69.3334 8.83779,-73.4338 23.23444,-134.6021 45.50319,-193.33332 17.64474,-46.53597 48.86852,-107.24023 95.5607,-185.78601 10.61046,-17.84896 19.08182,-32.66259 18.82524,-32.91917 -1.26989,-1.26989 -18.46244,7.32928 -45.95686,22.98617 -40.31798,22.95935 -57.64079,32.03854 -78.19777,40.9848 -17.68414,7.69603 -45.83326,17.59671 -46.92529,16.50468 -1.21176,-1.21176 3.44792,-21.9653 8.18103,-36.43715 5.9786,-18.28002 31.10586,-67.57127 42.48094,-83.33333 13.76098,-19.06812 21.8042,-31.45996 30.08463,-46.35008 4.36005,-7.84038 7.92737,-14.71029 7.92737,-15.26646 0,-2.37845 -31.0216,11.93689 -55.33334,25.53433 -38.46488,21.51322 -63.03443,39.72038 -90.03147,66.71741 -33.0982,33.0982 -56.31821,66.56498 -78.65509,113.3648 -22.82171,47.81565 -49.43741,112.74185 -51.65216,126.00001 -1.06331,6.3653 0.3938,3.65445 6.09178,-11.33333 12.98114,-34.14514 35.94715,-81.52725 53.63992,-110.66668 4.67526,-7.7 12.72444,-21.59622 17.88708,-30.8805 15.04063,-27.04848 53.57415,-71.55762 67.31492,-77.75384 9.63803,-4.34615 8.82254,-1.76885 -5.63362,17.80466 -15.85996,21.47423 -23.65929,34.40574 -32.5515,53.97133 -4.71393,10.37209 -10.87493,23.35835 -13.69111,28.85835 -6.2712,12.24766 -12.40752,26.75568 -11.64086,27.52234 1.26805,1.26805 24.65838,-34.92366 35.41104,-54.79127 9.46351,-17.48568 13.17126,-22.95086 20.8444,-30.72442 16.32081,-16.53439 30,-25.04537 30,-18.66552 0,1.10429 -5.01171,9.65429 -11.13714,19 -6.12544,9.34571 -11.91526,18.49221 -12.86628,20.32554 -0.95102,1.83333 -2.10927,3.63333 -2.5739,4 -0.46463,0.36667 -2.57395,4.86667 -4.6874,10 -2.11344,5.13333 -5.19494,11.73333 -6.84777,14.66667 -4.26579,7.57061 -12.76965,29.91459 -12.29003,32.29218 0.39833,1.97469 16.20139,-23.09395 33.53233,-53.19288 7.5777,-13.16033 9.89425,-16.11271 14.98212,-19.09441 3.31014,-1.93987 8.03744,-3.85468 10.50511,-4.25512 3.94223,-0.63974 4.72969,-0.25812 6.48948,3.14494 3.37086,6.51852 1.15099,18.0401 -5.47928,28.43862 -18.00992,28.24568 -27.78207,48.92322 -37.66357,79.69487 -5.72611,17.83147 -10.913,37.80024 -10.04428,38.66896 0.59619,0.5962 3.41545,-4.21253 17.41085,-29.69716 5.63815,-10.26667 14.17881,-24.59322 18.97925,-31.83679 9.70315,-14.64147 20.33975,-26.50748 21.32306,-23.78765 0.33981,0.93989 -1.79174,8.13989 -4.73677,16 -23.14318,61.7678 -40.67878,152.84493 -43.96967,228.37143 -0.50936,11.6899 -0.47611,21.254 0.0739,21.2537 0.55,-4e-4 1.00636,-0.4507 1.01413,-1.0007 0.042,-2.9716 5.58676,-36.2029 7.95341,-47.6666 6.74353,-32.6649 19.0902,-71.2556 28.83224,-90.11796 5.59981,-10.84226 11.63651,-18.55692 13.25459,-16.93884 0.40236,0.40236 -0.76082,7.25472 -2.58483,15.22748 -9.68232,42.32142 -19.65338,114.39142 -24.14195,174.49592 -1.80916,24.2258 -2.86006,97.9769 -1.37493,96.4918 0.34063,-0.3406 1.55417,-12.2906 2.69676,-26.5555 4.5493,-56.7968 10.75928,-99.9939 20.05388,-139.4967 6.80506,-28.922 20.86609,-66.4373 26.65119,-71.1063 2.27996,-1.84 2.39579,-1.7867 1.44848,0.6667 -5.68433,14.7217 -15.0419,63.2823 -18.88448,98 -3.74222,33.8109 -4.18565,161.5771 -0.54762,157.7833 0.58893,-0.6141 1.3378,-21.5166 1.66416,-46.4499 z m 999.63172,41.0785 c 0,-0.9599 -0.6194,-1.7452 -1.3763,-1.7452 -1.6746,0 -3.924,5.5284 -2.9303,7.202 0.8485,1.4292 4.3066,-2.9524 4.3066,-5.4568 z m 16.4538,-37.41 c 24.9882,-57.7324 39.1986,-109.5593 47.7445,-174.129 3.5542,-26.8546 4.9966,-109.35816 2.5308,-144.76266 -8.3737,-120.23206 -45.508,-234.60614 -106.096,-326.77691 -47.1133,-71.67211 -103.9071,-126.81026 -179.2998,-174.07303 -29.9057,-18.74751 -79.2546,-44.59365 -85.1441,-44.59365 -1.1548,0 -10.8559,14.58871 -10.8559,16.32529 0,0.35372 5.3242,2.54766 11.8317,4.87542 38.0505,13.61102 99.3427,54.25179 151.9253,100.73644 16.5006,14.58701 47.1263,45.38767 61.7104,62.06286 101.1003,115.59641 150.0685,264.81932 142.7044,434.86964 -4.1053,94.7995 -18.0904,171.9293 -46.3226,255.4753 -4.029,11.9231 -6.9239,22.3281 -6.4331,23.1224 0.4909,0.7942 2.2452,-1.761 3.8984,-5.6783 1.6533,-3.9173 6.966,-16.2715 11.806,-27.4538 z M 233.33335,989.74521 c 0,-0.95984 -0.53581,-1.74516 -1.19069,-1.74516 -1.40718,0 -2.82672,3.3052 -2.76691,6.44238 0.0366,1.91873 0.31133,1.86874 2,-0.36389 1.07668,-1.42349 1.9576,-3.37349 1.9576,-4.33333 z M 891.52777,864.88666 c -1.15688,-2.32097 -5.43994,-11.39148 -9.51792,-20.15669 -9.71042,-20.87157 -25.59628,-46.15281 -48.63335,-77.3966 -27.1984,-36.88756 -52.27606,-74.52689 -59.36957,-89.10845 -4.14584,-8.52227 -6.82319,-16.28257 -8.09986,-23.4775 -1.04887,-5.91106 -2.7621,-15.568 -3.80718,-21.45986 -2.26116,-12.74777 -6.81667,-21.19168 -14.39449,-26.68102 -15.97482,-11.5721 -29.23247,-7.42529 -49.83314,15.58712 -18.61,20.78867 -35.62581,37.11724 -45.20556,43.37976 -5.13333,3.35579 -26.13333,15.97167 -46.66667,28.03529 -20.53333,12.06362 -39.52063,23.25906 -42.194,24.87875 l -4.86067,2.94489 -2.806,-4.5402 c -1.5433,-2.49711 -2.806,-5.08672 -2.806,-5.75468 0,-0.66796 3.88478,-5.06472 8.63284,-9.77057 l 8.63283,-8.5561 4.67794,5.26128 4.67794,5.26129 -2.85068,-7.06931 -2.85067,-7.06931 2.95855,-5.26402 c 3.4791,-6.19023 2.89346,-6.49722 -3.33371,-1.74753 -4.08714,3.11741 -5.44124,3.43074 -11.93149,2.76089 -8.3397,-0.86073 -8.54958,0.70281 -0.52532,3.91348 6.33714,2.53562 6.03917,3.33712 -5.3816,14.4758 -4.51144,4.4 -10.08614,10.338 -12.38822,13.19556 l -4.1856,5.19556 5.7645,-3.81476 5.7645,-3.81476 3.16247,3.95253 c 1.73936,2.17389 3.13998,4.25253 3.11248,4.6192 -0.0804,1.07258 -40.88276,29.54799 -49.79685,34.75257 -4.47695,2.61392 -17.43991,11.01392 -28.80658,18.66667 -11.36667,7.65275 -21.21595,14.14719 -21.88731,14.43209 -0.67135,0.28489 2.23839,-3.91511 6.46609,-9.33333 4.2277,-5.41823 8.23149,-10.05283 8.89731,-10.29911 1.07813,-0.39878 20.51083,-25.4486 43.14225,-55.61271 4.42658,-5.89994 20.30263,-28.85917 35.2801,-51.0205 31.5596,-46.69699 37.1738,-54.01558 45.97369,-59.93063 11.02388,-7.40996 18.77047,-9.04326 40.76422,-8.59476 12.32282,0.25129 21.72472,-0.21059 26,-1.27728 l 6.697,-1.67091 -9.33334,-1.5351 c -8.15788,-1.34177 -32.34413,-7.20816 -33.89415,-8.22105 -0.30844,-0.20156 0.81105,-1.82675 2.48776,-3.61153 6.12075,-6.51524 4.91684,-20.83162 -2.62761,-31.24644 -7.80293,-10.77162 -16.90237,-15.16624 -71.29934,-34.43433 C 466.27922,482.18624 415.9,457.15428 379.02177,426.12628 c -20.35866,-17.12904 -32.90912,-33.28881 -46.52076,-59.89936 -4.06481,-7.94665 -7.67139,-14.16761 -8.01463,-13.82437 -1.00411,1.0041 9.66548,26.91025 15.04487,36.52949 10.37824,18.55804 26.42614,34.01202 55.13544,53.09493 41.49288,27.58008 76.17574,43.984 171.62797,81.17474 8.96204,3.49186 19.79547,8.61153 24.07428,11.37706 13.18307,8.52063 21.63109,21.14675 21.63109,32.32908 0,7.6878 -2.82603,11.38369 -14.67168,19.18764 -15.47934,10.19783 -21.74,18.34126 -44.00446,57.23787 -20.26718,35.4073 -42.3614,70.61435 -45.71584,72.848 -0.70043,0.4664 -6.74877,8.37251 -13.44077,17.56913 -6.69199,9.19662 -19.27194,26.13235 -27.95543,37.63494 -14.74974,19.53824 -19.10278,26.75029 -17.99905,29.82051 0.24964,0.69441 11.85389,-6.1828 25.78723,-15.28269 13.93333,-9.09988 31.17889,-20.30529 38.32346,-24.9009 7.14457,-4.59561 13.00214,-8.95565 13.01681,-9.68898 0.0505,-2.52343 28.7939,-18.19764 87.99307,-47.98397 78.44865,-39.4718 88.80253,-46.49642 102.43193,-69.49527 5.79682,-9.78181 6.57519,-10.54919 11.08188,-10.92547 4.24989,-0.35485 5.17672,0.13802 7.52189,4 1.47111,2.42258 4.24685,9.61428 6.16831,15.98153 9.64482,31.96053 28.32112,60.98098 84.75077,131.69121 39.10369,48.99961 54.4188,71.0624 64.83361,93.39864 1.31473,2.81966 2.43983,3.96215 2.84268,2.88662 0.36671,-0.97902 -0.27979,-3.67902 -1.43667,-6 z m 0.47228,-32.21995 c 0,-1.83334 -0.6,-3.33334 -1.33334,-3.33334 -0.73333,0 -1.33333,1.5 -1.33333,3.33334 0,1.83333 0.6,3.33333 1.33333,3.33333 0.73334,0 1.33334,-1.5 1.33334,-3.33333 z m -0.31538,-10.10505 3.01795,-3.43838 -3.80177,0.55798 c -3.69084,0.5417 -3.90775,0.23732 -7.43394,-10.43184 -2.90165,-8.77946 -3.28034,-11.21296 -1.88286,-12.09919 0.96213,-0.61015 2.25865,-1.11855 2.88116,-1.12978 2.96579,-0.0535 10.2015,-4.55228 10.2015,-6.34275 0,-2.00411 -4.5245,-1.85204 -12.82364,0.43102 -2.21473,0.60925 -3.46955,-0.26832 -5.81876,-4.06942 -1.64731,-2.66541 -2.77667,-4.99568 -2.50969,-5.17839 0.26699,-0.1827 3.84414,-1.35303 7.94923,-2.60072 13.32112,-4.04878 16.4038,-12.38994 3.36568,-9.10691 -10.71328,2.69764 -13.9093,2.09553 -17.03974,-3.21017 -3.85813,-6.53905 -4.41981,-4.97362 -1.17195,3.26627 1.49355,3.78916 2.71554,7.46008 2.71554,8.15759 0,0.69752 -2.4133,1.65412 -5.36289,2.12578 -2.94958,0.47166 -5.70836,1.41656 -6.13061,2.09977 -1.09755,1.77588 2.93889,5.8291 9.82207,9.86292 7.16462,4.19874 6.12261,7.11372 -1.62849,4.55563 -6.00207,-1.98087 -7.06792,-1.12181 -4.14429,3.3402 2.82962,4.31855 7.85118,6.27672 13.41797,5.23239 4.13782,-0.77626 4.36691,-0.59005 5.69087,4.62595 1.32736,5.2294 1.2086,5.58482 -3.14257,9.4052 -2.48713,2.18374 -4.52206,4.35686 -4.52206,4.82916 0,0.89795 5.14877,0.15849 10.41211,-1.49539 2.46992,-0.77611 3.22852,-0.39479 3.836,1.92824 0.41648,1.59261 0.83103,2.72186 0.92123,2.50944 0.0902,-0.21242 1.52207,-1.93349 3.18195,-3.8246 z m 10.98204,-16.56162 c 0,-2.56667 -0.6,-4.66667 -1.33333,-4.66667 -0.73333,0 -1.33333,2.1 -1.33333,4.66667 0,2.56667 0.6,4.66667 1.33333,4.66667 0.73333,0 1.33333,-2.1 1.33333,-4.66667 z m -1.33333,-9.84484 c 0,-4.19779 -5.21621,-41.90132 -7.43272,-53.72472 -2.94772,-15.7239 -9.30439,-40.56739 -13.3088,-52.01422 -1.87587,-5.36226 -10.68488,-24.2545 -19.57559,-41.98275 -14.22586,-28.36668 -16.23511,-33.2037 -16.75014,-40.32384 -0.68466,-9.46538 1.81206,-14.77631 6.94651,-14.77631 1.73311,0 9.96928,3.47809 18.30259,7.72908 21.71876,11.07918 38.58329,15.96809 65.39639,18.95792 7.86459,0.87696 38.9258,1.27191 81.24378,1.03305 62.0621,-0.35031 69.7664,-0.154 81.8447,2.08544 16.9155,3.13633 35.0503,7.82229 49.756,12.85673 7.2087,2.46789 11.9783,3.47014 12.7659,2.68256 0.7875,-0.78759 0.3022,-1.5941 -1.299,-2.15867 -1.4059,-0.49572 -11.5563,-4.34413 -22.5563,-8.55203 -50.1074,-19.1679 -51.5243,-19.38438 -124,-18.94542 -46.14213,0.27947 -61.9401,-0.0723 -73.99998,-1.64789 -27.20867,-3.55466 -41.83371,-8.78729 -62.41567,-22.33145 -10.33792,-6.80297 -13.57333,-8.26094 -19.33333,-8.71217 -9.29687,-0.7283 -17.3544,3.50979 -23.25101,12.22954 -8.24289,12.18936 -6.31914,19.33142 14.87687,55.23143 22.22693,37.64611 30.72397,57.5982 39.34614,92.38954 4.34487,17.53198 10.77699,52.61734 10.77699,58.78533 0,2.03519 0.6,3.70035 1.33334,3.70035 0.73333,0 1.33333,-1.13017 1.33333,-2.5115 z m -37.33991,-39.06063 c 0.005,-1.65185 2.01657,-2.65305 7.67324,-3.81884 7.45283,-1.53597 15,-4.59343 15,-6.0767 0,-0.40289 -5.49615,-0.30257 -12.21367,0.22294 l -12.21368,0.95545 -3.75046,-4.52202 -3.75045,-4.52203 -0.0359,4.12228 c -0.0315,3.61924 -0.6649,4.31075 -5.19056,5.66667 -2.83508,0.84941 -7.03508,1.54438 -9.33333,1.54438 -4.81284,0 -4.86658,0.13544 -2.14346,5.40137 l 2.03518,3.93561 11.95825,-0.33516 c 10.17141,-0.28507 11.95922,-0.66968 11.96481,-2.57395 z m -341.57678,-21.0112 c 0.33334,-1 -0.16666,-1.5 -1.16666,-1.16667 -0.9625,0.32084 -2.0125,1.37084 -2.33334,2.33334 -0.33333,1 0.16667,1.5 1.16667,1.16666 0.9625,-0.32083 2.0125,-1.37083 2.33333,-2.33333 z m 342.40885,-1.63133 c 5.74238,-2.69924 15.17451,-10.92258 15.17451,-13.2298 0,-0.56946 -3.58808,0.42258 -7.97351,2.20454 -4.65295,1.89066 -10.66832,3.23992 -14.44445,3.23992 -5.41532,0 -7.10533,-0.64648 -10.35982,-3.96296 -5.35497,-5.45697 -6.20557,-5.02193 -3.18632,1.62963 1.41471,3.11666 2.58537,6.66666 2.60148,7.88889 0.0288,2.18504 5.09968,4.79913 9.71048,5.00585 1.29133,0.0579 5.10626,-1.19134 8.47763,-2.77607 z m -5.49216,-24.76027 c 2.55644,-1.38707 9.73555,-8.37745 8.56575,-8.34057 -0.31116,0.01 -5.66575,1.80179 -11.89908,3.98217 -16.81235,5.88084 -17.71948,5.69925 -22.59856,-4.52396 -2.23746,-4.68818 -4.06811,-8.88818 -4.06811,-9.33333 0,-0.44516 1.35,-0.85549 3,-0.91185 1.65,-0.0564 5.4,-0.93744 8.33333,-1.95795 l 5.33333,-1.85549 -8.66666,0.68394 c -7.96728,0.62875 -8.82155,0.43706 -10.58596,-2.37538 -2.20768,-3.519 -6.74738,-12.63284 -6.74738,-13.54595 0,-0.3385 3.96552,-1.89658 8.81225,-3.4624 8.39741,-2.71292 15.83086,-6.51897 14.78147,-7.56837 -0.26923,-0.26923 -3.98189,0.71205 -8.25035,2.18062 -4.26846,1.46856 -9.72873,2.67012 -12.13394,2.67012 -4.21957,0 -4.5877,-0.453 -10.48498,-12.90228 -3.36152,-7.09624 -8.27688,-18.31356 -10.92301,-24.92736 -4.34563,-10.86155 -4.73692,-12.87071 -4.04392,-20.7644 0.42198,-4.80661 1.76665,-11.62182 2.98815,-15.1449 2.4509,-7.06892 2.1179,-8.25978 -1.94879,-6.96906 -3.42003,1.08547 -10.60097,15.75381 -11.95149,24.41301 -1.46538,9.39571 -0.19917,13.00786 10.26373,29.27963 5.25665,8.17506 9.55755,15.48246 9.55755,16.23865 0,1.87265 -5.81449,4.73353 -15.11647,7.43769 -4.26136,1.23881 -7.45356,2.54676 -7.09377,2.90656 0.3598,0.35979 7.02711,0.60301 14.81625,0.54049 l 14.16208,-0.11369 4.58588,9.56912 c 3.08975,6.44722 4.1659,10.07516 3.29857,11.12023 -0.70802,0.85311 -5.04449,2.64971 -9.63659,3.99243 -15.97706,4.67168 -12.80634,5.61953 8.53897,2.55263 l 6.2216,-0.89392 3.07731,5.83258 c 6.03238,11.43347 6.60248,13.21724 4.43923,13.88989 -6.44832,2.00507 -6.44984,2.40425 -0.0147,3.87982 5.77558,1.32433 7.6303,1.15893 14.66667,-1.3079 4.43024,-1.55316 9.25498,-3.47503 10.72165,-4.27082 z m -10,-24.3584 c 0,-0.73334 -0.63541,-1.33334 -1.41202,-1.33334 -0.77662,0 -1.04121,0.6 -0.58798,1.33334 0.45322,0.73333 1.08863,1.33333 1.41202,1.33333 0.32339,0 0.58798,-0.6 0.58798,-1.33333 z m -247.03139,-13.5791 c -7.38383,-9.88985 -7.50285,-9.21866 3.97291,-22.40354 l 10.3918,-11.93948 8,7.88862 c 7.0814,6.98281 14.69581,11.78213 16.2412,10.23674 0.29592,-0.29592 -3.23729,-3.50943 -7.85158,-7.14114 -4.61429,-3.6317 -9.27858,-8.27658 -10.36509,-10.32194 -1.92555,-3.62488 -1.84132,-3.8324 3.33334,-8.21286 7.29522,-6.17555 14.12455,-9.1882 31.60015,-13.93986 23.25549,-6.32323 50.37532,-19.99375 50.37532,-25.39311 0,-3.32994 -1.67297,-3.18842 -7.76422,0.65682 -15.92809,10.05496 -29.88199,15.35417 -49.52434,18.80764 -7.12658,1.25297 -13.02303,3.18324 -16.25258,5.32046 -2.7876,1.84474 -5.47459,3.35408 -5.97109,3.35408 -0.4965,0 -2.94878,-1.5606 -5.44949,-3.46799 -5.86787,-4.47564 -6.65205,-3.56575 -1.86687,2.16613 l 3.78281,4.53119 -9.49071,10.71867 c -5.2199,5.89526 -11.85118,13.71866 -14.73618,17.38533 -8.28553,10.5304 -14.42831,16.66802 -16.6646,16.65061 -1.13451,-0.009 -4.6987,-1.52287 -7.92043,-3.36453 -3.22173,-1.84166 -6.00789,-3.18444 -6.19146,-2.98394 -0.18357,0.20049 2.55761,3.57879 6.0915,7.50734 l 6.42527,7.14281 5.48307,-4.40632 5.48308,-4.40632 5.55109,5.55109 c 6.42854,6.42854 8.09307,6.46041 3.3171,0.0635 z M 1170.3758,642.4607 c -0.7167,-2.1501 -6.1097,-3.96975 -7.0856,-2.39073 -0.4371,0.70727 0.5938,1.84284 2.2909,2.52349 4.2429,1.7017 5.3956,1.66978 4.7947,-0.13276 z M 944.37446,595.00003 c -0.43519,-2.75 -1.89902,-8.24845 -3.25296,-12.21877 -1.35393,-3.97033 -2.23975,-7.44071 -1.96849,-7.71197 0.4256,-0.4256 5.49287,0.47893 16.25799,2.90212 1.95493,0.44005 3.3986,2.69347 5.01911,7.83432 2.24126,7.11011 6.68155,14.1943 8.89682,14.1943 0.62334,0 -0.25507,-4.5 -1.952,-10 -1.69694,-5.5 -2.70049,-9.99692 -2.23011,-9.99315 0.47038,0.004 7.75523,1.46772 16.18857,3.25323 28.01371,5.93107 78.18121,13.44137 101.16731,15.14521 10.89,0.80721 13.2126,0.68257 11.4395,-0.61394 -5.0237,-3.6734 -42.1411,-11.25406 -93.9401,-19.18581 -20.16671,-3.08803 -37.07443,-6.25455 -37.57274,-7.03671 -0.49832,-0.78217 -3.79832,-1.27429 -7.33334,-1.09362 -7.95716,0.40669 -29.86062,-3.84906 -42.76064,-8.30821 -5.31667,-1.83781 -9.66667,-3.08733 -9.66667,-2.7767 0,0.96177 13.46173,7.44419 22.60872,10.88711 9.50404,3.57731 10.67368,4.6578 10.7042,9.88829 0.0367,6.29201 6.05187,19.8343 8.80991,19.8343 0.2069,0 0.0201,-2.25 -0.41508,-5 z M 839.47799,549.40676 c 7.37638,-3.26293 18.45424,-14.47452 20.5368,-20.78473 2.367,-7.1721 0.86511,-10.46388 -7.00344,-15.34981 -3.85622,-2.3945 -10.8368,-6.77997 -15.51241,-9.7455 l -8.5011,-5.39186 0.87592,-12.73409 c 0.48175,-7.00374 1.40804,-40.03408 2.05841,-73.40075 1.42593,-73.15575 3.60226,-91.01444 15.3811,-126.21497 13.78722,-41.2025 35.31642,-71.76498 72.67534,-103.16861 13.88758,-11.6738 16.07417,-14.59975 10.93275,-14.62946 -8.58881,-0.0496 -25.84377,-14.42185 -33.97748,-28.30098 -8.80615,-15.02656 -13.37684,-39.14653 -10.41671,-54.970022 3.47026,-18.550431 16.23535,-35.982052 33.90761,-46.303206 5.00771,-2.924659 8.79125,-5.631231 8.40788,-6.014605 -1.3228,-1.322804 -22.86854,10.056119 -32.17595,16.993046 -43.52374,32.438782 -99.16055,102.633067 -130.04096,164.066397 -27.17407,54.05998 -39.27558,97.28998 -52.59266,187.87574 -9.78156,66.53635 -17.09846,103.37754 -23.49535,118.30087 -1.4326,3.34211 -2.43964,6.18401 -2.23788,6.31533 0.20176,0.13132 3.96684,1.57182 8.36684,3.20111 4.4,1.62929 13.17732,5.93693 19.50516,9.57252 6.32783,3.6356 12.01281,6.61018 12.63329,6.61018 0.62048,0 -3.28736,-4.44518 -8.68409,-9.87817 l -9.81224,-9.87816 2.77586,-10.45517 c 2.58813,-9.7481 5.49104,-23.03162 16.85382,-77.12184 2.46483,-11.73333 4.88723,-24.8397 5.38312,-29.12527 0.87452,-7.55783 0.81483,-7.76439 -1.98651,-6.87528 -2.86128,0.90813 -2.88005,0.8009 -2.02085,-11.5414 2.60001,-37.34892 10.02344,-68.10018 22.15866,-91.79139 8.48005,-16.55535 11.29496,-18.88602 8.45435,-7 -2.15158,9.00289 -2.52008,17.4683 -0.67906,15.6 0.68649,-0.69667 5.56041,-12.06667 10.83094,-25.26667 20.77534,-52.0317 35.6057,-76.9439 68.65855,-115.33334 15.32022,-17.79375 23.57778,-29.19315 29.49109,-40.71185 4.73829,-9.22985 7.10459,-12.05579 7.10459,-8.48462 0,3.70669 11.28423,24.96931 17.49962,32.97415 3.79604,4.88894 7.45828,9.60677 8.1383,10.48405 0.88032,1.13568 -1.00151,2.7292 -6.53409,5.53302 -4.27377,2.16588 -9.2705,5.5778 -11.10383,7.58205 l -3.33333,3.64408 4.66666,-0.77327 c 2.56667,-0.4253 8.26667,-1.16759 12.66667,-1.64953 l 8,-0.87626 -11.44815,11.80576 c -6.29649,6.49317 -16.72935,18.31542 -23.18415,26.27166 -6.45479,7.95625 -16.75312,20.19328 -22.88517,27.1934 -6.13206,7.00012 -11.1492,13.24047 -11.1492,13.86743 0,2.12188 2.26216,1.156 8.56631,-3.65757 3.45571,-2.63864 6.5799,-4.50072 6.94265,-4.13798 0.36275,0.36275 -1.77595,5.50351 -4.75267,11.42391 -12.74747,25.35345 -21.52011,52.71915 -26.7596,83.47488 -3.72973,21.89346 -6.64465,53.78059 -6.75707,73.91753 -0.0515,9.23221 -0.5412,17.92651 -1.08812,19.32065 -0.88456,2.2548 -1.16383,2.10752 -2.52814,-1.33333 -3.04053,-7.66833 -5.84246,-22.78585 -6.58614,-35.53481 -0.41708,-7.15 -1.21216,-13 -1.76686,-13 -1.83202,0 -2.9171,16.06756 -2.91889,43.22229 -0.002,28.44859 2.10788,47.66748 6.73835,61.38342 1.38808,4.11164 2.16073,7.67707 1.71698,7.92317 -0.44374,0.2461 -4.85028,1.77453 -9.79232,3.39651 -4.94203,1.62198 -9.28059,3.42649 -9.64123,4.01003 -0.36065,0.58354 3.06808,1.79359 7.61938,2.689 14.3411,2.82144 23.52293,9.37957 29.01448,20.72361 4.42087,9.13229 2.98092,13.76374 -6.00612,19.31803 -2.56721,1.58662 -4.66766,3.39411 -4.66766,4.01662 0,3.37056 14.79096,2.56673 23.47795,-1.27594 z M 682.6667,546.86864 c 0,-0.62226 -4.97051,-2.44445 -11.04557,-4.04931 -13.37221,-3.53257 -33.90748,-13.32544 -58.95443,-28.11423 -37.78177,-22.30797 -81.94496,-43.29345 -84.89701,-40.3414 -0.75376,0.75375 2.02786,2.40774 7.16584,4.2609 16.88701,6.09079 46.2733,22.25771 72.39784,39.8298 29.8217,20.0589 38.89432,24.83583 52.18662,27.47736 10.50753,2.08812 23.14671,2.59971 23.14671,0.93688 z m 246.96958,-15.35035 c 63.56764,-23.92893 134.36582,-97.32213 183.46042,-190.18494 15.4427,-29.2099 26.9632,-59.24803 38.8374,-101.26332 7.5096,-26.57204 7.1637,-29.62971 -1.2146,-10.73669 -8.2703,18.64956 -25.067,51.51975 -32.0832,62.785 -3.8416,6.16826 -11.4912,16.91501 -16.9991,23.88168 -12.4174,15.70643 -50.6085,53.79432 -71.4813,71.28819 -10.967,9.19165 -15.2125,13.52177 -14.2255,14.50883 0.9871,0.98705 2.8986,0.008 6.405,-3.28139 2.7489,-2.5786 11.9358,-10.4277 20.4152,-17.44246 8.4795,-7.01475 26.1836,-22.62669 39.3425,-34.69319 29.556,-27.10257 34.6314,-30.3384 28.5086,-18.17586 -5.2635,10.45567 -19.5505,33.58541 -29.7028,48.08715 -19.4105,27.72622 -39.7841,51.12589 -68.3142,78.46077 -32.69029,31.3208 -78.04419,60.99697 -105.91799,69.30473 -12.44008,3.70776 -12.91973,3.98683 -9.83788,5.72409 9.977,5.62411 20.94005,6.20469 32.80745,1.73741 z m -263.63624,-31.4277 c 2.03076,-0.80368 0.93137,-1.29718 -4.61028,-2.06949 -16.5633,-2.30835 -32.74744,-9.39068 -64.05639,-28.03167 -41.72385,-24.8419 -70.08133,-38.21773 -118.66668,-55.97342 -39.32932,-14.37304 -58.18106,-24.81529 -83.59098,-46.30222 -6.9238,-5.85485 -12.90136,-10.33255 -13.28346,-9.95045 -1.19839,1.19839 18.30722,19.35896 31.64855,29.46618 15.13865,11.46884 33.4638,20.68354 59.80319,30.0717 32.0562,11.4258 52.97988,20.08063 76.46766,31.62993 26.37157,12.96731 35.30383,18.03803 60.2468,34.20122 23.8528,15.45675 30.33141,18.15658 43.37492,18.07563 5.5,-0.0341 11.2,-0.53697 12.66667,-1.11741 z m 227.33334,-5.07017 c 3.3,-1.16748 8.4,-3.62452 11.33333,-5.46008 9.33181,-5.83947 109.10299,-83.77364 109.82019,-85.78377 1.2927,-3.6229 -6.159,1.45512 -34.76846,23.69329 -67.22754,52.25599 -84.04532,62.31989 -108.93952,65.19029 -9.37115,1.08054 -8.84509,2.60434 1.56288,4.5271 6.89556,1.27388 13.06661,0.63688 20.99158,-2.16683 z M 524.00003,473.33336 c 0,-0.73334 -0.63541,-1.33334 -1.41202,-1.33334 -0.77662,0 -1.04121,0.6 -0.58798,1.33334 0.45322,0.73333 1.08863,1.33333 1.41202,1.33333 0.32339,0 0.58798,-0.6 0.58798,-1.33333 z M 881.2066,448.80114 c 13.78442,-9.19312 48.20335,-36.44695 70.74737,-56.01967 23.1158,-20.06912 38.1228,-34.98562 58.46743,-58.11479 43.4931,-49.44612 63.8982,-67.37081 113.4799,-99.68572 28.1065,-18.31844 47.7461,-29.42493 62.3081,-35.2361 13.5716,-5.41594 14.9684,-6.79352 5.7907,-5.71096 -25.2013,2.97262 -46.9645,13.22675 -79.4215,37.42088 -29.6804,22.12445 -58.0098,48.95312 -99.8339,94.54524 -28.4026,30.96141 -46.30544,48.64549 -71.90142,71.02278 -18.94277,16.56073 -49.68493,41.42697 -64.5099,52.17977 -5.31667,3.85627 -9.66667,7.26326 -9.66667,7.57109 0,1.41451 2.61315,-0.0183 14.53989,-7.97252 z m -203.72473,-27.1903 c -1.55854,-2.91218 -11.28724,-11.98564 -22.41258,-20.90309 -4.54524,-3.64321 -8.07017,-6.81793 -7.83317,-7.05493 0.602,-0.60199 14.75593,7.84705 22.76392,13.58869 l 6.66666,4.77992 0.66667,-13.0107 c 1.38394,-27.00907 -1.61039,-77.61465 -5.48372,-92.67738 -1.53985,-5.98821 -0.92365,-5.92994 -24.51628,-2.31835 -60.9922,9.33676 -118.2438,25.13453 -178.63207,49.29099 -32.26658,12.90725 -30.51162,11.72652 -23.05909,15.51401 3.38015,1.71784 10.70906,4.93609 16.28648,7.15168 9.67163,3.84198 11.05078,4.02834 29.81252,4.02834 47.92116,0 97.7701,11.79518 148.82911,35.21571 5.81366,2.6667 11.14029,4.65854 11.83695,4.42632 2.54163,-0.84721 -22.73637,-16.4659 -42.97134,-26.55099 -11.42308,-5.69325 -20.0773,-10.36779 -19.23161,-10.38787 3.55636,-0.0844 30.21522,10.03404 43.79571,16.62284 8.06667,3.91367 20.96667,11.06618 28.66667,15.89446 7.7,4.82828 14.47111,8.77888 15.04691,8.77911 0.57581,2.3e-4 0.47152,-1.07471 -0.23174,-2.38876 z m 258.11962,-64.10548 c 11.27864,-5.96203 30.86396,-21.21273 45.53906,-35.46038 1.50122,-1.4575 -1.5461,-2.55693 -18,-6.49418 -24.34242,-5.82489 -83.95327,-16.55244 -85.12922,-15.31982 -1.50236,1.57476 -7.69332,34.599 -9.36275,49.94347 -2.73834,25.16938 -2.88898,27.1647 -2.04747,27.12004 0.40275,-0.0214 3.43227,-3.76616 6.73227,-8.32174 12.33375,-17.02647 29.36416,-34.71969 31.4303,-32.65354 0.33556,0.33555 -2.49114,5.35101 -6.28156,11.14545 -8.79222,13.44076 -17.14874,27.05164 -17.14874,27.93144 0,0.37534 5.49385,-4.10635 12.20855,-9.95933 12.46159,-10.86233 30.77168,-24.61747 34.85547,-26.18457 4.49917,-1.7265 2.17405,2.60862 -6.77131,12.62488 -12.45836,13.94983 -21.62604,24.92114 -21.62604,25.88069 0,0.44197 5.07065,-2.38007 11.2681,-6.2712 6.19746,-3.89113 17.14746,-10.18267 24.33334,-13.98121 z m -610.1804,-51.57952 c -1.37778,-5.82587 -4.43348,-19.89249 -6.79045,-31.25916 -5.08662,-24.53061 -6.07354,-26.98058 -7.22945,-17.9466 -0.46539,3.6373 -1.05964,8.07731 -1.32056,9.8667 -0.72341,4.96132 1.61411,19.27796 4.47795,27.42608 2.51138,7.14534 11.92556,23.94747 12.88187,22.99116 0.26714,-0.26713 -0.64157,-5.25232 -2.01936,-11.07818 z M 698.55178,263.8274 c -12.01716,-32.70153 -23.1294,-55.54381 -35.59101,-73.16072 -6.63922,-9.38583 -22.72077,-26.01775 -23.95927,-24.77925 -0.41959,0.41959 0.1554,1.81657 1.27775,3.1044 1.12236,1.28783 5.6139,9.24151 9.98121,17.67485 4.3673,8.43333 14.85014,27.03333 23.2952,41.33333 8.44505,14.3 18.5543,31.84554 22.46499,38.99008 3.91069,7.14455 7.33355,12.76687 7.60637,12.49405 0.27281,-0.27281 -2.01104,-7.31835 -5.07524,-15.65674 z m 21.91276,-58.16072 c -3.61127,-8.73938 -14.18314,-25.58207 -22.88208,-36.45485 -21.72813,-27.15791 -52.92544,-45.29128 -100.83381,-58.60944 -12.87225,-3.57839 -9.41968,-1.32677 7.25138,4.72904 19.13174,6.94967 40.7441,18.08761 53.79042,27.72091 18.20639,13.44347 40.60067,36.54043 58.12387,59.94767 3.15669,4.21667 5.93674,7.66667 6.17788,7.66667 0.24114,0 -0.49131,-2.25 -1.62766,-5 z m 248.07281,-95.33334 c 8.60458,-13.360455 -1.95958,-44.88279 -17.73963,-52.933173 -8.08675,-4.125551 -18.70782,-4.156687 -22.79767,-0.06683 -3.88717,3.88717 -3.36854,4.840026 3.58776,6.591642 4.21281,1.0608 7.77125,3.179833 10.9012,6.491621 4.9565,5.244444 12.22093,19.710524 14.8559,29.5834 3.40893,12.77278 7.30484,16.36966 11.19244,10.33334 z"
       id="path1" />
  </g>
</svg>
