<?xml version="1.0" encoding="UTF-8" standalone="no"?>
<!DOCTYPE svg PUBLIC "-//W3C//DTD SVG 1.1//EN" "http://www.w3.org/Graphics/SVG/1.1/DTD/svg11.dtd">
<svg width="100%" height="100%" viewBox="0 0 512 512" version="1.1" xmlns="http://www.w3.org/2000/svg" xmlns:xlink="http://www.w3.org/1999/xlink" xml:space="preserve" xmlns:serif="http://www.serif.com/" style="fill-rule:evenodd;clip-rule:evenodd;stroke-linejoin:round;stroke-miterlimit:2;">
    <g id="Layer1">
        <g transform="matrix(1.25,0,0,1.25,20.7288,58.9362)">
            <path d="M187.575,219.571L187.575,173.227L167.575,173.227L167.316,173.226C145.359,173.087 127.575,155.218 127.575,133.227L187.575,133.227L187.575,129.227L127.575,129.227L127.316,129.226C105.359,129.087 87.575,111.218 87.575,89.227L187.575,89.227L187.575,85.227L87.575,85.227L87.316,85.226C65.359,85.087 47.575,67.218 47.575,45.227L251.575,45.227L255.41,45.409C274.344,47.213 289.446,62.24 291.368,81.14L291.575,85.227L291.575,105.227C291.575,94.879 283.698,86.355 273.619,85.33L271.575,85.227L227.575,85.227L227.575,219.571L187.575,219.571Z"/>
        </g>
        <g id="THOR" transform="matrix(1.25,0,0,1.25,-394.01,185.167)">
            <path d="M432.89,168.067L432.89,134.979L419.77,134.979L419.77,123.267L461.114,123.267L461.114,134.979L447.994,134.979L447.994,168.067L432.89,168.067Z" style="fill-rule:nonzero;"/>
            <path d="M494.074,123.267L509.178,123.267L509.178,168.067L494.074,168.067L494.074,123.267ZM480.122,168.067L465.018,168.067L465.018,123.267L480.122,123.267L480.122,168.067ZM495.098,151.555L479.098,151.555L479.098,139.139L495.098,139.139L495.098,151.555Z" style="fill-rule:nonzero;"/>
            <path d="M540.026,169.091C536.357,169.091 532.976,168.515 529.882,167.363C526.789,166.211 524.112,164.579 521.85,162.467C519.589,160.355 517.829,157.869 516.57,155.011C515.312,152.152 514.682,149.037 514.682,145.667C514.682,142.253 515.312,139.128 516.57,136.291C517.829,133.453 519.589,130.979 521.85,128.867C524.112,126.755 526.789,125.123 529.882,123.971C532.976,122.819 536.336,122.243 539.962,122.243C543.632,122.243 547.002,122.819 550.074,123.971C553.146,125.123 555.813,126.755 558.074,128.867C560.336,130.979 562.096,133.453 563.354,136.291C564.613,139.128 565.242,142.253 565.242,145.667C565.242,149.037 564.613,152.152 563.354,155.011C562.096,157.869 560.336,160.355 558.074,162.467C555.813,164.579 553.146,166.211 550.074,167.363C547.002,168.515 543.653,169.091 540.026,169.091ZM539.962,156.867C541.37,156.867 542.682,156.611 543.898,156.099C545.114,155.587 546.181,154.851 547.098,153.891C548.016,152.931 548.73,151.757 549.242,150.371C549.754,148.984 550.01,147.416 550.01,145.667C550.01,143.917 549.754,142.349 549.242,140.963C548.73,139.576 548.016,138.403 547.098,137.443C546.181,136.483 545.114,135.747 543.898,135.235C542.682,134.723 541.37,134.467 539.962,134.467C538.554,134.467 537.242,134.723 536.026,135.235C534.81,135.747 533.744,136.483 532.826,137.443C531.909,138.403 531.194,139.576 530.682,140.963C530.17,142.349 529.914,143.917 529.914,145.667C529.914,147.416 530.17,148.984 530.682,150.371C531.194,151.757 531.909,152.931 532.826,153.891C533.744,154.851 534.81,155.587 536.026,156.099C537.242,156.611 538.554,156.867 539.962,156.867Z" style="fill-rule:nonzero;"/>
            <path d="M570.746,168.067L570.746,123.267L592.314,123.267C596.496,123.267 600.112,123.949 603.162,125.315C606.213,126.68 608.57,128.632 610.234,131.171C611.898,133.709 612.73,136.707 612.73,140.163C612.73,143.619 611.898,146.595 610.234,149.091C608.57,151.587 606.213,153.496 603.162,154.819C600.112,156.141 596.496,156.803 592.314,156.803L579.13,156.803L585.85,150.595L585.85,168.067L570.746,168.067ZM597.562,168.067L586.554,151.747L602.554,151.747L613.69,168.067L597.562,168.067ZM585.85,152.259L579.13,145.411L591.354,145.411C593.445,145.411 594.992,144.941 595.994,144.003C596.997,143.064 597.498,141.784 597.498,140.163C597.498,138.541 596.997,137.261 595.994,136.323C594.992,135.384 593.445,134.915 591.354,134.915L579.13,134.915L585.85,128.067L585.85,152.259Z" style="fill-rule:nonzero;"/>
        </g>
        <g id="VG" transform="matrix(1.25,0,0,1.25,-142.389,252.817)">
            <path d="M422.058,91.162L412.394,68.762L417.994,68.762L426.442,88.602L423.146,88.602L431.722,68.762L436.874,68.762L427.178,91.162L422.058,91.162Z" style="fill-rule:nonzero;"/>
            <path d="M449.29,91.546C447.519,91.546 445.893,91.264 444.41,90.698C442.927,90.133 441.637,89.328 440.538,88.282C439.439,87.237 438.586,86.01 437.978,84.602C437.37,83.194 437.066,81.648 437.066,79.962C437.066,78.277 437.37,76.73 437.978,75.322C438.586,73.914 439.445,72.688 440.554,71.642C441.663,70.597 442.965,69.792 444.458,69.226C445.951,68.661 447.594,68.378 449.386,68.378C451.37,68.378 453.157,68.709 454.746,69.37C456.335,70.032 457.674,70.992 458.762,72.25L455.434,75.322C454.623,74.469 453.738,73.834 452.778,73.418C451.818,73.002 450.773,72.794 449.642,72.794C448.554,72.794 447.562,72.965 446.666,73.306C445.77,73.648 444.997,74.138 444.346,74.778C443.695,75.418 443.194,76.176 442.842,77.05C442.49,77.925 442.314,78.896 442.314,79.962C442.314,81.008 442.49,81.968 442.842,82.842C443.194,83.717 443.695,84.48 444.346,85.13C444.997,85.781 445.765,86.277 446.65,86.618C447.535,86.96 448.511,87.13 449.578,87.13C450.602,87.13 451.599,86.965 452.57,86.634C453.541,86.304 454.485,85.744 455.402,84.954L458.346,88.698C457.13,89.616 455.717,90.32 454.106,90.81C452.495,91.301 450.89,91.546 449.29,91.546ZM453.61,88.026L453.61,79.61L458.346,79.61L458.346,88.698L453.61,88.026Z" style="fill-rule:nonzero;"/>
        </g>
    </g>
</svg>
