<?xml version="1.0" encoding="UTF-8"?>
<!-- Generator: Adobe Illustrator 23.1.0, SVG Export Plug-In . SVG Version: 6.00 Build 0)  -->
<svg version="1.1" id="svg2" inkscape:version="0.48.2 r9819" sodipodi:docname="Flag_of_the_United_Nations.svg" xmlns:cc="http://creativecommons.org/ns#" xmlns:dc="http://purl.org/dc/elements/1.1/" xmlns:inkscape="http://www.inkscape.org/namespaces/inkscape" xmlns:rdf="http://www.w3.org/1999/02/22-rdf-syntax-ns#" xmlns:sodipodi="http://sodipodi.sourceforge.net/DTD/sodipodi-0.dtd" xmlns:svg="http://www.w3.org/2000/svg" xmlns="http://www.w3.org/2000/svg" xmlns:xlink="http://www.w3.org/1999/xlink" x="0px" y="0px" viewBox="0 0 466.2 395.8" style="" xml:space="preserve">
<style type="text/css">
	.st0{fill:#418FDE;}
</style>
<g id="g3320" transform="translate(1.889225,-2.1891937)">
	<g>
		<g>
			<g>
				<g>
					<path class="st0" d="M35.8,244l1.2,1c-1.3-9-2-18.8,0.6-27.4c3.9-13.8,8.8-27.2,11.3-41.5c2-11.1,4.3-23.6,3-34.3       c-1.5,5.8-3,11.5-6.2,16.5c-12.1,18.7-24.5,40.7-16,64.5c-0.2,0.3-0.5,0.6-0.8,0.4c-3.4-7.9-4.2-16.8-6.4-25.2       c-5.9-22.3-23-41-18-66.8c-2.7,5.6-3.7,11.9-5.1,18c-3,15.8,0,32.5,4.3,47.1C9,214.4,26.7,227.4,35.8,244z"/>
					<path class="st0" d="M31.2,128.2c4-8.2,10.5-16,18.3-21.8c17.2-13,36-29.8,36.3-51.8C80,70.4,62.7,77,51.2,87.8       c-6.1,5.7-10.8,12.6-13.5,19.8l-0.4-0.3c1.4-6.4,4.1-12.1,6-18.3c5-16.8,4.1-36.9,20.5-48.2C55.4,43,48.3,48.4,42,55.4l0,0       C28.7,70.1,29.9,91.8,31.6,111C32.2,117,31.9,122.1,31.2,128.2z"/>
					<path class="st0" d="M51.2,80.3c9.2-8.6,19.8-15,27.6-25.2c9.3-12.3,17.4-26.1,29.6-36.7c-16.5,6.4-34.3,13-45,30       C57.1,58.3,56.1,70,51.2,80.3z"/>
					<path class="st0" d="M58.1,123.8c4-8.1,6.5-17.3,7.6-26.2c-1.5,3.8-3.8,7.3-7,10.3C45.3,120.6,29.6,133,26.6,151       c-0.4,2.6-0.7,5.2-1.4,7.7c-0.6,0.3-0.6-0.4-0.8-0.6l1.7-22.2c1.6-21.7-9.8-45.8,2.7-64.9c-0.4-0.1-0.7,0.3-1,0.4       c-11.4,14.5-19,30.5-19,50c0,24.1,13.9,41,15.6,63.6C28,161.4,47.8,144.6,58.1,123.8z"/>
					<path class="st0" d="M31.6,271.9C44.5,282.1,59.9,290,71.7,299c-2.3-5.9-6.1-11.3-7.6-17.4c-6.9-27.9-3.1-60.3-15-86.1       c2.2,14.7-3.6,27.7-4.9,41.7c-1.1,11.5,0.9,22.7,5.4,32.3c1.3,2.9,3.7,5.4,4.4,8.4c-4.3-3.9-7.4-8.8-10.3-13.6       c-13.9-22.5-43-37.1-45-64.5l0,0c-1,12.2,0.1,25.1,4.1,35.9C8.3,250.5,19.1,262,31.6,271.9z"/>
					<path class="st0" d="M207,345.8c-22.5,0-42.7,10.9-62.4,19.1c-17.9,7.4-41.6,6-57.5-5c7.8,9.8,18.3,15.9,29.2,20       c20.1,8,43.6,1.9,60.8-9.1c12.3-7.9,22.9-19.1,37.6-19.1c23.7,0,48.6,24.3,69.9,46.3c3.3-2.7,6.8-5.5,9.5-8.6       C271.8,368.2,240.3,345.8,207,345.8z"/>
					<path class="st0" d="M166.8,348.2c3.5-0.9,7.7-0.6,10.9-1.8c-13.4-2.7-26.3-6.8-36.7-16.3c-14.9-13.6-28.1-28.1-44-38.7       c12.5,16.8,16,41.2,38.8,49.7c4,1.5,8.7,1.8,12.2,4c-4.4,0.7-8.2-0.7-12.3-1.6c-29.4-6.3-65.2,1.8-87.2-23.2       c8.3,16.4,25.5,29.3,42.1,34.7C116.1,363.6,142.8,354.1,166.8,348.2z"/>
					<path class="st0" d="M117.6,335.9c-19.1-15.4-22-38.5-30.5-58.7c-5.3-12.6-13.9-23.9-23.1-34.9c10.1,20.2,5.7,46.2,18.8,65.2       c4.1,6,9.8,11.7,15.1,16.4l-0.2,0.3c-4.8-2.2-9.1-5.6-13.5-9.2c-22.9-19.1-57.4-21.5-71.1-52.6l0,0c3.7,22.8,21.8,43,41.4,55.8       C73.1,330.4,97,329.1,117.6,335.9z"/>
				</g>
				<g>
					<path class="st0" d="M383.7,55.1c7.8,10.3,18.4,16.6,27.6,25.2c-4.9-10.3-5.9-22-12.1-31.9c-10.7-17-28.5-23.6-45-30       C366.2,29,374.3,42.7,383.7,55.1z"/>
					<path class="st0" d="M419.2,89c1.8,6.1,4.5,11.9,6,18.3l-0.4,0.3c-2.7-7.2-7.4-14.1-13.5-19.8c-11.5-10.9-28.8-17.4-34.5-33.3       c0.3,22.1,19.1,38.9,36.3,51.8c7.7,5.8,14.3,13.6,18.3,21.8c-0.7-6.1-1-11.2-0.4-17.1c1.8-19.3,2.9-40.9-10.3-55.6l0,0       c-6.3-7-13.4-12.5-21.8-14.6C415.1,52.1,414.2,72.2,419.2,89z"/>
					<path class="st0" d="M436.4,135.8l1.7,22.2c-0.2,0.2-0.2,0.8-0.8,0.6c-0.7-2.5-1-5.1-1.4-7.7c-3-17.9-18.8-30.4-32.1-43.1       c-3.2-3-5.5-6.5-7-10.3c1.1,8.9,3.6,18.1,7.6,26.2c10.3,20.8,30.1,37.6,33.7,61.3c1.7-22.7,15.6-39.5,15.6-63.6       c0-19.5-7.6-35.5-19-50c-0.3-0.2-0.6-0.5-1-0.4C446.2,90.1,434.7,114.2,436.4,135.8z"/>
					<path class="st0" d="M440,197.9c-2.2,8.4-3,17.4-6.4,25.2c-0.3,0.2-0.6-0.2-0.8-0.4c8.5-23.8-3.9-45.7-16-64.5       c-3.2-4.9-4.7-10.7-6.2-16.5c-1.3,10.8,1,23.2,3,34.3c2.6,14.3,7.4,27.7,11.3,41.5c2.6,8.6,1.9,18.3,0.6,27.4l1.2-1       c9-16.6,26.8-29.6,32.2-47.8c4.3-14.5,7.3-31.3,4.3-47.1l0,0c-1.4-6.1-2.5-12.4-5.1-18C463,156.9,445.9,175.6,440,197.9z"/>
					<path class="st0" d="M317.8,364.9c-19.8-8.2-39.9-19.1-62.4-19.1c-33.2,0-64.8,22.5-86.9,43.6c2.7,3.1,6.2,6,9.5,8.6       c21.2-21.9,46.2-46.3,69.9-46.3c14.7,0,25.3,11.2,37.6,19.1c17.1,10.9,40.6,17.1,60.8,9.1c10.8-4.1,21.3-10.2,29.2-20       C359.5,370.8,335.7,372.3,317.8,364.9z"/>
					<path class="st0" d="M463.9,199.6L463.9,199.6L463.9,199.6z"/>
					<path class="st0" d="M418.9,264.1c-3,4.8-6,9.8-10.3,13.6c0.7-2.9,3.1-5.5,4.4-8.4c4.5-9.7,6.5-20.8,5.4-32.3       c-1.4-14-7.2-27-4.9-41.7c-12,25.8-8.1,58.2-15,86.1c-1.5,6.2-5.3,11.6-7.6,17.4c11.8-9,27.2-16.9,40.1-27.1       c12.5-9.8,23.3-21.4,29-36.4c4.1-10.8,5.1-23.7,4.1-35.9C462,227,432.8,241.6,418.9,264.1z"/>
					<path class="st0" d="M378.1,315c-4.4,3.6-8.7,7-13.5,9.2l-0.2-0.3c5.3-4.8,11-10.5,15.1-16.4c13.1-19,8.7-45.1,18.8-65.2       c-9.2,11-17.8,22.3-23.1,34.9c-8.5,20.2-11.4,43.3-30.5,58.7c20.6-6.8,44.5-5.5,63-17.6c19.5-12.8,37.6-33,41.4-55.8       C435.5,293.5,401.1,295.9,378.1,315z"/>
					<path class="st0" d="M449.2,262.4L449.2,262.4L449.2,262.4z"/>
					<path class="st0" d="M326.8,343.6c-4.1,0.9-7.9,2.2-12.3,1.6c3.5-2.2,8.1-2.5,12.2-4c22.8-8.6,26.3-33,38.8-49.7       c-15.9,10.6-29.1,25.1-44,38.7c-10.4,9.5-23.3,13.5-36.7,16.3c3.2,1.2,7.4,0.9,10.9,1.8c24.1,6,50.7,15.4,76.3,6.9       c16.5-5.5,33.7-18.4,42.1-34.7C392,345.4,356.1,337.4,326.8,343.6z"/>
				</g>
			</g>
			<path class="st0" d="M231.2,2.2c-91,0-165,74-165,165s74,165,165,165s165-74,165-165S322.2,2.2,231.2,2.2z M231.2,198.7     c-17.4,0-31.5-14.1-31.5-31.5s14.1-31.5,31.5-31.5s31.5,14.1,31.5,31.5S248.6,198.7,231.2,198.7z M254.9,140.7     c-5.8-5.2-13.3-8.5-21.6-9v-27c15.7,0.5,30,6.8,40.7,16.9L254.9,140.7z M229.2,131.7c-8.3,0.5-15.8,3.8-21.6,9l-19.1-19.1     c10.7-10.1,25-16.4,40.7-16.9L229.2,131.7L229.2,131.7z M204.8,143.6c-5.2,5.8-8.5,13.3-9,21.6h-27c0.5-15.7,6.8-30,16.9-40.7     L204.8,143.6z M195.8,169.2c0.5,8.3,3.8,15.8,9,21.6l-19.1,19.1c-10.1-10.7-16.4-25-16.9-40.7L195.8,169.2L195.8,169.2z      M207.6,193.7c5.8,5.2,13.3,8.5,21.6,9v27c-15.7-0.5-30-6.8-40.7-16.9L207.6,193.7z M233.2,202.6c8.3-0.5,15.8-3.8,21.6-9     l19.1,19.1c-10.7,10.1-25,16.4-40.7,16.9V202.6z M257.7,190.8c5.2-5.8,8.5-13.3,9-21.6h27c-0.5,15.7-6.8,30-16.9,40.7     L257.7,190.8z M266.7,165.2c-0.5-8.3-3.8-15.8-9-21.6l19.1-19.1c10.1,10.7,16.4,25,16.9,40.7H266.7z M276.8,118.8     c-11.5-10.8-26.7-17.6-43.6-18.1v-30c25.1,0.5,47.9,10.7,64.8,26.9L276.8,118.8z M229.2,100.7c-16.8,0.5-32.1,7.3-43.6,18.1     l-21.2-21.2c16.9-16.2,39.7-26.4,64.8-26.9L229.2,100.7L229.2,100.7z M182.8,121.6c-10.8,11.5-17.6,26.7-18.1,43.6h-30     c0.5-25.1,10.7-47.9,26.9-64.8L182.8,121.6z M164.8,169.2c0.5,16.8,7.3,32.1,18.1,43.6L161.6,234c-16.2-16.9-26.4-39.7-26.9-64.8     H164.8z M185.7,215.6c11.5,10.8,26.7,17.6,43.6,18.1v30c-25.1-0.5-47.9-10.7-64.8-26.9L185.7,215.6z M233.2,233.6     c16.8-0.5,32.1-7.3,43.6-18.1l21.2,21.2c-16.9,16.2-39.7,26.4-64.8,26.9V233.6z M279.6,212.7c10.8-11.5,17.6-26.7,18.1-43.6h30     c-0.5,25.1-10.7,47.9-26.9,64.8L279.6,212.7z M297.7,165.2c-0.5-16.8-7.3-32.1-18.1-43.6l21.2-21.2     c16.2,16.9,26.4,39.7,26.9,64.8H297.7z M300.8,94.8c-17.6-16.9-41.4-27.5-67.6-28V40.2c33.5,0.5,63.9,14.1,86.3,35.8L300.8,94.8z      M229.2,66.7c-26.2,0.5-50,11.1-67.6,28L142.9,76c22.4-21.7,52.8-35.3,86.3-35.8V66.7z M158.8,97.6c-16.9,17.6-27.5,41.4-28,67.6     h-26.5c0.5-33.5,14.1-63.9,35.8-86.3L158.8,97.6z M130.8,169.2c0.5,26.2,11.1,50,28,67.6l-18.7,18.7     c-21.7-22.4-35.3-52.8-35.8-86.3L130.8,169.2L130.8,169.2z M161.6,239.6c17.6,16.9,41.4,27.5,67.6,28v26.5     c-33.5-0.5-63.9-14.1-86.3-35.8L161.6,239.6z M233.2,267.7c26.2-0.5,50-11.1,67.6-28l18.7,18.7c-22.4,21.7-52.8,35.3-86.3,35.8     V267.7z M303.7,236.8c16.9-17.6,27.5-41.4,28-67.6h26.5c-0.5,33.5-14.1,63.9-35.8,86.3L303.7,236.8z M331.7,165.2     c-0.5-26.2-11.1-50-28-67.6l18.7-18.7c21.7,22.4,35.3,52.8,35.8,86.3H331.7z M322.4,73.2c-23.2-22.5-54.5-36.5-89.2-37v-30     C276.1,6.7,315,24.1,343.6,52L322.4,73.2z M229.2,36.2c-34.6,0.5-66,14.5-89.2,37L118.9,52c28.6-27.9,67.5-45.3,110.4-45.8v30     H229.2z M137.2,76c-22.5,23.2-36.5,54.5-37,89.2h-30c0.5-42.9,17.9-81.8,45.8-110.4L137.2,76z M100.3,169.2     c0.5,34.6,14.5,66,37,89.2L116,279.5C88.1,251,70.8,212.1,70.3,169.2H100.3z M140.1,261.2c23.2,22.5,54.5,36.5,89.2,37v30     c-42.9-0.5-81.8-17.9-110.4-45.8L140.1,261.2z M233.2,298.2c34.6-0.5,66-14.5,89.2-37l21.2,21.2c-28.6,27.9-67.5,45.3-110.4,45.8     L233.2,298.2L233.2,298.2z M325.2,258.3c22.5-23.2,36.5-54.5,37-89.2h30c-0.5,42.9-17.9,81.8-45.8,110.4L325.2,258.3z      M362.2,165.2c-0.5-34.6-14.5-66-37-89.2l21.2-21.2c27.9,28.6,45.3,67.5,45.8,110.4H362.2z"/>
			<g>
				<polygon id="polygon59_9_" class="st0" points="240.7,129 239.7,129.1 239.7,130.3 240.7,130.2     "/>
				<rect id="rect61_9_" x="238.2" y="127.4" class="st0" width="1.3" height="1"/>
				<polygon id="polygon63_9_" class="st0" points="235.8,127.1 237,127.3 237.1,126.3 235.9,126.1     "/>
				<polygon id="rect65_9_" class="st0" points="234.8,126.7 233.7,126.6 233.8,125.6 235,125.7     "/>
				<rect id="rect67_9_" x="225.2" y="125.4" class="st0" width="1.3" height="1"/>
				<polygon id="polygon69_9_" class="st0" points="222.3,127.4 223.5,127.6 223.6,126.6 222.5,126.4     "/>
				<polygon id="rect71_9_" class="st0" points="222.5,129 221.1,128.6 221.4,127.6 222.7,128     "/>
				<polygon id="rect73_9_" class="st0" points="220.1,130.2 219.9,129.2 220.9,129 221.1,130     "/>
				<polygon id="polygon75_9_" class="st0" points="89.6,233.7 89.6,235.9 90.6,235.9 90.4,233.4 89.1,232.9 89.1,232 88.3,232       88.3,233.7     "/>
				<polygon id="polygon77_9_" class="st0" points="96.6,239.8 99.1,241 99.9,243.3 101.1,244.2 102.2,246.7 101.6,247.9       99.7,246.2 98.4,244.3 97.7,242.8     "/>
				<polygon id="polygon79_9_" class="st0" points="138.6,291.7 139.5,293.9 138.3,294.6 137.6,293.6 136,293.1 135.8,291.6       134.5,289.6 136.5,289.9     "/>
				<path id="path81_9_" inkscape:connector-curvature="0" class="st0" d="M226.1,139.9h-1.8l-0.3-3.7l1-0.7v-1.9h-5.8l-0.2-1.9      l0.8-0.5l-1.3-0.5l-1,1.3l-0.3,1.5l-1.7,0.3v0.8h-1.2v2.2l-4.7,3.9l-9.3-0.3c-0.7,1.5-2.3-0.2-2.3-0.2c-0.3-1-2.7,0-2.7,0      c0,1.9-3.2-0.8-3.2-0.8l-5.8-4.2c-3.3-3-8.3,0.8-8.5,1.7c0.2,2.4-3.8,0.5-3.8,0.5s-3.3-1-3.8,0.3s-2.7,1-2.7,1l-0.3,0.7      l-1.7,0.3l-0.3,1l-2,0.3l5-0.2c1.3-0.2-0.5,2.9-1.3,2.7l-2.3,0.2l-0.8,0.8h-2.2l-1,1.4l-3.2-0.2c0,0-1.8,1.5-1.7,2      c0.2,0.5-0.3,2-0.8,2s-1.5,1.5-1.2,2s-1,2.2-1,2.2l-0.3,1.7l-1,0.3v4.6l-2,1.4v2l-3,3.2l0.3,2.7l-2.5,2.7l0.3,2.7l-1.5,0.5      l-0.3,1.2l-0.7,3.5l1.7,0.2c0.8-0.3,0.7,2.2,0,2.5s-2.5,1-1.5,1.7s-2.7,0.5-2.7-0.5s-2-1.9-2.5-1.5c-0.5,0.3-1.3-1.5-1.3-1.5      c-1.8-1.9-7.5,0.2-7.5,0.2l-0.8,2.7c-1.8,0.3-3,3.4-3,3.4c-1.5,0.5-2.7,2.4-2.2,2.9s-0.8,0.7-0.8,0.7v3.7l-0.8,1.2l0.2,4      c1,0,0.8,1.9,0.8,1.9c-1.7,0.2-1.3,2.4-1.3,2.4l-3.5,1.2l-0.7,1l-4.3-0.2l-1.2,1.2l-1.2-1.2h-8.3l-0.3-0.8l-1.7-0.3l-0.2-1.9      l-2.5,0.2l-0.5,1l-2.7,0.2c0.2,1.7-2.7,4.2-3,3.5s-2.2-2.5-1.3-2.9c0.8-0.3,3-0.7,3-0.7v-1.2l-6.2-0.2l-0.7,1l-2.5,0.2v2.7      l-1.2,0.3c-0.8,0.5,0.2,2.4,0.2,2.4c1.2,1.2-0.2,3-0.2,3c-1,1,0.8,2.9,0.8,2.9c1.3,0.3-0.8,1.3-0.8,1.3c0.3,1.7,1.3,2.2,1.3,2.2      c-1,1.7,0.7,2.5,0.7,2.5l0.2,2.9l1.2,0.7v1.9l0.7,1.2h2.7l-0.2-4.2c-2.3-2.7,2-3.4,2.2-2.4s2,1.5,2,1.5c0.3,2.5,3.2,4,4,1.5      s1.5-1,2,0.2s3.7,4.1,3.7,4.1h2.5l0.3,2.4c2.8-0.2,3.7,0.2,4.8,4c1.2,3.9,4.3,4.9,4.3,4.9l2.3-0.2c0-2,2.3,0.3,2.3,1.4      c0,1,4.5,4.9,4.5,4.9l4.5,1l4.2,3.4l3.2-0.3h1.3c0.8-2.9,4.8,0.2,5.2,1.2c0.3,1,3,2.7,3.3,1.9s2.2-0.3,2.5,2.2      c0.3,2.5,1.5,2,1.5,2l9.5-0.2l3.3-2.9l8.5-0.2c4.3-0.2,1.7-6.1,0.8-6.1c-1.5-1.2,0.5-6.1,0.5-6.1L159,231.2      c-2.8,0-0.3-4.1-0.3-4.1c2.2-1.4-0.5-3.5-0.5-3.5c0.3-2-1.2-4.4-1.2-4.4c-3-2-2.2-5.9-2.2-5.9v-2.7c-2.5-2.4,1-2.7,1-2.7      c1.2-2-0.8-3.5-0.8-3.5l-0.2-2.2l-2.7-0.3l-0.3-7.9l-6-8.6c-1.2-0.3-0.3-2.4-0.3-2.4c1.5-0.8-0.3-2.9-0.3-2.9l-0.2-3.7l3.5-0.3      l0.8-1.3h1.7l-0.2-4.4c0.8-2.2,2.8-1,2.8-1l2.3,0.2l1.3-2.5l0.3-2l-1.8-0.2c-2-1.2-1-5.6-1-5.6c3.2-4.7,6.8-2,6.8-2l2.3-0.2      c3.5,2.4,0.3,6.7,0.3,6.7c-0.7,1-0.3,4.2-0.3,4.2l0.8,5.4l-2.2,1.9c-1.8,1-1.8,3.4,0.2,3.9c1.3,0.2,0.8,3.4-1.2,1.2      c-3,0,1.7,2.7,0.3,2c3,1.5,2.3-1.3,2.3-1.3l4-3.2c1.5-1.2,4.2,2.5,4.2,3s6.6,0.2,6.6,0.2c1.8,1.2,2.5,4.2,2.5,4.2      c1.8-2.4,5.7-0.2,2.8,1.2c2.7,1.7,2.7,3.2,2.7,3.2c2.2-0.7,2.2,1,2.2,1.5s0.7-2.5,0.7-2.5c-2.5-1.9,3.3-2.5,1.7,0.8l-1,1.5      l1.7,1.3l0.2,3.9c3.7-0.3,2.7-4.9,2.7-4.9l1.7-0.3c0-1.5,1.2-0.7,1.2-0.7c-1.2-5.7,2.7-6.7,2.7-6.7c2.2-0.5,2.3-5.1,2.3-5.1      c-1.5-0.7-0.7-3,1-1s-1-4.1-1-4.1l-1.3-1.2l-1.8-0.2l-0.2-1.9h-3l-0.5,2.4L195,173l-0.3-0.7l-0.5,1.9h-3l-0.2-2l1.8-0.5l0.7-1      l0.5-2.7h2.2l2.8-0.8c0.2-2.9,1.7-2.2,1.7-2.2l1,0.8l1.5,1.2l0.2,1l-1,0.5l-0.2,1.4l0.5,1.9h1.3c0.5-2.7,4-2.7,5-1l1-2.4      c-2.3-1.2,0-3,0.6-2.2c0.7,0.8,2.2-2.2,2.2-2.2s1.2,1.5,0-0.5s0.8-3,0.8-3c-0.3-2,2.2-1.7,2.2-1.7l0.2-2.7l-2.3-0.2      c-0.5,2.4-2.5,0.3-1.5-0.2s2-1.5,2-1.5v-1.7l1-0.3l0.2-1.7h2.5l2.2-1l0.5-0.8l2.3-0.2l3.3-3l-0.3-1.3c-2,0,0-1.5,0-1.5      L226.1,139.9L226.1,139.9z"/>
				<path id="path83_9_" inkscape:connector-curvature="0" class="st0" d="M159.1,173.3l-3-0.3l0.2,1.2h0.8c1.3,2.4,0.2,8.1,0.2,8.1      s-2,0.2-2.3-0.8s-1.2,2.2-0.5,2.7s3,0,3.2,1.9s1.5-1.2,1.5-1.2L159.1,173.3L159.1,173.3z"/>
				<polygon id="polygon85_9_" class="st0" points="156.1,187 156.1,191 158.7,194.6 159.7,192.2 160.1,190.7 158.9,190.2       159.1,187.7 160.1,187.5 160.2,186.3 157.7,188     "/>
				<polygon id="polygon87_9_" class="st0" points="160.4,198.3 160.4,196.6 159.2,196.8 159.1,198.1     "/>
				<polygon id="polygon89_9_" class="st0" points="158.9,206.4 158.9,205.2 157.5,205.4 157.5,206.6     "/>
				<path id="path91_9_" inkscape:connector-curvature="0" class="st0" d="M160.9,201.2c0.4,0,0.7-0.3,0.7-0.7s-0.3-0.7-0.7-0.7      s-0.7,0.3-0.7,0.7S160.5,201.2,160.9,201.2z"/>
				
					<ellipse id="circle93_9_" sodipodi:cx="423.67999" sodipodi:cy="311" sodipodi:rx="0.89999998" sodipodi:ry="0.89999998" class="st0" cx="162" cy="204" rx="0.7" ry="0.7">
				</ellipse>
				
					<ellipse id="circle95_9_" sodipodi:cx="423.73001" sodipodi:cy="286.76001" sodipodi:rx="0.89999998" sodipodi:ry="0.89999998" class="st0" cx="162.1" cy="184.7" rx="0.7" ry="0.7">
				</ellipse>
				<polygon id="polygon97_9_" class="st0" points="215.4,161.8 216.4,161.8 216.6,162.9 215.9,163.5 215.6,164.4 214.3,164.7       211.3,167.6 211.1,168.9 210.3,170.1 209.3,172.6 205.8,172.8 205.1,175.8 205.6,178.4 208.6,179.6 208.9,177.9 209.9,177.4       210.1,175.7 210.8,174.5 211.8,173.3 212.1,172 213.8,171 215.8,170.6 216.6,169.6 216.9,167.6 217.1,166.1 217.8,165       219.8,164.2 219.8,161 218.8,161 218.6,159.8 216.8,159.6 216.4,160.5 215.6,160.5     "/>
				<path id="path99_9_" inkscape:connector-curvature="0" class="st0" d="M223.2,171.3v-2.4l-0.3-2.2l-2.5-1.2l-1.8,1.7l-0.3,2.4      v1.5l-1.7,0.3l-0.3,4.6l-1.3,0.5l0.2,1.7l-1.8,0.5l-1.8,0.5l-0.3,2.2l-1.3,0.8l-0.7,2l-0.8,4.9c0,0,1.5,2.9,2.3,1.5      c0.8-1.3,2.2-1.5,2.2-1.5l0.5-1.2l4.5,0.2c0.3-1.9,2.5-1.2,2.5-0.3c0,0.8,1.7,0.2,1.7,0.2l1.2-1.9h1.8l0.2-2l0.8-0.5v-3      c2.7-0.8,2.3-3.4,2.3-3.4l0.7-0.8l-0.3-1.2c-1.3-0.5-0.7-1.7,0.2-1.4c0.8,0.3-1.2-1.5-1.2-1.5c-1,0.8-1.8-1-1.8-1L223.2,171.3      L223.2,171.3z"/>
				<path id="path101_9_" inkscape:connector-curvature="0" class="st0" d="M225.9,191.7c-0.2,2-2.7,2.7-2.7,2.7l-1.8-0.5l-1-0.8      l-0.2-2.4l1.5-0.2l0.3,1L225.9,191.7L225.9,191.7z"/>
				<path id="path103_9_" inkscape:connector-curvature="0" class="st0" d="M234.9,180.9c0.4,1.5,0.3-2.4,1-2.2s0.2-2.4,0.2-2.4      l-3,2.2C234.5,178.7,234.7,180.2,234.9,180.9z"/>
				<path id="path105_9_" inkscape:connector-curvature="0" class="st0" d="M243.7,172.1c0.7,1.5,0.5,3.7,3,5.4      c0.8,0.6-0.5,1.7-1.3,1.2s-3.2-4.2-3.2-4.2v-2.2C242.7,171,243.4,171.5,243.7,172.1L243.7,172.1z"/>
				<polygon id="polygon107_9_" class="st0" points="243.7,223.4 244.2,223.9 244.7,224.8 245.8,222.9 244.9,222.6     "/>
				<line id="line109_9_" class="st0" x1="239.5" y1="220.7" x2="239.5" y2="222.8"/>
				<polygon id="polygon111_9_" class="st0" points="263.6,218.3 264.9,217.4 264.4,216.6 263,217.4     "/>
				<path id="path113_9_" inkscape:connector-curvature="0" class="st0" d="M311.7,253.5l1.5,0.7l0.2,2.9c2,2,8.5,0.3,8.5-0.2      s-0.3-6.2-0.3-6.2l-0.8-0.8l-0.2-4.2c0.7-2.2-3.2-5.4-3.5-4.7s-2.5,0.2-2.5,0.8c0,0.7-1.3,4-0.7,5.2c0.7,1.2-0.5,1.2-0.7,2.4      C313,250.4,311.3,252.4,311.7,253.5L311.7,253.5z"/>
				<path id="path115_9_" inkscape:connector-curvature="0" class="st0" d="M308,246.7c-0.3,1.3-1.5,2-2.2,1.5s0.8,0.8,1.2,1.5      c0.3,0.7,1.3,0.7,1.7,0c0.3-0.7,0.2-2.2,0.5-2.9C309.5,246.2,308.2,246,308,246.7L308,246.7z"/>
				<rect id="rect117_9_" x="300.3" y="215.8" class="st0" width="1.2" height="3.2"/>
				<path id="path119_9_" inkscape:connector-curvature="0" class="st0" d="M317.5,183.3c-0.7-1,3.3-2.7,4-0.7s0,1.7-0.7,1.5      C320.2,183.9,318.5,184.6,317.5,183.3L317.5,183.3z"/>
				<polygon id="polygon123_9_" class="st0" points="321.1,160.7 320.9,161.7 322.7,162 322.9,161     "/>
				<polygon id="polygon125_9_" class="st0" points="316.4,163.6 316.5,163.9 317.5,163.5 317.1,162.7 316.9,162.1 316.4,162.4       315.2,163.1 314.1,162.4 313.6,163.3 314.9,164.1 315.2,164.3 315.4,164.1     "/>
				<path id="path127_9_" inkscape:connector-curvature="0" class="st0" d="M322.7,122.5h-2.5c0,0,0.8,0.3-1.5-1.9      c-2.3-2.2-3.8,0.5-3.8,0.5l-2.7,0.3v2.7l-1.3,0.5l0.2,1.7l1.8-0.2c0,0,0,2,0.5,1.2c0.5-0.8,4.7,0.2,4.3,2.2      c-0.1,0.8,4.2,3,3.7,5.7c2.2,0.3,1.7,2.5,1.7,2.5l2.8,0.3l0.8-1.7l0.8,0.2v-1l-1.8-0.5l-0.3-5.4l-1.2-0.8l0.3-1.4l-1.3-0.5      l0.7-2.2L322.7,122.5L322.7,122.5z"/>
				<path id="path129_9_" inkscape:connector-curvature="0" class="st0" d="M330,139.7l-1.3-0.2l-3,0.5l-1.7,3.2      c0,0,0.8,0.5,1.5,1.7s1,8.1-1,9.3s0.2,0.5,0.2,0.5l-0.3,3.7c0.5,1.7,1.3,0.8,1.8,0s1-1,1.7-1.9c0.7-0.8,1.7-2.4,1.8-3.5      c0.2-1.2,1-3,0.5-3.5s0.5-2.9,0.5-2.9s0.7-1.4,0-2.7c-0.7-1.4,0.2-2.9,0.7-3.5L330,139.7L330,139.7z"/>
				<polygon id="rect133_9_" class="st0" points="332,146.6 332.1,145.3 333.1,145.4 333,146.8     "/>
				<polygon id="rect135_9_" class="st0" points="331.9,151.3 331,150.8 331.5,149.8 332.4,150.3     "/>
				<path id="path137_9_" inkscape:connector-curvature="0" class="st0" d="M330.5,137.9l-0.7-1.5c0,0,0-1.3,0.3-2s-0.7-1.3-1.2-1.5      s-0.3-1.5-0.5-2.2s-1.3-1.2-1.3-1.2s-0.3-2.5-0.3-3s-1.5-1.2-1-1.7s0.8-1.2,1.3-1.5s-0.5-2.7,0.3-2.2s0.8,1.4,1.2,2      c0.3,0.7-0.2,3,0.7,3.5c0.8,0.5-0.2,2.2,1.2,2.2c1.3,0,0.5,3.2,0.5,3.2s-0.3,2.4,0.5,2.5c0.8,0.2,0.3,4.2,0.3,4.2L330.5,137.9      L330.5,137.9z"/>
				<path id="path139_9_" inkscape:connector-curvature="0" class="st0" d="M319.7,110.6c0.5,0.7,1.5,1.2,1.5,1.9      c0,0.7-0.3,1.2,0.7,1.3c1,0.2,1.7-0.2,2,0.7c0.3,0.8,0.3,2.2,0.2,2.9c-0.2,0.7,0.2,1.7,1,1.7s1,0.2,1,0.7s1-1.9,1-1.9      c-0.8-0.7-1.5-2.2-1.5-2.2s-0.8-2.4-0.8-2.7c0-0.3-1.2-0.7-1.7-0.8c-0.5-0.2-1.3-1.7-1.3-1.7L319.7,110.6L319.7,110.6z"/>
				<path id="path141_9_" inkscape:connector-curvature="0" class="st0" d="M321.3,109c-0.5-0.7-1-1.2-1.7-1.5s-1.2-0.7-1.8-0.7      c-0.7,0-1.3-0.7-1-1.5s-0.5-1.2-0.5-1.9c0-0.7,0.5-0.7,1.3-0.2s0.7,0.7,1.3,1.5c0.7,0.8,1,1.7,1.7,1.5s1.2,1.5,1.8,1      c0.7-0.5,0.5,1.2,0.5,1.2L321.3,109L321.3,109z"/>
				<path id="path143_9_" inkscape:connector-curvature="0" class="st0" d="M301.9,128.1c0.9,0.9-5,0.7-5,0s0.5-3,2-2.5s1.7-3,1.7-3      s-1.3,0.2-0.2-0.5c1.2-0.7,0-1.7-0.5-2.2s-1-1.4-1-1.4h2.3c1-0.7,1.3-3.9,1.3-3.9c2,0.7,3-0.7,3-0.7s0.3,1,1,1.9      c0.7,0.8-1.7,1.2-0.8,1.7c0.8,0.5,1.2,2,0.8,2.5c-0.3,0.5-2.2,0.2-2.2-0.5s-0.7,0.8,0,1.7c0.7,0.8-0.8,2-1.2,2      c-0.3,0-2.5,0.3-0.7,1.4c1.8,1,3.8,0.5,3.8,0.5s1.5-0.2,2,0.7c0.5,0.8-0.2,1-1,1s-4.8-0.3-4.8-0.3S301.4,127.6,301.9,128.1      L301.9,128.1z"/>
				<path id="path145_9_" inkscape:connector-curvature="0" class="st0" d="M291.2,129.6c0.8-0.2,2.8-0.3,3.2,0.2      c0.3,0.5-1.2,1.2-1.2,1.2l-2,0.3C290.6,130.5,290.4,129.8,291.2,129.6L291.2,129.6z"/>
				<path id="path147_9_" inkscape:connector-curvature="0" class="st0" d="M312.7,115.5c1.3-0.7,4.2-0.7,4-1.7s1.7-1.3,1.7-1.3      l0.5,2l1.5,1l0.2,1.9c0,0,0.5-0.3-1.3,0.2s-0.7,1.3-0.7,1.3l-4,0.2l-0.5-1.7L312.7,115.5L312.7,115.5z"/>
				<path id="path149_9_" inkscape:connector-curvature="0" class="st0" d="M306.2,106.3c1,0-0.3,3.9,2.3,3.5      c2.7-0.3,0.2,1.2,2.2,1.3c2,0.2,1.5-1.5,2.2-2.7s0.3-1.9-0.8-2.2c-1.2-0.3-1.2-0.3-1.5-1.7c-0.3-1.3-1.7-1.7-1.7-1.7l-0.5-2      l-2.2,1.3L304,105C304,107.4,305.2,106.3,306.2,106.3L306.2,106.3z"/>
				<polygon id="rect153_9_" class="st0" points="310.6,120.6 311.1,119.6 312,120 311.5,121.1     "/>
				<rect id="rect155_9_" x="308.9" y="119" class="st0" width="1" height="1.2"/>
				<polygon id="rect157_9_" class="st0" points="309.7,96.5 309.9,98 308.9,98.1 308.7,96.6     "/>
				<rect id="rect159_9_" x="306.9" y="112.2" class="st0" width="1" height="0.8"/>
				<polygon id="rect161_9_" class="st0" points="304.2,112.2 304.1,111.2 305.8,111.1 305.9,112.1     "/>
				<polygon id="rect163_9_" class="st0" points="290.5,128.5 289.6,128.1 290.1,126.9 291,127.3     "/>
				<polygon id="rect165_9_" class="st0" points="285.3,125.4 285.2,124.4 286.9,124.2 287,125.2     "/>
				<polygon id="polygon169_9_" class="st0" points="256.5,125.1 252.8,125.2 252.9,126.2 256.5,126.1     "/>
				<polygon id="rect171_9_" class="st0" points="250.4,126.5 250,125 251,124.8 251.3,126.3     "/>
				<polygon id="rect173_9_" class="st0" points="249.7,127.6 249.4,126.6 249.9,126.5 250.2,127.4     "/>
				<path id="path175_9_" inkscape:connector-curvature="0" class="st0" d="M258,124.7l-0.2,1.2l1.8,0.2c0,0,0.8,0.7,0.8,1.2      s1.2,1,1.8,1c0.7,0,2.5-1.4,2.5-1.4s0.8-2.4,0.2-2.2c-0.7,0.2-2,1.2-2.2,0.2s-2.2-0.5-2.2-0.5L258,124.7L258,124.7z"/>
				<path id="path177_9_" inkscape:connector-curvature="0" class="st0" d="M266.3,122.9c0,0.5-0.3,1.2,0.7,1.4c1,0.2,2.8-0.7,3,0.3      s0.2,1.7,1.5,2.2s2.2,0.7,3.2,0.7s3.2-0.3,3.2-0.3s2.4,0.4,2.8,0.8c1.8,1.9,3,2.4,3.5,1.5c0.5-0.8-0.2-2.7-0.3-3.4      c-0.2-0.7-2.5-3.9-3.3-3.2c-0.8,0.7-1,0-2.5,0.5s-4.7,0.2-4.8-0.5c-0.2-0.7-2.5-1-2.5-1.7s-1.7-1.5-1.5-0.5s-1.2,1.5-1.5,1.2      C267.3,121.5,266.3,122.9,266.3,122.9L266.3,122.9z"/>
				<path id="path179_9_" inkscape:connector-curvature="0" class="st0" d="M304.5,101.3l1.2-3.7c-1.7-0.3-1.3-2.2-1.3-2.2      c-0.2-1.5-2.5-3.2-3.3-2.7s-0.5-3.5-0.5-3.5s1.5-1,2.2-0.5s-5.7-8.4-7-7.6s-4.3-0.8-4.2-2.4c0.2-1.5-6-6.6-6-6.6s-2-1.3-2.3-0.3      s-1,1.7,0,2.2s0.8-0.8,2,0.3c1.2,1.2,3.3,2.7,2.5,3.7s-1.8,1.4-1.8,1.4l1.2,1.4h1.8l0.3,2.9c0,0,2,1,2.5,2.2s0.5,1.9,0,2.5      c-0.5,0.7-1.5,1.9-1.3,3c0.2,1.2,1.5,1.7,1.5,1.7l1.3,0.2l1,0.5V96c1.3-0.3,3.5,1.5,3.3,2.7s0.3,0.5,2,1.7s1.2,1.4,2.3,2.2      C303,103.3,304,102.8,304.5,101.3L304.5,101.3z"/>
				<path id="path181_9_" inkscape:connector-curvature="0" class="st0" d="M277.1,78.3c-0.2-0.7-0.5-3,0.5-2.9c1,0.2,0.3,0,1.5,0.5      s1.3-0.8,1.3-0.8h1.8l2.3,1.9l-0.3,1.5l-1.7,0.2c-0.8-1.3-2.5-0.8-2.2,0.3c0.3,1.2-0.8,3.4-1.5,3.5c-0.7,0.2-2.8,0.2-2.7-0.8      C276.4,80.7,277.1,78.3,277.1,78.3L277.1,78.3z"/>
				<path id="path183_9_" inkscape:connector-curvature="0" class="st0" d="M275.8,73.8v-1.3c0,0-0.2-1.3-1-1.3s-2.3-1-2-1.7      s-2.8-1.4-2.8-1.4s-2.8-2.7-1.8-2.4c1,0.3,0.5-1.2,0.5-1.2s-2,0.3-2.5,0.2c-0.5-0.2-0.3-1.7-0.3-1.7s-2-0.5-2,0s0.7,0.5,1,1.5      s0.2,2.7,1.7,3s1.8,0.7,2,1.4c0.2,0.7,2,0.8,2,0.8l1.3,0.7L275.8,73.8L275.8,73.8z"/>
				<polygon id="polygon185_9_" class="st0" points="257.8,56.6 257.3,55.2 256,54.9 256,56.4     "/>
				<path id="path187_9_" inkscape:connector-curvature="0" class="st0" d="M257.3,49.5c-1.7-1.3,2.3,1,2.3,1c1.3,0,2.2,1,2.2,1.5      s1.8,0.3,1.8,0.3l0.2-1.2l-1.3-1.7l-1.2-0.8c0,0-1.8-0.2-1.8-0.7C259.5,47.5,258,50,257.3,49.5L257.3,49.5z"/>
				<path id="path189_9_" inkscape:connector-curvature="0" class="st0" d="M287.9,50.5c-0.5,1.5-0.7,3.5-1.5,3.5s-0.5,2.2-0.5,2.2      s2.2,0,2.8,0.2c0.7,0.2,0.7,1.9,0.7,1.9c2.5-0.2,3.5,3.2,3.2,4.1c-0.3,0.8,1,0.8,1,0.8s0,2.7-0.3,3.4s2.2,1.2,2.8,2.2      c0.7,1-0.3,4.4-0.8,4.6s1.3,0.7,1.2,1.5c-0.2,0.8,0.5,0,0.7,1.4c0.2,1.3,0.5,4.2,0.5,4.2l2.3,0.2c0.3-2.2,4.6-2.3,5.3-2      c2.8,1,5,5.4,5,6.4s-1.8,1.2-1.8,1.2l0.3,4.9c2.8,0.8,5.2,4.9,4.8,5.6c-0.3,0.7,2,0.5,2,0.5c0.3-3,3.2-2,3.3-1      c0.2,1,0.7,3.2,0.7,3.2l0.8,1.5l1.2,1.2l1.8-0.2l0.5,1l2.2,0.3c0,0,1.8,2,2,2.5s2.7,0.3,3.3,0.5c0.7,0.2,1.7,0.7,1.8,1.5      c0.2,0.8,1.2,2.2,1.2,2.2s2,0.5,2.2,1.2s1,2.2,1,2.2l1.7,1.4l0.2,1.5l1.8,0.2l0.5,2l3-0.2l1.7-1.2c2.2-1.2,3.7-2.7,3.8-3.4      c0.2-0.7,0.5-3.2,2.2-2.7s0.5-3.7,0.5-3.7s-2.3-1.7-2.2-2.5c0.2-0.8-2.3-2.5-2.2-3.2c0.2-0.7-2.2-2-2-2.7s-1.2-2.5-1.2-2.5      l-2.5-2.4l-0.3-1.5l-2-0.2l-4-4.9l0.2-1.4l-1.2-0.2v-1.9l-1.2-0.7l-1.8-0.2l-3.7-4l-0.3-1.9h-1.8l0.3-3.5      c1.2-1.5,0.5-4.4,0.5-4.4s-2.3,1.2-3.5,0.7s0.5-1.7,0.5-1.7v-1.3l-1-1c0,0-2.8,0.3-3-0.2s-0.7-2.7-0.7-2.7l-0.2-2.9l-1.2-0.5      l-0.2-1l-1.8,0.2v-2l-1-0.3l-1-0.5l-0.2-2l-3.7-0.2l-1.2-1.7l-1.3-2l-4.2-0.3l-1-1l-1.7-0.3L300,48l-0.5,0.8l-3.2,0.2l-0.2,1      C294.7,50.7,288.1,50,287.9,50.5L287.9,50.5z"/>
				<path id="path191_9_" inkscape:connector-curvature="0" class="st0" d="M305.4,46.1c-0.3-1.3,3.3-2.5,4.2-1.5      c0.8,1,3.2,1.2,3.5,6.2c0.1,1.8-3-1.9-3-1.9l-2.5-0.8C306.2,47.8,305.5,47,305.4,46.1L305.4,46.1z"/>
				<polygon id="rect193_9_" class="st0" points="256.6,48.2 255.7,47.8 256.4,46.2 257.3,46.7     "/>
				<path id="path195_9_" inkscape:connector-curvature="0" class="st0" d="M248,31.6l-2.2-2.2v-1.9l-0.7-0.7l-0.7-2.4l-2.2-0.7      l-2.2,0.8l-2.3,1.5l-2.5,0.3l-1.3,1.5l5.3,0.5l1,1.7l3.8,0.3l2.5,2.5C248.8,33.8,249.3,32.8,248,31.6L248,31.6z"/>
				<path id="path197_9_" inkscape:connector-curvature="0" class="st0" d="M247.7,23.3c-0.4-1.5-2.5,1.9-0.3,2.5      c2.2,0.7,4.3,0,4.3,0l0.5-1l8.3,0.2c0.7-0.7,1-1.7,1-1.7s2-0.7,2.8-0.3c0.8,0.3,0.2-2.4-0.7-2c-0.8,0.3-2.5,0.2-2.5,0.2h-3      c-0.2-1.2-2.8-0.7-3,0C255,21.8,254,22,254,22l-3.8,0.3C249.8,23.3,247.9,24,247.7,23.3L247.7,23.3z"/>
				<path id="path199_9_" inkscape:connector-curvature="0" class="st0" d="M231.2,51.8c2.6,0.8,3.5,0.2,3.7-0.5s0.3-0.8,1.3-1      s-0.2-2.2-1.2-2s-2-0.3-2.2-1.2c-0.2-0.8-1.8-3-2-1.3s-1.2,1.7-1,2.9C230.1,49.8,230.6,51.6,231.2,51.8L231.2,51.8z"/>
				<path id="path201_9_" inkscape:connector-curvature="0" class="st0" d="M212.1,53.7c-0.1-0.6,3.3-0.7,3.8-0.2s0.2,1.4,1.7,1.4      s0.8,1,0.7,1.5c-0.2,0.5-1.8,0.3-2-0.2s-2.7-0.7-2.7-0.7S212.3,54.5,212.1,53.7L212.1,53.7z"/>
				<polygon id="polygon205_9_" class="st0" points="266.9,19.6 267.3,20 267.6,19.7 269.3,18.3 268.6,17.5 267.3,18.6 266.5,17.7       265.8,18.5     "/>
				<polygon id="polygon207_9_" class="st0" points="259.5,15.7 259.7,15.5 261.6,14.3 261,13.5 259.5,14.5 258.4,13.8 257.9,14.7       259.2,15.5     "/>
				<polygon id="polygon209_9_" class="st0" points="253.5,50.1 254.6,51.8 255.4,51.2 254.3,49.4 254.1,49.2 253.9,49.2 252.2,49       252.1,50     "/>
				<path id="path211_9_" inkscape:connector-curvature="0" class="st0" d="M199.1,96.2l0.2,1.9h2.5c1,0-0.8-1.2-0.8-1.2      S199,97.1,199.1,96.2L199.1,96.2z"/>
				<polygon id="rect213_9_" class="st0" points="202.3,96.3 202.9,95.5 203.9,96.3 203.3,97.1     "/>
				<polygon id="rect215_9_" class="st0" points="172,64.7 172.7,64 173.7,65 173,65.7     "/>
				<polygon id="polygon219_9_" class="st0" points="218.9,282.8 219.6,283.5 220.4,282.7 220.9,282.2 220.3,281.8 218.6,281       218.2,281.9 219.2,282.4     "/>
				<polygon id="polygon221_9_" class="st0" points="205.8,270.6 207,271.4 207.6,270.6 206.9,270.1 207.4,269.7 206.8,268.9       205.8,269.8 205.3,270.2     "/>
				<path id="path223_9_" inkscape:connector-curvature="0" class="st0" d="M331.1,237.7c-0.2-0.9-1.2-1.2-1.3-1.2l-0.3,1l0,0      c0.1,0,0.2,0.1,0.3,0.2l0.2,0.9c-0.1,0.1-0.2,0.2-0.2,0.3l0.7,0.7C331,238.8,331.2,238.3,331.1,237.7L331.1,237.7z"/>
				<polygon id="polygon225_9_" class="st0" points="332.6,234.5 331,234.4 331.1,232.9 332.7,233.1     "/>
				<path id="path227_9_" inkscape:connector-curvature="0" class="st0" d="M371.1,221.4c0.7-0.4,1.6-1.3,1.5,0.6      c-0.1,1.9-0.9,1.3-1.5,1.9C370.5,224.5,370.1,222,371.1,221.4L371.1,221.4z"/>
				<path id="path231_9_" inkscape:connector-curvature="0" class="st0" d="M379.6,214.2V214c0-0.3-0.1-0.7-0.3-1.1l-0.9,0.5      c0.1,0.2,0.1,0.5,0.2,0.7c0,0.3,0.1,0.6,0.3,0.8c0.2,0.1,0.4,0.2,0.7,0.1l-0.2-1C379.4,214.1,379.5,214.1,379.6,214.2      L379.6,214.2z"/>
				<path id="path233_9_" inkscape:connector-curvature="0" class="st0" d="M377.4,215c0.3,1,0.6,2,0.6,2.1l0.9-0.4c0,0-0.4-1-0.6-2      L377.4,215L377.4,215z"/>
				<path id="path235_9_" inkscape:connector-curvature="0" class="st0" d="M373.7,219l-1-0.1c-0.1,0.8,0.1,1.8,0.9,1.9l0.2-1l0,0      C373.8,219.8,373.7,219.4,373.7,219L373.7,219z"/>
				<path id="path237_9_" inkscape:connector-curvature="0" class="st0" d="M369.4,198.9c-0.1-0.3-0.2-0.6-0.5-0.7      c-0.7-0.3-2,0.2-2.6,0.6l0.6,0.8c0.6-0.4,1.5-0.6,1.6-0.5c0,0,0,0,0-0.1L369.4,198.9L369.4,198.9z"/>
				<path id="path241_9_" inkscape:connector-curvature="0" class="st0" d="M323.3,145c-0.7,0.7-2.2,1-2.2,1l-0.5,1.9l-0.8,0.7      c0,0,0.2,0.5,0,1.7s-1.7,1.9-1.7,1.9l-0.7,0.8c0,0-4,0.2-4.5,0c-1.5-0.7-0.5-2.7,0.5-2.5s-0.2-2.9-0.2-2.9l1.3-0.2      c0,0,0.2-3,0.7-3s-0.2-1-0.8-1.5c-0.7-0.5-1.5-2.2-2.2-2s-3.3,0-3.3,0l-0.5,1l-1.8,0.3c0,0,0.2,1.3-0.2,1.7      c-1,1.2-4.8,3.7-3.2-0.5l0.5-1v-1.5l-3-0.2c0,0-1.5-0.5-1.5-1.2S299,138,299,138l-3.5-3.9l-4.2-0.5l-0.3-0.8l-2.5-0.3      c-3-1.5-5.7-0.2-5.2,2.4c0.5,2.5,1.3,3.5-0.3,3.5c-1.7,0-2-1.3-2-1.3s-1.3-0.5-1.3,0.2s-0.5,2,0,2.7s-0.7,1.7-1.2,1.2      s-1.8-2-1.5-2.5s-2.3-3.7,0.3-4.2c2.7-0.5-0.2-2,0.8-2.4l1.3-0.7h1.3l0.8-0.7l-2.2-0.3l-1.3-0.2l-2.5-0.2c-2.5,1.7-3,3.7-3,3.7      c-1.3,2.5-4.5-1-3.3-2.4s-3.7-0.2-4.5,0.5s-3.3,0.3-3.3,0.3c-0.5,1.5-2.8-0.2-2.2-1.2c0.7-1,0.7-1.7,0.7-1.7l-0.8-0.2l-1,1.9      c-2.3,0-3,1.3-2.5,2.2c0.5,0.8-0.7-0.2-1,1s0.2,1.2,1.2,1.7c1,0.5-0.5,0.5,0.2,1.3c0.7,0.8,2.7,0,1.5,1.2S254,139,254,139      c-0.2,1.5-3.3,1.2-3.7,0.7c-0.3-0.5-2.8-3.5-2.8-3.5l-3.2-0.2c-0.3-2.4,1.5-1.2,2.2-3c0.7-1.9,1-4.9,1-4.9s-2.7-0.2-2.8,0.7      c-0.2,0.8-1.8,1.4-1.8,1.4s-1.3,0.5-0.8,1.2s-1,1-1,1s0.3,1.1-0.2,1.5c-1.3,1.4-4.7,0.2-5.2-0.3l-2-0.8l-2-1.3l-2.3,1l-0.7,0.7      h-2.5l-0.2,2l4.5,0.5l0.3,4.2l-1.8-0.6h-1.2l-0.5-1l-1-0.2v3.7l1,0.8l0.8,0.8l1.7,0.2l0.3,2l4.2,0.2l0.5,0.8l2.5,0.2l4.8,4.9      l-0.3,1.5l-0.8,0.5c0.3,1.2-2.2,0.5-2.2,0.5v1l1.2,0.2l1.2,0.7l1.7-2.9c1.8-1.2,2.7,0.5,2.8,1.5c0.2,1-0.8,0.8-0.8,0.8v2.4      l1,0.3c1.7,2-0.7,3.2-0.7,3.2l-0.5,1.7c-0.5,1.5-2.3,1.2-2.3,1.2l-0.7,1l-2,0.5l3.9,0.5c0.4-1.4,1.4-1.7,1.9-1s0.5,1.9,0.5,1.9      l1,0.2l-0.2,1.9l1,0.3v5.4l1.2,1.3c2-0.8,2,0.5,1,1.2s-0.3,3.7-0.3,3.7l-0.8,0.8v1.4l-1,0.7v1.9c-1.7-0.8-3.7-0.5-4.2,0      c-1.5-1-4.7-0.7-4.7,0.2c1,1.3-1.2,1.7-1.2,1.7l-1.2,1.3c0.8,1.7-0.8,1.9-0.8,1.9v3.2l-2,1.9l0.2,4.4c0,1.2,2.5,1.3,3,0.7      c0.5-0.7,2.5,1.4,2.5,1.4h1.5l0.3-3l-1-0.5v-4.9l1.7-1.9c2-0.7,1.3,4.4,1.3,4.9c0.2,1.9,1,1.7,1.8,1.3c1.7-0.7,0.3,1.9-1,1.7      s-0.5,1.7-0.5,1.7l0.8,0.3l-1.5,1.2l-1.3,1.5l-1.7-0.5l-2-0.2l-0.7-1.2l-1.2-0.2l-0.2,2.4l-0.8,1l-2,2c2.7,0-0.3,1.9-1,1.9      c1.5,0.5-0.2,2-4,0.8v1.2l-1.3,0.2l1.2,1.3l1.3,0.2l-0.5,2.9c0,2.2-5.5,0.7-6,0.2l-0.2,3l-1,0.2l0.2,2l-0.2,2.9l1.8-0.3v1.2      l4.5,0.2l6.5-6.9l3.8-0.8c0.3-1.7,2,0.3,2,0.3c1.7-0.2,2,1,2,1l2.2,0.3c1.8,0.5,0.7,0.7,0.8,1.4c0.2,1,1,0.7,1,0.7l0.3-2.2      l1,0.2l-1-1.2l-1.8-0.8l-2-0.8c-1.3-1.9,0.3-1.5,1.7-1.3h2.2c0,0,2.5,3.4,2.5,4.2s1.2,1,1.2,1l1.5-0.2l0.5,1.2h1.5l0.5,1h3      l0.2-1.5l-2.8-0.5l-0.2-1.7l-2-0.5c-0.7-2.9,0.5-3.7,1.3-2.4l1,0.2l-0.3-2.5l1.2-0.3l-0.3-3.5l-1-0.3v-1.2l4.2,0.2      c-0.3-2.2,0.2-3.2,0.2-3.2h1.2l0.2,0.8l5.1,0.5l3.6-4.1c-0.2-0.3,0.4-0.5,0-0.9c-0.5-0.5-1.2,0-2-0.5s0-3.4-0.2-4      c-0.2-0.7,2.8-1.7,2.3-0.2s0,2.2,0,2.2c2.2-2,4,0.2,3.8,0.7s1.2,1,2,0.5s1.8,1.5,1.5,2.5s-3.3,0.8-3.5-0.2s-0.7-0.7-1-0.2      s-1.8,0.8-2.7,0.3c-0.2-0.1-0.2-0.2-0.3-0.3l-3.6,4.1h0.2c2,1.2,1,2.7,0.3,3s-1.8,0.3-1.8,0.3l-0.3,0.7l-4.3,0.3l-0.3,1.7      c-2.2-0.3-3,2-2.5,3.2s0,2.2,0,2.2l1.8,0.8l2.3-0.7c0.3-1.7,1.8-2,3.2-3c1.3-1,3.5,1.9,2.8,3.2s-0.7,1.9-0.7,1.9l0.2,1.5      l-1.7,0.7l-1.3,0.7l-0.2,0.8h-4.5l-0.8,0.8l-2.2,0.2l-0.7,1l-1.5,0.2c0,0-2.5,1.2-1.5,2.5c1,1.4-4.2,1.2-5.3-0.7      c-0.3,1.7-2.2,0.2-2.2,0.2l-1.8-0.5l-0.2-2.5c-0.3-1.7-3.5-1.7-3.3-0.5s-6,0.5-6,0.5l-2,1l-1.8,1.1l-0.2,0.8l-3,0.3l-1.3,0.7      l-0.5-1h-1.3l-1.3,1.9c-3.5,0.2-6.8,2.2-6.5,3s-1.3,1.7-1.3,1.7l-1.5,0.5l-1,1.5l-2,0.7l-0.3,3.5l-1,0.7v1.5l-1.2,0.3v0.8      l-1.7,0.2l1,2.5l1.3,0.7c2.3,0.3,1.3,3.2,1.3,3.2l1.3,0.2l0.7,1.9l1.3,2.7c0.5,2,2,1.5,2.7,1.4c0.7-0.2,1.3,2,1.3,2l6.6,0.2      c0,0-0.3,0.7,0.8,1c1.2,0.3,8.8,0.7,9.1,0.2c-0.3-1.5,4.2-1.9,6-0.5c1.8,1.3,4.3,0.5,4.3,0.5l2.5,3l1.7,3.7l2.8,0.8l2,0.5      l0.7,2.9l1.5,0.2l0.5,1.9c1.8,1.3-0.5,4.2-0.5,4.2v3.7l1.3,0.7l-0.2,1.4l2.2,2.2l2.5,0.2l6.3,6.7l5,1.5l0.8,2.7l1.3-0.2l1-0.8      l4-0.2l2-1.9l2.2-0.3l18.5-15.7l-1.7-1v-3.7c3-2.2,3.2-6.1,0.3-6.4c-2.1-0.3-1.2-2.5,0.8-2.9l1.2-0.5v-1.5l3.8-3.5V256l-8.3-6.9      c-3.7-1.3,0-9.4,2.5-9.3c2.5,0.2-0.2-12.5-0.2-12.5l-1.3-0.7l0.3-4.1h-1.8l-3,3.9l-0.8,2.7c-0.3,3.5-10.6,2.9-11.1,2.4s-4-2-4-2      s-2.7-2.2-3.2-1.5s-2.8-0.8-2.8-0.3s-2.2-1.2-2.2-1.2l-3.3-1.2l2.5-0.5l-0.5-2l4.3,2.2c0.5,0.7,2.7,0.5,2.7,0.5l0.7,0.8      c0,0,1.3-0.2,2.2,0.8c0.8,1,5.2,0.2,5.2,0.2l1.2,1l1.8,0.7l5.2,0.2l0.2-3.2l1-1l-0.2-2l1.2-1v-1.7l1-0.3l0.2-3.7l0.8-0.2V208      l-2.5-2.4c-0.2,0.8-2.8,0.8-2.8,0.8s-0.7,1.2-1.2,1.2s0.7,1.5,0.3,2.5c-0.3,1-1.7,1-1.7,1l-2.5,0.7l-0.7,0.8h-2.7l-0.3-2.2      l3-0.8l1.7-0.8l0.8-1.7c0.2-1.7,2.2-1.5,2.2-1.5s3.8-3.2,4-4.7s1.5-5.7,3.8-5.7h4.3c1.7-0.7,1.2-2.9,1.2-2.9l2.2-0.3l0.3,1.2      c0,0,3,0.3,3.3-0.2s1-1.7,1.8-1.2s3.5-1.2,3.5-1.2c0.2-1.2,4.3-0.7,4.3-0.7l0.5-1.5c0,0-2.8-3.9-3.3-3.9s-3.2-2.4-3.5-1.5      c-2.7-0.7-2.5-4.4-2.5-4.4l-1-2.4c0-1.4-2.5-4.2-3-3.9c-2.5-1.9-0.7-4,0-4.2s2.3-2.5,2.3-2.5l0.8-2.4l2.8-0.8l0.3-2.2l-1.5-0.2      c0,0,1.7-3,2.5-3s6.3,0,6.8-0.3s1.5-3,1.5-3.5s1.3-0.7,1.8-0.8c0.5-0.2,1.7-1.5,2-2.2C325.1,148.5,324,144.3,323.3,145      L323.3,145z"/>
				<path id="path245_9_" inkscape:connector-curvature="0" class="st0" d="M231.2,205.8c0.2-0.2,0.5,0.8,1,0.6      c0.5-0.1,0.7,0.9,0.2,0.9s-0.5,0.6-0.5,0.9c0,0.3,0,0.9-0.4,1.3c-0.4,0.4-0.7,0.1-1.2-0.1c-0.5-0.3-0.7-0.3-1.4-0.3      c-0.6,0-0.1,1-0.1,1s-2.6-0.1-2.1-0.5s1-0.5,0.6-0.8s0-0.5,0-1s1.2-0.3,0.9-0.6c-0.4-0.4,0-1.8,0.6-1l0.4-0.9      c-0.4-0.4-0.1-0.5-0.9-0.8c-0.7-0.3-0.1-1.8-0.1-1.8l0.1-1c0.2-1.3,2.7-1.4,2.9-0.3c0.1,1.1,0,1.9,0,1.9l0.7,0.3      c0,0-0.1,0.8-0.7,0.8c-0.6,0,0,0.4-0.4,0.8L231.2,205.8L231.2,205.8z"/>
				<path id="path247_9_" inkscape:connector-curvature="0" class="st0" d="M223,207.1c0.4-0.8,1.2-4,2.2-3s1.6,0,1.6,0      s0.5,0.5,0.2,1.5c-0.2,1-0.5,2-1.1,2.2c-0.6,0.1-1.1,0.5-1.9,0.6C223.4,208.5,223,207.1,223,207.1L223,207.1z"/>
			</g>
		</g>
	</g>
</g>
</svg>