<?xml version="1.0" encoding="utf-8"?>
<svg version="1.1" id="Layer_1" xmlns="http://www.w3.org/2000/svg" xmlns:xlink="http://www.w3.org/1999/xlink" x="0px" y="0px"
	 viewBox="0 0 1409.864 1658.736" enable-background="new 0 0 1409.864 1658.736" xml:space="preserve">
<g id="Red_Heart">
	<g id="Man_Head_Silhouette">
		<g id="Red_Heart_1_">
		</g>
		<path fill="#FF0000" enable-background="new    " d="M1068.996,1428.546c-61.046-0.397-122.029-1.328-182.7-1.328
			c-49.259-9.956-81.099-32.36-103.991-70.2c-22.892-38.338,4.976-89.62,19.405-138.911c9.958-31.865-18.408-57.756-37.813-80.16
			c-18.906-22.904,39.313-47.799,22.892-60.743c-15.425-12.447-32.339-20.414-35.328-40.33c-2.983-23.4,26.865-35.847,27.363-61.24
			c2.989-15.435,16.422-36.346,6.47-48.794c-13.93-16.93-36.816-11.949-57.715-18.92c-21.896-13.444-67.175-26.887-60.206-65.224
			c11.44-63.731,144.294-196.667,202.01-286.786c-12.442-27.385-15.923-53.773-12.442-80.161
			c28.032-210.357,202.38-414.949,514.076-443.089c-0.881-0.099-1.755-0.21-2.637-0.305c-18.615-2.012-36.719-2.987-54.37-2.987
			c-186.155,0-318.606,108.709-394.331,257.288C840.567,131.591,705.529,31.015,508.636,31.019c-13.03,0-26.345,0.441-39.919,1.336
			C272.888,45.263,104.663,162.364,51.662,390.637c-95.34,410.626,355.928,830.382,868.016,1238.731
			c74.84-55.736,147.411-112.471,216.674-169.901C1119.582,1440.262,1095.206,1428.717,1068.996,1428.546z"/>
	</g>
</g>
</svg>
