<?xml version="1.0" encoding="UTF-8" standalone="no"?>
<!-- Created with Inkscape (http://www.inkscape.org/) -->

<svg
   xmlns:dc="http://purl.org/dc/elements/1.1/"
   xmlns:cc="http://creativecommons.org/ns#"
   xmlns:rdf="http://www.w3.org/1999/02/22-rdf-syntax-ns#"
   xmlns:svg="http://www.w3.org/2000/svg"
   xmlns="http://www.w3.org/2000/svg"
   xmlns:sodipodi="http://sodipodi.sourceforge.net/DTD/sodipodi-0.dtd"
   xmlns:inkscape="http://www.inkscape.org/namespaces/inkscape"
   version="1.1"
   id="svg94623"
   xml:space="preserve"
   width="800"
   height="800"
   viewBox="0 0 800 800"
   sodipodi:docname="I-love-Bahamas-publicdomainvectors.org.svg"
   inkscape:version="0.92.4 (5da689c313, 2019-01-14)"><metadata
     id="metadata94629"><rdf:RDF><cc:Work
         rdf:about=""><dc:format>image/svg+xml</dc:format><dc:type
           rdf:resource="http://purl.org/dc/dcmitype/StillImage" /><dc:title></dc:title></cc:Work></rdf:RDF></metadata><defs
     id="defs94627"><clipPath
       clipPathUnits="userSpaceOnUse"
       id="clipPath94639"><path
         d="M 0,600 H 600 V 0 H 0 Z"
         id="path94637"
         inkscape:connector-curvature="0" /></clipPath></defs><sodipodi:namedview
     pagecolor="#ffffff"
     bordercolor="#666666"
     borderopacity="1"
     objecttolerance="10"
     gridtolerance="10"
     guidetolerance="10"
     inkscape:pageopacity="0"
     inkscape:pageshadow="2"
     inkscape:window-width="797"
     inkscape:window-height="480"
     id="namedview94625"
     showgrid="false"
     inkscape:zoom="0.295"
     inkscape:cx="400"
     inkscape:cy="400"
     inkscape:window-x="0"
     inkscape:window-y="0"
     inkscape:window-maximized="0"
     inkscape:current-layer="g94631" /><g
     id="g94631"
     inkscape:groupmode="layer"
     inkscape:label="I-love-Bahamas-publicdomainvectors.org"
     transform="matrix(1.3333333,0,0,-1.3333333,0,800)"><g
       id="g94633"><g
         id="g94635"
         clip-path="url(#clipPath94639)"><path
           d="m 241.438,479.937 c 0.989,0.641 1.531,1.718 1.531,2.818 0,0.598 -0.16,1.203 -0.494,1.748 -0.95,1.553 -2.962,2.064 -4.537,1.155 0,0 -41.396,-23.899 -75.308,-43.479 39.345,24.874 84.089,53.161 84.089,53.161 1.008,0.638 1.562,1.725 1.562,2.839 0,0.591 -0.157,1.189 -0.485,1.732 -0.943,1.562 -2.966,2.083 -4.546,1.169 0,0 -25.636,-14.801 -35.299,-20.38 6.111,3.797 26.771,16.629 26.771,16.629 1.022,0.634 1.586,1.73 1.586,2.853 0,0.587 -0.155,1.181 -0.479,1.72 -0.94,1.571 -2.967,2.097 -4.554,1.181 0,0 -51.506,-29.737 -102.852,-59.382 49.131,31.895 98.464,63.92 98.464,63.92 0.988,0.641 1.529,1.716 1.529,2.816 0,0.598 -0.16,1.203 -0.494,1.75 -0.951,1.55 -2.964,2.062 -4.539,1.152 0,0 -41.627,-24.033 -79.727,-46.029 28.086,18.046 62.235,39.989 62.235,39.989 0.996,0.639 1.541,1.72 1.541,2.824 0,0.596 -0.157,1.198 -0.49,1.743 -0.949,1.556 -2.964,2.07 -4.541,1.159 0,0 -29.956,-17.295 -52.683,-30.418 17.491,11.318 43.338,28.04 43.338,28.04 0.99,0.641 1.533,1.718 1.533,2.819 0,0.597 -0.16,1.201 -0.494,1.748 -0.95,1.552 -2.963,2.064 -4.539,1.154 0,0 -34.493,-19.915 -68.551,-39.579 25.641,17.385 53.062,35.978 53.062,35.978 0.955,0.647 1.473,1.702 1.473,2.778 0,0.61 -0.166,1.226 -0.512,1.779 -0.959,1.53 -2.956,2.027 -4.52,1.124 0,0 -35.253,-20.353 -69.986,-40.406 24.001,17.214 48.224,34.587 48.224,34.587 0.911,0.654 1.4,1.683 1.4,2.729 0,0.624 -0.174,1.255 -0.537,1.815 -0.968,1.503 -2.946,1.982 -4.495,1.087 0,0 -20.113,-11.612 -40.211,-23.217 10.451,8.335 22.037,17.577 22.037,17.577 0.827,0.659 1.263,1.636 1.263,2.624 0,0.652 -0.19,1.311 -0.583,1.888 -0.989,1.45 -2.928,1.893 -4.448,1.015 L 82.433,494.626 c -1.604,-0.926 -2.154,-2.978 -1.227,-4.582 0.926,-1.605 2.977,-2.154 4.582,-1.228 0,0 1.802,1.04 1.986,1.147 -10.452,-8.336 -22.039,-17.577 -22.039,-17.577 -0.826,-0.659 -1.262,-1.636 -1.262,-2.624 0,-0.57 0.173,-1.134 0.471,-1.654 l 2.82,-1.692 c 0.592,-0.012 1.193,0.127 1.74,0.443 0,0 12.465,7.197 20.08,11.594 -6.506,-4.667 -13.025,-9.343 -19.077,-13.682 l 10.026,-6.016 c 4.29,2.477 8.666,5.003 12.936,7.469 -3.966,-2.689 -7.974,-5.407 -11.918,-8.08 L 110.8,440.595 c 1.556,0.898 3.113,1.797 4.669,2.695 -1.467,-0.953 -2.935,-1.905 -4.401,-2.856 l 35.995,-21.598 c 48.616,31.476 94.375,61.101 94.375,61.101"
           style="fill:#44afcc;fill-opacity:1;fill-rule:nonzero;stroke:none"
           id="path94641"
           inkscape:connector-curvature="0" /><path
           d="m 266.024,461.998 c 0.994,0.641 1.538,1.718 1.538,2.821 0,0.597 -0.159,1.2 -0.494,1.745 -0.948,1.554 -2.962,2.067 -4.54,1.157 0,0 -2.452,-1.417 -2.507,-1.448 0.053,0.032 2.466,1.508 2.466,1.508 1.032,0.632 1.603,1.735 1.603,2.865 0,0.583 -0.152,1.173 -0.471,1.71 -0.938,1.578 -2.971,2.109 -4.56,1.191 0,0 -23.559,-13.601 -30.901,-17.841 10.056,6.217 36.905,22.813 36.905,22.813 1.024,0.633 1.59,1.731 1.59,2.856 0,0.586 -0.154,1.179 -0.475,1.717 -0.94,1.574 -2.97,2.101 -4.556,1.185 0,0 -55.508,-32.048 -113.964,-65.798 l 26.394,-15.835 c 47.74,30.809 91.972,59.354 91.972,59.354"
           style="fill:#44afcc;fill-opacity:1;fill-rule:nonzero;stroke:none"
           id="path94643"
           inkscape:connector-curvature="0" /><path
           d="m 283.362,457.133 c 1.006,0.637 1.559,1.723 1.559,2.836 0,0.592 -0.157,1.191 -0.486,1.733 -0.945,1.562 -2.965,2.081 -4.547,1.169 0,0 -50.602,-29.216 -105.091,-60.676 l 11.257,-6.753 c 49.945,31.665 97.308,61.691 97.308,61.691"
           style="fill:#44afcc;fill-opacity:1;fill-rule:nonzero;stroke:none"
           id="path94645"
           inkscape:connector-curvature="0" /><path
           d="m 553.646,433.16 c 1.043,0.629 1.623,1.739 1.623,2.877 0,0.579 -0.15,1.166 -0.465,1.701 -0.935,1.585 -2.974,2.121 -4.567,1.2 0,0 -45.452,-26.241 -89.376,-51.6 h 16.698 c 32.957,19.848 76.087,45.822 76.087,45.822"
           style="fill:#44afcc;fill-opacity:1;fill-rule:nonzero;stroke:none"
           id="path94647"
           inkscape:connector-curvature="0" /><path
           d="m 162.251,191.658 c -1.036,-0.632 -1.609,-1.735 -1.609,-2.867 0,-0.582 0.152,-1.171 0.47,-1.708 0.937,-1.58 2.971,-2.112 4.562,-1.192 0,0 63.6,36.716 103.537,59.773 -43.142,-26.059 -108.727,-65.678 -108.727,-65.678 -1.043,-0.629 -1.621,-1.737 -1.621,-2.873 0,-0.581 0.151,-1.168 0.467,-1.702 0.935,-1.584 2.972,-2.12 4.566,-1.2 0,0 62.335,35.99 136.756,78.956 H 263.181 C 207.214,219.06 162.251,191.658 162.251,191.658"
           style="fill:#44afcc;fill-opacity:1;fill-rule:nonzero;stroke:none"
           id="path94649"
           inkscape:connector-curvature="0" /><path
           d="m 563.831,405.111 c 1.028,0.634 1.596,1.733 1.596,2.861 0,0.584 -0.152,1.176 -0.473,1.714 -0.939,1.576 -2.971,2.105 -4.558,1.188 0,0 -17.816,-10.286 -40.767,-23.536 h 15.317 c 17.998,11.074 28.885,17.773 28.885,17.773"
           style="fill:#44afcc;fill-opacity:1;fill-rule:nonzero;stroke:none"
           id="path94651"
           inkscape:connector-curvature="0" /><path
           d="m 136.987,200.351 c -1.042,-0.631 -1.62,-1.738 -1.62,-2.875 0,-0.58 0.151,-1.167 0.467,-1.704 0.936,-1.583 2.972,-2.117 4.565,-1.198 0,0 62.781,36.246 98.623,56.94 -32.617,-19.644 -92.387,-55.64 -92.387,-55.64 -1.045,-0.629 -1.624,-1.738 -1.624,-2.877 0,-0.579 0.15,-1.166 0.466,-1.7 0.934,-1.586 2.972,-2.12 4.565,-1.2 0,0 48.546,28.027 109.242,63.07 h -34.879 c -45.281,-27.358 -87.418,-52.816 -87.418,-52.816"
           style="fill:#44afcc;fill-opacity:1;fill-rule:nonzero;stroke:none"
           id="path94653"
           inkscape:connector-curvature="0" /><path
           d="m 123.851,204.085 c -1.032,-0.633 -1.602,-1.735 -1.602,-2.864 0,-0.583 0.152,-1.175 0.472,-1.712 0.938,-1.577 2.97,-2.108 4.56,-1.19 0,0 45.559,26.303 95.002,54.848 h -18.322 c -47.322,-28.993 -80.11,-49.082 -80.11,-49.082"
           style="fill:#44afcc;fill-opacity:1;fill-rule:nonzero;stroke:none"
           id="path94655"
           inkscape:connector-curvature="0" /><path
           d="m 280.547,441.552 c 0.997,0.64 1.544,1.721 1.544,2.826 0,0.596 -0.159,1.198 -0.49,1.743 -0.949,1.555 -2.964,2.07 -4.541,1.159 0,0 -44.207,-25.523 -90.408,-52.197 l 11.112,-6.667 c 44.864,28.797 82.783,53.136 82.783,53.136"
           style="fill:#44afcc;fill-opacity:1;fill-rule:nonzero;stroke:none"
           id="path94657"
           inkscape:connector-curvature="0" /><path
           d="m 548.845,481.219 c 1.032,0.632 1.601,1.734 1.601,2.864 0,0.583 -0.151,1.174 -0.471,1.711 -0.938,1.578 -2.97,2.108 -4.56,1.19 0,0 -81.363,-46.975 -172.593,-99.646 H 395.5 c 82.94,50.777 153.345,93.881 153.345,93.881"
           style="fill:#44afcc;fill-opacity:1;fill-rule:nonzero;stroke:none"
           id="path94659"
           inkscape:connector-curvature="0" /><path
           d="m 298.82,424.33 c 1.019,0.634 1.582,1.729 1.582,2.85 0,0.587 -0.155,1.183 -0.479,1.722 -0.942,1.57 -2.968,2.095 -4.554,1.18 0,0 -34.836,-20.113 -74.034,-42.744 h 18.086 c 26.728,16.645 59.399,36.992 59.399,36.992"
           style="fill:#44afcc;fill-opacity:1;fill-rule:nonzero;stroke:none"
           id="path94661"
           inkscape:connector-curvature="0" /><path
           d="m 578.306,437.355 c 1.036,0.631 1.608,1.735 1.608,2.868 0,0.581 -0.15,1.171 -0.469,1.708 -0.937,1.58 -2.971,2.111 -4.562,1.193 0,0 -53.592,-30.941 -96.625,-55.786 h 17.974 c 46.881,28.571 82.074,50.017 82.074,50.017"
           style="fill:#44afcc;fill-opacity:1;fill-rule:nonzero;stroke:none"
           id="path94663"
           inkscape:connector-curvature="0" /><path
           d="m 519.596,478.502 c 1.032,0.631 1.603,1.734 1.603,2.864 0,0.583 -0.152,1.174 -0.471,1.711 -0.937,1.578 -2.971,2.109 -4.56,1.191 0,0 -80.814,-46.658 -167.891,-96.93 h 22.343 c 78.659,48.135 148.976,91.164 148.976,91.164"
           style="fill:#44afcc;fill-opacity:1;fill-rule:nonzero;stroke:none"
           id="path94665"
           inkscape:connector-curvature="0" /><path
           d="m 561.994,449.297 c 1.042,0.629 1.619,1.737 1.619,2.874 0,0.579 -0.15,1.167 -0.466,1.703 -0.935,1.583 -2.971,2.118 -4.565,1.198 0,0 -50.856,-29.361 -117.322,-67.734 h 18.185 c 50.531,30.53 102.549,61.959 102.549,61.959"
           style="fill:#44afcc;fill-opacity:1;fill-rule:nonzero;stroke:none"
           id="path94667"
           inkscape:connector-curvature="0" /><path
           d="m 558.436,462.483 c 1.032,0.632 1.602,1.734 1.602,2.864 0,0.583 -0.152,1.174 -0.472,1.712 -0.938,1.577 -2.97,2.107 -4.559,1.19 0,0 -59.006,-34.067 -85.676,-49.464 18.514,11.092 68.381,40.969 68.381,40.969 1.049,0.629 1.63,1.741 1.63,2.881 0,0.578 -0.149,1.164 -0.462,1.698 -0.935,1.587 -2.975,2.125 -4.569,1.204 0,0 -61.643,-35.588 -135.447,-78.199 h 36.924 c 69.057,42.311 122.648,75.145 122.648,75.145"
           style="fill:#44afcc;fill-opacity:1;fill-rule:nonzero;stroke:none"
           id="path94669"
           inkscape:connector-curvature="0" /><path
           d="m 219.08,387.338 c 35.498,22.403 67.547,42.631 67.547,42.631 1.009,0.637 1.564,1.726 1.564,2.84 0,0.591 -0.157,1.189 -0.484,1.731 -0.944,1.564 -2.967,2.084 -4.548,1.17 0,0 -38.237,-22.075 -83.691,-48.317 l 0.092,-0.055 z"
           style="fill:#44afcc;fill-opacity:1;fill-rule:nonzero;stroke:none"
           id="path94671"
           inkscape:connector-curvature="0" /><path
           d="m 173.678,172.911 c -1.029,-0.635 -1.597,-1.733 -1.597,-2.862 0,-0.584 0.153,-1.176 0.473,-1.714 0.94,-1.574 2.97,-2.104 4.559,-1.187 0,0 69.991,40.409 123.384,71.235 -50.101,-30.402 -117.391,-71.234 -117.391,-71.234 -1.039,-0.629 -1.615,-1.736 -1.615,-2.87 0,-0.582 0.151,-1.169 0.468,-1.706 0.937,-1.582 2.972,-2.115 4.564,-1.195 0,0 76.367,44.09 158.985,91.789 H 304.104 C 233.255,209.572 173.678,172.911 173.678,172.911"
           style="fill:#44afcc;fill-opacity:1;fill-rule:nonzero;stroke:none"
           id="path94673"
           inkscape:connector-curvature="0" /><path
           d="m 562.48,414.979 c 1.041,0.63 1.62,1.738 1.62,2.875 0,0.58 -0.151,1.167 -0.467,1.703 -0.936,1.583 -2.972,2.118 -4.565,1.198 0,0 -24.183,-13.962 -57.883,-33.417 h 15.536 c 25.442,15.369 45.759,27.641 45.759,27.641"
           style="fill:#44afcc;fill-opacity:1;fill-rule:nonzero;stroke:none"
           id="path94675"
           inkscape:connector-curvature="0" /><path
           d="m 517.726,491.808 c 1.034,0.632 1.605,1.735 1.605,2.866 0,0.582 -0.152,1.173 -0.471,1.71 -0.938,1.578 -2.97,2.109 -4.561,1.191 0,0 -94.142,-54.353 -182.763,-105.518 77.839,47.294 163.638,99.422 163.638,99.422 1.039,0.631 1.612,1.736 1.612,2.871 0,0.581 -0.15,1.17 -0.468,1.706 -0.936,1.581 -2.971,2.114 -4.563,1.195 0,0 -95.333,-55.041 -187.743,-108.394 87.982,53.662 179.476,109.466 179.476,109.466 1.035,0.631 1.608,1.735 1.608,2.866 0,0.583 -0.151,1.173 -0.47,1.709 -0.938,1.58 -2.971,2.112 -4.562,1.193 0,0 -38.517,-22.237 -48.839,-28.196 10.468,6.272 49.031,29.378 49.031,29.378 1.049,0.628 1.63,1.74 1.63,2.881 0,0.577 -0.15,1.163 -0.462,1.697 -0.935,1.587 -2.975,2.126 -4.57,1.204 0,0 -105.823,-61.097 -214.281,-123.717 h 84.24 c 88.539,54.12 170.913,104.47 170.913,104.47"
           style="fill:#44afcc;fill-opacity:1;fill-rule:nonzero;stroke:none"
           id="path94677"
           inkscape:connector-curvature="0" /><path
           d="m 313.516,421.985 c 1.011,0.637 1.57,1.727 1.57,2.843 0,0.59 -0.156,1.187 -0.482,1.729 -0.944,1.565 -2.967,2.087 -4.549,1.173 0,0 -37.529,-21.667 -69.961,-40.392 h 18.294 c 30.904,19.423 55.128,34.647 55.128,34.647"
           style="fill:#44afcc;fill-opacity:1;fill-rule:nonzero;stroke:none"
           id="path94679"
           inkscape:connector-curvature="0" /><path
           d="m 584.146,398.692 c 0,0 -7.508,-4.335 -19.667,-11.354 h 13.989 c 5.845,3.587 9.109,5.59 9.109,5.59 1.031,0.633 1.6,1.734 1.6,2.862 0,0.584 -0.153,1.176 -0.472,1.713 -0.939,1.577 -2.971,2.106 -4.559,1.189"
           style="fill:#44afcc;fill-opacity:1;fill-rule:nonzero;stroke:none"
           id="path94681"
           inkscape:connector-curvature="0" /><path
           d="m 566.875,392.173 c 1.039,0.63 1.614,1.736 1.614,2.87 0,0.582 -0.151,1.17 -0.468,1.706 -0.937,1.582 -2.971,2.115 -4.563,1.196 0,0 -6.745,-3.894 -18.373,-10.607 h 13.822 c 5.054,3.066 7.968,4.835 7.968,4.835"
           style="fill:#44afcc;fill-opacity:1;fill-rule:nonzero;stroke:none"
           id="path94683"
           inkscape:connector-curvature="0" /><path
           d="m 204.723,165.835 c -1.031,-0.634 -1.6,-1.734 -1.6,-2.862 0,-0.583 0.153,-1.176 0.473,-1.713 0.938,-1.577 2.968,-2.107 4.559,-1.19 0,0 48.48,27.992 70.094,40.47 -20.595,-12.433 -67.74,-40.892 -67.74,-40.892 -1.043,-0.628 -1.623,-1.737 -1.623,-2.875 0,-0.579 0.153,-1.166 0.467,-1.702 0.936,-1.584 2.973,-2.118 4.566,-1.198 0,0 80.14,46.268 156.759,90.503 -77.482,-47.609 -157.976,-97.071 -157.976,-97.071 -1.03,-0.633 -1.598,-1.734 -1.598,-2.861 0,-0.585 0.151,-1.176 0.472,-1.714 0.94,-1.576 2.971,-2.105 4.559,-1.188 0,0 49.307,28.468 72.713,41.98 -21.934,-13.26 -69.514,-42.025 -69.514,-42.025 -1.041,-0.63 -1.619,-1.738 -1.619,-2.873 0,-0.58 0.151,-1.169 0.467,-1.703 0.935,-1.584 2.972,-2.119 4.565,-1.199 0,0 62.678,36.188 107.339,61.971 -37.306,-22.68 -94.292,-57.327 -94.292,-57.327 -1.038,-0.631 -1.613,-1.735 -1.613,-2.869 0,-0.582 0.151,-1.171 0.469,-1.706 0.937,-1.581 2.972,-2.114 4.564,-1.195 0,0 52.827,30.499 84.454,48.76 -29.849,-18.156 -80.901,-49.21 -80.901,-49.21 -1.038,-0.629 -1.611,-1.735 -1.611,-2.868 0,-0.581 0.15,-1.171 0.469,-1.708 0.937,-1.58 2.971,-2.112 4.562,-1.194 0,0 75.057,43.335 149.102,86.083 -62.778,-39.063 -128.316,-79.845 -128.316,-79.845 -1.019,-0.635 -1.583,-1.729 -1.583,-2.85 0,-0.587 0.155,-1.183 0.48,-1.722 0.941,-1.571 2.967,-2.097 4.553,-1.181 0,0 50.04,28.891 84.997,49.074 -33.995,-20.91 -82.936,-51.013 -82.936,-51.013 -1.03,-0.633 -1.599,-1.734 -1.599,-2.86 0,-0.584 0.154,-1.177 0.475,-1.714 0.938,-1.577 2.969,-2.105 4.557,-1.187 0,0 69.971,40.395 139.825,80.727 -60.061,-37.895 -121.075,-76.386 -121.075,-76.386 -1.009,-0.637 -1.565,-1.726 -1.565,-2.84 0,-0.591 0.157,-1.189 0.484,-1.732 0.944,-1.563 2.966,-2.083 4.548,-1.17 0,0 58.452,33.749 115.963,66.953 -40.925,-25.969 -86.118,-54.646 -86.118,-54.646 -1.006,-0.637 -1.559,-1.724 -1.559,-2.835 0,-0.592 0.157,-1.192 0.485,-1.735 0.947,-1.56 2.966,-2.079 4.547,-1.166 0,0 56.145,32.416 111.155,64.177 -27.458,-18.289 -57.361,-38.207 -57.361,-38.207 -0.968,-0.645 -1.495,-1.709 -1.495,-2.795 0,-0.605 0.163,-1.218 0.505,-1.767 0.955,-1.539 2.959,-2.041 4.527,-1.135 l 119.568,69.027 c 1.603,0.926 2.154,2.976 1.227,4.582 -0.926,1.604 -2.977,2.153 -4.582,1.227 0,0 -18.298,-10.563 -28.878,-16.671 27.5,18.317 57.426,38.252 57.426,38.252 0.969,0.644 1.495,1.708 1.495,2.792 0,0.606 -0.162,1.218 -0.504,1.768 -0.955,1.538 -2.959,2.04 -4.527,1.137 0,0 -35.949,-20.758 -62.992,-36.371 23.03,14.613 47.412,30.084 64.331,40.82 h -15.569 c -20.192,-11.659 -46.883,-27.07 -72.871,-42.074 23.292,14.695 46.727,29.479 66.689,42.074 h -18.451 c -3.41,-1.968 -6.728,-3.884 -9.88,-5.703 2.989,1.838 6.096,3.749 9.273,5.703 h -18.23 c -9.694,-5.598 -19.587,-11.309 -29.343,-16.941 9.087,5.655 18.23,11.343 27.225,16.941 H 347.023 c -73.594,-45.166 -142.3,-87.332 -142.3,-87.332"
           style="fill:#44afcc;fill-opacity:1;fill-rule:nonzero;stroke:none"
           id="path94685"
           inkscape:connector-curvature="0" /><path
           d="m 258.388,387.338 h -18.294 c -3.143,-1.815 -6.242,-3.604 -9.25,-5.341 2.75,1.712 5.629,3.505 8.577,5.341 h -18.086 c -3.67,-2.119 -7.375,-4.258 -11.096,-6.407 l 19.418,-11.651 c 9.861,6.197 19.588,12.311 28.731,18.058"
           style="fill:#f5e229;fill-opacity:1;fill-rule:nonzero;stroke:none"
           id="path94687"
           inkscape:connector-curvature="0" /><path
           d="m 563.924,287.443 c 1.011,0.637 1.564,1.725 1.564,2.84 0,0.591 -0.155,1.188 -0.483,1.731 -0.943,1.564 -2.965,2.083 -4.548,1.171 0,0 -38.572,-22.271 -69.312,-40.018 h 18.451 c 31.484,19.863 54.328,34.276 54.328,34.276"
           style="fill:#f5e229;fill-opacity:1;fill-rule:nonzero;stroke:none"
           id="path94689"
           inkscape:connector-curvature="0" /><path
           d="m 553.132,266.99 c 1.005,0.638 1.556,1.725 1.556,2.835 0,0.593 -0.156,1.193 -0.485,1.736 -0.946,1.56 -2.967,2.079 -4.547,1.166 0,0 -13.691,-7.904 -33.878,-19.56 h 15.569 c 13.144,8.341 21.785,13.823 21.785,13.823"
           style="fill:#f5e229;fill-opacity:1;fill-rule:nonzero;stroke:none"
           id="path94691"
           inkscape:connector-curvature="0" /><path
           d="m 209.568,381.333 c 3.185,2.011 6.362,4.017 9.512,6.005 h -19.52 z"
           style="fill:#f5e229;fill-opacity:1;fill-rule:nonzero;stroke:none"
           id="path94693"
           inkscape:connector-curvature="0" /><path
           d="m 449.642,321.036 c 39.602,24.03 90.012,54.619 109.265,66.302 h -13.822 c -31.262,-18.049 -97.888,-56.514 -164.137,-94.761 59.764,36.774 119.756,73.689 153.998,94.761 h -15.317 c -20.857,-12.042 -45.954,-26.532 -65.788,-37.982 19.101,11.538 42.616,25.741 62.88,37.982 h -15.536 c -27.649,-15.963 -61.703,-35.624 -94.069,-54.311 30.581,18.638 61.827,37.68 89.116,54.311 h -17.974 c -5.903,-3.408 -11.609,-6.702 -16.948,-9.785 4.899,2.95 10.415,6.273 16.249,9.785 h -16.698 c -10.962,-6.329 -21.829,-12.603 -31.869,-18.4 9.779,5.909 20.086,12.135 30.453,18.4 H 441.26 c -29.558,-17.065 -62.199,-35.911 -94.833,-54.751 30.638,18.771 61.276,37.543 89.361,54.751 h -36.924 c -19.143,-11.052 -39.103,-22.576 -59.019,-34.075 18.748,11.479 37.501,22.96 55.655,34.075 h -22.678 c -12.857,-7.423 -25.91,-14.96 -38.959,-22.493 12.299,7.526 24.626,15.07 36.757,22.493 h -22.343 c -8.77,-5.064 -17.604,-10.164 -26.425,-15.257 8.334,5.094 16.671,10.191 24.961,15.257 h -84.24 c -10.713,-6.185 -21.449,-12.383 -32.112,-18.541 l 36.389,-21.832 c 6.289,3.63 12.597,7.273 18.904,10.914 -6.128,-3.746 -12.261,-7.496 -18.375,-11.233 l 11.689,-7.012 c 4.384,2.531 8.775,5.065 13.164,7.599 -4.262,-2.607 -8.528,-5.217 -12.788,-7.825 l 11.661,-6.996 c 10.65,6.15 21.409,12.36 32.167,18.571 -10.448,-6.397 -20.896,-12.793 -31.242,-19.127 l 19.34,-11.604 -18.213,-10.927 c 14.065,8.121 28.366,16.377 42.67,24.635 -47.041,-28.821 -94.084,-57.645 -131.866,-80.793 h 18.322 c 15.988,9.23 32.382,18.694 47.772,27.581 -14.564,-8.8 -30.288,-18.299 -45.65,-27.581 h 34.879 c 23.556,13.601 48.94,28.255 74.029,42.741 -23.694,-14.439 -47.79,-29.125 -70.132,-42.741 h 37.471 c 18.15,10.479 37.015,21.37 55.874,32.259 -17.68,-10.881 -35.377,-21.769 -52.422,-32.259 h 41.404 c 8.49,4.901 17.046,9.842 25.592,14.774 -8.03,-4.926 -16.081,-9.867 -24.077,-14.774 H 470.19 c 53.133,33.062 101.057,62.883 101.057,62.883 1.02,0.636 1.581,1.73 1.581,2.851 0,0.587 -0.152,1.182 -0.476,1.722 -0.943,1.571 -2.969,2.095 -4.555,1.181 0,0 -46.723,-26.976 -70.927,-40.95 29.855,18.159 80.909,49.212 80.909,49.212 1.037,0.632 1.612,1.736 1.612,2.87 0,0.582 -0.151,1.171 -0.47,1.707 -0.937,1.58 -2.97,2.113 -4.562,1.193 0,0 -51.959,-29.997 -82.163,-47.436 37.312,22.684 94.301,57.333 94.301,57.333 1.038,0.63 1.612,1.736 1.612,2.87 0,0.58 -0.151,1.169 -0.469,1.707 -0.937,1.58 -2.97,2.113 -4.563,1.195 0,0 -50.745,-29.298 -75.698,-43.705 21.951,13.271 69.546,42.045 69.546,42.045 1.043,0.63 1.619,1.737 1.619,2.873 0,0.58 -0.15,1.169 -0.467,1.703 -0.935,1.584 -2.972,2.119 -4.564,1.199 0,0 -76.634,-44.244 -148.677,-85.839 77.476,47.607 157.967,97.068 157.967,97.068 1.029,0.632 1.597,1.733 1.597,2.86 0,0.584 -0.151,1.176 -0.472,1.714 -0.939,1.576 -2.969,2.105 -4.559,1.188 0,0 -48.878,-28.22 -70.895,-40.93 20.622,12.447 67.789,40.92 67.789,40.92 1.043,0.629 1.621,1.737 1.621,2.874 0,0.58 -0.15,1.167 -0.467,1.702 -0.934,1.584 -2.972,2.12 -4.564,1.2 0,0 -78.169,-45.131 -151.641,-87.551 65.851,40.414 133.312,81.817 157.256,96.512 H 564.479 C 538.313,372.23 490.585,344.676 449.642,321.036"
           style="fill:#f5e229;fill-opacity:1;fill-rule:nonzero;stroke:none"
           id="path94695"
           inkscape:connector-curvature="0" /><path
           d="m 564.248,298.505 c 1.028,0.631 1.597,1.732 1.597,2.859 0,0.584 -0.152,1.176 -0.473,1.714 -0.939,1.577 -2.971,2.105 -4.559,1.188 0,0 -41.944,-24.216 -88.505,-51.099 h 18.23 c 32.979,20.285 73.71,45.338 73.71,45.338"
           style="fill:#f5e229;fill-opacity:1;fill-rule:nonzero;stroke:none"
           id="path94697"
           inkscape:connector-curvature="0" /><path
           d="m 41.374,443.874 c -0.911,-0.652 -1.399,-1.681 -1.399,-2.728 0,-0.624 0.173,-1.254 0.535,-1.815 0.969,-1.503 2.948,-1.981 4.496,-1.087 0,0 16.967,9.796 35.527,20.511 l -10.026,6.016 C 54.242,453.104 41.374,443.874 41.374,443.874"
           style="fill:#110f0d;fill-opacity:1;fill-rule:nonzero;stroke:none"
           id="path94699"
           inkscape:connector-curvature="0" /><path
           d="m 40.378,430.227 c -0.954,-0.648 -1.472,-1.703 -1.472,-2.78 0,-0.609 0.166,-1.225 0.512,-1.778 0.958,-1.53 2.956,-2.026 4.52,-1.124 0,0 22.135,12.781 34.283,19.795 -17.483,-11.312 -43.324,-28.031 -43.324,-28.031 -0.991,-0.641 -1.533,-1.718 -1.533,-2.82 0,-0.596 0.159,-1.201 0.493,-1.747 0.95,-1.552 2.963,-2.064 4.539,-1.154 0,0 27.336,15.783 45.082,26.029 -28.04,-18.017 -62.166,-39.945 -62.166,-39.945 -0.996,-0.639 -1.541,-1.72 -1.541,-2.825 0,-0.595 0.158,-1.198 0.49,-1.743 0.948,-1.555 2.964,-2.069 4.542,-1.159 0,0 42.683,24.643 85.997,49.65 L 81.551,458.144 C 59.985,443.521 40.378,430.227 40.378,430.227"
           style="fill:#110f0d;fill-opacity:1;fill-rule:nonzero;stroke:none"
           id="path94701"
           inkscape:connector-curvature="0" /><path
           d="m 65.056,467.875 c 0.632,-0.929 1.655,-1.438 2.708,-1.459 l -2.82,1.692 c 0.043,-0.076 0.061,-0.16 0.112,-0.233"
           style="fill:#110f0d;fill-opacity:1;fill-rule:nonzero;stroke:none"
           id="path94703"
           inkscape:connector-curvature="0" /><path
           d="m 106.442,233.542 c -1.033,-0.633 -1.604,-1.735 -1.604,-2.864 0,-0.584 0.153,-1.174 0.472,-1.711 0.938,-1.578 2.97,-2.11 4.56,-1.192 0,0 86.322,49.839 181.235,104.637 l -11.661,6.996 C 191.667,285.693 106.442,233.542 106.442,233.542"
           style="fill:#110f0d;fill-opacity:1;fill-rule:nonzero;stroke:none"
           id="path94705"
           inkscape:connector-curvature="0" /><path
           d="m 89.923,238.178 c -1.033,-0.632 -1.606,-1.736 -1.606,-2.865 0,-0.584 0.152,-1.173 0.472,-1.71 0.938,-1.58 2.971,-2.111 4.561,-1.193 0,0 91.222,52.667 185.718,107.224 l -11.689,7.012 C 176.405,291.039 89.923,238.178 89.923,238.178"
           style="fill:#110f0d;fill-opacity:1;fill-rule:nonzero;stroke:none"
           id="path94707"
           inkscape:connector-curvature="0" /><path
           d="M 292.03,331.856 C 199.02,274.912 114.343,223.07 114.343,223.07 c -1.033,-0.632 -1.604,-1.733 -1.604,-2.864 0,-0.582 0.153,-1.174 0.471,-1.711 0.938,-1.578 2.971,-2.107 4.561,-1.19 0,0 46.039,26.58 61.345,35.417 -18.55,-11.115 -68.455,-41.014 -68.455,-41.014 -1.048,-0.629 -1.63,-1.74 -1.63,-2.88 0,-0.579 0.149,-1.164 0.464,-1.698 0.933,-1.588 2.973,-2.126 4.568,-1.204 0,0 84.123,48.567 179.094,103.399 l 18.213,10.927 z"
           style="fill:#110f0d;fill-opacity:1;fill-rule:nonzero;stroke:none"
           id="path94709"
           inkscape:connector-curvature="0" /><path
           d="m 211.148,357.647 c 6.148,3.864 12.353,7.764 18.509,11.633 l -19.418,11.651 c -5.114,-2.952 -10.252,-5.919 -15.351,-8.863 4.862,3.069 9.779,6.172 14.68,9.265 l -10.008,6.005 -0.092,0.055 c -10.673,-6.162 -21.742,-12.553 -32.81,-18.943 10.486,6.731 20.972,13.462 31.106,19.966 l -11.112,6.667 c -4.339,-2.505 -8.695,-5.02 -13.035,-7.526 4.146,2.63 8.3,5.263 12.437,7.885 l -11.257,6.753 c -4.536,-2.619 -9.099,-5.253 -13.663,-7.888 4.315,2.784 8.63,5.569 12.918,8.337 l -26.394,15.835 c -3.523,-2.033 -7.055,-4.073 -10.588,-6.112 3.336,2.159 6.671,4.319 9.993,6.469 l -35.995,21.598 C 63.417,409.5 16.972,379.349 16.972,379.349 c -0.988,-0.641 -1.529,-1.716 -1.529,-2.816 0,-0.598 0.16,-1.203 0.495,-1.749 0.95,-1.551 2.962,-2.062 4.538,-1.153 0,0 24.843,14.344 33.855,19.547 -6.15,-3.821 -26.861,-16.685 -26.861,-16.685 -1.021,-0.634 -1.585,-1.73 -1.585,-2.852 0,-0.587 0.155,-1.181 0.478,-1.721 0.941,-1.57 2.969,-2.097 4.554,-1.181 0,0 39.645,22.889 71.001,40.994 C 62.606,386.88 17.88,358.604 17.88,358.604 c -1.008,-0.637 -1.563,-1.725 -1.563,-2.838 0,-0.593 0.157,-1.19 0.484,-1.732 0.945,-1.564 2.967,-2.084 4.548,-1.171 0,0 53.053,30.631 105.966,61.18 C 75.179,380.289 22.957,346.479 22.957,346.479 c -0.99,-0.64 -1.532,-1.717 -1.532,-2.819 0,-0.596 0.16,-1.202 0.494,-1.746 0.95,-1.553 2.963,-2.065 4.539,-1.156 0,0 31.337,18.094 45.248,26.125 -10.073,-6.227 -36.936,-22.832 -36.936,-22.832 -1.025,-0.633 -1.592,-1.731 -1.592,-2.857 0,-0.586 0.155,-1.177 0.476,-1.717 0.865,-1.447 2.636,-1.924 4.152,-1.292 -0.324,-0.2 -6.148,-3.764 -6.148,-3.764 -1.033,-0.631 -1.605,-1.733 -1.605,-2.864 0,-0.581 0.153,-1.172 0.472,-1.709 0.938,-1.579 2.971,-2.109 4.56,-1.192 0,0 56.725,32.751 113.416,65.483 C 96.153,360.357 43.628,326.46 43.628,326.46 c -0.992,-0.642 -1.536,-1.719 -1.536,-2.822 0,-0.596 0.159,-1.2 0.493,-1.745 0.948,-1.554 2.963,-2.066 4.539,-1.156 0,0 49.636,28.657 95.891,55.363 C 88.798,341.728 33.264,306.52 33.264,306.52 c -1.007,-0.639 -1.559,-1.725 -1.559,-2.837 0,-0.591 0.157,-1.19 0.485,-1.732 0.945,-1.562 2.966,-2.081 4.546,-1.169 0,0 60.099,34.698 120.174,69.384 -56.886,-36.515 -113.851,-73.079 -113.851,-73.079 -0.997,-0.64 -1.543,-1.719 -1.543,-2.825 0,-0.595 0.158,-1.198 0.49,-1.742 0.948,-1.556 2.964,-2.071 4.542,-1.161 0,0 48.715,28.125 92.61,53.469 -43.646,-27.547 -91.779,-57.927 -91.779,-57.927 -1.009,-0.636 -1.565,-1.725 -1.565,-2.84 0,-0.59 0.157,-1.189 0.484,-1.73 0.945,-1.564 2.967,-2.085 4.549,-1.172 0,0 42.963,24.806 73.872,42.651 -27.729,-17.268 -68.021,-42.361 -68.021,-42.361 -1.02,-0.636 -1.582,-1.729 -1.582,-2.849 0,-0.589 0.155,-1.184 0.478,-1.724 0.943,-1.569 2.969,-2.095 4.554,-1.179 0,0 51.628,29.807 98.351,56.784 -49.259,-30.96 -102.35,-64.326 -102.35,-64.326 -1.012,-0.636 -1.569,-1.727 -1.569,-2.843 0,-0.589 0.155,-1.187 0.482,-1.728 0.943,-1.566 2.966,-2.088 4.55,-1.175 0,0 46.639,26.929 62.416,36.038 -10.325,-6.187 -48.667,-29.161 -48.667,-29.161 -1.048,-0.628 -1.63,-1.74 -1.63,-2.88 0,-0.578 0.149,-1.164 0.464,-1.698 0.933,-1.587 2.972,-2.126 4.568,-1.203 0,0 85.611,49.426 165.49,95.543 C 154.203,305.344 62.665,249.514 62.665,249.514 c -1.036,-0.631 -1.609,-1.735 -1.609,-2.867 0,-0.582 0.152,-1.171 0.47,-1.709 0.938,-1.58 2.972,-2.112 4.562,-1.192 0,0 88.425,51.051 169.34,97.769 -77.824,-47.285 -163.615,-99.41 -163.615,-99.41 -1.038,-0.63 -1.613,-1.735 -1.613,-2.869 0,-0.582 0.151,-1.172 0.469,-1.706 0.937,-1.583 2.971,-2.114 4.563,-1.196 0,0 93.214,53.816 191.618,110.631 l -36.389,21.832 c -6.473,-3.735 -12.918,-7.458 -19.313,-11.15"
           style="fill:#110f0d;fill-opacity:1;fill-rule:nonzero;stroke:none"
           id="path94711"
           inkscape:connector-curvature="0" /></g></g></g></svg>