<?xml version="1.0" encoding="utf-8"?>
<!-- Generator: Adobe Illustrator 16.0.3, SVG Export Plug-In . SVG Version: 6.00 Build 0)  -->
<!DOCTYPE svg PUBLIC "-//W3C//DTD SVG 1.1//EN" "http://www.w3.org/Graphics/SVG/1.1/DTD/svg11.dtd">
<svg version="1.1" id="Layer_1" xmlns="http://www.w3.org/2000/svg" xmlns:xlink="http://www.w3.org/1999/xlink" x="0px" y="0px"
	 width="80px" height="80px" viewBox="-14 -14 80 80" enable-background="new -14 -14 80 80" xml:space="preserve">
<path fill="#FFB400" d="M39.633,49c-0.492,0-0.987-0.145-1.417-0.432l-12.212-8.141l-12.215,8.141
	c-0.892,0.598-2.059,0.57-2.926-0.061c-0.866-0.629-1.245-1.734-0.949-2.766l4.104-14.365L3.846,22.429
	c-0.788-0.71-1.055-1.828-0.676-2.814c0.378-0.987,1.326-1.641,2.385-1.641h13.007l5.036-13.331c0.377-0.989,1.326-1.64,2.384-1.643
	h0.003c1.056,0,2.003,0.651,2.384,1.637l5.063,13.337h13.011c1.061,0,2.007,0.652,2.387,1.641c0.38,0.988,0.109,2.104-0.677,2.814
	L37.98,31.377l4.104,14.365c0.294,1.031-0.085,2.137-0.947,2.766C40.692,48.834,40.162,49,39.633,49z"/>
</svg>
