<svg width="160" height="80" viewBox="0 0 80 40" xmlns="http://www.w3.org/2000/svg">
	<mask id="a">
		<path d="m0 0h16v10a2 2 0 0 0-2-2h-2a2 2 0 0 0-2 2 2 2 0 0 0-2 2v2a2 2 0 0 0 2 2h-10z"
			fill="#fff"/>
	</mask>
	<path d="m30.807 22.736a2.8006 2.8006 0 0 0-2.8006 2.8006v2.8006h5.6013v5.6013h2.8006a2.8006 2.8006 0 0 0 2.8006-2.8006v-5.6013a2.8006 2.8006 0 0 0-2.8006-2.8006zm2.8006 11.203h-5.6013v-5.6013h-2.8006a2.8006 2.8006 0 0 0-2.8006 2.8006v5.6013a2.8006 2.8006 0 0 0 2.8006 2.8006h5.6013a2.8006 2.8006 0 0 0 2.8006-2.8006z"
		fill="#5fb2ff" stroke-width="2.8007"/>
	<path transform="matrix(2.8006 0 0 2.8006 -2.8006 -2.47)" d="m8 2 6 3v6l-6 3-6-3v-6zm0 12v-6l6-3m-6 3-6-3"
		fill="none" mask="url(#a)" stroke="#fc7f7f" stroke-width="2"/>

	<mask id="b">
		<path d="m0 0h16v10a2 2 0 0 0-2-2h-2a2 2 0 0 0-2 2 2 2 0 0 0-2 2v2a2 2 0 0 0 2 2h-10z"
			fill="#fff"/>
	</mask>
	<path d="m71.533 22.983a2.8006 2.8006 0 0 0-2.8006 2.8006v2.8006h5.6013v5.6013h2.8006a2.8006 2.8006 0 0 0 2.8006-2.8006v-5.6013a2.8006 2.8006 0 0 0-2.8006-2.8006zm2.8006 11.203h-5.6013v-5.6013h-2.8006a2.8006 2.8006 0 0 0-2.8006 2.8006v5.6013a2.8006 2.8006 0 0 0 2.8006 2.8006h5.6013a2.8006 2.8006 0 0 0 2.8006-2.8006z"
		fill="#5fb2ff" stroke-width="2.8007"/>
	<path transform="matrix(2.8006 0 0 2.8006 37.925 -2.2222)" d="m4 6a4 4 0 0 1 8 0v4a4 4 0 0 1-8 0zm0 1.25a4 1.6 0 0 0 8 0m-4-5v12"
		fill="none" mask="url(#b)" stroke="#fc7f7f" stroke-width="2"/>
</svg>